<svg enable-background="new 0 0 50 50" viewBox="0 0 50 50" xmlns="http://www.w3.org/2000/svg"><path d="m30.2083 42.3611c-.6944 0-1.3889-.5208-1.5625-1.2152l-8.8541-26.2153-3.6459 10.7639c-.1736.5208-.868 1.0416-1.5625 1.0416h-6.9444c-1.0417 0-1.7361-.6944-1.7361-1.7361 0-1.0416.6944-1.7361 1.7361-1.7361h5.7291l4.8612-14.4097c.1736-.6944.868-1.2153 1.5625-1.2153.6944 0 1.3888.5208 1.5625 1.2153l8.8541 26.2153 3.6459-10.7639c.1736-.6945.868-1.2153 1.5625-1.2153h6.9444c1.0417 0 1.7361.6944 1.7361 1.7361s-.6944 1.7361-1.7361 1.7361h-5.7292l-4.8611 14.4097c-.1736.8681-.868 1.3889-1.5625 1.3889z" fill-opacity=".95"/></svg>