<svg viewBox="0 0 50 50" xmlns="http://www.w3.org/2000/svg"><path d="m35.3308 43.99889a2.30312 2.30312 0 0 1 -2.35412-2.35507c0-.2557-.0585-.28872-.15569-.3208a.66526.66526 0 0 0 -.20286-.03774.23732.23732 0 0 0 -.17549.06227 2.30709 2.30709 0 0 1 -3.37126.07265 2.28212 2.28212 0 0 1 0-3.2986c.16512-.16512.1387-.29155.10756-.35288a.30087.30087 0 0 0 -.25947-.18116h-.14342a2.32958 2.32958 0 0 1 -2.35505-2.35507 2.30311 2.30311 0 0 1 2.35506-2.35412.42073.42073 0 0 0 .33118-.18116.36952.36952 0 0 0 -.03585-.35477 2.307 2.307 0 0 1 -.07265-3.37031 2.18117 2.18117 0 0 1 1.62288-.70483 2.36078 2.36078 0 0 1 1.67667.70483.68634.68634 0 0 0 .30948.11605.77577.77577 0 0 1 .15379-.08586l.02831-.00849.09246-.00566c-.01792-.01416.02265-.084.02265-.167v-.14437a2.3546 2.3546 0 0 1 4.70919 0 .30968.30968 0 0 0 .10568.2406.61863.61863 0 0 0 .19531.04623.22633.22633 0 0 0 .1604-.06227 2.41184 2.41184 0 0 1 1.72195-.70577 2.27229 2.27229 0 0 1 1.64931.70483 2.18169 2.18169 0 0 1 .70482 1.57382 2.38439 2.38439 0 0 1 -.70483 1.72576c-.16512.16512-.1387.29061-.10757.351a.243.243 0 0 1 .09247.23211.63024.63024 0 0 0 .167.02264h.14341a2.32959 2.32959 0 0 1 2.35507 2.35507 2.30312 2.30312 0 0 1 -2.35507 2.35413.33051.33051 0 0 0 -.33118.18115.49062.49062 0 0 0 .07171.33213 2.23756 2.23756 0 0 1 .73218 1.62288 2.31855 2.31855 0 0 1 -.69538 1.69742 2.1812 2.1812 0 0 1 -1.62288.70483 2.36078 2.36078 0 0 1 -1.67667-.70483.37658.37658 0 0 0 -.2557-.13115.23378.23378 0 0 0 -.09813.02265.29939.29939 0 0 0 -.18021.25947v.14436a2.32959 2.32959 0 0 1 -2.35506 2.35503zm-2.7372-4.49312a1.57561 1.57561 0 0 1 .89919.1755 2.02686 2.02686 0 0 1 1.31152 1.89084c0 .39723.20192.59915.52649.59915a.48918.48918 0 0 0 .52744-.52744v-.14436a2.06274 2.06274 0 0 1 1.27376-1.90783 1.95035 1.95035 0 0 1 .87938-.21041 2.01036 2.01036 0 0 1 1.41908.6133c.1972.19814.29533.23117.43874.23117a.51985.51985 0 0 0 .368-.89448 2.225 2.225 0 0 1 -.4746-2.36922 2.0612 2.0612 0 0 1 1.90783-1.27471c.38685 0 .59915-.18682.59915-.5265a.48918.48918 0 0 0 -.52744-.52743h-.14341a2.066 2.066 0 0 1 -1.90878-1.27378c-.08586-.0651-.08586-.20475-.08586-.28778a2.0845 2.0845 0 0 1 .48875-2.08238.53464.53464 0 0 0 .07265-.80673.50426.50426 0 0 0 -.735-.00094 2.3344 2.3344 0 0 1 -1.56155.63311 2.17129 2.17129 0 0 1 -.80862-.15757 1.9865 1.9865 0 0 1 -1.27377-1.90783c0-.38119-.19248-.59914-.52744-.59914a.48865.48865 0 0 0 -.52649.52649v.14436a2.06215 2.06215 0 0 1 -1.27474 1.90784c-.06227.08681-.2038.08681-.28778.08681a1.74216 1.74216 0 0 1 -.61047.09718 2.08821 2.08821 0 0 1 -1.47191-.58594.66549.66549 0 0 0 -.46139-.22361.48253.48253 0 0 0 -.34534.151.50222.50222 0 0 0 0 .735 2.22626 2.22626 0 0 1 .4746 2.37016 2.04755 2.04755 0 0 1 -1.90783 1.3464c-.39723 0-.59914.20191-.59914.52649a.48918.48918 0 0 0 .52743.52744h.14342a2.066 2.066 0 0 1 1.90878 1.27377 1.94949 1.94949 0 0 1 -.40289 2.29751c-.19815.1972-.23117.29533-.23117.43969a.4604.4604 0 0 0 .15946.368.50214.50214 0 0 0 .73407 0 2.15187 2.15187 0 0 1 1.50588-.63313zm2.66549-1.27a3.075 3.075 0 1 1 3.075-3.075 3.07849 3.07849 0 0 1 -3.075 3.075zm0-4.32234a1.24736 1.24736 0 1 0 1.24736 1.24735 1.2487 1.2487 0 0 0 -1.24736-1.24735z" fill-opacity=".95" fill-rule="evenodd"/><g fill="none" stroke="#000" stroke-linecap="round"><path d="m7.02308 34.42322v-3.90944a6.28353 6.28353 0 0 1 6.28353-6.28353h12.32539a6.25937 6.25937 0 0 1 4.13016 1.548" stroke-miterlimit="10" stroke-width="2.46704"/><circle cx="19.4693" cy="13.70474" r="6.23371" stroke-miterlimit="10" stroke-width="2.46704"/><path d="m18.36442 30.36288-1.16016-1.05231 2.24628-2.41071 2.24628 2.41071-1.131 1.04315a1.63087 1.63087 0 0 1 -2.2014.00916z" stroke-linejoin="round" stroke-width="1.6447"/><path d="m18.46555 30.58s-1.5567 3.54314-1.5567 4.96619" stroke-linejoin="round" stroke-width="1.6447"/><path d="m20.43553 30.58s1.5567 3.54314 1.5567 4.96619" stroke-linejoin="round" stroke-width="1.6447"/><path d="m14.289 24.90744a17.3181 17.3181 0 0 0 1.058 5.489l3.31852-3.53391" stroke-linejoin="round" stroke-width="1.6447"/><path d="m24.61211 24.90744a17.3181 17.3181 0 0 1 -1.058 5.489l-3.31852-3.53391" stroke-linejoin="round" stroke-width="1.6447"/><path d="m19.469 26.804-1.262-2.048 1.262.862 1.263-.862z" stroke-linejoin="round" stroke-width="1.18931"/></g></svg>