<svg viewBox="0 0 50 50" xmlns="http://www.w3.org/2000/svg"><g fill="none" stroke="#000"><circle cx="25" cy="25" r="17.85725" stroke-miterlimit="10" stroke-width="2.5"/><g stroke-linecap="round"><path d="m13.11523 38.42371v-3.73308a6.00008 6.00008 0 0 1 6.00008-6.00008h11.76938a6.00008 6.00008 0 0 1 6.00008 6.00008v3.73308" stroke-miterlimit="10" stroke-width="2.35575"/><circle cx="25" cy="18.63985" r="5.9525" stroke-miterlimit="10" stroke-width="2.35575"/><path d="m23.945 34.54654-1.10782-1.00485 2.14494-2.302 2.145 2.302-1.08.9961a1.55731 1.55731 0 0 1 -2.10212.00875z" stroke-linejoin="round" stroke-width="1.5705"/><path d="m24.04153 34.7539a21.91666 21.91666 0 0 0 -1.48648 6.96743" stroke-linejoin="round" stroke-width="1.5705"/><path d="m25.92264 34.7539a21.91678 21.91678 0 0 1 1.48647 6.96743" stroke-linejoin="round" stroke-width="1.5705"/><path d="m20.05335 29.3372a16.5369 16.5369 0 0 0 1.0103 5.24138l3.16883-3.37449" stroke-linejoin="round" stroke-width="1.5705"/><path d="m29.91081 29.3372a16.5369 16.5369 0 0 1 -1.0103 5.24138l-3.16882-3.37449" stroke-linejoin="round" stroke-width="1.5705"/><path d="m25 31.148-1.206-1.955 1.206.822 1.206-.822z" stroke-linejoin="round" stroke-width="1.13566"/></g></g></svg>