<svg enable-background="new 0 0 50 50" viewBox="0 0 50 50" xmlns="http://www.w3.org/2000/svg"><path clip-rule="evenodd" d="m38.8889 35.4167h-1.7361c-1.0417 0-1.7361-.6945-1.7361-1.7361 0-1.0417.6944-1.7361 1.7361-1.7361h1.7361c1.0416 0 1.7361-.6945 1.7361-1.7361v-17.3612c0-1.0416-.6945-1.7361-1.7361-1.7361h-27.7778c-1.0417 0-1.7361.6945-1.7361 1.7361v17.3612c0 1.0416.6944 1.7361 1.7361 1.7361h1.7361c1.0417 0 1.7361.6944 1.7361 1.7361 0 1.0416-.6944 1.7361-1.7361 1.7361h-1.7361c-2.9514 0-5.2083-2.257-5.2083-5.2083v-17.3612c0-2.9513 2.257-5.2083 5.2083-5.2083h27.7778c2.9514 0 5.2083 2.2569 5.2083 5.2083v17.3612c0 2.9513-2.2569 5.2083-5.2083 5.2083zm-3.6458 5.9028c.3472-.6945.1736-1.3889-.1737-1.9098l-8.6805-10.4166c-.6945-.8681-2.0833-.8681-2.6042 0l-8.6805 10.4166c-.3473.5209-.5209 1.2153-.1736 1.9098.1736.6944.6944 1.0416 1.3888 1.0416h17.3612c.6944 0 1.2152-.3472 1.5625-1.0416zm-5.2084-2.4306-5.0347-5.9027-5.0347 5.9027z" fill-opacity=".95" fill-rule="evenodd"/></svg>