<svg enable-background="new 0 0 50 50" viewBox="0 0 50 50" xmlns="http://www.w3.org/2000/svg"><path clip-rule="evenodd" d="m40.625 12.8472c1.0417 0 1.7361.6944 1.7361 1.7361 0 1.0416-.6944 1.7361-1.7361 1.7361h-31.25c-1.0417 0-1.7361-.6945-1.7361-1.7361 0-1.0417.6944-1.7361 1.7361-1.7361zm-31.25 10.4166h24.3056c1.0416 0 1.7361-.6944 1.7361-1.7361 0-1.0416-.6945-1.7361-1.7361-1.7361h-24.3056c-1.0417 0-1.7361.6945-1.7361 1.7361 0 1.0417.6944 1.7361 1.7361 1.7361zm32.9861 5.2084c0-1.0417-.6944-1.7362-1.7361-1.7362h-31.25c-1.0417 0-1.7361.6945-1.7361 1.7362 0 1.0416.6944 1.7361 1.7361 1.7361h31.25c1.0417 0 1.7361-.6945 1.7361-1.7361zm-8.6805 5.2083c1.0416 0 1.7361.6944 1.7361 1.7361s-.6945 1.7361-1.7361 1.7361h-24.3056c-1.0417 0-1.7361-.6944-1.7361-1.7361s.6944-1.7361 1.7361-1.7361z" fill-opacity=".95" fill-rule="evenodd"/></svg>