<svg enable-background="new 0 0 50 50" viewBox="0 0 50 50" xmlns="http://www.w3.org/2000/svg"><path d="m25 11.1111c.9588 0 1.7361.7773 1.7361 1.7361v20.1128l9.1891-9.1876c.678-.678 1.7772-.678 2.4552 0s.678 1.7772 0 2.4552l-12.1528 12.1528c-.0494.0494-.1018.0958-.1568.139l.1568-.139c-.0614.0614-.1263.1173-.1941.1676-.0419.031-.0851.0601-.1296.0873-.0209.0129-.0421.0253-.0635.0371-.0343.0189-.0698.037-.1058.0539-.0296.0138-.0596.0268-.0899.0389-.0343.0137-.0687.0262-.1035.0376-.0258.0084-.0525.0164-.0794.0238-.0374.0105-.0751.0195-.1132.0273-.0302.006-.0605.0113-.0908.0158-.0354.0054-.0719.0097-.1088.0129-.0311.0025-.0612.0043-.0913.0053-.0188.0006-.0382.001-.0577.001l-.056-.0009c-.0313-.001-.0625-.0029-.0937-.0056l.1497.0065c-.0879 0-.1742-.0066-.2586-.0192-.0295-.0045-.0598-.0098-.0899-.016-.0382-.0076-.0759-.0166-.113-.0269-.0271-.0076-.0539-.0156-.0804-.0243-.0341-.0111-.0685-.0236-.1023-.0371-.0308-.0123-.0608-.0253-.0906-.0392-.0358-.0168-.0713-.0349-.106-.0541-.021-.0115-.0422-.0239-.0632-.0367-.0444-.0273-.0875-.0564-.1293-.0874-.0129-.0094-.0254-.019-.0379-.0288-.0546-.043-.107-.0894-.1564-.1388l-12.1528-12.1528c-.678-.678-.678-1.7772 0-2.4552s1.7772-.678 2.4552 0l9.1891 9.1876v-20.1128c0-.9588.7773-1.7361 1.7361-1.7361z" fill-opacity=".95"/></svg>