<svg enable-background="new 0 0 50 50" viewBox="0 0 50 50" xmlns="http://www.w3.org/2000/svg"><path clip-rule="evenodd" d="m25 5.9027c-10.5903 0-19.0972 8.507-19.0972 19.0972 0 10.5903 8.5069 19.0973 19.0972 19.0973s19.0972-8.507 19.0972-19.0973c0-10.5902-8.5069-19.0972-19.0972-19.0972zm0 34.7223c-8.6806 0-15.625-6.9445-15.625-15.625 0-8.6806 6.9444-15.625 15.625-15.625s15.625 6.9444 15.625 15.625c0 8.6805-6.9444 15.625-15.625 15.625zm8.5716-16.0914c-.0349-.0843-.0646-.1562-.0646-.2281 0-.1736-.1737-.3472-.3473-.5208l-6.9444-6.9445c-.6945-.6944-1.7361-.6944-2.4306 0-.6944.6945-.6944 1.7361 0 2.4306l3.9931 3.993h-9.7222c-1.0417 0-1.7361.6945-1.7361 1.7361 0 1.0417.6944 1.7361 1.7361 1.7361h9.7222l-3.9931 3.9931c-.6944.6944-.6944 1.7361 0 2.4306.3473.3472.6945.5208 1.2153.5208s.8681-.1736 1.2153-.5208l6.9444-6.9445c.1736-.1736.3473-.3472.3473-.5208.1736-.1736.1736-.5209.1736-.6945 0-.2034-.0596-.3472-.109-.4663z" fill-opacity=".95" fill-rule="evenodd"/></svg>