<svg enable-background="new 0 0 50 50" viewBox="0 0 50 50" xmlns="http://www.w3.org/2000/svg"><path clip-rule="evenodd" d="m44.0972 24.9999c0 10.5903-8.5069 19.0973-19.0972 19.0973s-19.0972-8.507-19.0972-19.0973c0-10.5902 8.5069-19.0972 19.0972-19.0972s19.0972 8.507 19.0972 19.0972zm-10.9375-1.2152c.6945.6944.6945 1.7361 0 2.4305l-6.9444 6.9445c-.1736.1736-.3473.3472-.5209.3472-.1736.1736-.5208.1736-.6944.1736s-.5208 0-.6945-.1736c-.1736 0-.3472-.1736-.5208-.3472l-6.9444-6.9445c-.6945-.6944-.6945-1.7361 0-2.4305.6944-.6945 1.7361-.6945 2.4305 0l3.9931 3.993v-9.7222c0-1.0417.6944-1.7361 1.7361-1.7361s1.7361.6944 1.7361 1.7361v9.7222l3.9931-3.993c.6944-.6945 1.7361-.6945 2.4305 0zm-8.1597-14.4097c8.6805 0 15.625 6.9445 15.625 15.625s-6.9445 15.625-15.625 15.625c-8.6806 0-15.625-6.9445-15.625-15.625 0-8.6806 6.9444-15.625 15.625-15.625z" fill-opacity=".95" fill-rule="evenodd"/></svg>