<svg enable-background="new 0 0 50 50" viewBox="0 0 50 50" xmlns="http://www.w3.org/2000/svg"><path d="m33.6806 14.5834c.9588 0 1.7361.7773 1.7361 1.7361v17.3611l-.001.0577c-.001.0301-.0027.0602-.0053.0903l.0063-.148c0 .0879-.0066.1742-.0192.2586-.0045.0295-.0098.0598-.016.0899-.0076.0382-.0166.0759-.0268.113-.0076.0271-.0157.0539-.0244.0804-.0111.0341-.0235.0685-.0371.1023-.0123.0308-.0253.0608-.0392.0906-.0168.0358-.0349.0713-.0541.106-.0115.021-.0239.0422-.0367.0632-.0273.0444-.0564.0875-.0873.1293-.0095.0129-.0191.0254-.0289.0379-.0861.1097-.1856.2091-.2957.2955l.1569-.1391c-.0615.0615-.1264.1173-.1941.1676-.042.031-.0851.0601-.1296.0873-.0209.013-.0421.0253-.0635.0372-.0344.0188-.0698.0369-.1059.0538-.0295.0139-.0595.0268-.0899.039-.0343.0137-.0686.0262-.1034.0376-.0259.0084-.0526.0164-.0794.0238-.0375.0104-.0751.0194-.1132.0272-.0303.006-.0605.0113-.0909.0159-.0353.0054-.0719.0097-.1088.0128-.031.0026-.0611.0044-.0912.0054-.0188.0006-.0383.0009-.0577.0009h-17.3611c-.9589 0-1.7362-.7773-1.7362-1.7361s.7773-1.7361 1.7362-1.7361h13.1684l-14.3961-14.3974c-.678-.678-.678-1.7772 0-2.4552s1.7773-.678 2.4553 0l14.3974 14.396v-13.1684c0-.9588.7772-1.7361 1.7361-1.7361z" fill-opacity=".95"/></svg>