<svg enable-background="new 0 0 50 50" viewBox="0 0 50 50" xmlns="http://www.w3.org/2000/svg"><path clip-rule="evenodd" d="m38.8889 18.0266c0-7.623-6.25-13.86-13.8889-13.86s-13.8889 6.237-13.8889 13.86c0 4.5045 2.0833 8.4893 5.382 10.9148l-1.9098 14.8995c-.1736.693.1736 1.386.6945 1.7325.5208.3465 1.2153.3465 1.9097 0l7.8125-4.6777 7.8125 4.6777c.1736.1733.5208.1733.8681.1733.3472 0 .6944-.1733.868-.3465.5209-.3465.8681-1.0395.6945-1.7325l-1.9098-14.7263c3.4723-2.4255 5.5556-6.4103 5.5556-10.9148zm-24.3056 0c0-5.7172 4.6875-10.395 10.4167-10.395s10.4167 4.6778 10.4167 10.395c0 5.7173-4.6875 10.3951-10.4167 10.3951s-10.4167-4.6778-10.4167-10.3951zm11.2848 19.404 5.5555 3.2918-1.2153-9.8753c-1.5625.693-3.2986 1.0395-5.2083 1.0395s-3.6458-.3465-5.2083-1.0395l-1.2153 9.8753 5.5555-3.2918c.5209-.3465 1.2153-.3465 1.7362 0z" fill-opacity=".95" fill-rule="evenodd"/></svg>