<svg enable-background="new 0 0 50 50" viewBox="0 0 50 50" xmlns="http://www.w3.org/2000/svg"><path clip-rule="evenodd" d="m33.6805 12.8473h-24.3055c-2.9514 0-5.2083 2.2569-5.2083 5.2083v13.8889c0 2.9514 2.2569 5.2083 5.2083 5.2083h24.3055c2.9514 0 5.2084-2.2569 5.2084-5.2083v-13.8889c0-2.9514-2.257-5.2083-5.2084-5.2083zm1.7361 19.0972c0 1.0417-.6944 1.7361-1.7361 1.7361h-24.3055c-1.0417 0-1.7361-.6944-1.7361-1.7361v-13.8889c0-1.0416.6944-1.7361 1.7361-1.7361h24.3055c1.0417 0 1.7361.6945 1.7361 1.7361zm10.4167-5.2083v-3.4722c0-1.0417-.6944-1.7361-1.7361-1.7361-1.0416 0-1.7361.6944-1.7361 1.7361v3.4722c0 1.0417.6945 1.7361 1.7361 1.7361 1.0417 0 1.7361-.6944 1.7361-1.7361z" fill-opacity=".95" fill-rule="evenodd"/></svg>