<svg enable-background="new 0 0 50 50" viewBox="0 0 50 50" xmlns="http://www.w3.org/2000/svg"><path clip-rule="evenodd" d="m12.8472 37.1528c1.0417 0 1.7361-.6944 1.7361-1.7361 0-1.0416-.6944-1.7361-1.7361-1.7361h-3.4722c-1.0417 0-1.7361-.6944-1.7361-1.7361v-13.8889c0-1.0416.6944-1.7361 1.7361-1.7361h5.5556c1.0416 0 1.7361-.6944 1.7361-1.7361s-.6945-1.7361-1.7361-1.7361h-5.5556c-2.9514 0-5.2083 2.2569-5.2083 5.2083v13.8889c0 2.9514 2.257 5.2083 5.2083 5.2083zm17.3611-24.3055h3.4722c2.9514 0 5.2084 2.2569 5.2084 5.2083v13.8889c0 2.9514-2.257 5.2083-5.2084 5.2083h-5.5555c-1.0417 0-1.7361-.6944-1.7361-1.7361 0-1.0416.6944-1.7361 1.7361-1.7361h5.5555c1.0417 0 1.7362-.6944 1.7362-1.7361v-13.8889c0-1.0416-.6945-1.7361-1.7362-1.7361h-3.4722c-1.0416 0-1.7361-.6944-1.7361-1.7361s.6945-1.7361 1.7361-1.7361zm13.8889 8.6806c-1.0416 0-1.7361.6944-1.7361 1.7361v3.4722c0 1.0417.6945 1.7361 1.7361 1.7361 1.0417 0 1.7361-.6944 1.7361-1.7361v-3.4722c0-1.0417-.6944-1.7361-1.7361-1.7361zm-17.3611 1.7361c.6944 0 1.2153.3472 1.5625.868.3472.6945.1736 1.2153-.1736 1.9098l-6.9445 10.4166c-.3472.3472-.868.6945-1.3888.6945-.3473 0-.6945-.1736-1.0417-.3473-.8681-.5208-1.0417-1.5625-.5208-2.4305l5.2083-7.6389h-7.1181c-.6944 0-1.2152-.3472-1.3889-.8681-.3472-.5208-.3472-1.2152 0-1.7361l6.9445-10.4166c.5208-.8681 1.5625-1.0417 2.4305-.5209.8681.5209 1.0417 1.5625.5209 2.4306l-5.2084 7.6389z" fill-opacity=".95" fill-rule="evenodd"/></svg>