<svg enable-background="new 0 0 50 50" viewBox="0 0 50 50" xmlns="http://www.w3.org/2000/svg"><path clip-rule="evenodd" d="m44.0972 33.6805c0 1.0417-.6944 1.7361-1.7361 1.7361h-34.7222c-1.0417 0-1.7361-.6944-1.7361-1.7361s.6944-1.7361 1.7361-1.7361c1.9097 0 3.4722-1.5625 3.4722-3.4722v-8.6806c0-7.6389 6.25-13.8889 13.8889-13.8889s13.8889 6.25 13.8889 13.8889v8.6806c0 1.9097 1.5625 3.4722 3.4722 3.4722 1.0417 0 1.7361.6944 1.7361 1.7361zm-14.5833 7.8125c-1.0417 1.7361-2.7778 2.6041-4.5139 2.6041-.8681 0-1.7361-.1736-2.6042-.6944-.868-.5208-1.3889-1.0417-1.9097-1.9097-.5208-.8681-.1736-1.9097.6944-2.4306.8681-.5208 1.9098-.1736 2.4306.6945.0526.0525.1051.121.1625.1958.1322.1721.2899.3776.5319.4986.8681.5208 1.9098.1736 2.4306-.6944.5208-.8681 1.5625-1.0417 2.4306-.6945.868.3472.868 1.5625.3472 2.4306zm5.9028-13.0208c0 1.2153.3472 2.4305.868 3.4722h-22.5694c.5208-1.0417.868-2.2569.868-3.4722v-8.6806c0-5.7291 4.6875-10.4166 10.4167-10.4166s10.4167 4.6875 10.4167 10.4166z" fill-opacity=".95" fill-rule="evenodd"/></svg>