<svg enable-background="new 0 0 50 50" viewBox="0 0 50 50" xmlns="http://www.w3.org/2000/svg"><path clip-rule="evenodd" d="m36.6319 16.6737c.6945-.6945.6945-1.7362 0-2.4306l-9.5486-9.5486c-.5208-.5208-1.2153-.6944-1.9097-.3472-.6945.1736-1.0417.8681-1.0417 1.5625v14.9305l-6.5972-6.5972c-.6944-.6944-1.7361-.6944-2.4306 0-.6944.6944-.6944 1.7361 0 2.4306l8.3334 8.3333-8.3334 8.3333c-.6944.6945-.6944 1.7361 0 2.4306.6945.6944 1.7362.6944 2.4306 0l6.5972-6.5972v14.9305c0 .6945.3472 1.3889 1.0417 1.5625.1736.1736.5208.1736.6944.1736.5209 0 .8681-.1736 1.2153-.5208l9.5486-9.5486c.6945-.6945.6945-1.7361 0-2.4306l-8.3333-8.3333zm-9.0278-6.5972 5.382 5.3819-5.382 5.3819zm5.382 24.4791-5.382-5.382v10.7639z" fill-opacity=".95" fill-rule="evenodd"/></svg>