<svg enable-background="new 0 0 50 50" viewBox="0 0 50 50" xmlns="http://www.w3.org/2000/svg"><path clip-rule="evenodd" d="m16.3194 7.6389h17.3611c2.9514 0 5.2084 2.2569 5.0348 5.2083v27.7778c0 .6945-.3473 1.2153-.8681 1.5625-.3472.1736-.5208.1736-.868.1736-.3473 0-.6945-.1736-1.0417-.3472l-11.1111-7.9861-11.1111 7.9861c-.5209.3472-1.2153.5208-1.7361.1736-.5209-.3472-.8681-.868-.8681-1.5625v-27.7778c0-2.9513 2.257-5.2083 5.2083-5.2083zm9.7223 22.9167 9.375 6.7708v-24.4791c0-1.0417-.6945-1.7361-1.7361-1.7361h-17.3612c-1.0416 0-1.7361.6944-1.7361 1.7361v24.4791l9.375-6.7708c.3473-.1736.6945-.3472 1.0417-.3472s.6944.1736 1.0417.3472z" fill-opacity=".95" fill-rule="evenodd"/></svg>