<svg enable-background="new 0 0 50 50" viewBox="0 0 50 50" xmlns="http://www.w3.org/2000/svg"><path clip-rule="evenodd" d="m27.257 5.2083 13.8888 6.9445c1.9098.868 2.9514 2.6041 2.9514 4.5139v16.493c0 2.0834-1.2152 3.8195-2.9514 4.6875l-13.8888 6.9445c-.6945.3472-1.3889.5208-2.257.5208-.6944 0-1.5625-.1736-2.2569-.5208l-13.8889-6.9445c-1.9097-.868-2.9514-2.7778-2.9514-4.6875v-16.493c0-1.9098 1.0417-3.6459 2.7778-4.5139l13.8889-6.9445c1.5625-.6944 3.2986-.6944 4.6875 0zm-2.257 2.7778c-.1736 0-.5208 0-.6944.1736l-12.8473 6.4236 13.5417 6.7708 13.5417-6.7708-12.8473-6.4236c-.1736-.1736-.3472-.1736-.6944-.1736zm-14.7569 26.9097c-.5209-.3472-.8681-1.0417-.8681-1.5625v-15.9722l13.8889 6.9444v17.0139zm16.493 6.4236 12.8472-6.4236c.6945-.3472 1.0417-.868 1.0417-1.5625v-15.9722l-13.8889 6.9444z" fill-opacity=".95" fill-rule="evenodd"/></svg>