<svg enable-background="new 0 0 50 50" viewBox="0 0 50 50" xmlns="http://www.w3.org/2000/svg"><path clip-rule="evenodd" d="m38.8889 14.5834h-5.2083v-1.7362c0-2.9513-2.257-5.2083-5.2084-5.2083h-6.9444c-2.9514 0-5.2083 2.2569-5.2083 5.2083v1.7362h-5.2084c-2.9514 0-5.2083 2.2569-5.2083 5.2083v17.3611c0 2.9514 2.2569 5.2083 5.2083 5.2083h27.7778c2.9514 0 5.2083-2.2569 5.2083-5.2083v-17.3611c0-2.9514-2.2569-5.2083-5.2083-5.2083zm-19.0972-1.7361c0-1.0417.6944-1.7361 1.7361-1.7361h6.9444c1.0417 0 1.7361.6944 1.7361 1.7361v1.7361h-10.4166zm10.4166 26.0416v-20.8333h-10.4166v20.8333zm-20.8333-1.7361v-17.3611c0-1.0417.6944-1.7361 1.7361-1.7361h5.2083v20.8333h-5.2083c-1.0417 0-1.7361-.6944-1.7361-1.7361zm29.5139 1.7361c1.0417 0 1.7361-.6944 1.7361-1.7361v-17.3611c0-1.0417-.6944-1.7361-1.7361-1.7361h-5.2083v20.8333z" fill-opacity=".95" fill-rule="evenodd"/></svg>