<svg enable-background="new 0 0 50 50" viewBox="0 0 50 50" xmlns="http://www.w3.org/2000/svg"><path clip-rule="evenodd" d="m11.1379 9.375h27.7778c2.9514 0 5.2083 2.2569 5.2083 5.2083v20.8334c0 2.9514-2.2569 5.2083-5.2083 5.2083h-10.4167c-1.0417 0-1.7361-.6944-1.7361-1.7361s.6944-1.7361 1.7361-1.7361h10.4167c1.0416 0 1.7361-.6945 1.7361-1.7361v-20.8334c0-1.0416-.6945-1.7361-1.7361-1.7361h-27.7778c-1.0417 0-1.7361.6945-1.7361 1.7361v3.4723c0 1.0416-.6944 1.7361-1.7361 1.7361s-1.7361-.6945-1.7361-1.7361v-3.4723c0-2.9514 2.2569-5.2083 5.2083-5.2083zm3.6458 31.25c.8681-.1736 1.5625-1.2153 1.3889-2.0833-.868-4.1667-3.993-7.2917-8.1597-8.1597-1.0417-.1736-1.9097.5208-2.0833 1.3889-.1736.868.5208 1.9097 1.3889 2.0833 2.7778.5208 4.8612 2.6042 5.382 5.3819.1736.8681.868 1.3889 1.7361 1.3889zm-6.9444-17.1875c-.8681-.1736-1.7361.5208-1.9097 1.5625-.1736.8681.5208 1.7361 1.5625 1.9097 6.4236.6945 11.632 5.7292 12.3263 12.3264 0 .6945.6945 1.3889 1.5625 1.3889h.1737c.868-.1736 1.5625-1.0417 1.5625-1.9097-.8681-8.1597-7.1181-14.4097-15.2778-15.2778zm-1.3889 14.2361c.1736-.1736.3472-.3472.5208-.3472.6944-.3472 1.3889-.1736 1.9097.3472.3472.3472.5208.6945.5208 1.2153s-.1736.868-.5208 1.2153c-.3472.3472-.6944.5208-1.2153.5208-.5208 0-.8681-.1736-1.2153-.5208-.3472-.3473-.5208-.6945-.5208-1.2153.0001-.5208.1737-.8681.5209-1.2153z" fill-opacity=".95" fill-rule="evenodd"/></svg>