<svg enable-background="new 0 0 50 50" viewBox="0 0 50 50" xmlns="http://www.w3.org/2000/svg"><path clip-rule="evenodd" d="m44.0972 24.9999v-1.5625c0-1.0416-.6944-1.7361-1.7361-1.7361s-1.7361.6945-1.7361 1.7361v1.5625c0 8.6806-6.9445 15.625-15.625 15.625-8.6806 0-15.625-6.9444-15.625-15.625 0-8.6805 6.9444-15.625 15.625-15.625 2.2569 0 4.3403.5208 6.4236 1.3889.8681.3472 1.9097 0 2.2569-.868.3473-.8681 0-1.9097-.868-2.2569-2.4306-1.2154-5.2083-1.7362-7.8125-1.7362-10.5903 0-19.0972 8.507-19.0972 19.0972 0 10.5903 8.5069 19.0973 19.0972 19.0973s19.0972-8.507 19.0972-19.0973zm-1.2153-16.8403c.6945-.6944 1.7361-.6944 2.4306 0 .6944.6945.6944 1.7361 0 2.4306l-19.0972 19.0972c-.3473.3472-.8681.5208-1.2153.5208s-.8681-.1736-1.2153-.5208l-5.2083-5.2083c-.6945-.6945-.6945-1.7361 0-2.4306.6944-.6944 1.7361-.6944 2.4305 0l3.9931 3.9931z" fill-opacity=".95" fill-rule="evenodd"/></svg>