<svg enable-background="new 0 0 50 50" viewBox="0 0 50 50" xmlns="http://www.w3.org/2000/svg"><path clip-rule="evenodd" d="m24.4792 29.6875 19.0972-19.0972c.6944-.6944.6944-1.7361 0-2.4305-.6945-.6944-1.7361-.6944-2.4306 0l-17.8819 17.882-3.9931-3.9931c-.6944-.6944-1.7361-.6944-2.4305 0-.6945.6945-.6945 1.7361 0 2.4306l5.2083 5.2083c.3472.3472.6944.5209 1.2153.5209.5208-.0001.868-.1738 1.2153-.521zm12.6736-4.6875c0-1.0416.6944-1.7361 1.7361-1.7361 1.0416 0 1.7361.6945 1.7361 1.7361v12.1528c0 2.9514-2.257 5.2083-5.2083 5.2083h-24.3056c-2.9514 0-5.2083-2.2569-5.2083-5.2083v-24.3056c0-2.9513 2.257-5.2083 5.2083-5.2083h19.0972c1.0417 0 1.7361.6944 1.7361 1.7361s-.6944 1.7361-1.7361 1.7361h-19.0972c-1.0417 0-1.7361.6945-1.7361 1.7361v24.3056c0 1.0417.6944 1.7361 1.7361 1.7361h24.3056c1.0416 0 1.7361-.6944 1.7361-1.7361z" fill-opacity=".95" fill-rule="evenodd"/></svg>