<svg enable-background="new 0 0 50 50" viewBox="0 0 50 50" xmlns="http://www.w3.org/2000/svg"><path clip-rule="evenodd" d="m15.1041 22.0487c-.6944.6944-.6944 1.7361 0 2.4305.6945.6945 1.7362.6945 2.4306 0l7.4653-7.4652 7.4653 7.4652c.3472.3473.6944.5209 1.2152.5209.5209 0 .8681-.1736 1.2153-.5209.6945-.6944.6945-1.7361 0-2.4305l-8.6805-8.6806c-.6945-.6944-1.7362-.6944-2.4306 0zm0 12.1527 8.6806-8.6805c.6944-.6945 1.7361-.6945 2.4306 0l8.6805 8.6805c.6945.6945.6945 1.7361 0 2.4306-.3472.3472-.868.5208-1.2153.5208-.3472 0-.868-.1736-1.2152-.5208l-7.4653-7.4653-7.4653 7.4653c-.6944.6944-1.7361.6944-2.4306 0-.6944-.6945-.6944-1.7361 0-2.4306z" fill-opacity=".95" fill-rule="evenodd"/></svg>