<svg enable-background="new 0 0 50 50" viewBox="0 0 50 50" xmlns="http://www.w3.org/2000/svg"><path clip-rule="evenodd" d="m25 5.9027c-10.5903 0-19.0972 8.507-19.0972 19.0972 0 10.5903 8.5069 19.0973 19.0972 19.0973s19.0972-8.507 19.0972-19.0973c0-10.5902-8.5069-19.0972-19.0972-19.0972zm0 34.7223c-8.6806 0-15.625-6.9445-15.625-15.625 0-8.6806 6.9444-15.625 15.625-15.625s15.625 6.9444 15.625 15.625c0 8.6805-6.9444 15.625-15.625 15.625zm6.4236-9.2015c.6945-.6944.6945-1.7361 0-2.4305l-4.6875-4.6875v-9.7223c0-1.0416-.6944-1.7361-1.7361-1.7361-1.0416 0-1.7361.6945-1.7361 1.7361v10.4167c0 .5208.1736.8681.5208 1.2153l5.2084 5.2083c.3472.3472.6944.5209 1.2153.5209.5208 0 .868-.1737 1.2152-.5209z" fill-opacity=".95" fill-rule="evenodd"/></svg>