<svg enable-background="new 0 0 50 50" viewBox="0 0 50 50" xmlns="http://www.w3.org/2000/svg"><path clip-rule="evenodd" d="m34.1841 15.0001c4 0 7.5 2.3333 9.1667 6 1 2.5 1.1667 5.1667.3333 7.8333-1 2.5-2.8333 4.5-5.3333 5.5-.1667.1667-.5.1667-.6667.1667-.6666 0-1.1666-.3333-1.5-1-.3333-.8333 0-1.8333.8334-2.1667 1.6666-.6666 2.8333-2 3.5-3.6666.6666-1.6667.5-3.5-.1667-5.1667-1.1667-2.5-3.5-4-6.1667-4h-2.1666c-.8334 0-1.5-.6667-1.6667-1.3333-1.5-6.1667-8-10-14.1667-8.3334-6.1666 1.5-10 8-8.3333 14.1667.6667 2.3333 2 4.6667 4 6.1667.8333.5.8333 1.6666.3333 2.3333-.5.8333-1.6666.8333-2.3333.3333-2.5-2-4.3333-4.8333-5.1667-8-2.1666-8.1666 2.6667-16.3333 10.8334-18.3333 7.5-2 15.3333 2.1667 17.8333 9.5zm-16.6666 10c-1 0-1.6667.6667-1.6667 1.6667v3.3333c0 1 .6667 1.6667 1.6667 1.6667s1.6667-.6667 1.6667-1.6667v-3.3333c0-1-.6667-1.6667-1.6667-1.6667zm1.6667 11.6666v3.3334c0 1-.6667 1.6666-1.6667 1.6666s-1.6667-.6666-1.6667-1.6666v-3.3334c0-1 .6667-1.6666 1.6667-1.6666s1.6667.6666 1.6667 1.6666zm9.9999 0c0-1 .6667-1.6666 1.6667-1.6666s1.6667.6666 1.6667 1.6666v3.3334c0 1-.6667 1.6666-1.6667 1.6666s-1.6667-.6666-1.6667-1.6666zm1.6667-11.6666c-1 0-1.6667.6667-1.6667 1.6667v3.3333c0 1 .6667 1.6667 1.6667 1.6667s1.6667-.6667 1.6667-1.6667v-3.3333c0-1-.6667-1.6667-1.6667-1.6667zm-8.3333 15c0-1 .6666-1.6666 1.6666-1.6666s1.6667.6666 1.6667 1.6666v3.3334c0 .9999-.6667 1.6666-1.6667 1.6666s-1.6666-.6667-1.6666-1.6666zm1.6666-11.6666c-1 0-1.6666.6666-1.6666 1.6666v3.3334c0 1 .6666 1.6666 1.6666 1.6666s1.6667-.6666 1.6667-1.6666v-3.3334c0-1-.6667-1.6666-1.6667-1.6666z" fill-opacity=".95" fill-rule="evenodd"/></svg>