<svg enable-background="new 0 0 50 50" viewBox="0 0 50 50" xmlns="http://www.w3.org/2000/svg"><path clip-rule="evenodd" d="m44.0972 18.9236v12.1527.3473c-.0635.0635-.1038.1271-.1549.2076-.0885.1396-.2093.3302-.5395.6604-.1736 0-.3472.1736-.5209.3472l-17.3611 11.2848h-.1736-.1736c-.1736.1736-.3472.1736-.5208.1736-.0868 0-.1736-.0434-.2604-.0868-.0869-.0434-.1737-.0868-.2605-.0868h-.1736-.1736l-17.3611-11.2848c-.1073 0-.1483-.0663-.2049-.1579-.035-.0566-.076-.123-.1423-.1893 0-.0868-.0434-.1736-.0868-.2604s-.0868-.1736-.0868-.2604v-.1736-.3472-12.1528-.3472-.1737c.1073-.1072.1483-.2145.2049-.3628.035-.0917.076-.199.1423-.3316.1736-.1736.3472-.3472.6944-.3472l17.3611-11.2847h.1737.1736c.3472-.1736.868-.1736 1.2152 0h.1737.1736l17.3611 11.2847c.1073 0 .1483.0663.2049.1579.035.0567.076.123.1423.1893 0 .0868.0434.1736.0868.2604s.0868.1736.0868.2604v.1736zm-30.7291 6.0764-3.9931-2.7778v5.5556zm11.6319 3.993-5.7292-3.9931 5.7292-3.993 5.7292 3.993zm1.7361-18.2291v7.2916l6.9445 4.8611 5.5555-3.993zm-3.4722 7.2916-6.9445 4.8611-5.5555-3.993 12.5-8.1597zm0 13.8889-6.9445-4.8611-5.5555 3.8194 12.5 8.1598zm3.4722 0 6.9445-4.8611 5.5555 3.8194-12.5 8.3334zm13.8889-9.7222-3.9931 2.7778 3.9931 2.7778z" fill-opacity=".95" fill-rule="evenodd"/></svg>