<svg enable-background="new 0 0 50 50" viewBox="0 0 50 50" xmlns="http://www.w3.org/2000/svg"><path clip-rule="evenodd" d="m5.9028 25c0-10.5903 8.5069-19.0972 19.0972-19.0972s19.0972 8.5069 19.0972 19.0972-8.5069 19.0972-19.0972 19.0972-19.0972-8.5069-19.0972-19.0972zm3.4722 0c0 8.6806 6.9444 15.625 15.625 15.625s15.625-6.9444 15.625-15.625c0-8.6805-6.9444-15.625-15.625-15.625s-15.625 6.9445-15.625 15.625zm22.3958-9.0278-10.9375 3.6458c-.5208.1736-1.0416.6945-1.2152 1.2153l-3.6459 11.1111c-.1736.6945 0 1.3889.3472 1.7361.3473.3472.6945.5209 1.2153.5209.1736 0 .3472 0 .5209-.1737l11.1111-3.6458c.5208-.1736.868-.5208 1.0416-1.0417l3.6459-11.1111c.1736-.6944 0-1.3889-.3473-1.7361-.3472-.5208-1.0416-.6944-1.7361-.5208zm-11.4583 13.5417 6.9444-2.2569 2.257-6.9445-6.9445 2.257z" fill-opacity=".95" fill-rule="evenodd"/></svg>