<svg enable-background="new 0 0 50 50" viewBox="0 0 50 50" xmlns="http://www.w3.org/2000/svg"><path d="m40.1042 21.0069-8.6806 8.6806c-.3472.3472-.6944.5208-1.2153.5208-.5208 0-.868-.1736-1.2152-.5208-.6945-.6944-.6945-1.7361 0-2.4306l5.7291-5.7291h-16.6666c-2.9514 0-5.2084 2.2569-5.2084 5.2083v12.1528c0 1.0417-.6944 1.7361-1.7361 1.7361s-1.7361-.6944-1.7361-1.7361v-12.1528c0-4.8611 3.8194-8.6805 8.6806-8.6805h16.6666l-5.7291-5.7292c-.6945-.6945-.6945-1.7361 0-2.4306.6944-.6944 1.7361-.6944 2.4305 0l8.6806 8.6806c.1736.1736.3472.3472.3472.5208.1736.3472.1736.8681 0 1.3889 0 .1736-.1736.3472-.3472.5208z" fill-opacity=".95"/></svg>