<svg enable-background="new 0 0 50 50" viewBox="0 0 50 50" xmlns="http://www.w3.org/2000/svg"><path d="m40.625 38.8455c0 1.0417-.6944 1.7361-1.7361 1.7361h-12.1528c-4.8611 0-8.6805-3.8194-8.6805-8.6806v-16.6666l-5.7292 5.7291c-.6945.6945-1.7361.6945-2.4306 0-.6944-.6944-.6944-1.7361 0-2.4305l8.6806-8.6806c.1736-.1736.3472-.3472.5208-.3472.5209-.1736.8681-.1736 1.3889 0 .1736.1736.3472.1736.5208.3472l8.6806 8.6806c.6944.6944.6944 1.7361 0 2.4305-.3472.3473-.6944.5209-1.2153.5209-.5208 0-.868-.1736-1.2153-.5209l-5.7291-5.7291v16.6666c0 2.9514 2.2569 5.2084 5.2083 5.2084h12.1528c1.0417 0 1.7361.6944 1.7361 1.7361z" fill-opacity=".95"/></svg>