<svg viewBox="0 0 50 50" xmlns="http://www.w3.org/2000/svg"><g fill="none" stroke="#000" stroke-width="2.31742"><path d="m42.39667 26.87786 1.1996-4.233a2.01431 2.01431 0 0 0 -1.38882-2.4872l-29.31592-8.30793a2.01431 2.01431 0 0 0 -2.48723 1.38874l-1.20171 4.2404c.02524.00644.05051.00632.07573.01347a2.93662 2.93662 0 0 1 -1.60138 5.65072c-.02522-.00715-.04666-.02051-.07153-.02827l-1.20168 4.24034a2.01431 2.01431 0 0 0 1.38882 2.4872l29.31592 8.30794a2.01431 2.01431 0 0 0 2.48723-1.38874l1.19959-4.233a2.93662 2.93662 0 0 1 1.60138-5.65072z" stroke-linejoin="round"/><path d="m19.75089 14.27878-5.09899 17.99261" stroke-dasharray=".74685 3.45416" stroke-linecap="round" stroke-miterlimit="10"/></g></svg>