<svg viewBox="0 0 50 50" xmlns="http://www.w3.org/2000/svg"><g fill="none" stroke="#000" stroke-width="2"><path d="m38.36352 24.4662v-4.205a1.92517 1.92517 0 0 0 -1.92519-1.92513h-29.12172a1.92516 1.92516 0 0 0 -1.92519 1.92513v4.21231c.02488-.00065.04808-.00735.07313-.00735a2.80665 2.80665 0 1 1 0 5.61329c-.02505 0-.04825-.0067-.07313-.00735v4.21225a1.92516 1.92516 0 0 0 1.92519 1.92513h29.12172a1.92517 1.92517 0 0 0 1.92519-1.92513v-4.2049a2.80665 2.80665 0 1 1 0-5.61329z" stroke-linejoin="round"/><g stroke-linecap="round"><path d="m14.25695 18.78223v17.87341" stroke-dasharray=".71379 3.30127" stroke-miterlimit="10"/><path d="m41.79116 31.21777a5.53088 5.53088 0 0 0 2.07127-.40315 1.92186 1.92186 0 0 0 .74615-1.522v-4.2049a2.80665 2.80665 0 0 1 0-5.61329v-4.205a1.92516 1.92516 0 0 0 -1.92519-1.92513h-29.12172a1.92517 1.92517 0 0 0 -1.92519 1.92513" stroke-linejoin="round"/></g></g></svg>