<svg enable-background="new 0 0 50 50" viewBox="0 0 50 50" xmlns="http://www.w3.org/2000/svg"><path clip-rule="evenodd" d="m44.0972 26.7361h-3.4722v-5.2083h3.4722c1.0417 0 1.7361-.6944 1.7361-1.7361s-.6944-1.7361-1.7361-1.7361h-3.4722v-3.4722c0-2.9514-2.2569-5.2084-5.2083-5.2084h-3.4723v-3.4722c0-1.0417-.6944-1.7361-1.7361-1.7361-1.0416 0-1.7361.6944-1.7361 1.7361v3.4722h-6.9444v-3.4722c0-1.0417-.6945-1.7361-1.7361-1.7361-1.0417 0-1.7361.6944-1.7361 1.7361v3.4722h-3.4723c-2.9514 0-5.2083 2.257-5.2083 5.2084v3.4722h-3.4722c-1.0417 0-1.7361.6944-1.7361 1.7361s.6944 1.7361 1.7361 1.7361h3.4722v5.2083h-3.4722c-1.0417 0-1.7361.6945-1.7361 1.7361 0 1.0417.6944 1.7362 1.7361 1.7362h3.4722v5.2083c0 2.9514 2.2569 5.2083 5.2083 5.2083h3.4723v3.4722c0 1.0417.6944 1.7362 1.7361 1.7362 1.0416 0 1.7361-.6945 1.7361-1.7362v-3.4722h6.9444v3.4722c0 1.0417.6945 1.7362 1.7361 1.7362 1.0417 0 1.7361-.6945 1.7361-1.7362v-3.4722h3.4723c2.9514 0 5.2083-2.2569 5.2083-5.2083v-5.2083h3.4722c1.0417 0 1.7361-.6945 1.7361-1.7362 0-1.0416-.6944-1.7361-1.7361-1.7361zm-24.3055-8.6805h10.4166c1.0417 0 1.7362.6944 1.7362 1.7361v10.4167c0 1.0416-.6945 1.7361-1.7362 1.7361h-10.4166c-1.0417 0-1.7361-.6945-1.7361-1.7361v-10.4167c0-1.0417.6944-1.7361 1.7361-1.7361zm1.7361 10.4166h6.9444v-6.9444h-6.9444zm13.8889 8.6806c1.0416 0 1.7361-.6944 1.7361-1.7361v-20.8333c0-1.0417-.6945-1.7361-1.7361-1.7361h-20.8334c-1.0416 0-1.7361.6944-1.7361 1.7361v20.8333c0 1.0417.6945 1.7361 1.7361 1.7361z" fill-opacity=".95" fill-rule="evenodd"/></svg>