<svg enable-background="new 0 0 50 50" viewBox="0 0 50 50" xmlns="http://www.w3.org/2000/svg"><path clip-rule="evenodd" d="m40.625 9.375h-31.25c-2.9514 0-5.2083 2.2569-5.2083 5.2083v20.8334c0 2.9514 2.257 5.2083 5.2083 5.2083h31.25c2.9514 0 5.2083-2.2569 5.2083-5.2083v-20.8334c0-2.9514-2.2569-5.2083-5.2083-5.2083zm-31.25 3.4722h31.25c1.0417 0 1.7361.6945 1.7361 1.7362v5.2083h-34.7222v-5.2083c0-1.0417.6944-1.7362 1.7361-1.7362zm0 24.3056h31.25c1.0417 0 1.7361-.6944 1.7361-1.7361v-12.1528h-34.7222v12.1528c0 1.0417.6944 1.7361 1.7361 1.7361z" fill-opacity=".95" fill-rule="evenodd"/></svg>