<svg enable-background="new 0 0 50 50" viewBox="0 0 50 50" xmlns="http://www.w3.org/2000/svg"><path clip-rule="evenodd" d="m29.3403 23.2639h-2.6042v-8.6805h6.9445c1.0416 0 1.7361-.6945 1.7361-1.7362 0-1.0416-.6945-1.7361-1.7361-1.7361h-6.9445v-5.2083c0-1.0417-.6944-1.7361-1.7361-1.7361s-1.7361.6944-1.7361 1.7361v5.2083h-2.6042c-4.3402 0-7.8125 3.4723-7.8125 7.8125 0 4.3403 3.4723 7.8125 7.8125 7.8125h2.6042v8.6806h-8.6806c-1.0416 0-1.7361.6944-1.7361 1.7361s.6945 1.7361 1.7361 1.7361h8.6806v5.2083c0 1.0417.6944 1.7362 1.7361 1.7362s1.7361-.6945 1.7361-1.7362v-5.2083h2.6042c4.3403 0 7.8125-3.4722 7.8125-7.8125s-3.4722-7.8125-7.8125-7.8125zm-8.6806 0c-2.4305 0-4.3402-1.9097-4.3402-4.3403 0-2.4305 1.9097-4.3402 4.3402-4.3402h2.6042v8.6805zm6.0764 12.1528h2.6042c2.4305 0 4.3403-1.9098 4.3403-4.3403 0-2.4306-1.9098-4.3403-4.3403-4.3403h-2.6042z" fill-opacity=".95" fill-rule="evenodd"/></svg>