<svg enable-background="new 0 0 24 24" viewBox="0 0 24 24" xmlns="http://www.w3.org/2000/svg"><g fill-opacity=".95"><path clip-rule="evenodd" d="m13.3993 11.4403h-.8395v-2.7984h2.2387c.1481-.0006.2898-.0599.3942-.1648.1045-.1049.1631-.2469.1631-.3949s-.0586-.29-.1631-.3949c-.1044-.1049-.2461-.1641-.3942-.1648h-2.2387v-1.679c.0003-.0737-.014-.1467-.0419-.2149-.028-.0682-.0692-.1302-.1212-.1824s-.1138-.0936-.1819-.1219c-.068-.0283-.141-.0428-.2147-.0428s-.1466.0146-.2147.0428c-.0681.0283-.1299.0697-.1819.1219s-.0931.1142-.1211.1824-.0422.1412-.0419.2149v1.679h-.8396c-.6679 0-1.3085.2653-1.7808.7377-.4723.4723-.7377 1.1129-.7377 1.7809 0 .6679.2653 1.3085.7377 1.7808.4723.4723 1.1129.7377 1.7808.7377h.8396v2.7984h-2.7984c-.148.0006-.2898.0598-.3942.1647-.1045.1049-.1631.2469-.1631.395 0 .148.0587.29.1631.3949.1045.1049.2462.1641.3942.1647h2.7984v1.679c.0006.1481.0598.2898.1647.3942.1049.1045.2469.1631.3949.1631s.29-.0586.3949-.1631c.1049-.1044.1642-.2461.1648-.3942v-1.679h.8395c.6679 0 1.3085-.2653 1.7809-.7376.4723-.4723.7376-1.1129.7376-1.7809s-.2653-1.3086-.7376-1.7809c-.4724-.4723-1.113-.7376-1.7809-.7376zm-2.7984 0c-.3711 0-.727-.1474-.9894-.4098s-.4098-.6183-.4098-.9894.1474-.727.4098-.9894.6183-.4098.9894-.4098h.8396v2.7984zm1.9589 3.9177h.8395c.3711 0 .727-.1474.9894-.4098s.4098-.6183.4098-.9894-.1474-.727-.4098-.9894-.6183-.4098-.9894-.4098h-.8395z" fill-rule="evenodd"/><path d="m12.0002 21.6166c-1.902.0001-3.7612-.5639-5.3427-1.6205-1.5815-1.0567-2.8141-2.5586-3.542-4.3157-.7279-1.7572-.9184-3.6908-.5474-5.5563.371-1.8654 1.2869-3.5789 2.6318-4.9239s3.0584-2.2609 4.9238-2.632 3.799-.1807 5.5562.5471 3.2592 1.9604 4.3159 3.5418 1.6208 3.4407 1.6208 5.3426c-.0029 2.5496-1.017 4.9939-2.8197 6.7968-1.8028 1.8029-4.2471 2.8171-6.7967 2.8201zm0-17.6834c-1.5955 0-3.1551.473-4.4818 1.3594s-2.3606 2.1463-2.9711 3.6203c-.6106 1.474-.7704 3.096-.4591 4.6608.3112 1.5649 1.0795 3.0023 2.2077 4.1305 1.1282 1.1281 2.5656 1.8964 4.1304 2.2077 1.5648.3112 3.1868.1515 4.6609-.4591 1.474-.6106 2.7339-1.6446 3.6202-2.9712.8864-1.3266 1.3595-2.8863 1.3594-4.4818-.0024-2.1386-.8531-4.189-2.3653-5.7012-1.5123-1.5123-3.5626-2.3629-5.7013-2.3654z"/></g></svg>