<svg enable-background="new 0 0 50 50" viewBox="0 0 50 50" xmlns="http://www.w3.org/2000/svg"><path clip-rule="evenodd" d="m35.2198 18.0557c3.4359 0 6.5282 1.7361 8.4179 4.3403 1.5462 2.4305 2.577 5.0347 2.0616 7.8125-.5154 2.7777-2.0616 5.2083-4.2949 6.7708-.3436.1736-.6872.3472-1.0308.3472-.5154 0-1.0307-.1736-1.3743-.6944-.6872-.8681-.5154-1.9097.3436-2.4306 1.3743-1.0416 2.4051-2.6041 2.7487-4.5139.3436-1.9097-.1718-3.6458-1.2026-5.2083-1.3743-1.9097-3.4359-2.9514-5.6692-2.9514h-2.0616c-.8589 0-1.5461-.6944-1.7179-1.3889-1.5462-6.4236-8.2462-10.4166-14.6026-8.6805-3.0923.6944-5.6692 2.7777-7.3872 5.5555-1.7179 2.7778-2.2333 6.0764-1.3744 9.2014.3436 1.9097 1.3744 3.6458 2.577 5.0347.6871.6945.5154 1.7361-.1718 2.4306-.6872.6944-1.718.5208-2.4052-.1736-1.718-1.7361-2.7487-3.9931-3.4359-6.4236-1.0308-3.9931-.3436-8.1598 1.7179-11.8056 2.2333-3.6458 5.4974-6.0764 9.6205-7.118 7.7308-2.0833 15.8052 2.2569 18.3821 9.8958zm-2.2334 16.8403c.6872-.6945.6872-1.7361 0-2.4306-.6871-.6944-1.7179-.6944-2.4051 0l-3.9513 3.9931v-11.4584c0-1.0416-.6872-1.7361-1.7179-1.7361-1.0308 0-1.718.6945-1.718 1.7361v11.4584l-3.9513-3.9931c-.6872-.6944-1.7179-.6944-2.4051 0-.6872.6945-.6872 1.7361 0 2.4306l6.8718 6.9444c.0859.0868.1718.1302.2577.1736s.1718.0868.2577.1736c.1718.1737.5154.1737.6872.1737s.5153 0 .6871-.1737c.1718 0 .3436-.1736.5154-.3472z" fill-opacity=".95" fill-rule="evenodd"/></svg>