<svg enable-background="new 0 0 50 50" viewBox="0 0 50 50" xmlns="http://www.w3.org/2000/svg"><path d="m22.9167 37.5c0 2.2917-1.875 4.1667-4.1667 4.1667s-4.1667-1.875-4.1667-4.1667c0-2.2916 1.875-4.1666 4.1667-4.1666s4.1667 1.875 4.1667 4.1666zm-4.1667-16.6666c-2.2917 0-4.1667 1.875-4.1667 4.1666 0 2.2917 1.875 4.1667 4.1667 4.1667s4.1667-1.875 4.1667-4.1667c0-2.2916-1.875-4.1666-4.1667-4.1666zm0-12.5c-2.2917 0-4.1667 1.875-4.1667 4.1666 0 2.2917 1.875 4.1667 4.1667 4.1667s4.1667-1.875 4.1667-4.1667c0-2.2916-1.875-4.1666-4.1667-4.1666zm12.5 8.3333c2.2917 0 4.1667-1.875 4.1667-4.1667 0-2.2916-1.875-4.1666-4.1667-4.1666s-4.1667 1.875-4.1667 4.1666c0 2.2917 1.875 4.1667 4.1667 4.1667zm0 4.1667c-2.2917 0-4.1667 1.875-4.1667 4.1666 0 2.2917 1.875 4.1667 4.1667 4.1667s4.1667-1.875 4.1667-4.1667c0-2.2916-1.875-4.1666-4.1667-4.1666zm0 12.5c-2.2917 0-4.1667 1.875-4.1667 4.1666 0 2.2917 1.875 4.1667 4.1667 4.1667s4.1667-1.875 4.1667-4.1667c0-2.2916-1.875-4.1666-4.1667-4.1666z" fill-opacity=".95"/></svg>