<svg enable-background="new 0 0 50 50" viewBox="0 0 50 50" xmlns="http://www.w3.org/2000/svg"><path clip-rule="evenodd" d="m26.2153 6.4236 9.8958 9.7222c6.0764 6.25 6.0764 16.1459 0 22.2222-2.9514 2.9514-6.9444 4.5139-11.1111 4.5139s-8.1597-1.5625-11.1111-4.5139c-2.9514-2.9513-4.5139-6.9444-4.5139-11.1111 0-4.1666 1.5625-8.1597 4.6875-11.1111l9.7222-9.7222c.3472-.3472.6945-.5208 1.2153-.5208s.8681.1736 1.2153.5208zm-1.2153 32.9861c3.2986 0 6.25-1.2153 8.6806-3.4722 4.6875-4.8611 4.6875-12.5-.1736-17.1875l-8.6806-8.6806-8.5069 8.6806c-2.257 2.2569-3.4723 5.2083-3.4723 8.5069 0 3.2987 1.2153 6.25 3.6459 8.6806 2.2569 2.2569 5.2083 3.4722 8.5069 3.4722z" fill-opacity=".95" fill-rule="evenodd"/></svg>