<svg enable-background="new 0 0 50 50" viewBox="0 0 50 50" xmlns="http://www.w3.org/2000/svg"><path clip-rule="evenodd" d="m9.375 35.4167h6.9444c.5209 0 .8681-.1737 1.2153-.5209l19.0972-19.0972c.6945-.6944.6945-1.7361 0-2.4306l-6.9444-6.9444c-.6944-.6944-1.7361-.6944-2.4306 0l-19.0972 19.0972c-.3472.3472-.5208.6945-.5208 1.2153v6.9444c0 1.0417.6944 1.7362 1.7361 1.7362zm1.7361-7.9862 17.3611-17.3611 4.5139 4.5139-17.3611 17.3611h-4.5139zm29.5139 16.6667c1.0417 0 1.7361-.6944 1.7361-1.7361 0-1.0416-.6944-1.7361-1.7361-1.7361h-31.25c-1.0417 0-1.7361.6945-1.7361 1.7361 0 1.0417.6944 1.7361 1.7361 1.7361z" fill-opacity=".95" fill-rule="evenodd"/></svg>