<svg fill="none" height="80" viewBox="0 0 80 80" width="80" xmlns="http://www.w3.org/2000/svg"><path d="m73.9004 54.1-10.9-24.6c-.1-.3-.3-.7-.4-1-.2-.3-.4-.7-.6-1s-.5-.6-.7-.9c-.3-.3-.6-.5-.9-.7s-.6-.4-1-.6c-.3-.2-.7-.3-1.1-.4s-.7-.2-1.1-.3-.8-.1-1.2-.1h-32.1c-.4 0-.8 0-1.2.1s-.8.2-1.1.3c-.4.1-.7.3-1.1.4-.3.2-.7.4-1 .6s-.6.5-.9.7c-.3.3-.5.6-.8.9-.2.3-.4.6-.6 1-.2.3-.3.6-.4 1l-10.70001 24.6c-.1.3-.2.5-.2.8v17.6c0 4.1 3.3 7.4 7.40001 7.4h53.4c4.1 0 7.4-3.3 7.4-7.4v-17.6c0-.3-.1-.5-.2-.8zm-53.2-23.1c0-.1 0-.1.1-.2.1-.2.1-.3.2-.5s.2-.3.3-.4.2-.3.3-.4.3-.2.4-.3.3-.2.5-.3.3-.1.5-.2.3-.1.5-.1h.5 32.1.5c.2 0 .3.1.5.1.2.1.3.1.5.2s.3.2.4.3.3.2.4.3.2.3.3.4.2.3.3.4c.1.2.2.3.2.5 0 .1 0 .1.1.2l9.8 22.2h-16.4c-.6 0-1.2.3-1.5.8l-5.5 9h-11.4l-5.5-9c-.3-.5-.9-.8-1.5-.8h-16.4zm46 44.9h-53.4c-1.9 0-3.40001-1.5-3.40001-3.4v-15.8h16.40001l5.5 9c.3.5.9.8 1.5.8h13.3c.6 0 1.2-.3 1.5-.8l5.5-9h16.4v15.8c.1 1.8-1.4 3.4-3.3 3.4z" fill="#000"/></svg>