<svg fill="none" height="128" viewBox="0 0 128 128" width="128" xmlns="http://www.w3.org/2000/svg"><path d="m117.798 57.2937-16.596-18.5713c-.437-.4422-1.3107-.4422-1.893 0l-17.47 18.5713c-.8735.8843-.2911 2.2109.8735 2.2109h9.8996c-2.1837 16.6552-16.4508 29.6256-33.6296 29.6256-18.7802 0-34.0664-15.4761-34.0664-34.4896v-13.56c0-1.6213 1.3103-2.8004 2.7661-2.8004h52.701c.4367 0 .7279-.1474 1.0191-.4422l10.4819-10.17c1.0191-1.0317.2912-2.5056-.8735-2.5056h-74.3928c-3.2028 0-5.6777 2.5056-5.6777 5.7482v23.2879c0 26.6778 21.5462 48.6395 48.0423 48.6395 24.6035 0 44.9855-19.0139 47.7515-43.186h10.19c1.165-.1474 1.602-1.474.874-2.3583z" fill="#efefef"/></svg>