<svg enable-background="new 0 0 50 50" viewBox="0 0 50 50" xmlns="http://www.w3.org/2000/svg"><path clip-rule="evenodd" d="m41.3194 7.8125c.3472.1736.6945.5208.8681.8681.1736.1736.1736.5208.1736.6944v10.4167c0 1.0417-.6945 1.7361-1.7361 1.7361-1.0417 0-1.7361-.6944-1.7361-1.7361v-6.25l-16.1459 16.1458c-.3472.3472-.6944.5209-1.2152.5209-.5209 0-.8681-.1737-1.2153-.5209-.6945-.6944-.6945-1.7361 0-2.4305l16.1458-16.1459h-6.25c-1.0417 0-1.7361-.6944-1.7361-1.7361s.6944-1.7361 1.7361-1.7361h10.4167c.1736 0 .5208 0 .6944.1736zm-4.1667 29.3403v-10.4167c0-1.0416-.6944-1.7361-1.7361-1.7361-1.0416 0-1.7361.6945-1.7361 1.7361v10.4167c0 1.0417-.6944 1.7361-1.7361 1.7361h-19.0972c-1.0417 0-1.7361-.6944-1.7361-1.7361v-19.0972c0-1.0417.6944-1.7361 1.7361-1.7361h10.4167c1.0416 0 1.7361-.6945 1.7361-1.7361 0-1.0417-.6945-1.7362-1.7361-1.7362h-10.4167c-2.9514 0-5.2084 2.257-5.2084 5.2084v19.0972c0 2.9514 2.2569 5.2083 5.2084 5.2083h19.0972c2.9514 0 5.2083-2.2569 5.2083-5.2083z" fill-opacity=".95" fill-rule="evenodd"/></svg>