<svg enable-background="new 0 0 50 50" viewBox="0 0 50 50" xmlns="http://www.w3.org/2000/svg"><path clip-rule="evenodd" d="m44.0972 45.8334c.5209 0 .8681-.1737 1.2153-.5209.6945-.6944.6945-1.7361 0-2.4305l-38.1944-38.1945c-.6944-.6944-1.7361-.6944-2.4306 0s-.6944 1.7361 0 2.4306l7.4653 7.4653c-3.125 2.6041-5.9028 5.9027-7.8125 9.5486-.1736.5208-.1736 1.0416 0 1.5625.3472.6944 7.6389 14.9305 20.6597 14.9305 3.6459 0 7.1181-1.0416 10.0695-3.125l7.8125 7.8125c.3472.3472.6944.5209 1.2152.5209zm-23.0902-35.9375c-1.0417.1736-1.5625 1.0416-1.3889 2.0834.3472.868 1.2153 1.3889 2.0833 1.5625 1.0417-.1736 2.257-.3472 3.2986-.3472 9.375 0 15.625 9.375 17.1875 12.1527-.868 1.5625-1.9097 2.9514-3.125 4.3403-.6944.6945-.5208 1.7361.1736 2.4306.1736.1736.6945.3472 1.0417.3472.5208 0 1.0417-.3472 1.3889-.6945 1.5625-1.9097 2.9514-3.8194 3.993-5.9027.1737-.5209.1737-1.0417 0-1.5625-.3472-.6946-7.6388-14.9307-20.6597-14.9307-1.3889 0-2.7778.1736-3.993.5209zm.3472 15.2777c0 .8681.3472 1.7361 1.0417 2.4306 1.0416.868 2.2569 1.0417 3.4722.6944l-4.3403-4.3402c0 .2867-.0526.5208-.0999.7312-.0386.1719-.0737.328-.0737.484zm7.118 5.9028 4.1667 3.9931c-2.4305 1.3889-5.0347 2.0833-7.6389 2.0833-9.375 0-15.625-9.375-17.1875-12.1528 1.9097-3.125 4.1667-5.7291 6.7709-7.9861l4.3402 4.3403c-.6944 1.2153-1.0416 2.6042-1.0416 3.9931.1736 1.9097.868 3.6458 2.2569 4.8611 1.2153 1.2153 2.9514 1.9097 4.6875 1.9097 1.2153 0 2.6042-.3472 3.6458-1.0417z" fill-opacity=".95" fill-rule="evenodd"/></svg>