<svg enable-background="new 0 0 50 50" viewBox="0 0 50 50" xmlns="http://www.w3.org/2000/svg"><path clip-rule="evenodd" d="m40.2778 17.1007c.0434.0868.0868.1736.1736.2604.1736.1736.1736.5208.1736.6944v20.8334c0 2.9514-2.2569 5.2083-5.2083 5.2083h-20.8334c-2.9514 0-5.2083-2.2569-5.2083-5.2083v-27.7778c0-2.9514 2.2569-5.2083 5.2083-5.2083h13.8889c.1736 0 .5209 0 .6945.1736.1736 0 .3472.1736.5208.3472l10.4167 10.4167c.0868.0868.1302.1736.1736.2604zm-5.5556-.7813-4.5139-4.5139v4.5139zm.6945 24.3056h-20.8334c-1.0416 0-1.7361-.6944-1.7361-1.7361v-27.7778c0-1.0416.6945-1.7361 1.7361-1.7361h12.1528v8.6806c0 1.0416.6944 1.7361 1.7361 1.7361h8.6806v19.0972c0 1.0417-.6945 1.7361-1.7361 1.7361zm-5.2084-8.6806c1.0417 0 1.7361-.6944 1.7361-1.7361s-.6944-1.7361-1.7361-1.7361h-3.4722v-3.4722c0-1.0417-.6944-1.7361-1.7361-1.7361s-1.7361.6944-1.7361 1.7361v3.4722h-3.4722c-1.0417 0-1.7362.6944-1.7362 1.7361s.6945 1.7361 1.7362 1.7361h3.4722v3.4722c0 1.0417.6944 1.7361 1.7361 1.7361s1.7361-.6944 1.7361-1.7361v-3.4722z" fill-opacity=".95" fill-rule="evenodd"/></svg>