<svg enable-background="new 0 0 50 50" viewBox="0 0 50 50" xmlns="http://www.w3.org/2000/svg"><path clip-rule="evenodd" d="m42.3768 7.6389c.6944 0 1.2152.3472 1.5625 1.0417.3472.5208.1736 1.2153-.1737 1.7361l-13.5416 15.9722v14.2361c0 .6945-.3472 1.2153-.8681 1.5625-.1736.1736-.5208.1736-.868.1736-.3473 0-.5209 0-.6945-.1736l-6.9444-3.4722c-.6945-.3472-1.0417-.8681-1.0417-1.5625v-10.7639l-13.5417-15.9722c-.3472-.5208-.5208-1.2153-.1736-1.7361.3472-.6944.8681-1.0417 1.5625-1.0417zm-15.625 18.2292c0-.5208.1736-.8681.3472-1.2153l11.6319-13.5416h-27.2569l11.4583 13.7152c.1736.1736.3472.6945.3472 1.0417v10.2431l3.4723 1.7361z" fill-opacity=".95" fill-rule="evenodd"/></svg>