<svg enable-background="new 0 0 50 50" viewBox="0 0 50 50" xmlns="http://www.w3.org/2000/svg"><path clip-rule="evenodd" d="m25 5.9028c-10.5903 0-19.0972 8.507-19.0972 19.0973 0 10.5902 8.5069 19.0972 19.0972 19.0972s19.0972-8.507 19.0972-19.0972c0-10.5903-8.5069-19.0973-19.0972-19.0973zm15.4514 17.3611h-6.9445c-.3472-4.8611-1.9097-9.375-4.6875-13.3681 6.25 1.5625 10.9375 6.9445 11.632 13.3681zm-10.2431 3.4723h-10.243c.3472 4.6875 2.0833 9.2014 5.2083 12.8472 2.7778-3.6458 4.5139-8.1597 5.0347-12.8472zm-10.243-3.4723c.5208-4.6875 2.2569-9.2014 5.0347-12.8472 2.9514 3.8194 4.6875 8.3333 5.0347 12.8472zm-3.4723 0c.3473-4.8611 1.9098-9.375 4.5139-13.3681-6.0764 1.5625-10.7639 6.9445-11.4583 13.3681zm-6.9444 3.4723h6.9444c.3473 4.8611 1.9098 9.375 4.6875 13.368-6.25-1.5625-10.9375-6.9444-11.6319-13.368zm24.132 0c-.5209 4.8611-2.0834 9.375-4.6875 13.368 6.0763-1.5625 10.7638-6.9444 11.6319-13.368z" fill-opacity=".95" fill-rule="evenodd"/></svg>