<svg enable-background="new 0 0 50 50" viewBox="0 0 50 50" xmlns="http://www.w3.org/2000/svg"><path clip-rule="evenodd" d="m43.9236 24.3056-6.0764-11.9792c-.868-1.7361-2.6042-2.9514-4.6875-2.9514h-16.493c-1.9098 0-3.6459 1.0417-4.5139 2.9514l-5.9028 11.9792c-.3472.1736-.3472.3472-.3472.6944v10.4167c0 2.9514 2.257 5.2083 5.2083 5.2083h27.7778c2.9514 0 5.2083-2.2569 5.2083-5.2083v-10.4167c0-.3472 0-.5208-.1736-.6944zm-28.8194-10.4168c.3472-.6944 1.0416-1.0416 1.5625-1.0416h16.493c.6945 0 1.2153.3472 1.5625 1.0416l4.6875 9.375h-28.993zm23.7847 23.264c1.0417 0 1.7361-.6944 1.7361-1.7361v-8.6805h-31.25v8.6805c0 1.0417.6944 1.7361 1.7361 1.7361zm-25.5209-3.993c-.3472-.3473-.5208-.6945-.5208-1.2153 0-.1736 0-.5208.1736-.6945.0868-.0868.1302-.1736.1736-.2604s.0868-.1736.1736-.2604c.1737-.1736.3473-.3472.5209-.3472.3472-.1736.868-.1736 1.3889 0 .1736 0 .3472.1736.5208.3472s.3472.3472.3472.5208c.1736.1737.1736.5209.1736.6945 0 .5208-.1736.868-.5208 1.2153-.3472.3472-.6944.5208-1.2153.5208-.5208 0-.868-.1736-1.2153-.5208zm6.4237-1.2154c0 .5209.1736.8681.5208 1.2153s.6944.5209 1.2153.5209c.5208 0 .868-.1737 1.2153-.5209.3472-.3472.5208-.6944.5208-1.2153 0-.1736 0-.5208-.1736-.6944 0-.1736-.1736-.3472-.3472-.5208-.6945-.6945-1.7362-.6945-2.4306 0-.0868.0868-.1302.1736-.1736.2604s-.0868.1736-.1736.2604c-.1736.1736-.1736.5208-.1736.6944z" fill-opacity=".95" fill-rule="evenodd"/></svg>