<svg enable-background="new 0 0 50 50" viewBox="0 0 50 50" xmlns="http://www.w3.org/2000/svg"><path clip-rule="evenodd" d="m31.5972 28.4988h7.2917c1.0417 0 1.7361.6944 1.7361 1.7361s-.6944 1.7361-1.7361 1.7361h-7.6389l-1.0417 8.8542c-.1736.868-.868 1.5625-1.7361 1.5625h-.1736c-1.0417-.1736-1.7361-1.0417-1.5625-1.9098l1.0417-8.5069h-6.9445l-1.0416 8.8542c-.1736.868-.8681 1.5625-1.7361 1.5625h-.1737c-1.0416-.1736-1.7361-1.0417-1.5625-1.9098l.8681-8.5069h-6.0764c-1.0417 0-1.7361-.6944-1.7361-1.7361s.6944-1.7361 1.7361-1.7361h6.5972l.6945-6.9445h-7.2917c-1.0417 0-1.7361-.6944-1.7361-1.7361 0-1.0416.6944-1.7361 1.7361-1.7361h7.6389l1.0417-8.8542c.1736-1.0417 1.0416-1.7361 1.9097-1.5625 1.0417.1736 1.7361 1.0417 1.5625 1.9097l-1.0417 8.5069h6.9445l1.0416-8.8542c.1736-1.0417 1.0417-1.7361 1.9098-1.5625 1.0416.1736 1.7361 1.0417 1.5625 1.9097l-.8681 8.5069h6.0764c1.0417 0 1.7361.6945 1.7361 1.7361 0 1.0417-.6944 1.7361-1.7361 1.7361h-6.5972zm-9.7222-6.9445-.6945 6.9445h6.9445l.6944-6.9445z" fill-opacity=".95" fill-rule="evenodd"/></svg>