<svg enable-background="new 0 0 50 50" viewBox="0 0 50 50" xmlns="http://www.w3.org/2000/svg"><path clip-rule="evenodd" d="m41.6666 18.432-15.625-12.139c-.6944-.5202-1.5625-.5202-2.0833 0l-15.625 12.139c-.5208.3468-.6944.8671-.6944 1.3873v19.0756c0 2.948 2.2569 5.2024 5.2084 5.2024h24.3055c2.9514 0 5.2084-2.2544 5.2084-5.2024v-19.0756c-.0001-.5202-.1737-1.0405-.6946-1.3873zm-13.1944 22.1969h-6.9445v-13.8731h6.9445zm8.6805.0001c1.0417 0 1.7361-.6937 1.7361-1.7341v-18.2085l-13.8888-10.7517-13.8889 10.7517v18.2085c0 1.0404.6944 1.7341 1.7361 1.7341h5.2083v-15.6073c0-1.0405.6945-1.7341 1.7361-1.7341h10.4167c1.0417 0 1.7361.6936 1.7361 1.7341v15.6073z" fill-opacity=".95" fill-rule="evenodd"/></svg>