<svg enable-background="new 0 0 50 50" viewBox="0 0 50 50" xmlns="http://www.w3.org/2000/svg"><path clip-rule="evenodd" d="m37.1528 7.6389h-24.3056c-2.9513 0-5.2083 2.2569-5.2083 5.2084v24.3055c0 2.9514 2.2569 5.2084 5.2083 5.2084h24.3056c2.9514 0 5.2083-2.257 5.2083-5.2084v-24.3056c0-2.9514-2.2569-5.2083-5.2083-5.2083zm-26.0417 5.2082c0-1.0416.6945-1.7361 1.7361-1.7361h24.3056c1.0417 0 1.7361.6945 1.7361 1.7361v13.1945l-5.7292-5.7292c-.6944-.6944-1.7361-.6944-2.4305 0l-18.4028 18.4028c-.6944-.1736-1.2153-.8681-1.2153-1.5625zm5.9028 26.0418h20.1389c1.0417 0 1.7361-.6944 1.7361-1.7361v-6.25l-6.9444-6.9445zm1.9097-15.625c2.4306 0 4.3403-1.9097 4.3403-4.3403 0-2.4305-1.9097-4.3403-4.3403-4.3403-2.4305 0-4.3402 1.9098-4.3402 4.3403 0 2.4306 1.9097 4.3403 4.3402 4.3403zm.8681-4.3403c0-.5209-.3472-.8681-.8681-.8681-.5208 0-.868.3472-.868.8681 0 .5208.3472.868.868.868.5209 0 .8681-.3472.8681-.868z" fill-opacity=".95" fill-rule="evenodd"/></svg>