<svg enable-background="new 0 0 50 50" viewBox="0 0 50 50" xmlns="http://www.w3.org/2000/svg"><path clip-rule="evenodd" d="m34.7308 29.8125c.5249-.3484.8748-.6969 1.2248-1.0453l5.2491-5.2261c4.0244-4.0067 3.8494-10.8007-.5249-14.6332-4.0243-4.0067-10.4983-4.0067-14.5226 0l-2.9746 2.9615c-.6998.6968-.6998 1.742 0 2.4388.6999.6968 1.7498.6968 2.4496 0l2.9746-2.9615c2.7995-2.613 6.9988-2.613 9.7984 0 2.7995 2.6131 2.7995 6.9682.1749 9.7555l-5.2491 5.2262c-.175.3484-.35.5226-.6999.6968-3.1495 2.2647-7.5238 1.742-9.7984-1.3937-.5249-.6968-1.7497-.871-2.4496-.3484-.6999.5227-.8749 1.7421-.35 2.4389 2.0997 2.7873 5.2492 4.1809 8.3987 4.1809 2.2746 0 4.3743-.6968 6.299-2.0904zm-13.6478 8.7102 2.9745-2.9615c.6999-.6968 1.9247-.5226 2.6246.1742.6999.6969.6999 1.7421 0 2.4389l-2.9745 2.9615c-2.0997 1.9163-4.7243 2.9615-7.3488 2.9615-2.6246 0-5.2492-1.0452-7.3489-2.9615-4.0243-4.0067-4.1993-10.6265-.175-14.8074l5.2491-5.2262 1.0498-1.0452c2.2747-1.7421 5.0742-2.4389 7.6988-1.9163 2.6246.3485 5.0742 1.7421 6.8239 4.0068.5249.6968.3499 1.9162-.3499 2.4388-.6999.5226-1.9247.3484-2.4497-.3484-1.0498-1.5678-2.6245-2.4389-4.5492-2.7873-1.9247-.1742-3.6744.3484-5.2492 1.3937l-.6998.6968-5.2492 5.2261c-2.6246 2.6131-2.6246 7.1425.175 9.7555 2.7996 2.6131 6.9989 2.6131 9.7985 0z" fill-opacity=".95" fill-rule="evenodd"/></svg>