<svg enable-background="new 0 0 50 50" viewBox="0 0 50 50" xmlns="http://www.w3.org/2000/svg"><path clip-rule="evenodd" d="m21.5278 33.6805c0 1.0417-.6944 1.7362-1.7361 1.7362h-5.2083c-5.7292 0-10.4167-4.6875-10.4167-10.4167s4.6875-10.4167 10.4167-10.4167h5.2083c1.0417 0 1.7361.6945 1.7361 1.7361 0 1.0417-.6944 1.7362-1.7361 1.7362h-5.2083c-3.8195 0-6.9445 3.125-6.9445 6.9444s3.125 6.9444 6.9445 6.9444h5.2083c1.0417 0 1.7361.6945 1.7361 1.7361zm13.8889-19.0972h-5.2084c-1.0416 0-1.7361.6945-1.7361 1.7361 0 1.0417.6945 1.7362 1.7361 1.7362h5.2084c3.8194 0 6.9444 3.125 6.9444 6.9444s-3.125 6.9444-6.9444 6.9444h-5.2084c-1.0416 0-1.7361.6945-1.7361 1.7361 0 1.0417.6945 1.7362 1.7361 1.7362h5.2084c5.7291 0 10.4166-4.6875 10.4166-10.4167s-4.6875-10.4167-10.4166-10.4167zm-17.3611 12.1528c-1.0417 0-1.7361-.6945-1.7361-1.7361 0-1.0417.6944-1.7362 1.7361-1.7362h13.8889c1.0416 0 1.7361.6945 1.7361 1.7362 0 1.0416-.6945 1.7361-1.7361 1.7361z" fill-opacity=".95" fill-rule="evenodd"/></svg>