<svg enable-background="new 0 0 50 50" viewBox="0 0 50 50" xmlns="http://www.w3.org/2000/svg"><path clip-rule="evenodd" d="m8.1597 13.375c.5208-.5208 1.2153-.6944 1.9097-.3472.1736 0 .3472.1736.5208.3472.3472.3473.5208.6945.5208 1.2153 0 .5209-.1736.8681-.5208 1.2153s-.6944.5208-1.2153.5208h-.3471c-.0998-.0998-.1423-.1422-.1933-.1603-.0377-.0133-.0801-.0133-.1539-.0133-.0868 0-.1302-.0434-.1736-.0868s-.0868-.0868-.1736-.0868l-.1736-.1736c-.0868-.0868-.1302-.1736-.1736-.2604s-.0868-.1736-.1736-.2604c-.1736-.1736-.1736-.5209-.1736-.6945s0-.5208.1736-.6944c-.0001-.1736.1735-.3472.3471-.5209zm9.8959-.5207c-1.0417 0-1.7361.6944-1.7361 1.7361 0 1.0416.6944 1.7361 1.7361 1.7361h22.5694c1.0417 0 1.7361-.6945 1.7361-1.7361 0-1.0417-.6944-1.7361-1.7361-1.7361zm0 10.4166h22.5694c1.0417 0 1.7361.6945 1.7361 1.7361 0 1.0417-.6944 1.7361-1.7361 1.7361h-22.5694c-1.0417 0-1.7361-.6944-1.7361-1.7361 0-1.0416.6944-1.7361 1.7361-1.7361zm22.5694 10.4167h-22.5694c-1.0417 0-1.7361.6944-1.7361 1.7361s.6944 1.7361 1.7361 1.7361h22.5694c1.0417 0 1.7361-.6944 1.7361-1.7361s-.6944-1.7361-1.7361-1.7361zm-29.6875-9.3751c0-.0868-.0434-.1302-.0868-.1736s-.0868-.0868-.0868-.1736c0-.1736-.1736-.1736-.1736-.1736-.5208-.5208-1.2153-.6944-1.9097-.3472-.0868.0868-.1736.1302-.2604.1736s-.1736.0868-.2604.1736l-.1736.1736c0 .0868-.0434.1302-.0868.1736s-.0868.0868-.0868.1736c0 .0738 0 .1162-.0133.154-.018.051-.0605.0934-.1603.1933v.3472c0 .5208.1736.868.5208 1.2153.3472.3472.6944.5208 1.2153.5208.5208 0 .8681-.1736 1.2153-.5208.3472-.3473.5208-.6945.5208-1.2153v-.3472c0-.0868-.0434-.1302-.0868-.1736-.0435-.0434-.0869-.0868-.0869-.1737zm-3.125 10.4168c0-.1737.1736-.3473.3472-.5209.6944-.6944 1.7361-.6944 2.4305 0 .3472.3472.5208.6945.5208 1.2153s-.1736.8681-.5208 1.2153-.6944.5208-1.2153.5208c-.5208 0-.8681-.1736-1.2153-.5208s-.5208-.6945-.5208-1.2153c.0001-.1736.0001-.5208.1737-.6944z" fill-opacity=".95" fill-rule="evenodd"/></svg>