<svg enable-background="new 0 0 50 50" viewBox="0 0 50 50" xmlns="http://www.w3.org/2000/svg"><path clip-rule="evenodd" d="m26.7361 14.5834v-6.9445c0-1.0417-.6944-1.7361-1.7361-1.7361s-1.7361.6944-1.7361 1.7361v6.9445c0 1.0416.6944 1.7361 1.7361 1.7361s1.7361-.6945 1.7361-1.7361zm-3.4722 20.8334c0-1.0417.6944-1.7362 1.7361-1.7362s1.7361.6945 1.7361 1.7362v6.9444c0 1.0417-.6944 1.7361-1.7361 1.7361s-1.7361-.6944-1.7361-1.7361zm-9.375-23.9585c-.6945-.6944-1.7361-.6944-2.4306 0-.6944.6945-.6944 1.7361 0 2.4306l4.8611 4.8611c.3473.3472.8681.5208 1.2153.5208s.8681-.1736 1.2153-.5208c.6944-.6944.6944-1.7361 0-2.4306zm17.1875 22.0487c-.6945-.6944-.6945-1.7361 0-2.4305.6944-.6945 1.7361-.6945 2.4305 0l4.8611 4.8611c.6945.6944.6945 1.7361 0 2.4305-.3472.3473-.868.5209-1.2152.5209s-.8681-.1736-1.2153-.5209zm-14.757-8.5069c0-1.0417-.6944-1.7361-1.7361-1.7361h-6.9444c-1.0417 0-1.7361.6944-1.7361 1.7361s.6944 1.7361 1.7361 1.7361h6.9444c1.0417 0 1.7361-.6944 1.7361-1.7361zm19.0973-1.7361h6.9444c1.0417 0 1.7361.6944 1.7361 1.7361s-.6944 1.7361-1.7361 1.7361h-6.9444c-1.0417 0-1.7361-.6944-1.7361-1.7361s.6944-1.7361 1.7361-1.7361zm-18.9237 7.8125-4.8611 4.8611c-.6944.6944-.6944 1.7361 0 2.4305.3473.3473.8681.5209 1.2153.5209s.8681-.1736 1.2153-.5209l4.8611-4.8611c.6944-.6944.6944-1.7361 0-2.4305-.6944-.6945-1.9097-.6945-2.4306 0zm17.0139-12.1528c-.3472.3472-.6944.5208-1.2152.5208-.3473 0-.8681-.1736-1.2153-.5208-.6945-.6945-.6945-1.7362 0-2.4306l4.8611-4.8611c.6944-.6945 1.7361-.6945 2.4305 0 .6945.6944.6945 1.7361 0 2.4305z" fill-opacity=".95" fill-rule="evenodd"/></svg>