<svg fill="none" height="360" viewBox="0 0 512 360" width="512" xmlns="http://www.w3.org/2000/svg"><path d="m510.301 148.574-79.257-85.8728c-2.086-2.0446-6.257-2.0446-9.038 0l-83.428 85.8728c-4.171 4.09-1.39 10.223 4.172 10.223h47.275c-10.428 77.014-78.561 136.989-160.598 136.989-89.685 0-162.6847-71.561-162.6847-159.479v-62.7013c0-7.4969 6.2571-12.9491 13.2094-12.9491h251.6743c2.086 0 3.476-.6816 4.866-2.0446l50.057-47.0259c4.867-4.77076 1.391-11.5861-4.171-11.5861h-355.2639c-15.2951 0-27.1141 11.5861-27.1141 26.5798v107.6822c0 123.358 102.894 224.907 229.427 224.907 117.494 0 214.826-87.918 228.036-199.69h48.666c5.562-.682 7.648-6.815 4.172-10.905z" fill="#000"/></svg>