<svg width="121" height="80" viewBox="0 0 121 80" fill="none" xmlns="http://www.w3.org/2000/svg">
<g clip-path="url(#clip0_10474_108890)">
<path d="M76.4372 13.9379H44.5293V66.0529H76.4372V13.9379Z" fill="#FF5F00"/>
<path d="M47.8153 40C47.8113 34.9818 48.9489 30.0284 51.1419 25.5147C53.335 21.0011 56.526 17.0454 60.4735 13.9471C55.5843 10.1047 49.7127 7.71534 43.5299 7.0521C37.347 6.38887 31.1022 7.4785 25.5093 10.1965C19.9164 12.9144 15.201 17.1511 11.902 22.4222C8.60299 27.6933 6.85352 33.7862 6.85352 40.0046C6.85352 46.223 8.60299 52.3159 11.902 57.587C15.201 62.8581 19.9164 67.0948 25.5093 69.8127C31.1022 72.5307 37.347 73.6203 43.5299 72.9571C49.7127 72.2939 55.5843 69.9045 60.4735 66.0621C56.5248 62.9628 53.333 59.0057 51.1399 54.4903C48.9468 49.975 47.8099 45.0198 47.8153 40Z" fill="#EB001B"/>
<path d="M110.932 60.5386V59.4707H111.392V59.2498H110.297V59.4707H110.73V60.5386H110.932ZM113.059 60.5386V59.2498H112.727L112.341 60.1704L111.954 59.2498H111.623V60.5386H111.862V59.5628L112.221 60.4005H112.469L112.829 59.5628V60.5386H113.059Z" fill="#F79E1B"/>
<path d="M114.099 40C114.099 46.2188 112.349 52.3121 109.05 57.5834C105.75 62.8547 101.034 67.0913 95.4405 69.8089C89.8469 72.5264 83.6016 73.6154 77.4183 72.9512C71.2351 72.287 65.3634 69.8965 60.4746 66.0529C64.4206 62.9518 67.6107 58.995 69.8043 54.4811C71.9979 49.9672 73.1377 45.0141 73.1377 39.9954C73.1377 34.9767 71.9979 30.0235 69.8043 25.5096C67.6107 20.9957 64.4206 17.0389 60.4746 13.9378C65.3634 10.0943 71.2351 7.70374 77.4183 7.03956C83.6016 6.37537 89.8469 7.4643 95.4405 10.1819C101.034 12.8995 105.75 17.136 109.05 22.4073C112.349 27.6786 114.099 33.7719 114.099 39.9908V40Z" fill="#F79E1B"/>
</g>
<defs>
<clipPath id="clip0_10474_108890">
<rect width="120.957" height="80" fill="white"/>
</clipPath>
</defs>
</svg>
