<svg enable-background="new 0 0 50 50" viewBox="0 0 50 50" xmlns="http://www.w3.org/2000/svg"><path clip-rule="evenodd" d="m26.7667 7.6389c8.4903.3472 15.0746 7.118 15.5944 15.4514v.8681c0 2.6042-.5198 5.2083-1.7327 7.4653-2.7723 5.5555-8.4903 9.0277-14.7281 9.0277-2.4258 0-4.6783-.5208-6.7575-1.3888l-9.1834 3.125c-.1733.1736-.3465.1736-.5198.1736-.5198 0-.8664-.1736-1.3862-.5209-.3465-.3472-.5198-1.0416-.3465-1.7361l3.1188-9.2014c-.8663-2.0833-1.3861-4.5139-1.3861-6.7708 0-6.25 3.4654-11.9792 9.1833-14.7569 2.2526-1.2153 4.6784-1.7361 7.2774-1.7361h.8664zm10.7428 22.3957c.8664-1.9097 1.3862-3.8194 1.3862-5.9027v-.8681c-.5198-6.5972-5.718-11.8056-12.3023-12.1528h-.6931c-1.9059 0-3.9852.5209-5.7179 1.3889-4.5051 2.257-7.2774 6.5972-7.2774 11.632 0 1.9097.5198 3.993 1.3862 5.7291.3465.5209.3465.8681.1732 1.3889l-2.2525 6.5972 6.5843-2.2569c.5198 0 1.0396 0 1.3862.1736 1.7327.8681 3.812 1.3889 5.7179 1.3889 5.0249 0 9.3567-2.6042 11.6092-7.1181z" fill-opacity=".95" fill-rule="evenodd"/></svg>