<svg viewBox="0 0 50 50" xmlns="http://www.w3.org/2000/svg"><g fill="none" stroke="#000" stroke-miterlimit="10" stroke-width="2.3"><path d="m10.96909 26.95725a5.91715 5.91715 0 0 1 -.94909-3.22369v-2.8969a5.945 5.945 0 0 1 5.945-5.945h18.07a5.945 5.945 0 0 1 5.945 5.945v2.8969a5.91708 5.91708 0 0 1 -.91556 3.17126"/><circle cx="22.54261" cy="12.04827" r="2.84341"/><path d="m25.18216 10.34262a2.84352 2.84352 0 1 1 .13456 3.57721"/><path d="m27.11756 42.34269h-13.311c-2.881 0-5.90106-3.28708-5.90106-7.19458 0-6.92585 4.69057-9.64091 4.69057-9.64091l.90381-2.80265c.788-3.01313 2.773-2.9207 4.931-2.9207h8.19321"/><path d="m22.88244 42.34269h13.311c2.88095 0 5.90106-3.28708 5.90106-7.19458 0-6.92585-4.69057-9.64091-4.69057-9.64091l-.90381-2.80265c-.788-3.01313-2.773-2.9207-4.931-2.9207h-8.19329"/></g></svg>