<svg enable-background="new 0 0 50 50" viewBox="0 0 50 50" xmlns="http://www.w3.org/2000/svg"><path clip-rule="evenodd" d="m26.5142 8.8519 12.2004 32.9243c.3486.5199.1743 1.3863-.5229 1.9062-.1743.1733-.6971.3465-1.0457.3465s-.5229 0-.8715-.1732l-11.329-6.4116-11.3289 6.4116c-.5229.3465-1.3944.3465-1.9173-.1733-.5228-.5199-.6971-1.213-.5228-1.9062l12.2004-32.9243c.1743-.6932.8715-1.213 1.5686-1.213.6972 0 1.3944.5198 1.5687 1.213zm-1.5686 24.7798c.3485 0 .5228 0 .8714.1733l8.0174 4.6788-8.8888-24.0868-8.8889 23.9135 8.0174-4.5055c.3486-.1733.5229-.1733.8715-.1733z" fill-opacity=".95" fill-rule="evenodd"/></svg>