<svg enable-background="new 0 0 50 50" viewBox="0 0 50 50" xmlns="http://www.w3.org/2000/svg"><path d="m43.4666 25.3381-16.1813 15.3791c-2.4895 2.3661-5.6902 3.3801-8.8909 3.3801s-6.4014-1.183-8.8908-3.3801c-4.8011-4.563-4.8011-12.1681 0-16.7312l16.3591-15.5481c1.6004-1.521 3.912-2.535 6.2236-2.535s4.6233.845 6.2236 2.535c3.5564 3.38 3.5564 8.6191 0 11.9991l-16.3591 15.5482c-2.1339 2.028-5.5124 2.028-7.4684 0-.889-.845-1.4225-2.197-1.4225-3.5491 0-1.352.5335-2.704 1.6004-3.549l15.1144-14.3652c.7113-.676 1.7782-.676 2.4894 0 .7113.676.7113 1.6901 0 2.3661l-15.1144 14.3651c-.3556.338-.5335.676-.5335 1.183s.1779.8451.5335 1.1831c.7113.676 1.7782.676 2.4894 0l16.3592-15.5482c2.1338-2.028 2.1338-5.2391 0-7.0981-1.956-1.859-5.5123-1.859-7.4683 0l-16.3592 15.5482c-3.5563 3.38-3.5563 8.6191 0 11.9991 3.5564 3.3801 9.0687 3.3801 12.625 0l16.3592-15.5482c.7112-.676 1.7782-.676 2.4894 0 .7113.676.5335 1.6901-.1778 2.3661z" fill-opacity=".95"/></svg>