<svg viewBox="0 0 50 50" xmlns="http://www.w3.org/2000/svg"><g fill="none" stroke="#000" stroke-linecap="round"><path d="m8.56737 20.16329c.82787-4.63123 2.69508-4.76486 4.1929-4.24378l11.87237 6.64422c1.83124 1.01273 2.09322 2.0465 1.69079 4.10007l-2.25962 11.6868c-.49127 3.2876-3.16153 4.1835-5.10365 3.0424" stroke-linejoin="round" stroke-width="2.5"/><path d="m32.42877 21.62041v19.07446" stroke-miterlimit="10" stroke-width="1.88665"/><path d="m26.86699 23.66307 16.45013-8.03256" stroke-miterlimit="10" stroke-width="2.5"/><path d="m36.16004 33.7014 2.37227-1.31193" stroke-miterlimit="10" stroke-width="1.88665"/><path d="m31.63844 20.19661-15.62564-8.64143" stroke-miterlimit="10" stroke-width="1.88665"/><path d="m9.28534 17.07435-3.27683 14.098c-.53417 3.061 1.045 3.7686 2.74123 4.74795l13.10172 7.02242c1.70675 1.11992 6.13562 1.21578 7.8143 0l11.69024-6.74935a5.48244 5.48244 0 0 0 2.74123-4.748v-13.49863a5.48247 5.48247 0 0 0 -2.74123-4.748l-12.128-6.28325a5.48246 5.48246 0 0 0 -5.48247 0l-11.25244 6.28329a6.21416 6.21416 0 0 0 -3.20775 3.87557z" stroke-linejoin="round" stroke-width="2.5"/><path d="m13.979 31.815-4.425-2.276 2.034-8.823 4.425 2.276z" stroke-linejoin="round" stroke-width="1.41498"/><path d="m19.978 34.886-3.368-1.718.755-3.275 3.398 1.685z" stroke-linejoin="round" stroke-width="1.41498"/><path d="m9.55378 32.07008 2.97655 1.53076" stroke-linejoin="round" stroke-width="1.41498"/></g><path d="m20.63991 29.7183-2.79926-1.42786a1.07053 1.07053 0 0 1 -.56134-1.17321 1.07054 1.07054 0 0 1 1.5234-.7395l2.80729 1.39217a1.07053 1.07053 0 0 1 .5689 1.19365l-.008.03569a1.07053 1.07053 0 0 1 -1.53099.71906z"/><path d="m18.67764 24.4026 3.62254 1.86298" fill="none" stroke="#000" stroke-linecap="round" stroke-linejoin="round" stroke-width="1.41498"/></svg>