<svg enable-background="new 0 0 50 50" viewBox="0 0 50 50" xmlns="http://www.w3.org/2000/svg"><path clip-rule="evenodd" d="m44.169 22.2826c1.091-.1812 1.8183-1.087 1.6365-1.9928-.9092-8.3333-7.6368-15.0362-16.1828-16.1231-.9091 0-2.0001.7246-2.0001 1.6304s.7273 1.8116 1.6365 1.9928c6.9095.9058 12.1825 6.1595 12.9098 12.8624.1818.9058.9092 1.6304 1.8183 1.6304h.1818zm-9.6369 6.1594c1.4546.5435 3.0911.9058 4.7275 1.087 2.7275.3623 4.7276 2.7174 4.7276 5.4348v5.4348c0 1.4492-.7273 2.7174-1.6365 3.8043-.9091 1.087-2.3637 1.6304-3.8184 1.6304h-.5455c-5.8185-.5434-11.637-2.5362-16.5464-5.7971-4.5457-2.8985-8.5459-6.884-11.4552-11.413-3.0911-4.8913-5.273-10.6884-5.8185-16.4855 0-1.4493.3637-2.8986 1.2728-3.9855.9091-1.087 2.182-1.8116 3.6366-1.9928h.5455 5.4549c2.7274 0 5.0912 1.9928 5.4549 4.7102.1818 1.6304.5455 3.2608 1.0909 4.7101.7274 1.9928.1819 4.3478-1.2728 5.7971l-1.2728 1.2681c2.182 3.4421 5.0912 6.1595 8.3642 8.3334l1.2728-1.2681c1.6363-1.4493 3.8183-1.9928 5.8184-1.2682zm5.8185 11.9566v-5.4348c0-.9058-.7273-1.6305-1.4546-1.8116-1.8183-.3623-3.6366-.7246-5.4549-1.4493-.7273-.3623-1.4546-.1811-2.0001.3623l-2.3638 2.3551c-.5455.7246-1.4546.7246-2.1819.3623-4.9094-2.7174-8.9096-6.7029-11.6371-11.5942-.3636-.7246-.1818-1.6304.3637-2.1739l2.3638-2.1739c.3636-.5435.5455-1.2681.3636-1.9928-.7273-1.6304-1.2728-3.6231-1.4546-5.4347-.1818-.9058-.9092-1.6305-1.8183-1.6305h-5.4549c-.5455 0-1.091.3623-1.4546.7247-.1818.3623-.3637.7246-.3637 1.2681.5455 5.2536 2.3637 10.3261 5.273 14.8551 2.7274 4.1666 6.1822 7.7898 10.3642 10.326 4.5458 2.8986 9.637 4.7102 14.91 5.2537.7273 0 1.091-.1812 1.4546-.5435.3638-.3623.5456-.7247.5456-1.2681zm-11.0915-25.1813c-.9092-.1811-1.6365-1.0869-1.4547-2.1739.1819-.9058 1.091-1.6304 2.182-1.4493 4.3639.9058 7.8186 4.1667 8.5459 8.5145.1819.9058-.3636 1.9928-1.4546 2.174h-.3637c-.9091 0-1.6364-.5435-1.8182-1.4493-.5455-2.8986-2.7275-5.0725-5.6367-5.616z" fill-opacity=".95" fill-rule="evenodd"/></svg>