<svg enable-background="new 0 0 50 50" viewBox="0 0 50 50" xmlns="http://www.w3.org/2000/svg"><path clip-rule="evenodd" d="m35.0282 27.3545c1.3952.5232 2.9649.872 4.5345 1.0464 2.6161.3488 4.5345 2.6161 4.5345 5.2321v5.2322c0 1.3952-.6976 2.616-1.5696 3.6624-.872 1.0465-2.2673 1.5697-3.6625 1.5697h-.5232c-5.5809-.5232-11.1619-2.4417-15.8708-5.5809-4.3601-2.7905-8.1969-6.6274-10.9874-10.9875-2.9649-4.7089-5.0577-10.2898-5.5809-15.8707 0-1.3953.3488-2.7905 1.2208-3.8369s2.0928-1.744 3.4881-1.9184h.5232 5.2321c2.6161 0 4.8833 1.9184 5.2321 4.5345.1744 1.5697.5232 3.1393 1.0464 4.5345.6977 1.9185.1744 4.1857-1.2208 5.581l-1.2208 1.2208c2.0928 3.3137 4.8833 5.9297 8.0226 8.0226l1.2208-1.2209c1.5696-1.3953 3.6625-1.9185 5.5809-1.2209zm5.5809 11.5107v-5.2321c0-.872-.6976-1.5696-1.3952-1.744-1.744-.3489-3.4881-.6977-5.2321-1.3953-.6976-.3488-1.3952-.1744-1.9184.3488l-2.2673 2.2673c-.5232.6976-1.3952.6976-2.0928.3488-4.7089-2.6161-8.5458-6.453-11.1619-11.1619-.3488-.6976-.1744-1.5696.3488-2.0928l2.2673-2.0929c.3488-.5232.5232-1.2208.3488-1.9184-.6976-1.5696-1.2209-3.4881-1.3953-5.2321-.1744-.872-.872-1.5696-1.744-1.5696h-5.2321c-.5232 0-1.0464.3488-1.3952.6976-.1744.3488-.3488.6976-.3488 1.2208.5232 5.0577 2.2673 9.941 5.0577 14.3011 2.616 4.0113 5.9297 7.4994 9.941 9.941 4.3601 2.7905 9.2434 4.5345 14.3011 5.0577.6976 0 1.0464-.1744 1.3952-.5232s.5232-.6976.5232-1.2208z" fill-opacity=".95" fill-rule="evenodd"/></svg>