<svg enable-background="new 0 0 50 50" viewBox="0 0 50 50" xmlns="http://www.w3.org/2000/svg"><path clip-rule="evenodd" d="m45.3324 14.5378-7.286 7.2781c-.3642.3639-.7285.5458-1.275.5458-.5464 0-.9107-.1819-1.275-.5458-.7286-.7278-.7286-1.8195 0-2.5474l4.1894-4.1848h-10.2004c-1.0929 0-1.8215-.7278-1.8215-1.8195s.7286-1.8195 1.8215-1.8195h10.2004l-4.1894-4.1849c-.7286-.7278-.7286-1.8195 0-2.5473s1.8215-.7278 2.55 0l7.286 7.278c.1822.182.3643.3639.3643.5459.1822.3639.1822.9097 0 1.4556 0 .1819-.1821.3639-.3643.5458zm-1.275 20.3785v5.4586c0 1.4556-.5465 2.9112-1.6394 3.8209-1.0929.9098-2.3679 1.6376-3.8251 1.6376h-.5464c-5.8288-.7278-11.6576-2.7293-16.5756-5.8224-4.5538-2.9112-8.5611-6.9142-11.4754-11.4629-3.2787-4.9127-5.2824-10.7351-5.8288-16.5575 0-1.4556.3643-2.9112 1.2751-4.0029.9107-1.0917 2.1858-1.8195 3.643-2.0015h.5465 5.4644c2.7323 0 5.1002 2.0015 5.4645 4.7307.1822 1.6376.5465 3.2751 1.0929 4.7307.7286 2.0015.1822 4.1849-1.275 5.8225l-1.2751 1.2736c2.1858 3.2751 4.9181 6.1863 8.3789 8.3697l1.275-1.2736c1.4572-1.4556 3.8252-2.0015 5.8288-1.2737 1.4572.5459 3.0966.9098 4.7359 1.0917 2.7321.3639 4.7358 2.7293 4.7358 5.4585zm-5.2824-1.8195c.9108.182 1.6394.9098 1.6394 1.8195v5.4585c0 .5459-.1822.9098-.5465 1.2737s-.7286.5458-1.4572.5458c-5.2823-.5458-10.3825-2.3653-14.9362-5.2765-4.1894-2.5473-7.6503-6.1863-10.3825-10.3712-2.9144-4.5488-4.7359-9.6434-5.2824-14.9199 0-.5459.1821-.9098.3643-1.2737.3643-.3639.9107-.7278 1.4572-.7278h5.4645c.9108 0 1.8215.7278 1.8215 1.6376.3643 1.8195.7286 3.639 1.4572 5.4585.1822.5458 0 1.4556-.3643 1.8195l-2.3679 2.3653c-.5465.5459-.7286 1.4556-.5465 2.1834 2.7323 4.9127 6.7396 8.9156 11.6576 11.6449.7286.3639 1.6393.1819 2.1858-.3639l2.3679-2.3654c.5465-.5458 1.2751-.5458 2.0037-.3639 1.8215.7278 3.6429 1.2737 5.4644 1.4556z" fill-opacity=".95" fill-rule="evenodd"/></svg>