<svg enable-background="new 0 0 50 50" viewBox="0 0 50 50" xmlns="http://www.w3.org/2000/svg"><path clip-rule="evenodd" d="m25 5.9028c-10.5903 0-19.0972 8.507-19.0972 19.0973 0 10.5902 8.5069 19.0972 19.0972 19.0972s19.0972-8.507 19.0972-19.0972c0-10.5903-8.5069-19.0973-19.0972-19.0973zm0 34.7222c-8.6806 0-15.625-6.9444-15.625-15.625 0-8.6805 6.9444-15.625 15.625-15.625s15.625 6.9445 15.625 15.625c0 8.6806-6.9444 15.625-15.625 15.625zm6.9445-13.8888c1.0416 0 1.7361-.6945 1.7361-1.7361 0-1.0417-.6945-1.7362-1.7361-1.7362h-5.2084v-5.2083c0-1.0417-.6944-1.7361-1.7361-1.7361s-1.7361.6944-1.7361 1.7361v5.2083h-5.2083c-1.0417 0-1.7361.6945-1.7361 1.7362 0 1.0416.6944 1.7361 1.7361 1.7361h5.2083v5.2083c0 1.0417.6944 1.7361 1.7361 1.7361s1.7361-.6944 1.7361-1.7361v-5.2083z" fill-opacity=".95" fill-rule="evenodd"/></svg>