<svg enable-background="new 0 0 50 50" viewBox="0 0 50 50" xmlns="http://www.w3.org/2000/svg"><path clip-rule="evenodd" d="m38.8889 7.6389h-27.7778c-2.9514 0-5.2083 2.2569-5.2083 5.2084v10.4167c0 10.5902 8.5069 19.0972 19.0972 19.0972s19.0972-8.507 19.0972-19.0972v-10.4168c0-2.9514-2.2569-5.2083-5.2083-5.2083zm1.7361 15.6249c0 8.6806-6.9444 15.625-15.625 15.625-8.6805 0-15.625-6.9444-15.625-15.625v-10.4167c0-1.0416.6945-1.7361 1.7361-1.7361h27.7778c1.0417 0 1.7361.6945 1.7361 1.7361zm-7.4653-.5207c.6945-.6945.6945-1.7361 0-2.4306-.6944-.6944-1.7361-.6944-2.4305 0l-5.7292 5.7292-5.7291-5.7292c-.6945-.6944-1.7362-.6944-2.4306 0-.6944.6945-.6944 1.7361 0 2.4306l6.9444 6.9444c.3473.3472.6945.5208 1.2153.5208.5209 0 .8681-.1736 1.2153-.5208z" fill-opacity=".95" fill-rule="evenodd"/></svg>