<svg viewBox="0 0 50 50" xmlns="http://www.w3.org/2000/svg"><rect fill="none" height="38.1944" rx="2.72901" stroke="#000" stroke-linecap="round" stroke-miterlimit="10" stroke-width="2" width="24.57582" x="12.71209" y="5.9028"/><path d="m16.57061 9.61721h16.85877v28.87814h-16.85877z" fill="none" stroke="#000" stroke-linecap="round" stroke-linejoin="round" stroke-width="1.88985"/><path d="m24.637 28.19216a5.11823 5.11823 0 0 1 -5.11194-5.11284v-2.31411a.84544.84544 0 0 1 .84435-.8448h7.48781a.42065.42065 0 0 1 .298.71717l-1.05827 1.01875a.41957.41957 0 0 1 -.29341.119h-5.31089l-.00409 1.35531a3.15137 3.15137 0 0 0 6.2079.76622h-.65312a.40962.40962 0 0 1 -.28978-.69945l1.75137-1.84448a.411.411 0 0 1 .29522-.1249.40483.40483 0 0 1 .28978.11991l1.67415 1.85991a.403.403 0 0 1 .079.43648.40749.40749 0 0 1 -.37789.25253h-.77667a5.10607 5.10607 0 0 1 -5.0438 4.2953z"/><path d="m30.55735 23.39459-1.66467-1.84932a.13086.13086 0 0 0 -.18506 0l-1.757 1.84932a.13087.13087 0 0 0 .09253.2234h.99244a3.43953 3.43953 0 0 1 -3.39182 2.94159h-.00544a3.43883 3.43883 0 0 1 -3.42874-3.42876v-1.35152a.28289.28289 0 0 1 .28289-.28288h5.31115a.14141.14141 0 0 0 .1-.04143l1.0538-1.01422a.14144.14144 0 0 0 -.1-.24146h-7.48792a.56576.56576 0 0 0 -.56576.56577v2.31442a4.84767 4.84767 0 0 0 4.83346 4.8335h.00766a4.84844 4.84844 0 0 0 4.80066-4.295h1.01929a.13086.13086 0 0 0 .09253-.22341z"/><path d="m22.7048 41.11498h4.5904" fill="none" stroke="#000" stroke-linecap="round" stroke-linejoin="round" stroke-width="1.86037"/></svg>