<svg enable-background="new 0 0 50 50" viewBox="0 0 50 50" xmlns="http://www.w3.org/2000/svg"><path clip-rule="evenodd" d="m26.7435 25.0001c0 1.0416-.6931 1.7361-1.7328 1.7361s-1.7329-.6945-1.7329-1.7361v-17.3612c0-1.0417.6932-1.7361 1.7329-1.7361s1.7328.6944 1.7328 1.7361zm-1.7328 19.0972c4.5054 0 8.8375-1.7361 12.3032-5.0347 6.7582-6.7708 6.7582-17.8819-.1732-24.6528-.6932-.6944-1.7329-.6944-2.426 0-.6932.6945-.6932 1.7361 0 2.4306 5.3718 5.3819 5.3718 14.2361 0 19.618-5.3719 5.382-14.2094 5.382-19.5813 0-5.3718-5.3819-5.3718-14.2361 0-19.618.6932-.6945.6932-1.7361 0-2.4306-.6931-.6944-1.7328-.6944-2.426 0-6.7581 6.7709-6.7581 17.882 0 24.6528 3.4657 3.2986 7.7979 5.0347 12.3033 5.0347z" fill-opacity=".95" fill-rule="evenodd"/></svg>