<svg enable-background="new 0 0 50 50" viewBox="0 0 50 50" xmlns="http://www.w3.org/2000/svg"><path d="m32.2416 41.3177c-1.9188.6956-3.8375 1.0434-5.7562 1.0434-7.1516 0-13.9543-4.5214-16.3963-11.6513-.3489-.8695.1744-1.9129 1.0466-2.2607.8721-.3478 1.9187.1739 2.2675 1.0434 2.6165 7.3038 10.4658 11.1296 17.7918 8.5211s11.1634-10.434 8.547-17.7378c-1.221-3.478-3.8374-6.2604-7.1516-7.9994-3.3141-1.5651-7.1516-1.739-10.6401-.5217-1.9188.6956-3.8375 1.739-5.2329 3.3041l-5.0585 4.6953h6.1051c1.0465 0 1.7442.6956 1.7442 1.739s-.6977 1.739-1.7442 1.739h-10.4658c-.1744 0-.3489 0-.3489 0h-.1744l-.1744-.1739c-.1744 0-.1744-.1739-.3489-.1739 0 0 0-.1739-.1744-.1739 0-.1739-.1744-.1739-.1744-.3478s0-.3478 0-.3478v-.1739-10.7818c0-1.0434.6977-1.739 1.7443-1.739s1.7443.6956 1.7443 1.739v6.4343l5.2328-4.8692c1.7443-1.739 4.0119-3.1302 6.4539-3.9997 4.3607-1.5651 9.0703-1.2173 13.2566.6956 4.1863 2.0868 7.326 5.5648 8.8959 9.9123 2.9653 9.0428-1.9187 18.9551-10.989 22.0853z" fill-opacity=".95"/></svg>