<svg enable-background="new 0 0 50 50" viewBox="0 0 50 50" xmlns="http://www.w3.org/2000/svg"><path d="m43.9233 22.2796c0 .1731-.174.1731-.174.3462 0 0 0 .1731-.1739.1731-.174.1732-.174.1732-.3479.3463l-.174.1731h-.1739c-.1739 0-.3479 0-.3479 0h-10.437c-1.0437 0-1.7395-.6925-1.7395-1.7312s.6958-1.7311 1.7395-1.7311h6.0883l-4.8706-4.5011c-1.5656-1.558-3.3051-2.5967-5.2185-3.2892-3.479-1.2118-7.3059-1.0387-10.611.5194-3.6529 1.558-6.0882 4.3279-7.3059 7.7902-2.6092 7.2709 1.2177 15.2342 8.3496 17.6579 7.3059 2.5967 15.1337-1.2118 17.7429-8.4827.3479-.8656 1.3916-1.385 2.2614-1.0387.8697.3462 1.3916 1.3849 1.0437 2.2505-2.4353 7.0978-9.2194 11.5988-16.3513 11.5988-1.9135 0-3.8269-.3463-5.7404-1.0387-9.0454-3.1161-13.742-13.1569-10.6109-22.1589s13.2202-13.6762 22.2656-10.5601c2.4353.8656 4.6966 2.2505 6.4361 4.1548l5.0446 4.8473v-6.4053c0-1.0387.6957-1.7312 1.7394-1.7312s1.7395.6925 1.7395 1.7312v10.3869.1731c0 .1732 0 .3463-.1739.5194z" fill-opacity=".95"/></svg>