<svg enable-background="new 0 0 50 50" viewBox="0 0 50 50" xmlns="http://www.w3.org/2000/svg"><path clip-rule="evenodd" d="m41.8403 9.8958c.6944.6944.6944 1.7361 0 2.4306l-19.6181 19.618c.6945 1.0417 1.0417 2.257 1.0417 3.4722 0 3.8195-3.125 6.9445-6.9445 6.9445-3.8194 0-6.9444-3.125-6.9444-6.9445 0-3.8194 3.125-6.9444 6.9444-6.9444 1.2153 0 2.4306.3472 3.4723 1.0417l4.5139-4.5139-4.5139-4.5139c-1.0417.6944-2.257 1.0416-3.4723 1.0416-3.8194 0-6.9444-3.125-6.9444-6.9444s3.125-6.9444 6.9444-6.9444c3.8195 0 6.9445 3.125 6.9445 6.9444 0 1.2153-.3472 2.4306-1.0417 3.4722l4.5139 4.5139 12.6736-12.6736c.6945-.6944 1.7361-.6944 2.4306 0zm-25.5209 1.2152c-1.9097 0-3.4722 1.5625-3.4722 3.4723 0 1.9097 1.5625 3.4722 3.4722 3.4722 1.0417 0 1.7362-.3472 2.4306-1.0417.6944-.6944 1.0417-1.3889 1.0417-2.4305 0-1.9098-1.5625-3.4723-3.4723-3.4723zm0 27.7778c-1.9097 0-3.4722-1.5625-3.4722-3.4722s1.5625-3.4722 3.4722-3.4722c1.0417 0 1.7362.3472 2.4306 1.0416.6944.6945 1.0417 1.3889 1.0417 2.4306 0 1.9097-1.5625 3.4722-3.4723 3.4722zm25.5209 1.2154c.6944-.6945.6944-1.7361 0-2.4306l-9.5486-9.5486c-.6945-.6944-1.7361-.6944-2.4306 0-.6944.6945-.6944 1.7361 0 2.4306l9.5486 9.5486c.3472.3472.6945.5208 1.2153.5208s.8681-.1736 1.2153-.5208z" fill-opacity=".95" fill-rule="evenodd"/></svg>