<svg enable-background="new 0 0 50 50" viewBox="0 0 50 50" xmlns="http://www.w3.org/2000/svg"><path clip-rule="evenodd" d="m34.0278 31.5972 7.8125 7.8125c.6944.6944.6944 1.7361 0 2.4305-.3473.3473-.8681.5209-1.2153.5209s-.8681-.1736-1.2153-.5209l-7.8125-7.8125c-2.6041 1.9098-5.7291 3.125-9.2014 3.125-8.1597 0-14.7569-6.5972-14.7569-14.7569s6.5972-14.7569 14.7569-14.7569c8.1598 0 14.757 6.5972 14.757 14.7569 0 3.4722-1.2153 6.7708-3.125 9.2014zm-11.632-20.4862c-6.25 0-11.2847 5.0348-11.2847 11.2848s5.0347 11.2847 11.2847 11.2847c3.125 0 5.9028-1.2153 7.9861-3.2986 2.0834-2.0834 3.2986-4.8611 3.2986-7.9861 0-6.25-5.0347-11.2848-11.2847-11.2848z" fill-opacity=".95" fill-rule="evenodd"/></svg>