<svg enable-background="new 0 0 50 50" viewBox="0 0 50 50" xmlns="http://www.w3.org/2000/svg"><path clip-rule="evenodd" d="m42.0139 13.7153c.1736 0 .1736.1736.1736.1736.1736.3473.1736.5209.1736.6945v24.3055c0 2.9514-2.257 5.2084-5.2084 5.2084h-24.3055c-2.9514 0-5.2084-2.257-5.2084-5.2084v-24.3055-.6945c.1736 0 .1736-.1736.1736-.1736.1736 0 .1736-.1736.1736-.1736l5.2083-6.9444c.3472-.5208.8681-.6944 1.3889-.6944h20.8333c.5209 0 1.0417.1736 1.2153.6944l5.2083 6.9444c.1738 0 .1738.1736.1738.1736zm-7.4653-4.3403h-19.0972l-2.6042 3.4722h24.3055zm2.6041 31.2501h-24.3055c-1.0417 0-1.7361-.6945-1.7361-1.7362v-22.5694h27.7777v22.5694c0 1.0417-.6944 1.7362-1.7361 1.7362zm-12.1527-10.4168c4.8611 0 8.6805-3.8194 8.6805-8.6805 0-1.0417-.6944-1.7361-1.7361-1.7361s-1.7361.6944-1.7361 1.7361c0 2.9514-2.257 5.2083-5.2083 5.2083-2.9514 0-5.2084-2.2569-5.2084-5.2083 0-1.0417-.6944-1.7361-1.7361-1.7361s-1.7361.6944-1.7361 1.7361c0 4.8611 3.8194 8.6805 8.6806 8.6805z" fill-opacity=".95" fill-rule="evenodd"/></svg>