<svg enable-background="new 0 0 50 50" viewBox="0 0 50 50" xmlns="http://www.w3.org/2000/svg"><path clip-rule="evenodd" d="m42.3611 9.375v8.6805c0 1.0417-.6944 1.7361-1.7361 1.7361s-1.7361-.6944-1.7361-1.7361v-4.5139l-26.5625 26.5625c-.3472.3473-.6945.5209-1.2153.5209s-.868-.1736-1.2153-.5209c-.6944-.6944-.6944-1.7361 0-2.4305l26.5625-26.5625h-4.5139c-1.0416 0-1.7361-.6945-1.7361-1.7361 0-1.0417.6945-1.7361 1.7361-1.7361h8.6806c.1736 0 .5208 0 .6944.1736.3473.1736.6945.5208.8681.8681.1736.1735.1736.5208.1736.6944zm-1.7361 20.8333c-1.0417 0-1.7361.6944-1.7361 1.7361v4.5139l-7.4653-7.4653c-.6944-.6944-1.7361-.6944-2.4305 0-.6945.6945-.6945 1.7361 0 2.4306l7.4652 7.4653h-4.5139c-1.0416 0-1.7361.6944-1.7361 1.7361 0 1.0416.6945 1.7361 1.7361 1.7361h8.6806c.1736 0 .5208 0 .6944-.1736.3473-.1736.6945-.5209.8681-.8681.1736-.1736.1736-.5208.1736-.6944v-8.6806c0-1.0417-.6944-1.7361-1.7361-1.7361zm-20.8333-8.6805c-.5209 0-.8681-.1736-1.2153-.5208l-8.6806-8.6806c-.6944-.6944-.6944-1.7361 0-2.4306.6945-.6944 1.7361-.6944 2.4306 0l8.6805 8.6806c.6945.6944.6945 1.7361 0 2.4306-.3472.3472-.6944.5208-1.2152.5208z" fill-opacity=".95" fill-rule="evenodd"/></svg>