<svg enable-background="new 0 0 50 50" viewBox="0 0 50 50" xmlns="http://www.w3.org/2000/svg"><path clip-rule="evenodd" d="m13.8889 9.7377c-.5208-.3471-1.2153-.5206-1.7361-.1735-.6945.347-1.0417.8676-1.0417 1.5617v27.7639c0 .6941.3472 1.2146 1.0417 1.5617.1736.1735.5208.1735.6944.1735.3472 0 .6945-.1735 1.0417-.347l17.3611-13.882c.3472-.347.6944-.8676.6944-1.3882 0-.5205-.1736-1.0411-.6944-1.3882zm.6944 5.0322 12.8473 10.238-12.8473 10.2379zm24.3056 22.3846v-24.2933c0-1.0412-.6945-1.7353-1.7361-1.7353-1.0417 0-1.7361.6941-1.7361 1.7353v24.2933c0 1.0412.6944 1.7353 1.7361 1.7353 1.0416 0 1.7361-.6941 1.7361-1.7353z" fill-opacity=".95" fill-rule="evenodd"/></svg>