<svg enable-background="new 0 0 50 50" viewBox="0 0 50 50" xmlns="http://www.w3.org/2000/svg"><path clip-rule="evenodd" d="m38.5417 38.5417c3.4722-3.4722 5.5555-8.1597 5.5555-13.5416 0-10.5903-8.5069-19.0973-19.0972-19.0973-5.2083 0-10.0694 2.0833-13.5417 5.5556-3.4722 3.4722-5.5555 8.3333-5.5555 13.5417 0 10.5902 8.5069 19.0972 19.0972 19.0972 5.2083 0 10.0695-2.0834 13.5417-5.5556zm2.0833-13.5417c0 3.6458-1.2153 7.1181-3.4722 9.7222l-21.875-21.875c2.6042-2.2569 6.0764-3.4722 9.7222-3.4722 8.6806 0 15.625 6.9445 15.625 15.625zm-27.7778-9.7222c-2.2569 2.6042-3.4722 6.0764-3.4722 9.7223 0 8.6805 6.9444 15.625 15.625 15.625 3.6458 0 7.1181-1.3889 9.7222-3.4723z" fill-opacity=".95" fill-rule="evenodd"/></svg>