<svg enable-background="new 0 0 50 50" viewBox="0 0 50 50" xmlns="http://www.w3.org/2000/svg"><path clip-rule="evenodd" d="m5.9028 25.0001c0-10.5903 8.5069-19.0973 19.0972-19.0973s19.0972 8.507 19.0972 19.0973c0 10.5902-8.5069 19.0972-19.0972 19.0972s-19.0972-8.507-19.0972-19.0972zm3.4722-.0001c0 8.6806 6.9445 15.625 15.625 15.625 8.6806 0 15.625-6.9444 15.625-15.625 0-8.6805-6.9444-15.625-15.625-15.625-8.6805 0-15.625 6.9445-15.625 15.625zm15.625-12.1527c-6.7708 0-12.1527 5.382-12.1527 12.1528s5.3819 12.1528 12.1527 12.1528c6.7709 0 12.1528-5.382 12.1528-12.1528s-5.3819-12.1528-12.1528-12.1528zm-8.6805 12.1528c0 4.8611 3.8194 8.6805 8.6805 8.6805s8.6806-3.8194 8.6806-8.6805c0-4.8612-3.8195-8.6806-8.6806-8.6806s-8.6805 3.8194-8.6805 8.6806zm8.6805-5.2084c-2.9514 0-5.2083 2.2569-5.2083 5.2083s2.2569 5.2083 5.2083 5.2083 5.2083-2.2569 5.2083-5.2083-2.2569-5.2083-5.2083-5.2083zm-1.7361 5.2084c0 1.0417.6945 1.7361 1.7361 1.7361 1.0417 0 1.7361-.6944 1.7361-1.7361s-.6944-1.7361-1.7361-1.7361c-1.0416 0-1.7361.6944-1.7361 1.7361z" fill-opacity=".95" fill-rule="evenodd"/></svg>