<svg enable-background="new 0 0 50 50" viewBox="0 0 50 50" xmlns="http://www.w3.org/2000/svg"><path clip-rule="evenodd" d="m12.3264 34.8959 10.4167-10.4167c.6944-.6944.6944-1.7361 0-2.4306l-10.4167-10.4166c-.6945-.6945-1.7361-.6945-2.4306 0-.6944.6944-.6944 1.7361 0 2.4305l9.2014 9.2014-9.2014 9.2014c-.6944.6945-.6944 1.7361 0 2.4306.3473.3472.6945.5208 1.2153.5208s.8681-.1736 1.2153-.5208zm12.6736.5208h13.8889c1.0416 0 1.7361.6944 1.7361 1.7361 0 1.0416-.6945 1.7361-1.7361 1.7361h-13.8889c-1.0417 0-1.7361-.6945-1.7361-1.7361 0-1.0417.6944-1.7361 1.7361-1.7361z" fill-opacity=".95" fill-rule="evenodd"/></svg>