<svg enable-background="new 0 0 50 50" viewBox="0 0 50 50" xmlns="http://www.w3.org/2000/svg"><path clip-rule="evenodd" d="m32.442 29.3236c.5067.4773.989.9316 1.3752 1.5791 2.9343 4.5139 1.7261 10.4167-2.7616 13.3681-1.5534 1.0417-3.452 1.5625-5.178 1.5625-3.1068 0-6.041-1.5625-7.9397-4.1667-2.7616-4.1666-1.8986-9.5486 1.8987-12.6736v-18.75c0-3.2986 2.7616-6.0764 6.041-6.0764s6.041 2.7778 6.041 6.0764v18.5764c.1754.1764.3508.3416.5234.5042zm-11.7424 10.2596c1.8986 2.7778 5.6958 3.6459 8.4574 1.7362 2.7616-1.9098 3.6246-5.5556 1.726-8.3334-.5178-.6944-1.0356-1.2152-1.726-1.7361-.3452-.3472-.6904-.868-.6904-1.3889v-19.618c0-1.3889-1.2082-2.6042-2.589-2.6042s-2.589 1.2153-2.7616 2.6042v19.4444c0 .5208-.1726 1.0417-.6904 1.3889-2.7617 1.9097-3.6247 5.7292-1.726 8.5069z" fill-opacity=".95" fill-rule="evenodd"/></svg>