<svg enable-background="new 0 0 50 50" viewBox="0 0 50 50" xmlns="http://www.w3.org/2000/svg"><path clip-rule="evenodd" d="m18.0556 11.1112h13.8889c7.6388 0 13.8888 6.25 13.8888 13.8889s-6.25 13.8889-13.8888 13.8889h-13.8889c-7.6389 0-13.8889-6.25-13.8889-13.8889s6.25-13.8889 13.8889-13.8889zm0 24.3055h13.8889c5.7291 0 10.4166-4.6875 10.4166-10.4167 0-5.7291-4.6875-10.4166-10.4166-10.4166h-13.8889c-5.7292 0-10.4167 4.6875-10.4167 10.4166 0 5.7292 4.6875 10.4167 10.4167 10.4167zm0-17.361c-3.8195 0-6.9445 3.125-6.9445 6.9444 0 3.8195 3.125 6.9445 6.9445 6.9445 3.8194 0 6.9444-3.125 6.9444-6.9445 0-3.8194-3.125-6.9444-6.9444-6.9444zm-3.4723 6.9444c0 1.9097 1.5625 3.4722 3.4723 3.4722 1.9097 0 3.4722-1.5625 3.4722-3.4722s-1.5625-3.4722-3.4722-3.4722c-1.9098 0-3.4723 1.5625-3.4723 3.4722z" fill-opacity=".95" fill-rule="evenodd"/></svg>