<svg enable-background="new 0 0 50 50" viewBox="0 0 50 50" xmlns="http://www.w3.org/2000/svg"><path d="m45.8333 35.4166c0 .1736 0 .5208-.1736.6945-.1736.3472-.5208.6944-.868.868-.1737.1736-.5209.1736-.6945.1736h-10.4167c-1.0416 0-1.7361-.6944-1.7361-1.7361s.6945-1.7361 1.7361-1.7361h6.25l-12.3263-12.3264-7.4653 7.4653c-.6945.6944-1.7361.6944-2.4306 0l-13.0208-13.0208c-.6944-.6945-.6944-1.7362 0-2.4306s1.7361-.6944 2.4306 0l11.8055 11.8056 7.4653-7.4653c.6944-.6945 1.7361-.6945 2.4305 0l13.5417 13.5416v-6.25c0-1.0416.6944-1.7361 1.7361-1.7361s1.7361.6945 1.7361 1.7361z" fill-opacity=".95"/></svg>