<svg enable-background="new 0 0 50 50" viewBox="0 0 50 50" xmlns="http://www.w3.org/2000/svg"><path clip-rule="evenodd" d="m45.3125 22.0485-5.2083-5.2083c-.3472-.3472-.6945-.5209-1.2153-.5209h-5.2083v-6.9444c0-1.0417-.6945-1.7361-1.7361-1.7361h-26.0417c-1.0417 0-1.7361.6944-1.7361 1.7361v22.5694c0 1.0417.6944 1.7362 1.7361 1.7362h2.4306c-.5208.868-.6944 1.7361-.6944 2.6041 0 3.2986 2.7778 6.0764 6.0764 6.0764s6.0764-2.7778 6.0764-6.0764c0-.868-.1736-1.7361-.6945-2.6041h11.632c-.3472.868-.6945 1.7361-.6945 2.6041 0 3.2986 2.7778 6.0764 6.0764 6.0764s6.0764-2.7778 6.0764-6.0764c0-.868-.1736-1.7361-.6944-2.6041h2.6041c1.0417 0 1.7362-.6945 1.7362-1.7362v-8.6805c-.0001-.5208-.1738-.8681-.521-1.2153zm-37.6736-10.9375h22.5695v6.9444 12.1528h-22.5695zm6.0764 27.7778c1.3889 0 2.6042-1.2153 2.6042-2.6042s-1.2153-2.6041-2.6042-2.6041-2.6042 1.2152-2.6042 2.6041 1.2153 2.6042 2.6042 2.6042zm25.1736-2.6042c0 1.3889-1.2153 2.6042-2.6042 2.6042-1.3888 0-2.6041-1.2153-2.6041-2.6042s1.2153-2.6041 2.6041-2.6041c1.3889 0 2.6042 1.2152 2.6042 2.6041zm-5.2083-6.0763h8.6805v-6.25l-4.1666-4.1667h-4.5139z" fill-opacity=".95" fill-rule="evenodd"/></svg>