<svg enable-background="new 0 0 50 50" viewBox="0 0 50 50" xmlns="http://www.w3.org/2000/svg"><path clip-rule="evenodd" d="m29.1667 14.5834h9.7222c2.9514 0 5.2083 2.2569 5.2083 5.2083v19.0972c0 2.9514-2.2569 5.2084-5.2083 5.2084h-27.7778c-2.9514 0-5.2083-2.257-5.2083-5.2084v-19.0972c0-2.9514 2.257-5.2083 5.2083-5.2083h9.7222l-5.7291-5.7292c-.6945-.6944-.6945-1.7361 0-2.4306.6944-.6944 1.7361-.6944 2.4305 0l7.4653 7.4653 7.4653-7.4652c.6944-.6944 1.7361-.6944 2.4305 0 .6945.6944.6945 1.7361 0 2.4306zm9.7222 26.0417c1.0416 0 1.7361-.6944 1.7361-1.7361v-19.0972c0-1.0417-.6945-1.7361-1.7361-1.7361h-27.7778c-1.0417 0-1.7361.6944-1.7361 1.7361v19.0972c0 1.0417.6944 1.7361 1.7361 1.7361z" fill-opacity=".95" fill-rule="evenodd"/></svg>