<svg enable-background="new 0 0 50 50" viewBox="0 0 50 50" xmlns="http://www.w3.org/2000/svg"><path clip-rule="evenodd" d="m4.1667 24.7972c1.0416-9.9109 8.8541-17.9092 18.9236-18.7785 11.4583-1.2171 21.7014 7.3027 22.743 18.7785 0 .5216-.1736 1.0432-.5208 1.391-.1736.3477-.6944.5216-1.2153.5216h-17.3611v10.4325c0 1.9126 1.5625 3.4775 3.4722 3.4775 1.9098 0 3.4723-1.5649 3.4723-3.4775 0-1.0433.6944-1.7388 1.7361-1.7388 1.0416 0 1.7361.6955 1.7361 1.7388 0 3.8252-3.125 6.955-6.9445 6.955-3.8194 0-6.9444-3.1298-6.9444-6.955v-10.4325h-17.3611c-.5208 0-1.0417-.1739-1.2153-.5216-.3472-.3478-.5208-.8694-.5208-1.391zm3.8194-1.5649h17.0139 17.0139c-1.7361-8.6938-9.8958-14.7794-18.75-13.91-7.6389.8693-13.8889 6.4333-15.2778 13.91z" fill-opacity=".95" fill-rule="evenodd"/></svg>