<svg enable-background="new 0 0 50 50" viewBox="0 0 50 50" xmlns="http://www.w3.org/2000/svg"><path clip-rule="evenodd" d="m11.1388 16.3193c0-4.8611 3.8347-8.6805 8.7151-8.6805 4.8805 0 8.7152 3.8194 8.7152 8.6805 0 4.8612-3.8347 8.6806-8.7152 8.6806-4.8804 0-8.7151-3.8194-8.7151-8.6806zm24.4024 20.8334v3.4722c0 1.0417-.6972 1.7361-1.743 1.7361s-1.743-.6944-1.743-1.7361v-3.4722c0-2.9514-2.266-5.2084-5.2291-5.2084h-13.9443c-2.9631 0-5.2291 2.257-5.2291 5.2084v3.4722c0 1.0417-.6972 1.7361-1.743 1.7361s-1.743-.6944-1.743-1.7361v-3.4722c0-4.8611 3.8347-8.6806 8.7151-8.6806h13.9443c4.8805 0 8.7151 3.8195 8.7151 8.6806zm-15.6873-15.6251c-2.9631 0-5.229-2.2569-5.229-5.2083s2.2659-5.2083 5.229-5.2083c2.9632 0 5.2291 2.2569 5.2291 5.2083s-2.2659 5.2083-5.2291 5.2083zm19.522 7.2918c-.8715-.1736-1.9173.3472-2.0916 1.2153-.1743.868.3486 1.9097 1.2201 2.0833 2.2659.5209 3.8347 2.6042 3.8347 5.0347v3.4723c0 1.0416.6972 1.7361 1.743 1.7361s1.743-.6945 1.743-1.7361v-3.4723c.1743-3.993-2.4402-7.4652-6.4492-8.3333zm-9.0638-19.6181c.3487-1.0417 1.2202-1.5625 2.0917-1.2153 4.7062 1.0417 7.495 5.9028 6.2749 10.7639-.6972 3.125-3.1375 5.3819-6.2749 6.25h-.3486c-.8715 0-1.5687-.5208-1.7431-1.3889-.3486-.8681.3487-1.9097 1.2202-2.0833 1.9173-.5209 3.3117-1.9098 3.8346-3.8195.6972-2.9514-1.0458-5.7291-3.8346-6.4236-.8715-.1736-1.3945-1.2153-1.2202-2.0833z" fill-opacity=".95" fill-rule="evenodd"/></svg>