<svg enable-background="new 0 0 50 50" viewBox="0 0 50 50" xmlns="http://www.w3.org/2000/svg"><path clip-rule="evenodd" d="m45.3125 42.8819c.6945.6945.6945 1.7361 0 2.4306-.3472.3472-.6944.5208-1.2153.5208-.5208 0-.868-.1736-1.2152-.5208l-9.5487-9.5486c-.868 1.7361-2.7777 3.125-4.8611 3.125h-19.0972c-2.9514 0-5.2083-2.257-5.2083-5.2084v-17.3611c0-2.6042 1.9097-4.8611 4.5139-5.2083l-3.9931-3.9931c-.6944-.6944-.6944-1.7361 0-2.4306.6944-.6944 1.7361-.6944 2.4306 0l6.9444 6.9444 19.0972 19.0972zm.5208-26.5625v17.3612c0 1.0416-.6944 1.7361-1.7361 1.7361-1.0416 0-1.7361-.6945-1.7361-1.7361v-13.8889l-7.6389 5.5555c-.6944.5209-1.5625.3472-2.2569-.1736l-1.7361-1.7361c-.3472-.3472-.5209-.6944-.5209-1.2153v-5.9028c0-1.0416-.6944-1.7361-1.7361-1.7361h-5.7291c-1.0417 0-1.7361-.6944-1.7361-1.7361 0-1.0416.6944-1.7361 1.7361-1.7361h5.7291c2.9514 0 5.2084 2.257 5.2084 5.2083v5.0348l.1736.1736 9.2014-6.5972c.5208-.3473 1.2152-.5209 1.7361-.1737.6944.3473 1.0416.8681 1.0416 1.5625zm-33.6805-1.7361 18.0555 18.0555v1.0417c0 1.0417-.6944 1.7361-1.7361 1.7361h-19.0972c-1.0417 0-1.7361-.6944-1.7361-1.7361v-17.3611c0-1.0417.6945-1.7361 1.7361-1.7361z" fill-opacity=".95" fill-rule="evenodd"/></svg>