<svg width="149" height="48" viewBox="0 0 149 48" fill="none" xmlns="http://www.w3.org/2000/svg">
<path d="M56.4314 0.848407L36.973 47.2739H24.2779L14.7024 10.2242C14.121 7.9422 13.6155 7.10618 11.8475 6.14475C8.96091 4.57876 4.19404 3.10953 0 2.19765L0.284866 0.848407H20.7202C23.325 0.848407 25.6666 2.58238 26.258 5.58199L31.3152 32.4461L43.8137 0.847633H56.4314V0.848407ZM106.173 32.1164C106.224 19.8632 89.2298 19.1882 89.3467 13.7146C89.383 12.0488 90.9692 10.2776 94.441 9.82557C96.1618 9.60031 100.903 9.42846 106.281 11.9032L108.39 2.05832C105.5 1.00942 101.782 0 97.1565 0C85.2858 0 76.9317 6.31041 76.8613 15.3464C76.7847 22.0299 82.8241 25.7595 87.3743 27.9804C92.0552 30.2547 93.6259 31.7162 93.608 33.7505C93.5748 36.8647 89.8746 38.2395 86.4167 38.2936C80.3803 38.3865 76.8776 36.6603 74.0854 35.3621L71.9087 45.533C74.7147 46.8203 79.8942 47.9435 85.2641 48C97.881 48 106.134 41.7678 106.173 32.1164V32.1164ZM137.519 47.2739H148.627L138.931 0.848398H128.679C127.584 0.838674 126.511 1.15819 125.6 1.76552C124.689 2.37285 123.981 3.23996 123.569 4.25441L105.547 47.2739H118.158L120.661 40.3396H136.069L137.519 47.2739ZM124.119 30.8244L130.44 13.3934L134.078 30.8244H124.119ZM73.5908 0.848407L63.6599 47.2739H51.6506L61.5853 0.848407H73.5908Z" fill="#1434CB"/>
</svg>
