<svg enable-background="new 0 0 50 50" viewBox="0 0 50 50" xmlns="http://www.w3.org/2000/svg"><path clip-rule="evenodd" d="m29.1667 11.3004c-.5209-.3471-1.3889-.1735-1.9098.1735l-8.1597 6.5935h-6.25c-1.0416 0-1.7361.694-1.7361 1.7351v10.4108c0 1.0411.6945 1.7352 1.7361 1.7352h6.25l8.1597 6.5935c.3473.1735.6945.347 1.0417.347.1736 0 .5208 0 .6945-.1735.5208-.3471 1.0416-.8676 1.0416-1.5616v-24.2919c.1736-.6941-.1736-1.2146-.868-1.5616zm-2.4306 22.2096-5.9028-4.6848c-.3472-.1735-.6944-.3471-1.0416-.3471h-5.2084v-6.9405h5.2084c.3472 0 .6944-.1735 1.0416-.347l5.9028-4.6849zm9.5486-.694c.3472 0 .8681-.1735 1.2153-.5205 4.1667-3.9908 4.1667-10.5844 0-14.7487-.6944-.694-1.7361-.694-2.4306 0-.6944.6941-.6944 1.7352 0 2.4292 2.7778 2.7762 2.7778 7.1141 0 9.8903-.6944.694-.6944 1.7351 0 2.4292.3473.347.8681.5205 1.2153.5205z" fill-opacity=".95" fill-rule="evenodd"/></svg>