<svg enable-background="new 0 0 50 50" viewBox="0 0 50 50" xmlns="http://www.w3.org/2000/svg"><path clip-rule="evenodd" d="m23.9583 11.3004c-.5208-.3471-1.3889-.1735-1.9097.1735l-8.1597 6.5935h-6.25c-1.0417 0-1.7361.694-1.7361 1.7351v10.4108c0 1.0411.6944 1.7352 1.7361 1.7352h6.25l8.1597 6.5935c.3472.1735.6944.347 1.0417.347.1736 0 .5208 0 .6944-.1735.5208-.3471 1.0417-.8676 1.0417-1.5616v-24.2919c.1736-.6941-.1736-1.2146-.8681-1.5616zm-2.4305 22.2096-5.9028-4.6848c-.3472-.1735-.6945-.3471-1.0417-.3471h-5.2083v-6.9405h5.2083c.3472 0 .6945-.1735 1.0417-.347l5.9028-4.6849zm23.7847-2.0821c.6944-.694.6944-1.7351 0-2.4292l-3.9931-3.9908 3.9931-3.9908c.6944-.694.6944-1.7351 0-2.4292-.6945-.694-1.7361-.694-2.4306 0l-3.993 3.9909-3.9931-3.9909c-.6944-.694-1.7361-.694-2.4305 0-.6945.6941-.6945 1.7352 0 2.4292l3.993 3.9908-3.993 3.9908c-.6945.6941-.6945 1.7352 0 2.4292.3472.3471.6944.5206 1.2152.5206.5209 0 .8681-.1735 1.2153-.5206l3.9931-3.9908 3.993 3.9908c.3473.3471.6945.5206 1.2153.5206s.8681-.1735 1.2153-.5206z" fill-opacity=".95" fill-rule="evenodd"/></svg>