<svg enable-background="new 0 0 50 50" viewBox="0 0 50 50" xmlns="http://www.w3.org/2000/svg"><path clip-rule="evenodd" d="m44.0972 45.8333c.5209 0 .8681-.1736 1.2153-.5208.6945-.6945.6945-1.7361 0-2.4306l-29.3403-29.3403-8.8541-8.8541c-.6944-.6944-1.7361-.6944-2.4306 0-.6944.6944-.6944 1.7361 0 2.4306l6.9444 7.2917c-2.2569 1.0416-4.3402 2.4305-6.2499 4.1666-.6944.6945-.8681 1.7362-.1736 2.4306.3472.3472.868.5208 1.3889.5208.5208 0 .8681-.1736 1.2153-.5208 1.9097-1.7361 4.1667-3.125 6.5972-4.1667l3.9931 4.1667c-2.4306.6944-4.8611 1.9097-6.7709 3.6458-.6944.5209-.868 1.7361-.1736 2.4306.3473.5208.8681.6944 1.3889.6944.3472 0 .6945 0 1.0417-.3472 2.0833-1.9097 4.6875-3.125 7.2917-3.6458l4.8611 4.8611c-2.7778-.3472-5.7292.3472-8.1597 2.0833-.6945.5209-.8681 1.5625-.3473 2.4306.5209.6944 1.5625.868 2.4306.3472 2.9514-2.0833 7.118-2.0833 10.0694 0 .3473.1736.6945.3472 1.0417.3472h.3472l11.4583 11.4583c.3472.3472.6944.5208 1.2152.5208zm-11.6319-21.007c-.8681-.3472-1.2153-1.3889-.8681-2.2569.5209-.8681 1.5625-1.2153 2.4306-.8681 1.5625.6945 2.9514 1.7361 4.3403 2.7778.6944.5208.868 1.7361.1736 2.4306-.3473.5208-.8681.6944-1.3889.6944-.3472 0-.6945 0-1.0417-.3472-1.2153-1.0417-2.4305-1.7361-3.6458-2.4306zm-9.5486-10.243c6.9444-.5208 14.0625 1.7361 19.2708 6.4236.3472.3472.6944.3472 1.2153.3472.5208 0 1.0416-.1736 1.3889-.5208.6944-.6944.5208-1.7361-.1736-2.4305-5.9028-5.2084-13.8889-7.9862-21.875-7.2917-1.0417 0-1.7362.868-1.5625 1.9097 0 1.0417.6944 1.7361 1.7361 1.5625zm.5208 23.6111c0-.1736.1736-.3472.3472-.5208.6945-.6944 1.7361-.6944 2.4306 0 .3472.3472.5208.6945.5208 1.2153s-.1736.868-.5208 1.2153c-.3472.3472-.6945.5208-1.2153.5208-.2034 0-.3472-.0596-.4664-.1089-.0842-.0349-.1561-.0647-.228-.0647-.1736 0-.3473-.1736-.5209-.3472-.3472-.3473-.5208-.6945-.5208-1.2153 0-.2034.0596-.3472.1089-.4664.0349-.0842.0647-.1561.0647-.2281z" fill-opacity=".95" fill-rule="evenodd"/></svg>