<svg enable-background="new 0 0 50 50" viewBox="0 0 50 50" xmlns="http://www.w3.org/2000/svg"><path clip-rule="evenodd" d="m25 5.9028c-10.5903 0-19.0972 8.507-19.0972 19.0973 0 10.5902 8.5069 19.0972 19.0972 19.0972s19.0972-8.507 19.0972-19.0972c0-10.5903-8.5069-19.0973-19.0972-19.0973zm0 34.7222c-8.6806 0-15.625-6.9444-15.625-15.625 0-8.6805 6.9444-15.625 15.625-15.625s15.625 6.9445 15.625 15.625c0 8.6806-6.9444 15.625-15.625 15.625zm2.4306-15.6249 3.993-3.9931c.6945-.6944.6945-1.7361 0-2.4305-.6944-.6945-1.7361-.6945-2.4305 0l-3.9931 3.993-3.993-3.993c-.6945-.6945-1.7361-.6945-2.4306 0-.6944.6944-.6944 1.7361 0 2.4305l3.9931 3.9931-3.9931 3.9931c-.6944.6944-.6944 1.7361 0 2.4305.3472.3472.6945.5208 1.2153.5208s.868-.1736 1.2153-.5208l3.993-3.993 3.9931 3.993c.3472.3472.6944.5208 1.2153.5208.5208 0 .868-.1736 1.2152-.5208.6945-.6944.6945-1.7361 0-2.4305z" fill-opacity=".95" fill-rule="evenodd"/></svg>