<svg enable-background="new 0 0 50 50" viewBox="0 0 50 50" xmlns="http://www.w3.org/2000/svg"><path clip-rule="evenodd" d="m37.1528 7.6388h-24.3056c-2.9514 0-5.2083 2.2569-5.2083 5.2083v24.3056c0 2.9514 2.2569 5.2083 5.2083 5.2083h24.3056c2.9514 0 5.2083-2.2569 5.2083-5.2083v-24.3056c0-2.9514-2.2569-5.2083-5.2083-5.2083zm1.7361 29.5138c0 1.0417-.6945 1.7362-1.7361 1.7362h-24.3056c-1.0417 0-1.7361-.6945-1.7361-1.7362v-24.3055c0-1.0417.6944-1.7361 1.7361-1.7361h24.3056c1.0416 0 1.7361.6944 1.7361 1.7361zm-11.4583-12.1527 3.993-3.9931c.6945-.6944.6945-1.7361 0-2.4305-.6944-.6945-1.7361-.6945-2.4305 0l-3.9931 3.993-3.9931-3.993c-.6944-.6945-1.7361-.6945-2.4305 0-.6945.6944-.6945 1.7361 0 2.4305l3.993 3.9931-3.993 3.9931c-.6945.6944-.6945 1.7361 0 2.4305.3472.3472.6944.5208 1.2153.5208.5208 0 .868-.1736 1.2152-.5208l3.9931-3.993 3.9931 3.993c.3472.3472.6944.5208 1.2152.5208.5209 0 .8681-.1736 1.2153-.5208.6945-.6944.6945-1.7361 0-2.4305z" fill-opacity=".95" fill-rule="evenodd"/></svg>