<svg enable-background="new 0 0 50 50" viewBox="0 0 50 50" xmlns="http://www.w3.org/2000/svg"><path d="m36.632 34.2013c.6944.6945.6944 1.7361 0 2.4306-.3473.3472-.6945.5208-1.2153.5208-.5209 0-.8681-.1736-1.2153-.5208l-9.2014-9.2014-9.2014 9.2014c-.3472.3472-.6944.5208-1.2153.5208-.5208 0-.868-.1736-1.2152-.5208-.6945-.6945-.6945-1.7361 0-2.4306l9.2014-9.2014-9.2014-9.2013c-.6945-.6945-.6945-1.7362 0-2.4306.6944-.6944 1.7361-.6944 2.4305 0l9.2014 9.2014 9.2014-9.2014c.6944-.6944 1.7361-.6944 2.4306 0 .6944.6944.6944 1.7361 0 2.4306l-9.2014 9.2013z" fill-opacity=".95"/></svg>