<svg width="54" height="54" viewBox="0 0 54 54" fill="none" xmlns="http://www.w3.org/2000/svg">
<path d="M0 27C0 12.0883 12.0883 0 27 0V0C41.9117 0 54 12.0883 54 27V27C54 41.9117 41.9117 54 27 54V54C12.0883 54 0 41.9117 0 27V27Z" fill="#222222"/>
<path d="M20.344 42.0806C20 42.6886 19.52 43.1686 18.936 43.5526C18.36 43.1526 17.912 42.6646 17.592 42.0806H20.344ZM21.048 41.1126L20.88 41.1446H19.384V40.2166H22.312V39.2726H19.384V38.2326H18.4V39.2726H15.488V40.2166H18.4V41.1446H15.888V42.0806H17.368L16.664 42.3206C17.032 43.0006 17.472 43.5766 18.008 44.0486C17.184 44.4086 16.216 44.6406 15.168 44.7766C15.352 44.9926 15.6 45.4406 15.688 45.6966C16.856 45.4966 17.944 45.1766 18.88 44.6806C19.736 45.1926 20.792 45.5286 22.064 45.7126C22.2 45.4326 22.472 45.0086 22.672 44.7846C21.568 44.6646 20.624 44.4246 19.832 44.0646C20.656 43.4246 21.312 42.5846 21.712 41.4886L21.048 41.1126Z" fill="white"/>
<path d="M26.44 42.4806L26.376 41.6406C26.024 41.7126 25.672 41.7766 25.32 41.8486V40.6246H26.344V39.7446H25.32V38.2246H24.392V39.7446H23.264V40.6246H24.392V42.0246C23.92 42.1046 23.496 42.1846 23.144 42.2326L23.344 43.1686C23.664 43.1046 24.016 43.0246 24.392 42.9446V44.6406C24.392 44.7686 24.344 44.8086 24.224 44.8166C24.112 44.8166 23.72 44.8166 23.36 44.8006C23.48 45.0566 23.6 45.4486 23.632 45.6966C24.24 45.6966 24.664 45.6646 24.944 45.5206C25.224 45.3686 25.32 45.1366 25.32 44.6486V42.7366L26.44 42.4806ZM30.744 45.3366C30.52 44.3846 29.888 42.9366 29.28 41.8166L28.44 42.1126C28.752 42.7286 29.072 43.4406 29.328 44.1206C28.656 44.2006 27.984 44.2806 27.352 44.3446C27.816 42.7286 28.288 40.5206 28.584 38.6006L27.544 38.4326C27.328 40.3686 26.84 42.7926 26.368 44.4566C26.056 44.4886 25.776 44.5126 25.528 44.5366L25.736 45.5286C26.792 45.3766 28.24 45.1926 29.624 44.9846C29.696 45.2406 29.76 45.4806 29.8 45.6886L30.744 45.3366Z" fill="white"/>
<path d="M33.016 39.3046L31.8 39.2886C31.848 39.5286 31.856 39.8646 31.856 40.0886C31.856 40.5766 31.872 41.4966 31.944 42.2246C32.168 44.3526 32.928 45.1366 33.792 45.1366C34.432 45.1366 34.928 44.6486 35.456 43.2726L34.656 42.3126C34.504 42.9366 34.192 43.8646 33.816 43.8646C33.32 43.8646 33.08 43.0886 32.968 41.9446C32.92 41.3766 32.912 40.7766 32.92 40.2646C32.92 40.0486 32.96 39.5846 33.016 39.3046ZM36.976 39.4726L35.968 39.8086C36.832 40.7846 37.256 42.6486 37.376 43.9206L38.424 43.5206C38.336 42.3046 37.728 40.3926 36.976 39.4726Z" fill="white"/>
<path d="M23.918 20.3293H17.8828C17.3203 20.3287 16.781 20.105 16.3832 19.7072C15.9855 19.3095 15.7617 18.7702 15.7611 18.2077V12.1724C15.7617 11.6099 15.9855 11.0706 16.3832 10.6729C16.781 10.2751 17.3203 10.0514 17.8828 10.0508H23.918C24.4805 10.0514 25.0198 10.2751 25.4175 10.6729C25.8153 11.0706 26.039 11.6099 26.0396 12.1724V18.2077C26.039 18.7702 25.8153 19.3095 25.4175 19.7072C25.0198 20.105 24.4805 20.3287 23.918 20.3293V20.3293ZM17.8828 12.1724V18.2077H23.9193L23.918 12.1724H17.8828Z" fill="white"/>
<path d="M21.8816 14.209H19.918V16.1726H21.8816V14.209Z" fill="white"/>
<path d="M23.8806 32.3174H17.845C17.2825 32.3167 16.7432 32.093 16.3455 31.6953C15.9477 31.2975 15.724 30.7582 15.7234 30.1957V24.1607C15.724 23.5982 15.9477 23.0589 16.3455 22.6612C16.7432 22.2634 17.2825 22.0397 17.845 22.0391H23.8806C24.4431 22.0397 24.9824 22.2634 25.3801 22.6612C25.7779 23.0589 26.0016 23.5982 26.0022 24.1607V30.1957C26.0016 30.7582 25.7779 31.2975 25.3801 31.6953C24.9824 32.093 24.4431 32.3167 23.8806 32.3174ZM17.845 24.1607V30.1957H23.8818L23.8806 24.1607H17.845Z" fill="white"/>
<path d="M21.8445 26.1973H19.8809V28.1609H21.8445V26.1973Z" fill="white"/>
<path d="M35.9402 20.3293H29.9042C29.3417 20.3287 28.8024 20.105 28.4047 19.7072C28.007 19.3095 27.7832 18.7702 27.7826 18.2077V12.1724C27.7832 11.6099 28.0069 11.0707 28.4047 10.6729C28.8024 10.2752 29.3417 10.0514 29.9042 10.0508H35.9402C36.5027 10.0514 37.042 10.2751 37.4397 10.6729C37.8375 11.0706 38.0612 11.6099 38.0619 12.1724V18.2077C38.0612 18.7702 37.8375 19.3095 37.4397 19.7072C37.042 20.105 36.5027 20.3287 35.9402 20.3293V20.3293ZM29.9042 12.1724V18.2077H35.9415L35.9402 12.1724H29.9042Z" fill="white"/>
<path d="M33.9042 14.209H31.9406V16.1726H33.9042V14.209Z" fill="white"/>
<path d="M30.7788 23.209H28.8152V25.1726H30.7788V23.209Z" fill="white"/>
<path d="M36.6027 23.209H34.639V25.1726H36.6027V23.209Z" fill="white"/>
<path d="M33.6904 26.1094H31.7268V28.073H33.6904V26.1094Z" fill="white"/>
<path d="M30.7788 28.959H28.8152V30.9226H30.7788V28.959Z" fill="white"/>
<path d="M36.6027 28.959H34.639V30.9226H36.6027V28.959Z" fill="white"/>
</svg>
