<svg width="54" height="54" viewBox="0 0 54 54" fill="none" xmlns="http://www.w3.org/2000/svg">
<path d="M0 27C0 12.0883 12.0883 0 27 0V0C41.9117 0 54 12.0883 54 27V27C54 41.9117 41.9117 54 27 54V54C12.0883 54 0 41.9117 0 27V27Z" fill="#222222"/>
<path d="M21.4268 42.3486H19.5762V41.377H21.4268C21.749 41.377 22.0094 41.3249 22.208 41.2207C22.4066 41.1165 22.5514 40.9733 22.6426 40.791C22.737 40.6055 22.7842 40.3939 22.7842 40.1562C22.7842 39.9316 22.737 39.7217 22.6426 39.5264C22.5514 39.3278 22.4066 39.1683 22.208 39.0479C22.0094 38.9274 21.749 38.8672 21.4268 38.8672H19.9521V45H18.7266V37.8906H21.4268C21.9769 37.8906 22.444 37.9883 22.8281 38.1836C23.2155 38.3757 23.5101 38.6426 23.7119 38.9844C23.9137 39.3229 24.0146 39.7103 24.0146 40.1465C24.0146 40.6055 23.9137 40.9993 23.7119 41.3281C23.5101 41.6569 23.2155 41.9092 22.8281 42.085C22.444 42.2607 21.9769 42.3486 21.4268 42.3486Z" fill="white"/>
<path d="M27.1396 38.8379L25.0156 45H23.7314L26.4072 37.8906H27.2275L27.1396 38.8379ZM28.917 45L26.7881 38.8379L26.6953 37.8906H27.5205L30.2061 45H28.917ZM28.8145 42.3633V43.335H24.9473V42.3633H28.8145Z" fill="white"/>
<path d="M31.124 37.8906L32.7744 41.2842L34.4248 37.8906H35.7822L33.3896 42.3828V45H32.1543V42.3828L29.7617 37.8906H31.124Z" fill="white"/>
<path d="M23.918 20.3293H17.8828C17.3203 20.3287 16.781 20.105 16.3832 19.7072C15.9855 19.3095 15.7617 18.7702 15.7611 18.2077V12.1724C15.7617 11.6099 15.9855 11.0706 16.3832 10.6729C16.781 10.2751 17.3203 10.0514 17.8828 10.0508H23.918C24.4805 10.0514 25.0198 10.2751 25.4175 10.6729C25.8153 11.0706 26.039 11.6099 26.0396 12.1724V18.2077C26.039 18.7702 25.8153 19.3095 25.4175 19.7072C25.0198 20.105 24.4805 20.3287 23.918 20.3293V20.3293ZM17.8828 12.1724V18.2077H23.9193L23.918 12.1724H17.8828Z" fill="white"/>
<path d="M21.8816 14.209H19.918V16.1726H21.8816V14.209Z" fill="white"/>
<path d="M23.8806 32.3174H17.845C17.2825 32.3167 16.7432 32.093 16.3455 31.6953C15.9477 31.2975 15.724 30.7582 15.7234 30.1957V24.1607C15.724 23.5982 15.9477 23.0589 16.3455 22.6612C16.7432 22.2634 17.2825 22.0397 17.845 22.0391H23.8806C24.4431 22.0397 24.9824 22.2634 25.3801 22.6612C25.7779 23.0589 26.0016 23.5982 26.0022 24.1607V30.1957C26.0016 30.7582 25.7779 31.2975 25.3801 31.6953C24.9824 32.093 24.4431 32.3167 23.8806 32.3174ZM17.845 24.1607V30.1957H23.8818L23.8806 24.1607H17.845Z" fill="white"/>
<path d="M21.8445 26.1973H19.8809V28.1609H21.8445V26.1973Z" fill="white"/>
<path d="M35.9402 20.3293H29.9042C29.3417 20.3287 28.8024 20.105 28.4047 19.7072C28.007 19.3095 27.7832 18.7702 27.7826 18.2077V12.1724C27.7832 11.6099 28.0069 11.0707 28.4047 10.6729C28.8024 10.2752 29.3417 10.0514 29.9042 10.0508H35.9402C36.5027 10.0514 37.042 10.2751 37.4397 10.6729C37.8375 11.0706 38.0612 11.6099 38.0619 12.1724V18.2077C38.0612 18.7702 37.8375 19.3095 37.4397 19.7072C37.042 20.105 36.5027 20.3287 35.9402 20.3293V20.3293ZM29.9042 12.1724V18.2077H35.9415L35.9402 12.1724H29.9042Z" fill="white"/>
<path d="M33.9042 14.209H31.9406V16.1726H33.9042V14.209Z" fill="white"/>
<path d="M30.7788 23.209H28.8152V25.1726H30.7788V23.209Z" fill="white"/>
<path d="M36.6027 23.209H34.639V25.1726H36.6027V23.209Z" fill="white"/>
<path d="M33.6904 26.1094H31.7268V28.073H33.6904V26.1094Z" fill="white"/>
<path d="M30.7788 28.959H28.8152V30.9226H30.7788V28.959Z" fill="white"/>
<path d="M36.6027 28.959H34.639V30.9226H36.6027V28.959Z" fill="white"/>
</svg>
