<svg width="146" height="94" viewBox="0 0 146 94" fill="none" xmlns="http://www.w3.org/2000/svg">
<g clip-path="url(#clip0_3416_148855)">
<path d="M137.695 94H8.30535C6.10339 93.9975 3.99235 93.1173 2.43534 91.5527C0.87833 89.9881 0.002505 87.8668 0 85.6541V8.34575C0.0025121 6.1331 0.878344 4.01179 2.43535 2.4472C3.99236 0.882615 6.1034 0.00252432 8.30535 0H137.695C139.897 0.00249959 142.008 0.882585 143.565 2.44718C145.122 4.01177 145.998 6.13309 146 8.34575V85.6541C145.998 87.8668 145.122 89.9881 143.565 91.5527C142.008 93.1174 139.897 93.9975 137.695 94ZM8.30535 2.63549C6.79876 2.63726 5.35439 3.23944 4.28907 4.30994C3.22375 5.38043 2.62448 6.83184 2.62273 8.34575V85.6541C2.62446 87.1681 3.22372 88.6195 4.28903 89.69C5.35435 90.7605 6.79874 91.3627 8.30535 91.3645H137.695C139.201 91.3628 140.646 90.7606 141.711 89.69C142.776 88.6195 143.376 87.1681 143.377 85.6541V8.34575C143.376 6.83183 142.776 5.38041 141.711 4.30991C140.646 3.23941 139.201 2.63724 137.695 2.63549H8.30535Z" fill="#222222"/>
<path d="M12.9525 13.4091L6.88965 10.5547L12.9525 7.7002V13.4091Z" fill="#222222"/>
<path d="M20.5369 73.1821H15.5586V61.3223H20.5369V73.1821ZM16.87 71.8642H19.2255V62.64H16.87V71.8642Z" fill="#222222"/>
<path d="M26.8713 73.1821H21.8931V61.3223H26.8713V73.1821ZM23.2044 71.8642H25.56V62.64H23.2044V71.8642Z" fill="#222222"/>
<path d="M33.2058 73.1821H28.2275V61.3223H33.2058V73.1821ZM29.5389 71.8642H31.8945V62.64H29.5389V71.8642Z" fill="#222222"/>
<path d="M39.5403 73.1821H34.562V61.3223H39.5403V73.1821ZM35.8734 71.8642H38.2288V62.64H35.8734V71.8642Z" fill="#222222"/>
<path d="M50.8372 73.1821H45.8589V61.3223H50.8372V73.1821ZM47.1703 71.8642H49.5258V62.64H47.1703V71.8642Z" fill="#222222"/>
<path d="M57.1719 73.1821H52.1936V61.3223H57.1719V73.1821ZM53.505 71.8642H55.8604V62.64H53.505V71.8642Z" fill="#222222"/>
<path d="M63.5061 73.1821H58.5278V61.3223H63.5061V73.1821ZM59.8392 71.8642H62.1947V62.64H59.8392V71.8642Z" fill="#222222"/>
<path d="M69.8406 73.1821H64.8623V61.3223H69.8406V73.1821ZM66.1737 71.8642H68.5292V62.64H66.1737V71.8642Z" fill="#222222"/>
<path d="M81.1377 73.1821H76.1594V61.3223H81.1377V73.1821ZM77.4708 71.8642H79.8264V62.64H77.4708V71.8642Z" fill="#222222"/>
<path d="M87.4722 73.1821H82.4939V61.3223H87.4722V73.1821ZM83.8053 71.8642H86.1608V62.64H83.8053V71.8642Z" fill="#222222"/>
<path d="M93.8066 73.1821H88.8284V61.3223H93.8066V73.1821ZM90.1397 71.8642H92.4953V62.64H90.1397V71.8642Z" fill="#222222"/>
<path d="M100.141 73.1821H95.1628V61.3223H100.141V73.1821ZM96.4742 71.8642H98.8298V62.64H96.4742V71.8642Z" fill="#222222"/>
<path d="M111.438 73.1821H106.46V61.3223H111.438V73.1821ZM107.772 71.8642H110.127V62.64H107.772V71.8642Z" fill="#222222"/>
<path d="M117.773 73.1821H112.795V61.3223H117.773V73.1821ZM114.106 71.8642H116.461V62.64H114.106V71.8642Z" fill="#222222"/>
<path d="M124.107 73.1821H119.129V61.3223H124.107V73.1821ZM120.441 71.8642H122.796V62.64H120.441V71.8642Z" fill="#222222"/>
<path d="M130.441 73.1821H125.464V61.3223H130.441V73.1821ZM126.775 71.8642H129.13V62.64H126.775V71.8642Z" fill="#222222"/>
<path d="M33.3452 30.2383H19.4915C18.3906 30.2396 17.3351 30.6796 16.5566 31.4619C15.7781 32.2442 15.3401 33.3048 15.3389 34.4111V48.3326C15.3401 49.4389 15.7781 50.4996 16.5566 51.2819C17.3351 52.0642 18.3906 52.5042 19.4915 52.5055H33.3452C34.4462 52.5042 35.5017 52.0642 36.2802 51.2819C37.0587 50.4996 37.4966 49.4389 37.4979 48.3326V34.4111C37.4966 33.3048 37.0587 32.2441 36.2802 31.4618C35.5017 30.6796 34.4462 30.2395 33.3452 30.2383ZM33.3452 31.556C34.0985 31.5569 34.8207 31.858 35.3533 32.3932C35.886 32.9285 36.1856 33.6542 36.1865 34.4111V35.4758H32.2797L28.6153 36.3282C28.517 36.3644 28.4084 36.3607 28.3127 36.3179C28.2692 36.222 28.2653 36.1126 28.302 36.0138L29.1105 32.4788C29.184 32.2239 29.3343 31.9983 29.5409 31.833C29.7474 31.6677 29.9999 31.5709 30.2635 31.556H33.3452ZM27.0239 47.0252L27.8324 50.5601C27.8864 50.7807 27.9722 50.9922 28.0872 51.1877H24.7495C24.8646 50.9922 24.9505 50.7807 25.0043 50.5601L25.8129 47.0252C25.9508 46.4216 25.8189 45.8635 25.4509 45.4942C25.0834 45.1249 24.5271 44.994 23.9239 45.1321L22.0632 45.5742V37.1696L23.9274 37.6125C24.0774 37.6477 24.2309 37.6659 24.3849 37.6665C24.5813 37.6717 24.7767 37.6375 24.9597 37.5659C25.1427 37.4943 25.3097 37.3868 25.4509 37.2496C25.8189 36.8802 25.9508 36.3222 25.8129 35.7186L25.0043 32.1837C24.9504 31.963 24.8646 31.7516 24.7495 31.556H28.0872C27.9723 31.7516 27.8864 31.9631 27.8324 32.1837L27.0239 35.7186C26.8861 36.3222 27.0179 36.8802 27.3854 37.2496C27.5267 37.3867 27.6938 37.4942 27.8769 37.5657C28.06 37.6372 28.2555 37.6714 28.4518 37.6661C28.6071 37.6655 28.7617 37.6472 28.9128 37.6117L30.7736 37.1696V45.5742L28.909 45.1313C28.3089 44.9923 27.753 45.1253 27.3854 45.4942C27.0179 45.8635 26.8861 46.4216 27.0239 47.0252ZM20.7518 40.7131H16.6502V36.7937H20.4806L20.7518 36.858V40.7131ZM20.7518 42.0308V45.8857L20.4806 45.9502H16.6502V42.0308H20.7518ZM32.085 42.0308H36.1865V45.9502H32.3561L32.085 45.8857V42.0308ZM32.085 40.7131V36.858L32.3561 36.7937H36.1865V40.7131H32.085ZM19.4915 31.556H22.5733C22.8369 31.5709 23.0894 31.6677 23.2959 31.833C23.5024 31.9983 23.6528 32.2239 23.7262 32.4788L24.5348 36.0138C24.5714 36.1125 24.5675 36.2217 24.5241 36.3175C24.4776 36.3392 24.4272 36.3514 24.3759 36.3534C24.3246 36.3554 24.2734 36.3471 24.2253 36.3291L20.7077 35.4935L16.6502 35.4783V34.4111C16.6511 33.6542 16.9508 32.9285 17.4834 32.3933C18.0161 31.858 18.7383 31.5569 19.4915 31.556ZM19.4915 51.1877C18.7383 51.1869 18.0161 50.8858 17.4834 50.3505C16.9507 49.8153 16.6511 49.0896 16.6502 48.3326V47.2679H20.557L24.2218 46.4156C24.2642 46.3786 24.3189 46.3591 24.375 46.3611C24.4311 46.3631 24.4844 46.3864 24.5241 46.4262C24.5638 46.4661 24.5869 46.5196 24.5889 46.576C24.5909 46.6323 24.5716 46.6873 24.5348 46.7299L23.7262 50.265C23.6528 50.5198 23.5024 50.7455 23.2959 50.9107C23.0894 51.076 22.8369 51.1728 22.5733 51.1877H19.4915ZM33.3452 51.1877H30.2635C29.9999 51.1728 29.7474 51.076 29.5409 50.9107C29.3343 50.7455 29.184 50.5198 29.1105 50.265L28.302 46.7299C28.2652 46.6877 28.2457 46.6331 28.2473 46.5771C28.249 46.521 28.2717 46.4677 28.3109 46.4278C28.3501 46.3878 28.4029 46.3643 28.4586 46.3619C28.5144 46.3595 28.569 46.3784 28.6115 46.4148L32.129 47.2503L36.1865 47.2654V48.3326C36.1857 49.0896 35.886 49.8153 35.3534 50.3505C34.8207 50.8858 34.0985 51.1869 33.3452 51.1877Z" fill="#222222"/>
<path d="M54.2835 45.654C53.6134 45.9801 52.7383 46.1431 51.6583 46.143C50.2496 46.143 49.1418 45.7269 48.3349 44.8947C47.5282 44.0625 47.1248 42.9537 47.1248 41.5682C47.1248 40.0926 47.5784 38.8958 48.4856 37.9778C49.3925 37.0598 50.5695 36.6008 52.0169 36.6008C52.7865 36.5809 53.5536 36.6963 54.2835 36.942V38.943C53.6473 38.5682 52.9207 38.3768 52.1833 38.3896C51.3211 38.3896 50.6253 38.662 50.0959 39.2068C49.5666 39.7516 49.3019 40.4895 49.3019 41.4202C49.3019 42.3124 49.5517 43.0235 50.0511 43.5534C50.5505 44.0831 51.2228 44.3479 52.068 44.3479C52.8462 44.3555 53.6119 44.151 54.2835 43.7559V45.654Z" fill="#222222"/>
<path d="M63.5875 45.9818H61.212L59.784 43.6074C59.6774 43.4272 59.5749 43.2664 59.4766 43.1249C59.3881 42.9952 59.2885 42.8735 59.1791 42.761C59.0876 42.6673 58.9815 42.589 58.8649 42.5295C58.7543 42.4756 58.6327 42.4482 58.5098 42.4492H57.9527V45.9818H55.8845V36.7549H59.1629C61.3913 36.7549 62.5054 37.5913 62.5054 39.2642C62.5084 39.5677 62.4586 39.8694 62.3581 40.1556C62.2625 40.4234 62.1217 40.6725 61.9419 40.8922C61.7575 41.1152 61.538 41.3064 61.2922 41.4583C61.0279 41.6215 60.7423 41.7471 60.4436 41.8315V41.8573C60.5868 41.9037 60.721 41.9744 60.8406 42.0661C60.9739 42.1677 61.0982 42.2808 61.212 42.4041C61.3341 42.5357 61.4484 42.6743 61.5544 42.8193C61.6635 42.967 61.7628 43.1118 61.8523 43.2536L63.5875 45.9818ZM57.9527 38.3119V40.8792H58.8491C59.2424 40.8979 59.627 40.7591 59.9184 40.4931C60.0512 40.3695 60.1563 40.2189 60.2269 40.0515C60.2976 39.884 60.3321 39.7034 60.3283 39.5216C60.3283 38.7151 59.8481 38.3119 58.8876 38.3119H57.9527Z" fill="#222222"/>
<path d="M69.9523 45.9818H64.4456V36.7549H69.7409V38.447H66.5137V40.4996H69.5169V42.1854H66.5137V44.2959H69.9523V45.9818Z" fill="#222222"/>
<path d="M71.425 45.9818V36.7549H74.6778C77.9393 36.7549 79.57 38.2541 79.57 41.2524C79.57 42.6895 79.1249 43.8369 78.2347 44.6948C77.345 45.5528 76.1594 45.9818 74.6778 45.9818H71.425ZM73.4933 38.447V44.2959H74.5178C75.4143 44.2959 76.1176 44.0256 76.6279 43.4851C77.1376 42.9447 77.3926 42.2091 77.3928 41.2782C77.3928 40.3988 77.1399 39.7072 76.6339 39.2034C76.1285 38.6993 75.4188 38.4472 74.5051 38.447H73.4933Z" fill="#222222"/>
<path d="M83.1621 45.9818H81.094V36.7549H83.1621V45.9818Z" fill="#222222"/>
<path d="M91.6976 38.447H89.0787V45.9818H87.004V38.447H84.3979V36.7549H91.6976V38.447Z" fill="#222222"/>
<path d="M103.134 45.654C102.464 45.9801 101.589 46.1431 100.509 46.143C99.0998 46.143 97.9921 45.7269 97.1853 44.8947C96.3785 44.0625 95.9751 42.9536 95.9751 41.5682C95.9751 40.0926 96.4287 38.8958 97.336 37.9778C98.2427 37.0598 99.4197 36.6008 100.867 36.6008C101.637 36.5809 102.404 36.6963 103.134 36.942V38.943C102.498 38.5682 101.771 38.3768 101.034 38.3896C100.171 38.3896 99.4755 38.662 98.9462 39.2068C98.4169 39.7515 98.1522 40.4894 98.1521 41.4202C98.1521 42.3124 98.4019 43.0235 98.9013 43.5534C99.4008 44.0831 100.073 44.3479 100.918 44.3479C101.697 44.3555 102.462 44.1509 103.134 43.7559V45.654Z" fill="#222222"/>
<path d="M112.809 45.9818H110.555L109.902 43.9291H106.636L105.99 45.9818H103.749L107.091 36.7549H109.544L112.809 45.9818ZM109.428 42.3334L108.442 39.232C108.362 38.9615 108.311 38.6833 108.288 38.402H108.237C108.215 38.6754 108.162 38.9454 108.077 39.2063L107.078 42.3334H109.428Z" fill="#222222"/>
<path d="M121.658 45.9818H119.283L117.855 43.6074C117.748 43.4272 117.646 43.2664 117.547 43.1249C117.459 42.9952 117.359 42.8735 117.25 42.761C117.158 42.6673 117.052 42.589 116.936 42.5295C116.825 42.4756 116.704 42.4482 116.581 42.4492H116.023V45.9818H113.955V36.7549H117.234C119.462 36.7549 120.576 37.5913 120.576 39.2642C120.579 39.5677 120.529 39.8694 120.429 40.1556C120.333 40.4234 120.192 40.6725 120.013 40.8922C119.828 41.1152 119.609 41.3065 119.363 41.4583C119.099 41.6215 118.813 41.7471 118.514 41.8315V41.8573C118.657 41.9037 118.792 41.9743 118.911 42.0661C119.045 42.1677 119.169 42.2808 119.283 42.4041C119.405 42.5357 119.519 42.6743 119.625 42.8193C119.734 42.967 119.834 43.1118 119.923 43.2536L121.658 45.9818ZM116.023 38.3119V40.8792H116.92C117.313 40.8979 117.698 40.7591 117.989 40.4931C118.122 40.3695 118.227 40.2189 118.298 40.0515C118.368 39.884 118.403 39.7034 118.399 39.5216C118.399 38.7151 117.919 38.3119 116.958 38.3119H116.023Z" fill="#222222"/>
<path d="M122.516 45.9818V36.7549H125.769C129.031 36.7549 130.661 38.2541 130.661 41.2524C130.661 42.6895 130.216 43.8369 129.326 44.6948C128.436 45.5528 127.251 45.9818 125.769 45.9818H122.516ZM124.584 38.447V44.2959H125.609C126.506 44.2959 127.209 44.0256 127.719 43.4851C128.229 42.9447 128.484 42.2091 128.484 41.2782C128.484 40.3988 128.231 39.7072 127.725 39.2034C127.22 38.6993 126.51 38.4472 125.596 38.447H124.584Z" fill="#222222"/>
</g>
<defs>
<clipPath id="clip0_3416_148855">
<rect width="146" height="94" fill="white"/>
</clipPath>
</defs>
</svg>
