<svg width="140" height="140" viewBox="0 0 140 140" fill="none" xmlns="http://www.w3.org/2000/svg">
<g clip-path="url(#clip0_3261_113783)">
<path d="M74.6025 89.5672C74.5114 89.5274 74.4145 89.5071 74.3149 89.5071C74.1142 89.5071 73.9217 89.5916 73.7866 89.7389C73.7346 89.7959 73.6914 89.8624 73.659 89.9353C72.9055 91.6487 71.512 94.1321 70.5758 95.1542C69.3842 96.455 68.2724 96.8813 67.379 97.2239C67.0825 97.3379 66.8022 97.4456 66.5525 97.5759C66.0844 97.8128 65.6674 98.1302 65.3093 98.5214C64.7887 99.0896 64.5435 99.6555 64.4808 99.8154L64.4754 99.8282L62.683 103.902L45.4476 96.358L45.6514 95.8408C45.8184 95.4162 45.9128 94.9503 45.932 94.4565L45.9328 94.4359L45.9361 94.4154C46.0378 93.7841 45.9068 93.0806 45.7682 92.3356L45.7477 92.2262C45.4747 90.757 45.0254 89.3011 44.5497 87.76C44.187 86.584 43.812 85.3682 43.4921 84.0721C41.767 77.2824 41.279 72.5059 42.0423 69.8774C42.6574 67.7578 42.5795 65.7308 42.5168 64.1021L42.5166 64.0955C42.4595 62.5971 42.4144 61.4136 42.8817 60.7788C43.2317 60.3037 43.6554 60.0825 44.2153 60.0825L44.2429 60.0826C45.3929 60.0977 46.8657 61.0701 47.8247 62.4472C49.5213 64.8836 49.9278 67.3035 49.1839 70.5385C49.1453 70.7066 49.169 70.8833 49.2508 71.036C49.5941 71.6781 50.486 73.6636 50.4932 75.1236C50.4937 75.2434 50.5228 75.357 50.5798 75.4613L50.6019 75.5019L50.6125 75.547C50.6576 75.7382 50.7753 75.8972 50.9441 75.9948C51.0579 76.0615 53.7133 77.6347 55.7255 80.3614C58.3823 83.9621 58.7177 87.8149 56.7226 91.8128C56.639 91.9805 56.6258 92.1705 56.6854 92.3481C56.7451 92.5257 56.8705 92.6693 57.0385 92.7526C57.1119 92.7894 57.1897 92.8125 57.2705 92.8218C57.2972 92.8248 57.3242 92.8264 57.3509 92.8264C57.6199 92.8264 57.8613 92.6775 57.9809 92.4377C60.2091 87.9727 59.8062 83.4902 56.816 79.4746C55.0643 77.1222 52.911 75.5908 52.0665 75.0414L51.9225 74.9479L51.911 74.7768C51.8035 73.1755 51.0426 71.445 50.7204 70.7754L50.6362 70.6009L50.6751 70.4103C51.3559 67.0415 50.8236 64.2521 48.9997 61.6328C47.9798 60.1683 46.1194 58.6798 44.262 58.6556C44.2472 58.6554 44.2324 58.6553 44.2178 58.6553C43.2197 58.6553 42.3357 59.1095 41.7283 59.9341C40.9648 60.9715 41.0216 62.4486 41.0874 64.1589C41.1489 65.7656 41.2184 67.5841 40.6678 69.4803C39.3504 74.0166 41.5432 82.4831 42.2467 84.9697L42.2775 85.0792C42.5748 86.2644 42.9 87.2959 43.2145 88.2936L43.2183 88.3059C43.6507 89.6759 44.0591 90.97 44.3406 92.4862C44.4662 93.163 44.4706 94.6545 44.3789 95.1547L44.374 95.1819L44.1563 95.7931L42.8878 95.2374C42.7962 95.1973 42.6994 95.177 42.5999 95.177C42.3997 95.177 42.2074 95.2616 42.0725 95.4091C42.0201 95.4663 41.9774 95.532 41.9454 95.6045L37.0606 106.709C36.9838 106.883 36.9799 107.076 37.0494 107.254C37.1189 107.432 37.2535 107.572 37.4283 107.649L60.9391 117.94C61.0307 117.98 61.1275 118 61.2269 118C61.427 118 61.6192 117.916 61.7543 117.768C61.807 117.711 61.8494 117.645 61.8806 117.574L66.7661 106.468C66.8432 106.294 66.8473 106.1 66.7778 105.923C66.7086 105.745 66.5741 105.605 66.3989 105.529L63.9932 104.476L65.8113 100.343C65.8122 100.341 65.8141 100.335 65.817 100.327L65.8231 100.311C65.8629 100.213 66.0192 99.8632 66.3588 99.4922C66.6055 99.2231 66.8914 99.005 67.2088 98.8439C67.523 98.6801 67.8625 98.5358 68.1907 98.3961C69.2288 97.9535 70.4055 97.4516 71.659 96.0831C72.6919 94.9559 74.1537 92.363 74.9701 90.5075C75.1285 90.1474 74.9636 89.7256 74.6025 89.5672V89.5672ZM65.169 106.549L60.8584 116.346L38.6578 106.628L42.9683 96.8314L65.169 106.549V106.549Z" fill="#510DA4"/>
<path d="M81.2613 25H55.9573C53.3544 25 51.2368 27.1124 51.2368 29.7089V59.0361C51.2368 59.4349 51.5621 59.7594 51.9618 59.7594C52.3616 59.7594 52.687 59.4349 52.687 59.0361V29.7089C52.687 27.91 54.1541 26.4464 55.9573 26.4464H81.2613C83.0643 26.4464 84.5311 27.91 84.5311 29.7089V82.3571C84.5311 84.1556 83.0643 85.6187 81.2613 85.6187H63.3655C62.9657 85.6187 62.6404 85.9432 62.6404 86.342C62.6404 86.7408 62.9657 87.0654 63.3655 87.0654H81.2613C83.8639 87.0654 85.9813 84.9533 85.9813 82.3571V29.7089C85.9813 27.1124 83.8639 25 81.2613 25Z" fill="#510DA4"/>
<path d="M59.9424 62.9132C59.9424 63.2496 60.2167 63.5232 60.5539 63.5232H64.5205C64.8576 63.5232 65.1319 63.2496 65.1319 62.9132V58.9566C65.1319 58.6203 64.8576 58.3467 64.5205 58.3467H60.5539C60.2167 58.3467 59.9424 58.6203 59.9424 58.9566V62.9132ZM61.1654 59.5666H63.909V62.3033H61.1654V59.5666V59.5666Z" fill="#510DA4"/>
<path d="M64.5205 46.3193H60.5539C60.2167 46.3193 59.9424 46.593 59.9424 46.9293V50.8859C59.9424 51.2222 60.2167 51.4959 60.5539 51.4959H64.5205C64.8576 51.4959 65.1319 51.2222 65.1319 50.8859V46.9293C65.1319 46.593 64.8576 46.3193 64.5205 46.3193ZM63.909 50.276H61.1654V47.5392H63.909V50.276V50.276Z" fill="#510DA4"/>
<path d="M71.9992 46.9293V50.886C71.9992 51.2223 72.2735 51.4959 72.6107 51.4959H76.5772C76.9144 51.4959 77.1887 51.2223 77.1887 50.886V46.9293C77.1887 46.593 76.9144 46.3193 76.5772 46.3193H72.6107C72.2735 46.3193 71.9992 46.593 71.9992 46.9293V46.9293ZM73.2222 47.5392H75.9657V50.276H73.2222V47.5392Z" fill="#510DA4"/>
<path d="M66.7343 46.3193C66.3971 46.3193 66.1228 46.593 66.1228 46.9293V48.9076C66.1228 49.2439 66.3971 49.5175 66.7343 49.5175H68.5655C68.9027 49.5175 69.177 49.2439 69.177 48.9076C69.177 48.5713 68.9027 48.2976 68.5655 48.2976H67.3458V46.9293C67.3458 46.593 67.0715 46.3193 66.7343 46.3193Z" fill="#510DA4"/>
<path d="M60.5539 53.6144H61.9223C62.2595 53.6144 62.5338 53.3408 62.5338 53.0045C62.5338 52.6682 62.2595 52.3945 61.9223 52.3945H60.5539C60.2167 52.3945 59.9424 52.6681 59.9424 53.0045C59.9424 53.3408 60.2167 53.6144 60.5539 53.6144Z" fill="#510DA4"/>
<path d="M63.909 53.0041V54.9213C63.909 55.2576 64.1833 55.5312 64.5205 55.5312C64.8576 55.5312 65.1319 55.2576 65.1319 54.9213V53.614H66.7343C67.0715 53.614 67.3458 53.3404 67.3458 53.0041V50.8863C67.3458 50.55 67.0715 50.2764 66.7343 50.2764C66.3972 50.2764 66.1228 50.55 66.1228 50.8863V52.3941H64.5205C64.1833 52.3941 63.909 52.6677 63.909 53.0041V53.0041Z" fill="#510DA4"/>
<path d="M71.0683 53.0041V50.8863C71.0683 50.55 70.794 50.2764 70.4568 50.2764H68.5655C68.2283 50.2764 67.954 50.55 67.954 50.8863C67.954 51.2227 68.2283 51.4963 68.5655 51.4963H69.8453V52.3941H68.5655C68.2283 52.3941 67.954 52.6677 67.954 53.0041V54.3113H66.7343C66.3971 54.3113 66.1228 54.5849 66.1228 54.9213V56.7172C66.1228 57.0535 66.3971 57.3272 66.7343 57.3272C67.0715 57.3272 67.3458 57.0535 67.3458 56.7172V55.5312H68.5655C68.9027 55.5312 69.177 55.2576 69.177 54.9213V53.614H70.4568C70.794 53.614 71.0683 53.3404 71.0683 53.0041V53.0041Z" fill="#510DA4"/>
<path d="M70.4568 49.5175C70.794 49.5175 71.0683 49.2439 71.0683 48.9076V46.9293C71.0683 46.593 70.794 46.3193 70.4568 46.3193H69.5112C69.174 46.3193 68.8997 46.593 68.8997 46.9293C68.8997 47.2656 69.174 47.5392 69.5112 47.5392H69.8454V48.9076C69.8454 49.2439 70.1197 49.5175 70.4568 49.5175Z" fill="#510DA4"/>
<path d="M59.9424 56.7174C59.9424 57.0537 60.2167 57.3274 60.5539 57.3274C60.8911 57.3274 61.1654 57.0537 61.1654 56.7174V54.9215C61.1654 54.5851 60.891 54.3115 60.5539 54.3115C60.2167 54.3115 59.9424 54.5851 59.9424 54.9215V56.7174Z" fill="#510DA4"/>
<path d="M64.5205 56.5603H63.5325V55.359C63.5325 55.0227 63.2582 54.749 62.921 54.749C62.5839 54.749 62.3096 55.0227 62.3096 55.359V57.1703C62.3096 57.5066 62.5839 57.7802 62.921 57.7802H64.5205C64.8576 57.7802 65.1319 57.5066 65.1319 57.1703C65.1319 56.8339 64.8576 56.5603 64.5205 56.5603Z" fill="#510DA4"/>
<path d="M66.7343 59.5667H68.5655C68.9027 59.5667 69.177 59.2931 69.177 58.9567V57.1705C69.177 56.8342 68.9027 56.5605 68.5655 56.5605C68.2284 56.5605 67.954 56.8342 67.954 57.1705V58.3468H66.7343C66.3971 58.3468 66.1228 58.6204 66.1228 58.9567C66.1228 59.293 66.3971 59.5667 66.7343 59.5667Z" fill="#510DA4"/>
<path d="M66.7343 62.3025C66.3971 62.3025 66.1228 62.5761 66.1228 62.9124C66.1228 63.2487 66.3971 63.5224 66.7343 63.5224H68.5955C68.9327 63.5224 69.2071 63.2487 69.2071 62.9124V60.9341C69.2071 60.5978 68.9327 60.3242 68.5955 60.3242H66.7343C66.3971 60.3242 66.1228 60.5978 66.1228 60.9341C66.1228 61.2705 66.3971 61.5441 66.7343 61.5441H67.9841V62.3025H66.7343V62.3025Z" fill="#510DA4"/>
<path d="M72.6107 54.4113H73.8161C74.1533 54.4113 74.4276 54.1377 74.4276 53.8014C74.4276 53.465 74.1533 53.1914 73.8161 53.1914H72.6107C72.2735 53.1914 71.9992 53.465 71.9992 53.8014C71.9992 54.1377 72.2735 54.4113 72.6107 54.4113Z" fill="#510DA4"/>
<path d="M73.9825 61.427C73.9825 61.7633 74.2568 62.0369 74.594 62.0369H75.9657V62.9132C75.9657 63.2496 76.2401 63.5232 76.5772 63.5232C76.9144 63.5232 77.1887 63.2496 77.1887 62.9132V61.427C77.1887 61.0907 76.9144 60.817 76.5772 60.817H75.2054V58.9566C75.2054 58.6203 74.9311 58.3467 74.594 58.3467C74.2568 58.3467 73.9825 58.6203 73.9825 58.9566V61.427V61.427Z" fill="#510DA4"/>
<path d="M72.6107 61.5441C72.9479 61.5441 73.2222 61.2705 73.2222 60.9341C73.2222 60.5978 72.9479 60.3242 72.6107 60.3242H71.5337C71.1966 60.3242 70.9222 60.5978 70.9222 60.9341V62.3025H70.4568C70.1196 62.3025 69.8453 62.5761 69.8453 62.9124C69.8453 63.2487 70.1196 63.5224 70.4568 63.5224H72.6107C72.9479 63.5224 73.2222 63.2487 73.2222 62.9124C73.2222 62.5761 72.9479 62.3025 72.6107 62.3025H72.1452V61.5441H72.6107V61.5441Z" fill="#510DA4"/>
<path d="M71.9992 58.3465H71.0683V54.9215C71.0683 54.5851 70.794 54.3115 70.4568 54.3115C70.1196 54.3115 69.8453 54.5851 69.8453 54.9215V58.9564C69.8453 59.2927 70.1196 59.5664 70.4568 59.5664H72.6107C72.9479 59.5664 73.2222 59.2927 73.2222 58.9564V56.2646C73.2222 55.9283 72.9479 55.6546 72.6107 55.6546C72.2735 55.6546 71.9992 55.9283 71.9992 56.2646V58.3465V58.3465Z" fill="#510DA4"/>
<path d="M73.9825 56.7169C73.9825 57.0532 74.2568 57.3269 74.594 57.3269H75.9657V58.9559C75.9657 59.2923 76.2401 59.5659 76.5772 59.5659C76.9144 59.5659 77.1887 59.2923 77.1887 58.9559V55.8189C77.1887 55.4826 76.9144 55.209 76.5772 55.209C76.2401 55.209 75.9657 55.4826 75.9657 55.8189V56.107H74.594C74.2568 56.107 73.9825 56.3806 73.9825 56.7169V56.7169Z" fill="#510DA4"/>
<path d="M76.5773 54.6048C76.9144 54.6048 77.1887 54.3311 77.1887 53.9948V52.9039C77.1887 52.5675 76.9144 52.2939 76.5773 52.2939H75.5856C75.2484 52.2939 74.9741 52.5675 74.9741 52.9039C74.9741 53.2402 75.2484 53.5138 75.5856 53.5138H75.9658V53.9948C75.9658 54.3311 76.2401 54.6048 76.5773 54.6048V54.6048Z" fill="#510DA4"/>
<path d="M62.6164 43.1318H57.3987C57.0265 43.1318 56.7247 43.4328 56.7247 43.8041V49.0087C56.7247 49.38 57.0265 49.681 57.3987 49.681C57.771 49.681 58.0727 49.38 58.0727 49.0087V44.4765H62.6164C62.9886 44.4765 63.2904 44.1755 63.2904 43.8041C63.2904 43.4328 62.9886 43.1318 62.6164 43.1318V43.1318Z" fill="#510DA4"/>
<path d="M80.4498 43.8041C80.4498 43.4328 80.1481 43.1318 79.7759 43.1318H74.5582C74.1859 43.1318 73.8842 43.4328 73.8842 43.8041C73.8842 44.1755 74.1859 44.4765 74.5582 44.4765H79.1018V49.0087C79.1018 49.38 79.4036 49.681 79.7759 49.681C80.1481 49.681 80.4498 49.38 80.4498 49.0087V43.8041Z" fill="#510DA4"/>
<path d="M56.6812 66.1249C56.6812 66.4962 56.983 66.7972 57.3552 66.7972H62.5729C62.9451 66.7972 63.2469 66.4962 63.2469 66.1249C63.2469 65.7536 62.9451 65.4526 62.5729 65.4526H58.0292V60.9204C58.0292 60.549 57.7275 60.248 57.3552 60.248C56.983 60.248 56.6812 60.549 56.6812 60.9204V66.1249V66.1249Z" fill="#510DA4"/>
<path d="M74.5146 66.7972H79.7323C80.1046 66.7972 80.4063 66.4962 80.4063 66.1249V60.9204C80.4063 60.549 80.1046 60.248 79.7323 60.248C79.3601 60.248 79.0583 60.549 79.0583 60.9204V65.4526H74.5146C74.1424 65.4526 73.8406 65.7536 73.8406 66.1249C73.8406 66.4962 74.1424 66.7972 74.5146 66.7972V66.7972Z" fill="#510DA4"/>
<path d="M95.1713 57.7029H99.1378C99.475 57.7029 99.7493 57.4293 99.7493 57.093V53.1363C99.7493 52.8 99.475 52.5264 99.1378 52.5264H95.1713C94.8341 52.5264 94.5598 52.8 94.5598 53.1363V57.093C94.5598 57.4293 94.8341 57.7029 95.1713 57.7029ZM95.7827 53.7463H98.5263V56.483H95.7827V53.7463Z" fill="#510DA4"/>
<path d="M89.2949 55.7245H91.1261C91.4633 55.7245 91.7376 55.4509 91.7376 55.1146C91.7376 54.7783 91.4633 54.5047 91.1261 54.5047H89.9064V53.1363C89.9064 52.8 89.6321 52.5264 89.2949 52.5264C88.9578 52.5264 88.6834 52.8 88.6834 53.1363V55.1146C88.6834 55.4509 88.9577 55.7245 89.2949 55.7245V55.7245Z" fill="#510DA4"/>
<path d="M89.2949 63.5342C89.6321 63.5342 89.9064 63.2605 89.9064 62.9242V61.7383H91.1261C91.4633 61.7383 91.7376 61.4646 91.7376 61.1283V59.821H93.0174C93.3546 59.821 93.6289 59.5474 93.6289 59.2111V57.0934C93.6289 56.757 93.3546 56.4834 93.0174 56.4834H91.1261C90.789 56.4834 90.5146 56.757 90.5146 57.0934C90.5146 57.4297 90.789 57.7033 91.1261 57.7033H92.4059V58.6012H91.1261C90.789 58.6012 90.5146 58.8748 90.5146 59.2111V60.5183H89.2949C88.9577 60.5183 88.6834 60.792 88.6834 61.1283V62.9242C88.6834 63.2605 88.9577 63.5342 89.2949 63.5342V63.5342Z" fill="#510DA4"/>
<path d="M91.4603 53.1363C91.4603 53.4726 91.7346 53.7463 92.0718 53.7463H92.4059V55.1146C92.4059 55.4509 92.6802 55.7245 93.0174 55.7245C93.3545 55.7245 93.6289 55.4509 93.6289 55.1146V53.1363C93.6289 52.8 93.3545 52.5264 93.0174 52.5264H92.0718C91.7346 52.5264 91.4603 52.8 91.4603 53.1363V53.1363Z" fill="#510DA4"/>
<path d="M89.2949 65.7728H91.1261C91.4633 65.7728 91.7376 65.4991 91.7376 65.1628V63.3766C91.7376 63.0402 91.4633 62.7666 91.1261 62.7666C90.789 62.7666 90.5146 63.0402 90.5146 63.3766V64.5528H89.2949C88.9577 64.5528 88.6834 64.8265 88.6834 65.1628C88.6834 65.4991 88.9577 65.7728 89.2949 65.7728Z" fill="#510DA4"/>
<path d="M91.1562 66.5312H89.2949C88.9577 66.5312 88.6834 66.8049 88.6834 67.1412C88.6834 67.4775 88.9577 67.7511 89.2949 67.7511H90.5447V68.5095H89.2949C88.9577 68.5095 88.6834 68.7831 88.6834 69.1194C88.6834 69.4557 88.9577 69.7294 89.2949 69.7294H91.1562C91.4933 69.7294 91.7677 69.4558 91.7677 69.1194V67.1412C91.7677 66.8049 91.4933 66.5312 91.1562 66.5312Z" fill="#510DA4"/>
<path d="M96.9881 60.0084C96.9881 59.6721 96.7138 59.3984 96.3766 59.3984H95.1712C94.8341 59.3984 94.5598 59.6721 94.5598 60.0084C94.5598 60.3447 94.8341 60.6183 95.1712 60.6183H96.3766C96.7138 60.6183 96.9881 60.3447 96.9881 60.0084Z" fill="#510DA4"/>
<path d="M99.1378 69.7293C99.475 69.7293 99.7493 69.4556 99.7493 69.1193V67.633C99.7493 67.2967 99.475 67.0231 99.1378 67.0231H97.766V65.1627C97.766 64.8263 97.4917 64.5527 97.1545 64.5527C96.8174 64.5527 96.543 64.8263 96.543 65.1627V67.633C96.543 67.9693 96.8173 68.243 97.1545 68.243H98.5263V69.1193C98.5263 69.4556 98.8006 69.7293 99.1378 69.7293Z" fill="#510DA4"/>
<path d="M95.1713 67.7511C95.5084 67.7511 95.7827 67.4775 95.7827 67.1412C95.7827 66.8049 95.5084 66.5312 95.1713 66.5312H94.0943C93.7571 66.5312 93.4828 66.8049 93.4828 67.1412V68.5095H93.0174C92.6802 68.5095 92.4059 68.7831 92.4059 69.1194C92.4059 69.4557 92.6802 69.7294 93.0174 69.7294H95.1713C95.5084 69.7294 95.7827 69.4558 95.7827 69.1194C95.7827 68.7831 95.5084 68.5095 95.1713 68.5095H94.7057V67.7511H95.1713Z" fill="#510DA4"/>
<path d="M95.1713 61.8617C94.8341 61.8617 94.5598 62.1353 94.5598 62.4716V64.5535H93.6288V61.1285C93.6288 60.7922 93.3545 60.5186 93.0174 60.5186C92.6802 60.5186 92.4059 60.7922 92.4059 61.1285V65.1634C92.4059 65.4998 92.6802 65.7734 93.0174 65.7734H95.1713C95.5084 65.7734 95.7827 65.4998 95.7827 65.1634V62.4716C95.7827 62.1353 95.5084 61.8617 95.1713 61.8617V61.8617Z" fill="#510DA4"/>
<path d="M99.7493 62.026C99.7493 61.6896 99.475 61.416 99.1378 61.416C98.8007 61.416 98.5263 61.6896 98.5263 62.026V62.314H97.1545C96.8173 62.314 96.543 62.5876 96.543 62.9239C96.543 63.2603 96.8173 63.5339 97.1545 63.5339H98.5263V65.163C98.5263 65.4993 98.8006 65.7729 99.1378 65.7729C99.475 65.7729 99.7493 65.4993 99.7493 65.163V62.026V62.026Z" fill="#510DA4"/>
<path d="M99.7493 59.1109C99.7493 58.7746 99.475 58.501 99.1378 58.501H98.1462C97.809 58.501 97.5347 58.7746 97.5347 59.1109C97.5347 59.4473 97.809 59.7209 98.1462 59.7209H98.5263V60.2018C98.5263 60.5382 98.8006 60.8118 99.1378 60.8118C99.475 60.8118 99.7493 60.5382 99.7493 60.2018V59.1109Z" fill="#510DA4"/>
<path d="M102.336 49.3389H97.1187C96.7465 49.3389 96.4447 49.6399 96.4447 50.0112C96.4447 50.3825 96.7465 50.6835 97.1187 50.6835H101.662V55.2158C101.662 55.5871 101.964 55.8881 102.336 55.8881C102.709 55.8881 103.01 55.5871 103.01 55.2158V50.0112C103.01 49.6399 102.709 49.3389 102.336 49.3389Z" fill="#510DA4"/>
<path d="M102.293 66.4551C101.921 66.4551 101.619 66.7561 101.619 67.1274V71.6596H97.0753C96.703 71.6596 96.4012 71.9606 96.4012 72.332C96.4012 72.7033 96.703 73.0043 97.0753 73.0043H102.293C102.665 73.0043 102.967 72.7033 102.967 72.332V67.1274C102.967 66.7561 102.665 66.4551 102.293 66.4551Z" fill="#510DA4"/>
<path d="M70.5101 29.459H66.768C66.3616 29.459 66.032 29.7877 66.032 30.1931C66.032 30.5986 66.3616 30.9273 66.768 30.9273H70.5101C70.9166 30.9273 71.2461 30.5986 71.2461 30.1931C71.2461 29.7877 70.9166 29.459 70.5101 29.459Z" fill="#510DA4"/>
<path d="M91.8037 36.3528H91.8054C92.2111 36.3528 92.5404 36.0253 92.5414 35.6204L92.5528 30.7827C92.5538 30.3773 92.2251 30.0478 91.8186 30.0469H91.8168C91.4112 30.0469 91.0818 30.3744 91.0809 30.7793L91.0694 35.617C91.0684 36.0224 91.3972 36.3519 91.8037 36.3528V36.3528Z" fill="#510DA4"/>
<path d="M103.266 41.2917L98.4159 41.2803H98.4141C98.0085 41.2803 97.6791 41.6078 97.6782 42.0127C97.6772 42.4181 98.0059 42.7476 98.4124 42.7486L103.262 42.76H103.264C103.67 42.76 103.999 42.4324 104 42.0276C104.001 41.6221 103.672 41.2927 103.266 41.2917Z" fill="#510DA4"/>
<path d="M97.4016 37.5899C97.5894 37.5899 97.7772 37.5187 97.9208 37.3761L101.358 33.9635C101.646 33.6775 101.647 33.2126 101.361 32.9253C101.074 32.6379 100.608 32.6367 100.32 32.9228L96.8824 36.3355C96.5944 36.6215 96.5932 37.0863 96.88 37.3737C97.0238 37.5178 97.2127 37.5899 97.4016 37.5899V37.5899Z" fill="#510DA4"/>
</g>
<defs>
<clipPath id="clip0_3261_113783">
<rect width="67" height="93" fill="white" transform="translate(37 25)"/>
</clipPath>
</defs>
</svg>
