<svg width="240" height="240" viewBox="0 0 240 240" fill="none" xmlns="http://www.w3.org/2000/svg">
<g clip-path="url(#clip0_229_25554)">
<path d="M20.04 163.2C15.48 163.2 11.64 159.48 11.64 154.92C11.64 150.36 15.36 146.52 19.92 146.52C24.48 146.52 28.32 150.24 28.32 154.8C28.32 159.48 24.6 163.2 20.04 163.2ZM20.04 151.08C18 151.08 16.2 152.76 16.2 154.8C16.2 156.84 17.88 158.64 19.92 158.64C21.96 158.64 23.76 156.96 23.76 154.92C23.88 152.76 22.08 151.08 20.04 151.08Z" fill="#222222"/>
<path d="M27.6 215.04H12.48C5.40001 215.04 -0.359985 209.28 -0.359985 202.2V149.04C-0.359985 141.96 5.40001 136.2 12.48 136.2H27.6C34.68 136.2 40.44 141.96 40.44 149.04V202.2C40.44 209.28 34.68 215.04 27.6 215.04ZM12.48 140.64C7.92001 140.64 4.20001 144.36 4.20001 148.92V202.2C4.20001 206.76 7.92001 210.48 12.48 210.48H27.6C32.16 210.48 35.88 206.76 35.88 202.2V149.04C35.88 144.48 32.16 140.76 27.6 140.76L12.48 140.64Z" fill="#222222"/>
<path d="M61.56 195.84C55.2 195.84 48.84 195.24 42.6 194.16L35.88 192.96V155.4L49.56 147.6C63.12 141.12 78.84 140.88 92.64 146.64L129.48 162.36C133.32 164.04 135.24 168.48 133.56 172.44C133.32 173.04 133.08 173.52 132.72 174C131.04 176.28 128.16 177.24 125.4 176.52L88.8 170.52C87.6 170.28 86.76 169.08 87 167.88C87.24 166.68 88.32 165.96 89.52 166.08L126.6 172.08C127.44 172.32 128.4 172.08 129 171.24C129.96 169.8 129.72 167.88 128.28 166.92C128.04 166.8 127.92 166.68 127.68 166.56L90.84 150.84C78.24 145.44 64.08 145.8 51.72 151.56L40.56 158.04V189.24L43.56 189.72C49.56 190.8 55.68 191.28 61.68 191.28H61.8H112.56C124.8 191.28 136.92 189 148.44 184.68L183.72 171.24C186.6 170.16 188.64 167.52 189 164.52C189.36 161.76 187.44 159.36 184.68 159C184.32 159 183.96 159 183.6 159L140.04 169.92C138.84 170.28 137.52 169.56 137.16 168.36C136.8 167.16 137.52 165.84 138.72 165.48C138.84 165.48 138.84 165.48 138.96 165.48L183 154.44C188.16 153.84 192.96 157.56 193.56 162.84C193.68 163.56 193.68 164.4 193.56 165.12C192.96 169.8 189.84 173.88 185.4 175.56L150.12 189C138.12 193.56 125.52 195.96 112.68 195.96L61.56 195.84Z" fill="#222222"/>
<path d="M220.08 101.64C215.52 101.64 211.8 105.36 211.8 109.92C211.8 114.48 215.52 118.2 220.08 118.2C224.64 118.2 228.36 114.48 228.36 109.92C228.36 105.36 224.64 101.64 220.08 101.64ZM223.8 110.28C223.68 112.2 222 113.76 220.08 113.76C218.4 113.76 216.96 112.56 216.48 111C216.48 110.88 216.36 110.76 216.36 110.64C216.36 110.52 216.36 110.4 216.36 110.28C216.36 110.16 216.36 110.04 216.36 109.92C216.36 109.32 216.48 108.6 216.84 108.12C216.96 107.88 217.08 107.76 217.2 107.52C217.32 107.4 217.32 107.4 217.44 107.28C217.56 107.16 217.56 107.16 217.68 107.04C217.8 106.92 217.92 106.92 217.92 106.8C218.16 106.68 218.28 106.56 218.52 106.44C218.88 106.32 219.24 106.2 219.6 106.2C219.72 106.2 219.84 106.2 219.96 106.2C221.88 106.2 223.56 107.64 223.68 109.56C223.68 109.68 223.68 109.8 223.68 109.92C223.8 110.04 223.8 110.16 223.8 110.28Z" fill="#222222"/>
<path d="M203.4 108.36L199.8 108.12L203.4 108.36Z" fill="#222222"/>
<path d="M63 71.64L62.88 71.76V71.64H63Z" fill="#222222"/>
<path d="M63.84 87.48L63.6 87.96L63.84 87.48L57.72 83.64C56.88 83.16 56.64 82.08 57.24 81.24L61.08 75.24L57.24 81.12C56.76 81.96 57 83.04 57.72 83.52L63.84 87.48Z" fill="#222222"/>
<path d="M70.2 61.3199L63.72 71.28L63.36 71.88V71.76L63.72 71.28L70.08 61.3199L70.2 61.2V61.3199Z" fill="#222222"/>
<path d="M72 57.72L71.76 57.96L71.88 57.72H72Z" fill="#222222"/>
<path d="M76.56 51.48C76.44 51.6 76.32 51.72 76.2 51.84L72.6 57.48V57.6L72.36 57.84L72.6 57.48L76.2 51.96C76.32 51.72 76.44 51.6 76.56 51.48Z" fill="#222222"/>
<path d="M84.96 54.96L84.72 55.2L84.96 54.96Z" fill="#222222"/>
<path d="M90.36 58.8L90.24 58.92L88.08 57.48L90.36 58.8Z" fill="#222222"/>
<path d="M134.76 122.88L130.92 128.88C130.92 128.88 130.92 128.88 130.8 129C130.8 129 130.8 128.88 130.92 128.88L134.76 122.88Z" fill="#222222"/>
<path d="M137.04 119.4L137.4 119.76L136.92 119.52V119.4L139.8 115.08L137.04 119.4Z" fill="#222222"/>
<path d="M143.28 117C142.32 116.64 141.36 116.16 140.52 115.56L139.8 115.08L140.52 115.56C141.36 116.16 142.32 116.64 143.28 117Z" fill="#222222"/>
<path d="M96.2399 94.44C96.2399 94.44 96.2399 94.32 96.1199 94.32C95.9999 93.96 95.8799 93.6 95.7599 93.24C95.7599 93.12 95.7599 93 95.6399 92.88C95.6399 92.76 95.6399 92.76 95.6399 92.64C95.6399 92.52 95.6399 92.4 95.6399 92.16C95.6399 91.32 95.6399 90.48 95.7599 89.76C95.5199 91.2 95.6399 92.88 96.2399 94.44Z" fill="#222222"/>
<path d="M96.24 94.4399C96.36 94.6799 96.48 94.9199 96.6 95.1599C96.48 95.0399 96.48 94.9199 96.48 94.7999C96.24 94.6799 96.24 94.5599 96.24 94.4399Z" fill="#222222"/>
<path d="M96.84 95.76C96.72 95.64 96.6 95.4 96.6 95.28C96.6 95.28 96.48 95.16 96.48 95.04C96.6 95.28 96.72 95.52 96.84 95.76Z" fill="#222222"/>
<path d="M100.08 98.2799C99.5999 98.1599 99.2399 97.9199 98.7599 97.6799C98.6399 97.5599 98.5199 97.5599 98.3999 97.4399C98.5199 97.5599 98.6399 97.6799 98.7599 97.6799C99.2399 97.9199 99.7199 98.1599 100.08 98.2799Z" fill="#222222"/>
<path d="M107.4 82.68C105 81.72 102.24 82.08 99.96 83.52C102.24 81.96 105.12 81.6 107.4 82.68Z" fill="#222222"/>
<path d="M72 57.72L71.76 57.96L71.88 57.72H72Z" fill="#222222"/>
<path d="M73.56 58.8L72.36 57.96L73.56 58.8Z" fill="#222222"/>
<path d="M87.96 57.48L87.12 58.8C83.64 64.08 76.68 65.52 71.4 62.16L70.08 61.32L71.28 62.16C76.56 65.52 83.64 64.08 87 58.8L87.96 57.48Z" fill="#222222"/>
<path d="M84.96 54.96L84.72 55.2L84.96 54.96Z" fill="#222222"/>
<path d="M63.36 71.88V72L62.88 71.76V71.64H63L63.36 71.88Z" fill="#222222"/>
<path d="M64.56 86.4001L63.84 87.4801L63.6 87.9601L63.84 87.6001V87.4801L64.56 86.4001C64.56 86.2801 64.56 86.2801 64.56 86.4001Z" fill="#222222"/>
<path d="M65.1601 85.3199C65.0401 85.6799 64.8001 85.9199 64.6801 86.2799C64.8001 85.9199 65.0401 85.6799 65.1601 85.3199Z" fill="#222222"/>
<path d="M227.52 49.92H212.52C205.44 49.92 199.68 55.68 199.68 62.76V64.08C194.28 62.4 188.64 61.08 183 60.24L132.84 50.4C127.8 49.56 122.64 48.96 117.48 48.72C108.72 48.24 100.08 51 93.2401 56.28L80.6401 48.24C78.0001 46.56 74.5201 47.28 72.7201 49.92L53.8801 79.08C52.2001 81.7201 52.9201 85.2001 55.5601 87L126.36 132.72C129 134.4 132.48 133.68 134.28 131.04L143.28 117.12C142.32 116.76 141.36 116.28 140.52 115.68L139.8 115.2L136.92 119.52L137.28 119.76L136.92 119.52L135.6 118.68C130.32 115.32 123.24 116.76 119.88 122.04L119.04 123.24L67.2001 89.64L68.0401 88.44C68.5201 87.72 68.8801 87.0001 69.1201 86.1601C69.3601 85.4401 69.6001 84.7201 69.7201 83.8801C69.8401 83.2801 69.8401 82.8 69.8401 82.2001C69.8401 81.72 69.8401 81.2401 69.7201 80.7601C69.3601 77.5201 67.5601 74.52 64.5601 72.6L63.3601 71.76V71.8801L62.8801 71.64L63.0001 71.52L63.3601 71.76L63.7201 71.16L70.0801 61.2L71.2801 62.04C76.5601 65.4 83.6401 63.96 87.0001 58.68L87.8401 57.48L87.9601 57.24L87.8401 57.48L90.1201 58.92L90.0001 59.04L93.7201 61.56L117.12 76.68C116.76 76.68 116.52 76.8 116.16 76.8C115.92 76.8 115.56 76.92 115.32 77.04C114.96 77.16 114.48 77.28 114.12 77.4C113.76 77.52 113.28 77.76 112.92 77.8801C112.68 78 112.44 78.12 112.08 78.24C111.36 78.6 110.64 79.08 109.92 79.68C105.48 77.0401 99.6001 78 95.6401 81.72C95.5201 81.84 95.2801 82.08 95.1601 82.2001C94.5601 82.8 94.0801 83.52 93.6001 84.24C91.3201 87.84 90.8401 92.04 92.0401 95.52C92.1601 95.76 92.2801 96.1201 92.4001 96.3601C92.5201 96.7201 92.7601 97.08 93.0001 97.44C93.0001 97.44 93.0001 97.5601 93.1201 97.5601C93.2401 97.8001 93.3601 97.92 93.4801 98.04C93.7201 98.28 93.8401 98.6401 94.0801 98.8801C94.8001 99.7201 95.5201 100.44 96.4801 101.04C101.88 104.52 109.32 102.48 113.04 96.72C113.16 96.48 113.28 96.24 113.4 96H113.52L139.68 115.08L140.4 115.56C141.24 116.16 142.2 116.64 143.16 117C143.16 117 143.16 117 143.28 117C146.04 118.2 149.04 118.68 152.04 118.68C160.2 118.68 169.08 115.08 177.24 111.72C181.44 110.04 185.4 108.36 189.24 107.28L199.68 108.12L203.28 108.48L199.68 108.24V115.8C199.68 122.88 205.44 128.64 212.52 128.64H227.52C234.6 128.64 240.24 122.88 240.24 115.8V62.76C240.36 55.68 234.6 49.92 227.52 49.92ZM122.52 125.4L123.36 124.2C123.84 123.48 124.32 122.88 124.92 122.4C125.04 122.28 125.28 122.16 125.4 122.04C125.52 121.92 125.76 121.8 125.88 121.8C128.16 120.48 131.16 120.48 133.56 122.04L134.88 122.88L135.24 123.12L134.88 122.88L131.04 128.88C131.04 128.88 131.04 128.88 130.92 129C130.92 129.12 130.8 129.12 130.68 129.24C130.68 129.24 130.68 129.24 130.56 129.24C130.44 129.36 130.44 129.36 130.32 129.48C130.32 129.48 130.2 129.6 130.08 129.6C129.6 129.84 129 129.72 128.52 129.48L122.52 125.4ZM63.7201 77.1601C64.0801 77.5201 64.4401 78.0001 64.6801 78.3601C64.8001 78.6001 64.9201 78.84 65.0401 79.08C65.0401 79.08 65.0401 79.08 65.0401 79.2C65.1601 79.32 65.1601 79.4401 65.1601 79.5601C65.1601 79.6801 65.2801 79.8 65.2801 79.92C65.4001 80.16 65.4001 80.5201 65.5201 80.7601C65.6401 81.4801 65.6401 82.3201 65.5201 83.1601C65.5201 83.5201 65.4001 83.88 65.2801 84.24C65.1601 84.6 65.0401 84.84 64.9201 85.2001C64.8001 85.56 64.5601 85.8001 64.4401 86.1601C64.4401 86.1601 64.4401 86.16 64.4401 86.2801L63.7201 87.3601L63.6001 87.9601L63.8401 87.6L57.7201 83.64C56.8801 83.16 56.6401 82.08 57.2401 81.24L61.0801 75.24L62.4001 76.08C62.8801 76.3201 63.3601 76.8001 63.7201 77.1601ZM71.7601 57.96L71.8801 57.72L71.7601 57.96ZM84.7201 55.2L84.6001 55.44L83.7601 56.64C82.0801 59.16 79.2001 60.36 76.4401 59.88C75.4801 59.76 74.4001 59.4 73.4401 58.8L72.2401 57.96H72.1201L72.2401 57.84L72.4801 57.48L76.0801 51.96C76.2001 51.72 76.3201 51.6 76.5601 51.48C76.5601 51.48 76.6801 51.36 76.8001 51.36C77.2801 51 78.0001 51 78.6001 51.36L84.7201 55.2L84.8401 54.96L84.7201 55.2ZM109.92 94.44C108 97.44 104.76 99 101.76 98.64C101.52 98.64 101.28 98.64 101.04 98.52C100.68 98.52 100.44 98.4001 100.08 98.2801C99.6001 98.16 99.2401 97.9201 98.7601 97.68C98.6401 97.5601 98.5201 97.56 98.4001 97.44C98.1601 97.32 97.9201 97.08 97.8001 96.84C97.4401 96.48 97.0801 96.12 96.8401 95.64C96.7201 95.52 96.6001 95.2801 96.6001 95.1601C96.6001 95.1601 96.4801 95.04 96.4801 94.92C96.3601 94.8 96.3601 94.6801 96.3601 94.5601C96.3601 94.4401 96.2401 94.32 96.2401 94.2001C96.2401 94.2001 96.2401 94.0801 96.1201 94.0801C96.0001 93.7201 95.8801 93.3601 95.7601 93C95.7601 92.8801 95.7601 92.76 95.6401 92.64C95.6401 92.52 95.6401 92.5201 95.6401 92.4C95.6401 92.28 95.6401 92.16 95.6401 91.92C95.6401 91.08 95.6401 90.24 95.7601 89.52V89.4C95.7601 89.16 95.8801 89.0401 95.8801 88.8C95.8801 88.56 96.0001 88.32 96.1201 88.2001C96.2401 87.96 96.3601 87.6001 96.4801 87.3601C96.6001 87.0001 96.8401 86.64 97.0801 86.2801C97.4401 85.8 97.8001 85.32 98.1601 84.84C98.7601 84.24 99.2401 83.76 99.9601 83.4C102.24 81.96 105 81.6001 107.4 82.5601C106.56 84.0001 106.2 85.6801 106.44 87.3601C106.68 89.7601 108 91.9201 110.04 93.3601L110.4 93.6C110.28 93.96 110.16 94.2 109.92 94.44ZM199.68 103.2L199.56 103.56L188.76 102.72L188.4 102.84C184.08 104.16 179.76 105.84 175.56 107.64C165 111.96 154.2 116.4 145.8 113.16C144.84 112.8 143.88 112.32 143.04 111.84L142.32 111.36L115.2 91.5601L112.56 89.64C112.08 89.28 111.6 88.92 111.36 88.44C111.36 88.32 111.24 88.32 111.24 88.2001V88.0801V87.9601C111.24 87.8401 111.12 87.6001 111.12 87.48C111.12 87.3601 111.12 87.24 111 87.12C111 86.88 111 86.76 111 86.52C111 86.28 111 86.04 111.12 85.92C111.24 85.2 111.6 84.6 112.08 84.12C112.56 83.64 113.04 83.28 113.52 82.92C116.04 81.12 119.16 80.6401 122.16 81.3601L126.48 82.44L138.84 85.68L155.52 90C156.72 90.3601 157.92 89.64 158.28 88.44C158.64 87.24 157.92 86.0401 156.72 85.68L126.96 77.8801L97.3201 58.8C103.2 54.72 110.28 52.56 117.36 53.04C122.28 53.28 127.2 53.88 132.12 54.72L182.28 64.56C183.24 64.68 184.2 64.92 185.16 65.04C185.16 65.04 185.16 65.04 185.28 65.04C185.64 65.04 185.88 65.16 186.24 65.28C187.08 65.4 187.92 65.64 188.76 65.76C189.6 66 190.44 66.12 191.28 66.36C191.88 66.48 192.36 66.6 192.96 66.84C193.32 66.96 193.56 66.9601 193.92 67.08C194.4 67.2001 194.88 67.32 195.36 67.44C196.08 67.68 196.8 67.8 197.52 68.04C197.52 68.04 197.64 68.04 197.76 68.04C198.48 68.28 199.08 68.4 199.8 68.64V103.2H199.68ZM235.8 115.8C235.8 120.36 232.08 124.08 227.52 124.08H212.52C207.96 124.08 204.24 120.36 204.24 115.8V62.76C204.24 58.2 207.96 54.48 212.52 54.48H227.52C232.08 54.48 235.8 58.2 235.8 62.76V115.8Z" fill="#222222"/>
<path d="M134.88 122.76L133.56 121.92C131.16 120.36 128.28 120.36 125.88 121.68C128.16 120.36 131.16 120.36 133.56 121.92L134.88 122.76Z" fill="#222222"/>
<path d="M137.4 119.76L137.04 119.52L135.72 118.68C130.44 115.32 123.36 116.76 120 122.04L119.16 123.24L120 122.04C123.36 116.76 130.44 115.2 135.72 118.68L137.04 119.52L137.4 119.76Z" fill="#222222"/>
<path d="M110.4 93.6001L110.04 93.4801C108 92.1601 106.68 90.0001 106.44 87.4801C106.32 85.8001 106.56 84.2401 107.4 82.8001C107.4 82.8001 107.4 82.8001 107.4 82.6801C106.56 84.1201 106.2 85.8001 106.44 87.4801C106.68 89.8801 108 92.0401 110.04 93.4801L110.4 93.6001Z" fill="#222222"/>
<path d="M138.72 85.56L126.36 82.32L122.04 81.24C119.04 80.52 115.92 81 113.4 82.8C112.92 83.16 112.32 83.52 111.96 84C111.48 84.48 111.12 85.08 111 85.8C111.12 85.08 111.48 84.48 111.96 84C112.44 83.52 112.92 83.16 113.4 82.8C115.92 81 119.04 80.52 122.04 81.24L126.36 82.32L138.72 85.56Z" fill="#222222"/>
<path d="M143.28 117C142.32 116.64 141.36 116.16 140.52 115.56L139.8 115.08L140.52 115.56C141.36 116.16 142.32 116.64 143.28 117Z" fill="#222222"/>
<path d="M203.4 108.36L199.8 108.12L203.4 108.36Z" fill="#222222"/>
<path d="M63.72 71.28L63.36 71.88V72L62.88 71.76V71.64H63L63.36 71.76L63.72 71.28Z" fill="#222222"/>
<path d="M72 57.72L71.76 57.96L71.88 57.72H72Z" fill="#222222"/>
<path d="M72.6 57.48V57.6L72.36 57.96H72.24L72.36 57.84L72.6 57.48Z" fill="#222222"/>
<path d="M84.96 54.96L84.72 55.2L84.96 54.96Z" fill="#222222"/>
<path d="M88.2 57.24L88.08 57.48L88.2 57.24Z" fill="#222222"/>
</g>
<defs>
<clipPath id="clip0_229_25554">
<rect width="240" height="240" fill="white"/>
</clipPath>
</defs>
</svg>
