<svg width="147" height="94" viewBox="0 0 147 94" fill="none" xmlns="http://www.w3.org/2000/svg">
<g clip-path="url(#clip0_3416_148961)">
<path d="M138.638 0H8.36219C6.14515 0.00249959 4.01965 0.882585 2.45197 2.44718C0.884287 4.01177 0.00250453 6.13309 0 8.34575V85.6541C0.00250092 87.8668 0.88429 89.9881 2.45197 91.5527C4.01965 93.1174 6.14514 93.9975 8.36219 94H138.638C140.855 93.9975 142.98 93.1173 144.548 91.5527C146.116 89.9881 146.997 87.8668 147 85.6541V8.34575C146.997 6.1331 146.116 4.01178 144.548 2.44719C142.98 0.882605 140.855 0.00251726 138.638 0ZM8.36219 2.63549H138.638C140.155 2.63726 141.609 3.23944 142.682 4.30994C143.754 5.38043 144.358 6.83184 144.359 8.34575V12.8064H2.64065V8.34575C2.6424 6.83183 3.24578 5.38041 4.3184 4.30991C5.39102 3.23941 6.84528 2.63724 8.36219 2.63549ZM138.638 91.3645H8.36219C6.84526 91.3628 5.39102 90.7606 4.3184 89.69C3.24578 88.6195 2.64237 87.1681 2.64065 85.6541V25.728H144.359V85.6541C144.358 87.1681 143.754 88.6195 142.682 89.69C141.609 90.7605 140.155 91.3627 138.638 91.3645Z" fill="#222222"/>
<path d="M135.997 59.0252H11.0029V35.4072H135.997V59.0252ZM12.7635 57.2682H134.237V37.1643H12.7635V57.2682Z" fill="#222222"/>
<path d="M130.681 42.5615H126.907V51.8703H130.681V42.5615Z" fill="#222222"/>
<path d="M122.815 42.5615H119.041V51.8703H122.815V42.5615Z" fill="#222222"/>
<path d="M114.949 42.5615H111.175V51.8703H114.949V42.5615Z" fill="#222222"/>
<path d="M101.015 42.5615H97.2407V51.8703H101.015V42.5615Z" fill="#222222"/>
<path d="M93.1492 42.5615H89.3748V51.8703H93.1492V42.5615Z" fill="#222222"/>
<path d="M85.2834 42.5615H81.5088V51.8703H85.2834V42.5615Z" fill="#222222"/>
<path d="M77.4173 42.5615H73.6428V51.8703H77.4173V42.5615Z" fill="#222222"/>
<path d="M11.0407 80.372V78.3444C11.3961 78.6451 11.8025 78.8802 12.2407 79.0384C12.6601 79.1903 13.1026 79.2685 13.5487 79.2696C13.776 79.2729 14.0029 79.2494 14.2247 79.1997C14.3951 79.1624 14.5581 79.0972 14.707 79.0066C14.8258 78.9345 14.925 78.8343 14.9958 78.7149C15.0592 78.604 15.0921 78.4784 15.0912 78.3508C15.0935 78.18 15.0399 78.0132 14.9386 77.8755C14.8237 77.7235 14.683 77.5927 14.523 77.4889C14.3241 77.3583 14.115 77.244 13.8976 77.1471C13.6565 77.0373 13.3962 76.9254 13.1167 76.8112C12.4058 76.5156 11.8757 76.1545 11.5264 75.7277C11.1737 75.2907 10.9881 74.7427 11.0029 74.1816C10.9912 73.7574 11.0895 73.3374 11.2882 72.9622C11.4769 72.6245 11.7437 72.3367 12.0663 72.1227C12.4141 71.8946 12.8 71.7305 13.2057 71.6379C13.655 71.5325 14.1152 71.4804 14.5767 71.4827C14.9983 71.4791 15.4196 71.5077 15.8369 71.5685C16.1828 71.6202 16.5222 71.7083 16.8495 71.8315V73.7258C16.6925 73.6175 16.5258 73.5242 16.3515 73.4469C16.1714 73.3667 15.9856 73.3001 15.7956 73.2474C15.6091 73.1955 15.4193 73.1564 15.2274 73.1304C15.0497 73.1054 14.8705 73.0927 14.691 73.0921C14.4776 73.0901 14.2647 73.1124 14.0563 73.1586C13.8866 73.1948 13.7238 73.258 13.574 73.3456C13.4517 73.4172 13.3474 73.5158 13.2692 73.6339C13.197 73.7463 13.1595 73.8774 13.1613 74.0109C13.1593 74.1561 13.2012 74.2984 13.2817 74.4194C13.3749 74.5528 13.491 74.6686 13.6247 74.7617C13.795 74.8825 13.9755 74.9885 14.1641 75.0783C14.3761 75.1821 14.6152 75.2888 14.8815 75.3983C15.2191 75.5373 15.5468 75.6992 15.8623 75.8829C16.1363 76.0414 16.3873 76.2366 16.6084 76.4629C16.8138 76.6754 16.9754 76.9261 17.0842 77.2006C17.3418 77.9353 17.2973 78.7418 16.9605 79.4438C16.7727 79.783 16.5032 80.0702 16.1765 80.2797C15.8242 80.5023 15.4336 80.6581 15.0246 80.7392C14.5683 80.8341 14.1033 80.8808 13.6372 80.8786C13.1594 80.8806 12.6823 80.8382 12.2124 80.752C11.8056 80.682 11.411 80.554 11.0407 80.372Z" fill="#222222"/>
<path d="M24.3915 78.0475H20.1506C20.2185 78.9895 20.8132 79.4605 21.9347 79.4605C22.5988 79.4744 23.253 79.2985 23.8202 78.9535V80.3982C23.2189 80.7191 22.438 80.8795 21.4773 80.8795C20.4277 80.8795 19.6131 80.589 19.0335 80.0082C18.4537 79.4278 18.1638 78.6179 18.1636 77.5786C18.1636 76.5015 18.4767 75.6483 19.1031 75.0191C19.4028 74.7119 19.7627 74.4696 20.1603 74.3071C20.5579 74.1447 20.9847 74.0657 21.4142 74.075C22.362 74.075 23.095 74.3559 23.6135 74.9178C24.1322 75.4792 24.3916 76.2416 24.3915 77.205V78.0475ZM22.5313 76.8185C22.5313 75.8894 22.1546 75.4247 21.4013 75.4244C21.2412 75.4249 21.0832 75.461 20.9388 75.5301C20.7945 75.5992 20.6673 75.6995 20.5666 75.8237C20.3254 76.1039 20.1759 76.451 20.1381 76.8185H22.5313Z" fill="#222222"/>
<path d="M30.511 80.4862C30.0579 80.7479 29.4041 80.8787 28.5493 80.8787C27.5505 80.8787 26.7422 80.5767 26.1244 79.9727C25.5063 79.3687 25.1972 78.5895 25.1973 77.635C25.1973 76.5325 25.5285 75.6634 26.191 75.0277C26.8532 74.3921 27.7388 74.0742 28.8477 74.0742C29.6135 74.0742 30.1679 74.1756 30.511 74.3783V76.0766C30.1083 75.7694 29.6149 75.6045 29.1081 75.6077C28.5325 75.6077 28.0765 75.7756 27.74 76.1112C27.4035 76.4471 27.2352 76.9107 27.2354 77.502C27.2354 78.0763 27.3961 78.5271 27.7176 78.8544C28.0391 79.1817 28.4814 79.3455 29.0444 79.3456C29.569 79.3378 30.0795 79.1746 30.511 78.8767V80.4862Z" fill="#222222"/>
<path d="M38.0019 80.721H36.0021V79.7326H35.9703C35.4751 80.4971 34.8127 80.8793 33.9833 80.8792C32.4768 80.8792 31.7235 79.969 31.7234 78.1485V74.2334H33.7233V77.9714C33.7233 78.888 34.0872 79.3462 34.8149 79.3461C34.9781 79.3525 35.1405 79.3219 35.2901 79.2566C35.4396 79.1913 35.5724 79.0929 35.6784 78.969C35.9073 78.6786 36.0223 78.3149 36.0021 77.946V74.2334H38.0019V80.721Z" fill="#222222"/>
<path d="M43.9311 76.0389C43.6707 75.9034 43.3801 75.8359 43.0865 75.8425C42.8901 75.8339 42.6946 75.8729 42.5166 75.9562C42.3386 76.0394 42.1834 76.1645 42.0644 76.3207C41.819 76.6399 41.6963 77.0738 41.6965 77.6226V80.721H39.6902V74.2334H41.6965V75.4371H41.7218C42.039 74.5586 42.6104 74.1194 43.4359 74.1193C43.6044 74.1122 43.7726 74.138 43.9311 74.1953V76.0389Z" fill="#222222"/>
<path d="M45.9311 73.2064C45.625 73.2185 45.3265 73.1103 45.0994 72.9053C44.9955 72.8126 44.9127 72.6988 44.8568 72.5714C44.8009 72.444 44.7731 72.3061 44.7753 72.167C44.7713 72.0282 44.7983 71.8903 44.8543 71.7632C44.9104 71.6361 44.9941 71.523 45.0994 71.4323C45.3377 71.2477 45.6308 71.1475 45.9325 71.1475C46.2342 71.1475 46.5273 71.2477 46.7657 71.4323C46.8701 71.5235 46.953 71.6368 47.0085 71.7638C47.0639 71.8908 47.0906 72.0285 47.0864 72.167C47.0907 72.3075 47.0641 72.4471 47.0087 72.5763C46.9534 72.7054 46.8704 72.8209 46.7657 72.9148C46.5353 73.1152 46.2364 73.2197 45.9311 73.2064ZM46.9212 80.7205H44.915V74.2329H46.9212V80.7205Z" fill="#222222"/>
<path d="M52.5392 80.645C52.2432 80.8011 51.7968 80.8792 51.2 80.8792C49.7864 80.8792 49.0795 80.1464 49.0793 78.6809V75.7094H48.0259V74.2334H49.0793V72.8328L51.0792 72.2627V74.2334H52.5392V75.7094H51.0792V78.3325C51.0792 79.0081 51.348 79.3459 51.8856 79.3461C52.1155 79.341 52.3404 79.2779 52.5392 79.1626V80.645Z" fill="#222222"/>
<path d="M59.8588 74.2334L57.2181 81.2404C56.5834 82.9257 55.6269 83.7683 54.3488 83.7682C53.9424 83.7799 53.5369 83.7243 53.1488 83.6035V82.007C53.4122 82.1624 53.7128 82.2435 54.0187 82.2417C54.2533 82.2528 54.4853 82.1879 54.6798 82.0565C54.8744 81.9251 55.0211 81.7343 55.0979 81.5128L55.4405 80.7081L52.7998 74.2334H55.0213L56.234 78.1802C56.3185 78.4639 56.3779 78.7544 56.4118 79.0485H56.4371C56.4861 78.7586 56.5562 78.4727 56.6469 78.193L57.8718 74.2334H59.8588Z" fill="#222222"/>
<path d="M70.9745 80.3982C70.31 80.7191 69.4424 80.8795 68.3716 80.8795C66.9752 80.8795 65.877 80.4698 65.0771 79.6505C64.2768 78.8312 63.8769 77.7394 63.8772 76.375C63.8772 74.9221 64.3269 73.7436 65.2263 72.8395C66.1254 71.9357 67.2924 71.4838 68.7271 71.4836C69.4902 71.464 70.2507 71.5777 70.9745 71.8195V73.79C70.3437 73.4209 69.6232 73.2323 68.8921 73.2448C68.0373 73.2448 67.3475 73.5131 66.8227 74.0496C66.2978 74.5862 66.0355 75.3128 66.0356 76.2292C66.0356 77.1076 66.2832 77.8077 66.7784 78.3293C67.2735 78.8514 67.94 79.1122 68.7778 79.1117C69.5494 79.1195 70.3085 78.9181 70.9745 78.5292V80.3982Z" fill="#222222"/>
<path d="M75.4624 80.8787C74.3788 80.8787 73.527 80.5757 72.9072 79.9698C72.2875 79.3637 71.9774 78.5411 71.9771 77.502C71.9771 76.4292 72.2986 75.5897 72.9419 74.9836C73.5854 74.3775 74.4552 74.0744 75.5513 74.0742C76.6306 74.0742 77.4771 74.3773 78.0906 74.9836C78.7043 75.5897 79.0113 76.3911 79.0113 77.3879C79.0113 78.465 78.6948 79.316 78.0618 79.941C77.4292 80.5665 76.5627 80.8791 75.4624 80.8787ZM75.5131 75.6077C75.3035 75.5969 75.0944 75.6354 74.9025 75.7201C74.7106 75.8049 74.5414 75.9334 74.4085 76.0954C74.1463 76.4205 74.0152 76.8809 74.0152 77.4766C74.0152 78.7228 74.5188 79.3458 75.5259 79.3456C76.4865 79.3456 76.9669 78.7057 76.9671 77.426C76.9671 76.2138 76.4824 75.6077 75.5131 75.6077Z" fill="#222222"/>
<path d="M86.6734 80.721H84.6675V79.8274H84.6421C84.1848 80.5287 83.5139 80.8793 82.6294 80.8792C82.2588 80.8926 81.8901 80.8224 81.5505 80.6738C81.2109 80.5251 80.9094 80.3019 80.6682 80.0208C80.1726 79.4487 79.9249 78.6493 79.925 77.6225C79.925 76.5497 80.1981 75.6902 80.7442 75.0442C81.0038 74.7297 81.3323 74.4788 81.7042 74.3107C82.0762 74.1427 82.4818 74.0619 82.8898 74.0747C83.7281 74.0747 84.3122 74.3747 84.6421 74.9746H84.6675V71.1162H86.6734V80.721ZM84.7054 77.5659V77.0778C84.719 76.6936 84.5877 76.3183 84.3375 76.026C84.2078 75.8858 84.0488 75.7759 83.8717 75.704C83.6946 75.6321 83.5038 75.6 83.3129 75.61C83.122 75.62 82.9357 75.6718 82.7671 75.7618C82.5986 75.8518 82.4519 75.9777 82.3376 76.1306C82.0879 76.4789 81.9631 76.9574 81.9633 77.5659C81.9633 78.136 82.0837 78.5753 82.3246 78.8837C82.447 79.0305 82.6007 79.1482 82.7745 79.2282C82.9483 79.3082 83.1377 79.3485 83.3291 79.3461C83.5205 79.3436 83.7089 79.2986 83.8806 79.2142C84.0523 79.1298 84.203 79.0083 84.3216 78.8584C84.5773 78.5332 84.7052 78.1024 84.7054 77.5659Z" fill="#222222"/>
<path d="M94.2027 78.0475H89.9618C90.0297 78.9895 90.6244 79.4605 91.7459 79.4605C92.41 79.4744 93.0643 79.2985 93.6315 78.9535V80.3982C93.0302 80.7191 92.2493 80.8795 91.2886 80.8795C90.239 80.8795 89.4244 80.5891 88.8448 80.0082C88.265 79.4278 87.975 78.618 87.9749 77.5786C87.9749 76.5015 88.288 75.6483 88.9144 75.0191C89.2141 74.7119 89.574 74.4696 89.9716 74.3071C90.3692 74.1447 90.796 74.0657 91.2255 74.075C92.1732 74.075 92.9063 74.3559 93.4248 74.9178C93.9435 75.4792 94.2028 76.2416 94.2027 77.205V78.0475ZM92.3425 76.8185C92.3425 75.8894 91.9659 75.4247 91.2126 75.4244C91.0525 75.4249 90.8945 75.461 90.7501 75.5301C90.6057 75.5992 90.4786 75.6995 90.3779 75.8237C90.1366 76.1039 89.9871 76.451 89.9494 76.8185H92.3425Z" fill="#222222"/>
</g>
<defs>
<clipPath id="clip0_3416_148961">
<rect width="147" height="94" fill="white"/>
</clipPath>
</defs>
</svg>
