<svg fill="none" height="25" viewBox="0 0 135 25" width="135" xmlns="http://www.w3.org/2000/svg" xmlns:xlink="http://www.w3.org/1999/xlink"><clipPath id="a"><path d="m0 0h135v25h-135z"/></clipPath><g clip-path="url(#a)" fill="#222"><path d="m34.9401 10.3612-5.4267-5.98858c-.1428-.14258-.4284-.14258-.6188 0l-5.7123 5.98858c-.2856.2852-.0952.7129.2856.7129h3.237c-.7141 5.3708-5.3791 9.5533-10.9962 9.5533-6.14065 0-11.13888-4.9905-11.13888-11.1217v-4.37262c0-.52281.42842-.90304.90444-.90304h17.23204c.1428 0 .238-.04753.3332-.14259l3.4274-3.279465c.3332-.3327.0952-.807985-.2857-.807985h-24.32471c-1.047252 0-1.85649.807985-1.85649 1.85361v7.50951c0 8.60268 7.04513 15.68438 15.7087 15.68438 8.0448 0 14.7091-6.1312 15.6136-13.9258h3.3321c.3809-.0476.5237-.4753.2857-.7605z"/><path d="m77.7332 4.23004h-3.3797c-.0953 0-.1905.04753-.2381.09506l-4.2366 4.27756v-8.174903c0-.237643-.1904-.427757-.4284-.427757h-1.9517c-.238 0-.4284.190114-.4284.427757v15.636843c0 .2377.1904.4278.4284.4278h1.9517c.238 0 .4284-.1901.4284-.4278v-3.5171l7.9972-8.03229c.0952-.09506 0-.28517-.1428-.28517z"/><path d="m59.0254 4.23047c3.5702 0 6.4739 2.75665 6.4739 6.13113 0 3.4221-2.9037 6.1312-6.4739 6.1312-3.6178 0-6.5215-2.7566-6.5215-6.1312 0-3.37448 2.9037-6.13113 6.5215-6.13113zm0 9.79083c2.1421 0 3.6654-1.6635 3.6654-3.6597 0-1.94862-1.5709-3.65965-3.6654-3.65965-2.1421 0-3.713 1.6635-3.713 3.65965 0 1.9487 1.5709 3.6597 3.713 3.6597z"/><path d="m90.5384 12.7849c.1429.1426.1429.3327.0477.5229-1.0949 1.9962-3.5702 3.2319-5.4743 3.2319-3.9034 0-6.8071-2.7567-6.8071-6.1312 0-3.42203 2.9037-6.13116 6.5215-6.13116 2.1421 0 3.9986.95057 5.1886 2.47149.0476.04753.0952.14258.0952.23764s-.0476.14259-.0952.19011l-6.3311 6.41632c-.0952.0951-.0476.2377.0952.2852.3809.0951.8093.1426 1.2377.1426 1.6661.095 3.0465-1.4259 3.8558-2.2339.1428-.1901.4284-.1901.6188 0zm-4.1413-5.4182c.0952-.09506.0476-.23765-.0476-.28517-.4761-.23765-.9045-.3327-1.4757-.3327-2.1897 0-3.713 1.71102-3.713 3.65967 0 .6179.1428 1.1882.4284 1.6635.0476.0951.1904.0951.2857.0475z"/><path d="m135 10.0276v-.33265-5.08555c0-.23765-.19-.42776-.428-.42776h-1.952c-.238 0-.428.19011-.428.42776v5.08555.33265c-.143 2.1388-1.381 3.4221-3.333 3.4221-1.951 0-3.189-1.2833-3.332-3.4221v-5.4182c0-.23765-.19-.42776-.428-.42776h-1.952c-.238 0-.428.19011-.428.42776v5.4182c0 3.6122 2.761 6.5115 6.14 6.5115 1.191 0 2.333-.3803 3.237-.9981-.285 1.7585-1.38 2.8041-3.094 2.8992-.047 0-.095 0-.143.0475-.047.0476-.047.1426-.047.1426v2.6141s0 .095.047.1426c.048.0475.048.0475.096.0475 3.332-.0951 5.998-2.9468 5.998-6.5114v-4.8955z"/><path d="m44.6028 4.23047c-3.475 0-6.2835 2.51901-6.4739 5.75095v.33268 9.8859c0 .2377.1904.4278.4284.4278h1.9041c.238 0 .4284-.1901.4284-.4278v-3.2319c0-.2376.1904-.4277.4285-.4277h3.2845l.476-.0476c3.3798-.2376 6.0455-2.8517 6.0455-6.1312 0-3.37448-2.9037-6.13113-6.5215-6.13113zm.0952 9.79083h-3.4273c-.2381 0-.4285-.1901-.4285-.4277 0-.9506 0-3.0894 0-3.232 0-1.94862 1.5709-3.61212 3.7606-3.61212 2.1421 0 3.6654 1.6635 3.6654 3.65972.0476 1.9011-1.4757 3.5646-3.5702 3.6121z"/><path d="m100.298 4.23047c-3.4748 0-6.2834 2.51901-6.4738 5.75095v.33268 9.8859c0 .2377.1904.4278.4284.4278h1.9041c.238 0 .4284-.1901.4284-.4278v-3.2319c0-.2376.1905-.4277.4285-.4277h3.2844l.476-.0476c3.38-.2376 6.046-2.8517 6.046-6.1312-.048-3.37448-2.952-6.13113-6.522-6.13113zm.095 9.79083h-3.427c-.238 0-.4285-.1901-.4285-.4277 0-.9506 0-3.0894 0-3.232 0-1.94862 1.5709-3.61212 3.7605-3.61212 2.142 0 3.665 1.6635 3.665 3.65972.048 1.9011-1.475 3.5646-3.57 3.6121z"/><path d="m73.3548 10.9312-1.3805 1.3783c-.1428.1426-.1428.4277 0 .6179l3.3798 3.4695c.0476.0476.1428.0951.238.0951h3.1893c.238 0 .3332-.2852.1904-.4278l-4.9982-5.133c-.1904-.1426-.476-.1426-.6188 0z"/><path d="m121.004 10.3603v-5.7509c0-.23765-.19-.42776-.428-.42776h-1.905c-.238 0-.428.19011-.428.42776v.76045c-1.047-.71292-2.332-1.14068-3.761-1.14068-3.617 0-6.521 2.75665-6.521 6.13113 0 3.4221 2.904 6.1312 6.521 6.1312 1.381 0 2.666-.4277 3.761-1.1407v.6179c0 .2377.19.4278.428.4278h1.905c.238 0 .428-.1901.428-.4278zm-6.474 3.6597c-2.142 0-3.713-1.6635-3.713-3.6597 0-1.94862 1.571-3.65965 3.713-3.65965s3.665 1.6635 3.665 3.65965c0 1.9487-1.523 3.6597-3.665 3.6597z"/></g></svg>