<svg width="140" height="140" viewBox="0 0 140 140" fill="none" xmlns="http://www.w3.org/2000/svg">
<path d="M99.0635 84.1929C98.869 82.91 97.7546 81.9234 96.4131 81.9234C95.8687 81.9234 95.4274 82.363 95.4274 82.9052C95.4274 83.4475 95.8687 83.8871 96.4131 83.8871C96.7772 83.8871 97.0778 84.1619 97.1176 84.5141C97.0778 84.8664 96.7772 85.1412 96.4131 85.1412H94.309V72.828C94.309 69.6995 91.7537 67.1543 88.6128 67.1543C88.0684 67.1543 87.627 67.5939 87.627 68.1361C87.627 68.6784 88.0684 69.1179 88.6128 69.1179C90.6666 69.1179 92.3376 70.7822 92.3376 72.828V77.4817C91.3382 76.6196 90.0356 76.0973 88.6128 76.0973H50.9648C48.9852 76.0973 47.3616 74.5511 47.2467 72.6076C47.3616 70.6641 48.9852 69.1179 50.9648 69.1179H59.0951C59.6395 69.1179 60.0809 68.6784 60.0809 68.1361C60.0809 67.5939 59.6395 67.1543 59.0951 67.1543H50.9648C47.9727 67.1543 45.5121 69.4639 45.2856 72.3873H45.2685C45.2685 72.4611 45.2704 72.5345 45.2732 72.6076C45.2704 72.6808 45.2685 72.7541 45.2685 72.828V103.449C45.2685 106.578 47.8238 109.123 50.9648 109.123H88.6128C91.7537 109.123 94.309 106.578 94.309 103.449V98.2816H96.4131C97.8912 98.2816 99.0938 97.0838 99.0938 95.6115V84.5934C99.0938 84.5669 99.0926 84.5406 99.0918 84.5141C99.0926 84.4877 99.0938 84.4614 99.0938 84.4348C99.0938 84.3513 99.0832 84.2703 99.0635 84.1929ZM92.3376 103.449C92.3376 105.495 90.6666 107.159 88.6128 107.159H50.9648C48.9109 107.159 47.24 105.495 47.24 103.449V76.6765C48.2394 77.5387 49.542 78.0609 50.9648 78.0609H88.6128C90.6666 78.0609 92.3376 79.7253 92.3376 81.771V85.1412H83.8835C82.4053 85.1412 81.2028 86.339 81.2028 87.8113V95.6115C81.2028 97.0838 82.4053 98.2816 83.8835 98.2816H92.3376V103.449ZM97.1223 95.6115C97.1223 96.001 96.8042 96.3179 96.4131 96.3179H83.8835C83.4924 96.3179 83.1743 96.001 83.1743 95.6115V87.8113C83.1743 87.4218 83.4924 87.1049 83.8835 87.1049H96.4131C96.6586 87.1049 96.8963 87.0712 97.1223 87.0093V95.6115Z" fill="#0643A5"/>
<path d="M87.2724 88.9395C86.728 88.9395 86.2867 89.379 86.2867 89.9213C86.2867 90.4635 86.728 90.9031 87.2724 90.9031C87.72 90.9031 88.0842 91.2658 88.0842 91.7116C88.0842 92.1575 87.72 92.5202 87.2724 92.5202C86.8248 92.5202 86.4606 92.1575 86.4606 91.7116C86.4606 91.1694 86.0193 90.7298 85.4749 90.7298C84.9305 90.7298 84.4892 91.1694 84.4892 91.7116C84.4892 93.2402 85.7377 94.4839 87.2724 94.4839C88.8071 94.4839 90.0556 93.2402 90.0556 91.7116C90.0556 90.183 88.8071 88.9395 87.2724 88.9395V88.9395Z" fill="#0643A5"/>
<path d="M70.8806 65.6289C71.55 66.1737 72.3593 66.5464 73.2344 66.7232L73.2532 67.8163C73.2623 68.3437 73.6989 68.7638 74.2283 68.7547C74.7578 68.7457 75.1797 68.3109 75.1705 67.7835L75.1535 66.7957C76.2726 66.6586 77.307 66.2111 78.1159 65.5052C78.5979 65.0847 78.9755 64.5942 79.2382 64.0476C79.5165 63.4684 79.6522 62.8541 79.6413 62.2222C79.615 60.699 78.7225 59.3026 77.2539 58.4867C77.0914 58.3965 76.3414 58.006 75.1535 57.7712V53.4086C75.6034 53.5153 76.0146 53.7122 76.3547 53.989C76.8574 54.3982 77.1396 54.9352 77.1494 55.5011C77.1585 56.0284 77.595 56.4486 78.1245 56.4396C78.654 56.4306 79.0759 55.9958 79.0668 55.4683C79.0472 54.3313 78.5149 53.2807 77.5681 52.51C76.9049 51.9702 76.0914 51.6157 75.2144 51.4748L75.1965 50.4357C75.1873 49.9083 74.7508 49.4882 74.2213 49.4972C73.6918 49.5063 73.27 49.9411 73.2791 50.4685L73.297 51.5076C72.4255 51.6784 71.6247 52.0605 70.9805 52.6226C70.0607 53.4252 69.565 54.4933 69.5846 55.6304C69.6036 56.7401 70.1146 57.7732 71.0233 58.5391C71.0257 58.5412 71.0281 58.5432 71.0304 58.5451C71.677 59.0795 72.4948 59.3121 73.297 59.4403V64.7728C72.066 64.4132 71.1796 63.4772 71.1604 62.3672C71.1514 61.8398 70.7148 61.4196 70.1853 61.4287C69.6558 61.4378 69.234 61.8726 69.2431 62.4C69.254 63.0321 69.4107 63.6411 69.7088 64.2106C69.9902 64.7478 70.3844 65.2251 70.8806 65.6289V65.6289ZM75.1535 59.7289C75.8761 59.9123 76.2957 60.1415 76.32 60.155C77.1846 60.6352 77.7095 61.4204 77.7239 62.255C77.7456 63.5167 76.64 64.592 75.1535 64.8641V59.7289ZM72.2584 57.0779C71.78 56.6732 71.5114 56.1476 71.5019 55.5977C71.4922 55.0317 71.7557 54.4855 72.2441 54.0594C72.5427 53.7987 72.9016 53.6014 73.297 53.4757V57.4974C72.8754 57.4091 72.5059 57.2809 72.2584 57.0779V57.0779Z" fill="#0643A5"/>
<path d="M64.3466 69.1814C65.6575 70.4871 67.1843 71.5123 68.8845 72.2286C70.6453 72.9704 72.5152 73.3465 74.4422 73.3465C76.3692 73.3465 78.239 72.9704 79.9999 72.2286C81.7001 71.5123 83.2269 70.4871 84.5378 69.1814C85.8487 67.8757 86.878 66.355 87.5971 64.6615C88.3419 62.9077 88.7195 61.0452 88.7195 59.1259C88.7195 57.2066 88.3419 55.3441 87.5971 53.5903C86.878 51.8968 85.8487 50.3761 84.5378 49.0704C83.2269 47.7647 81.7001 46.7395 79.9999 46.0232C78.239 45.2814 76.3692 44.9053 74.4422 44.9053C72.5152 44.9053 70.6453 45.2814 68.8845 46.0232C67.1843 46.7395 65.6575 47.7647 64.3466 49.0704C63.0357 50.3761 62.0064 51.8968 61.2873 53.5903C60.5425 55.3441 60.1649 57.2066 60.1649 59.1259C60.1649 61.0452 60.5425 62.9077 61.2873 64.6615C62.0064 66.355 63.0357 67.8757 64.3466 69.1814ZM74.4422 46.8689C81.2276 46.8689 86.748 52.3674 86.748 59.1259C86.748 65.8844 81.2276 71.3829 74.4422 71.3829C67.6567 71.3829 62.1363 65.8844 62.1363 59.1259C62.1363 52.3674 67.6567 46.8689 74.4422 46.8689Z" fill="#0643A5"/>
<path d="M74.4409 35.056C74.9853 35.056 75.4266 34.6164 75.4266 34.0742V26.9818C75.4266 26.4396 74.9853 26 74.4409 26C73.8965 26 73.4551 26.4396 73.4551 26.9818V34.0742C73.4551 34.6164 73.8965 35.056 74.4409 35.056Z" fill="#0643A5"/>
<path d="M65.7485 41.5727C66.2929 41.5727 66.7342 41.1331 66.7342 40.5909V32.9154C66.7342 32.3732 66.2929 31.9336 65.7485 31.9336C65.2041 31.9336 64.7628 32.3732 64.7628 32.9154V40.5909C64.7628 41.1331 65.2041 41.5727 65.7485 41.5727V41.5727Z" fill="#0643A5"/>
<path d="M82.9831 43.5985C83.5275 43.5985 83.9689 43.1589 83.9689 42.6167V36.6947C83.9689 36.1525 83.5275 35.7129 82.9831 35.7129C82.4387 35.7129 81.9974 36.1525 81.9974 36.6947V42.6167C81.9974 43.1589 82.4387 43.5985 82.9831 43.5985Z" fill="#0643A5"/>
<path d="M43.2094 38.9629C43.7538 38.9629 44.1951 38.5233 44.1951 37.9811V37.2592C44.1951 36.7169 43.7538 36.2773 43.2094 36.2773C42.665 36.2773 42.2236 36.7169 42.2236 37.2592V37.9811C42.2236 38.5233 42.665 38.9629 43.2094 38.9629Z" fill="#0643A5"/>
<path d="M50.3452 42.9826C50.8896 42.9826 51.331 42.5431 51.331 42.0008V39.2777C51.331 38.7355 50.8896 38.2959 50.3452 38.2959C49.8008 38.2959 49.3595 38.7355 49.3595 39.2777V42.0008C49.3595 42.5431 49.8008 42.9826 50.3452 42.9826Z" fill="#0643A5"/>
<path d="M46.7772 62.8008C47.0781 62.8008 47.3625 62.664 47.5494 62.4292L55.169 52.8628C55.404 52.5677 55.4489 52.1647 55.2843 51.8255C55.1198 51.4863 54.775 51.2708 54.3968 51.2708H51.33V45.5155C51.33 44.9733 50.8887 44.5337 50.3443 44.5337C49.7999 44.5337 49.3586 44.9733 49.3586 45.5155V52.2526C49.3586 52.7949 49.7999 53.2345 50.3443 53.2345H52.3565L46.7772 60.2392L41.1979 53.2344L46.131 53.2344C46.6754 53.2344 47.1167 52.7948 47.1167 52.2526C47.1167 51.7103 46.6754 51.2708 46.1309 51.2708L44.1958 51.2708V41.9857C44.1958 41.4435 43.7545 41.0039 43.2101 41.0039C42.6657 41.0039 42.2244 41.4435 42.2244 41.9857V51.2708L39.1576 51.2708C38.7794 51.2708 38.4346 51.4863 38.27 51.8255C38.1055 52.1647 38.1503 52.5678 38.3854 52.8629L46.005 62.4292C46.192 62.664 46.4764 62.8008 46.7772 62.8008V62.8008Z" fill="#0643A5"/>
<path d="M93.7916 60.8999C93.9151 60.9509 94.043 60.975 94.1689 60.975C94.5555 60.975 94.9224 60.747 95.0798 60.3691L97.8459 53.7264C98.0545 53.2255 97.8159 52.6511 97.313 52.4433C96.8102 52.2356 96.2335 52.4732 96.0249 52.9741L93.2588 59.6168C93.0502 60.1177 93.2888 60.6921 93.7916 60.8999Z" fill="#0643A5"/>
<path d="M106.786 60.3865C107.229 60.0723 107.333 59.4593 107.018 59.0174C106.702 58.5755 106.087 58.472 105.643 58.7862L99.5185 63.1243C99.0748 63.4385 98.9709 64.0515 99.2864 64.4934C99.4787 64.7627 99.7823 64.9063 100.091 64.9063C100.288 64.9063 100.488 64.8473 100.661 64.7246L106.786 60.3865Z" fill="#0643A5"/>
<path d="M108.843 69.873H101.085C100.54 69.873 100.099 70.3127 100.099 70.8549C100.099 71.3972 100.54 71.8368 101.085 71.8368H108.843C109.387 71.8368 109.828 71.3972 109.828 70.8549C109.828 70.3127 109.387 69.873 108.843 69.873Z" fill="#0643A5"/>
</svg>
