<svg width="50" height="63" viewBox="0 0 50 63" fill="none" xmlns="http://www.w3.org/2000/svg">
<g clip-path="url(#clip0_3416_147197)">
<path d="M36.7487 62.1891H27.9454C20.9577 62.1891 17.3046 57.8835 12.2523 51.9257L11.5772 51.1184C8.98304 48.0696 5.4225 43.3819 3.29924 40.5833C2.89636 40.0451 2.54249 39.5822 2.2485 39.1974C-0.391965 35.7341 -0.745842 32.0421 1.39919 30.4195C4.60041 27.9976 8.59377 30.9038 9.2117 31.3828L14.4572 34.7977L16.1368 6.50749C16.1368 5.96929 16.2266 3.15723 17.9225 1.45922C18.3323 1.04812 18.8222 0.723565 19.3627 0.505234C19.9031 0.286904 20.4828 0.179347 21.0666 0.189083C23.2443 0.189083 24.9265 1.39464 25.8058 3.5824C26.1706 4.51886 26.3793 5.50763 26.4237 6.51018L27.1859 21.4935C27.9438 20.8989 28.8861 20.5814 29.8536 20.5947C31.6747 20.5947 32.9296 21.5742 33.7707 22.9117C33.8578 22.8121 33.9477 22.7125 34.0429 22.6183C34.4561 22.2001 34.951 21.8694 35.4976 21.6464C36.0443 21.4234 36.6311 21.3128 37.2224 21.3213C38.2622 21.3213 40.0479 21.6765 41.3246 23.8131C41.753 23.3921 42.2634 23.0615 42.8249 22.8414C43.3864 22.6212 43.9873 22.516 44.5912 22.5322C45.1255 22.5335 45.6541 22.6414 46.1452 22.8494C46.6364 23.0575 47.08 23.3615 47.4494 23.7432C49.8068 26.0951 50.0191 31.4071 50 33.584C50 35.5619 50 37.198 50 39.2701C50 40.8389 50 42.6311 50 44.9642C49.9792 49.2833 48.5385 53.4786 45.8951 56.9175C43.2818 60.2677 39.9445 62.1891 36.7487 62.1891ZM4.29281 32.5722C3.9374 32.561 3.58845 32.6681 3.30196 32.8763C3.01341 33.0943 2.90181 34.9107 4.75013 37.3353L5.80632 38.7265C7.9078 41.5009 11.4248 46.1428 13.9727 49.1406L14.6505 49.9479C19.4932 55.6608 22.4167 59.0972 27.9454 59.0972H36.7487C38.9264 59.0972 41.4117 57.5768 43.3989 55.0311C45.624 52.1365 46.8364 48.605 46.8533 44.9696C46.8533 42.6338 46.8533 40.8389 46.8533 39.2674C46.8533 37.2007 46.8533 35.57 46.8533 33.5814C46.8778 30.5998 46.3796 27.0907 45.22 25.9255C45.1431 25.8327 45.0463 25.758 44.9366 25.7068C44.8269 25.6556 44.707 25.6292 44.5857 25.6295C42.8027 25.6295 42.634 28.2532 42.6285 28.3636C42.6064 28.7575 42.4334 29.1283 42.1447 29.4007C41.856 29.6731 41.4733 29.8266 41.0742 29.8301C40.6773 29.8317 40.2948 29.6837 40.0045 29.4162C39.7142 29.1487 39.538 28.7819 39.5117 28.3905C39.5117 28.3528 39.1387 24.4186 37.2305 24.4186C37.0556 24.4101 36.8809 24.4385 36.718 24.5021C36.5551 24.5657 36.4078 24.6629 36.286 24.7873C35.4367 25.6376 35.2652 27.6316 35.2733 28.264C35.272 28.666 35.1125 29.0518 34.8284 29.3396C34.5444 29.6274 34.1582 29.7945 33.7517 29.8057C33.3451 29.8169 32.9501 29.6712 32.6504 29.3995C32.3506 29.1278 32.1695 28.7515 32.1456 28.3501C32.0993 27.3679 31.5848 23.692 29.8645 23.692C28.1441 23.692 27.5915 27.376 27.5398 28.3636C27.5195 28.7603 27.3457 29.1341 27.0543 29.4076C26.763 29.6811 26.3763 29.8333 25.9745 29.8328C25.5732 29.8326 25.1873 29.6801 24.8965 29.4066C24.6057 29.1332 24.4323 28.7598 24.412 28.3636L23.296 6.64742V6.60436C23.296 6.4429 23.168 3.2837 21.0666 3.2837C20.8966 3.27287 20.7262 3.29826 20.567 3.35815C20.4078 3.41804 20.2635 3.51103 20.1438 3.63084C19.387 4.38969 19.2536 6.10922 19.2591 6.52901C19.2591 6.56669 19.2591 6.60167 19.2591 6.63934L17.4216 37.6555C17.4047 37.9265 17.316 38.1883 17.1646 38.4148C17.0131 38.6413 16.8041 38.8244 16.5585 38.946C16.3129 39.0675 16.0393 39.1231 15.7651 39.1073C15.491 39.0914 15.2258 39.0047 14.9962 38.8557L7.43142 33.9285C7.38433 33.8986 7.3389 33.8663 7.29532 33.8316C7.27899 33.8262 5.6566 32.5722 4.29281 32.5722Z" fill="white"/>
</g>
<defs>
<clipPath id="clip0_3416_147197">
<rect width="50" height="62" fill="white" transform="translate(0 0.189453)"/>
</clipPath>
</defs>
</svg>
