<svg viewBox="0 0 50 50" xmlns="http://www.w3.org/2000/svg"><g fill="none" stroke="#000" stroke-linecap="round"><path d="m9.14526 41.66664v-4.98007a8.00433 8.00433 0 0 1 8.00433-8.00433h15.70082a8.00433 8.00433 0 0 1 8.00433 8.00433v4.98007" stroke-miterlimit="10" stroke-width="2.7"/><circle cx="25" cy="15.27422" r="7.94086" stroke-miterlimit="10" stroke-width="2.7"/><g stroke-linejoin="round"><path d="m23.59254 36.49434-1.47788-1.34049 2.86144-3.0709 2.86144 3.0709-1.44075 1.32883a2.07749 2.07749 0 0 1 -2.80425.01166z" stroke-width="2.09511"/><path d="m23.72136 36.771s-1.983 4.51346-1.983 6.32623" stroke-width="2.09511"/><path d="m26.23083 36.771s1.983 4.51346 1.983 6.32623" stroke-width="2.09511"/><path d="m18.401 29.54489a22.06071 22.06071 0 0 0 1.34777 6.9922l4.22734-4.5017" stroke-width="2.09511"/><path d="m31.55121 29.54489a22.06088 22.06088 0 0 1 -1.34778 6.9922l-4.22733-4.5017" stroke-width="2.09511"/><path d="m25 31.961-1.608-2.609 1.608 1.098 1.608-1.098z" stroke-width="1.51501"/></g></g></svg>