<svg enable-background="new 0 0 50 50" viewBox="0 0 50 50" xmlns="http://www.w3.org/2000/svg"><path clip-rule="evenodd" d="m5.9028 25.0001c0 10.5902 8.5069 19.0972 19.0972 19.0972s19.0972-8.507 19.0972-19.0972c0-10.5903-8.5069-19.0973-19.0972-19.0973s-19.0972 8.507-19.0972 19.0973zm3.4722-.0001c0-8.6805 6.9444-15.625 15.625-15.625 8.6805 0 15.625 6.9445 15.625 15.625 0 8.6806-6.9445 15.625-15.625 15.625-8.6806 0-15.625-6.9444-15.625-15.625zm17.3611.0001v-6.9445c0-1.0417-.6944-1.7361-1.7361-1.7361s-1.7361.6944-1.7361 1.7361v6.9445c0 1.0416.6944 1.7361 1.7361 1.7361s1.7361-.6945 1.7361-1.7361zm-.1736 7.6389c0 .1736-.1736.3472-.3472.5208-.3473.3472-.6945.5208-1.3889.5208-.5209 0-.8681-.1736-1.2153-.5208s-.5208-.6945-.5208-1.2153c0-.2034.0595-.3472.1089-.4664.0349-.0842.0647-.1561.0647-.228 0-.1736.1736-.3473.3472-.5209.5208-.5208 1.2153-.6944 1.9097-.3472.0868 0 .1302.0434.1736.0868s.0868.0868.1736.0868c.1737 0 .3473.1736.3473.1736.0868.0868.1302.1736.1736.2604.0434.0869.0868.1737.1736.2605.1736.1736.1736.5208.1736.6944 0 .0868-.0434.217-.0868.3472s-.0868.2604-.0868.3473z" fill-opacity=".95" fill-rule="evenodd"/></svg>