<svg enable-background="new 0 0 50 50" viewBox="0 0 50 50" xmlns="http://www.w3.org/2000/svg"><path clip-rule="evenodd" d="m40.625 12.8472c1.0417 0 1.7361.6944 1.7361 1.7361 0 1.0416-.6944 1.7361-1.7361 1.7361h-31.25c-1.0417 0-1.7361-.6945-1.7361-1.7361 0-1.0417.6944-1.7361 1.7361-1.7361zm-26.0417 10.4166h20.8334c1.0416 0 1.7361-.6944 1.7361-1.7361 0-1.0416-.6945-1.7361-1.7361-1.7361h-20.8334c-1.0416 0-1.7361.6945-1.7361 1.7361 0 1.0417.6945 1.7361 1.7361 1.7361zm27.7778 5.2084c0-1.0417-.6944-1.7362-1.7361-1.7362h-31.25c-1.0417 0-1.7361.6945-1.7361 1.7362 0 1.0416.6944 1.7361 1.7361 1.7361h31.25c1.0417 0 1.7361-.6945 1.7361-1.7361zm-6.9444 5.2083c1.0416 0 1.7361.6944 1.7361 1.7361s-.6945 1.7361-1.7361 1.7361h-20.8334c-1.0416 0-1.7361-.6944-1.7361-1.7361s.6945-1.7361 1.7361-1.7361z" fill-opacity=".95" fill-rule="evenodd"/></svg>