<svg width="81" height="80" viewBox="0 0 81 80" fill="none" xmlns="http://www.w3.org/2000/svg">
<g clip-path="url(#clip0_10474_108891)">
<path d="M0 -2.40601H80V40.7804L76.0402 46.9675L80 52.4741V77.594H4.81195e-06V36.8825L2.47487 34.0364L0 31.314V-2.40601Z" fill="#016FD0"/>
<path d="M15.5293 53.3403V40.7804H28.8279L30.2547 42.6404L31.7287 40.7804H79.9995V52.4741C79.9995 52.4741 78.7372 53.3278 77.2772 53.3403H50.5487L48.94 51.3604V53.3403H43.6685V49.9606C43.6685 49.9606 42.9484 50.4324 41.3916 50.4324H39.5974V53.3403H31.6159L30.1912 51.4404L28.7445 53.3403H15.5293Z" fill="white"/>
<path d="M0 31.314L2.9989 24.3225H8.18518L9.88708 28.2389V24.3225H16.3341L17.3473 27.1531L18.3295 24.3225H47.2699V25.7456C47.2699 25.7456 48.7913 24.3225 51.2916 24.3225L60.6817 24.3553L62.3542 28.2204V24.3225H67.7494L69.2344 26.5427V24.3225H74.6791V36.8824H69.2344L67.8113 34.6551V36.8824H59.8846L59.0874 34.9025H56.9564L56.1723 36.8824H50.7966C48.6452 36.8824 47.2699 35.4885 47.2699 35.4885V36.8824H39.1647L37.5561 34.9025V36.8824H7.41686L6.62026 34.9025H4.49608L3.70511 36.8824H0V31.314Z" fill="white"/>
<path d="M4.06048 25.8709L0.015625 35.2753H2.64904L3.39536 33.3921H7.73411L8.47657 35.2753H11.168L7.12699 25.8708H4.06048V25.8709ZM5.557 28.0596L6.8795 31.3504H4.23063L5.557 28.0596Z" fill="#016FD0"/>
<path d="M11.4453 35.2739V25.8694L15.1875 25.8833L17.3641 31.9467L19.4886 25.8694H23.2009V35.2739H20.8498V28.3443L18.3576 35.2739H16.2956L13.7964 28.3443V35.2739H11.4453Z" fill="#016FD0"/>
<path d="M24.8105 35.2739V25.8694H32.4826V27.973H27.1864V29.5817H32.3589V31.5616H27.1864V33.2321H32.4826V35.2739L24.8105 35.2739Z" fill="#016FD0"/>
<path d="M33.8438 25.8709V35.2753H36.1949V31.9343H37.1848L40.0038 35.2753H42.877L39.7834 31.8105C40.4969 31.7393 41.1577 31.4031 41.6353 30.8682C42.1128 30.3334 42.3724 29.6389 42.3627 28.9219C42.3627 26.9429 40.8094 25.8708 39.0758 25.8708H33.8438V25.8709ZM36.1949 27.9745H38.8824C39.5271 27.9745 39.9961 28.4788 39.9961 28.9644C39.9961 29.5892 39.3885 29.9544 38.9172 29.9544H36.1949V27.9745H36.1949Z" fill="#016FD0"/>
<path d="M45.7229 35.2739H43.3223V25.8694H45.7229V35.2739Z" fill="#016FD0"/>
<path d="M51.4148 35.2739H50.8966C48.3894 35.2739 46.8672 33.2986 46.8672 30.6103C46.8672 27.8556 48.3724 25.8694 51.5385 25.8694H54.1371V28.0968H51.4435C50.1582 28.0968 49.2492 29.0998 49.2492 30.6335C49.2492 32.4548 50.2886 33.2197 51.786 33.2197H52.4047L51.4148 35.2739Z" fill="#016FD0"/>
<path d="M56.5312 25.8709L52.4863 35.2753H55.1197L55.8661 33.3921H60.2048L60.9473 35.2753H63.6387L59.5977 25.8708H56.5312V25.8709ZM58.0277 28.0596L59.3502 31.3504H56.7013L58.0277 28.0596H58.0277Z" fill="#016FD0"/>
<path d="M63.9141 35.2739V25.8694H66.9032L70.7199 31.7781V25.8694H73.0711V35.2739H70.1786L66.2652 29.2105V35.2739H63.9141Z" fill="#016FD0"/>
<path d="M17.1387 51.7316V42.3271H24.8108V44.4308H19.5145V46.0395H24.687V48.0194H19.5145V49.6899H24.8108V51.7317L17.1387 51.7316Z" fill="#016FD0"/>
<path d="M54.7324 51.7316V42.3271H62.4045V44.4308H57.1083V46.0395H62.256V48.0194H57.1083V49.6899H62.4045V51.7317L54.7324 51.7316Z" fill="#016FD0"/>
<path d="M25.1085 51.7316L28.844 47.0874L25.0195 42.3271H27.9816L30.2593 45.2699L32.5447 42.3271H35.3908L31.6166 47.0294L35.359 51.7316H32.3973L30.1858 48.8353L28.028 51.7316L25.1085 51.7316Z" fill="#016FD0"/>
<path d="M35.6387 42.3287V51.7332H38.0517V48.7634H40.5265C42.6206 48.7634 44.2079 47.6524 44.2079 45.4919C44.2079 43.7022 42.963 42.3287 40.832 42.3287H35.6387V42.3287ZM38.0517 44.4556H40.658C41.3345 44.4556 41.8181 44.8702 41.8181 45.5383C41.8181 46.166 41.337 46.6211 40.6503 46.6211H38.0517V44.4556Z" fill="#016FD0"/>
<path d="M45.2285 42.3272V51.7316H47.5796V48.3906H48.5696L51.3886 51.7316H54.2618L51.1682 48.2668C51.8817 48.1956 52.5425 47.8593 53.02 47.3245C53.4976 46.7897 53.7572 46.0951 53.7475 45.3782C53.7475 43.3992 52.1941 42.3271 50.4605 42.3271H45.2285L45.2285 42.3272ZM47.5796 44.4308H50.2672C50.9119 44.4308 51.3809 44.9351 51.3809 45.4207C51.3809 46.0455 50.7732 46.4107 50.302 46.4107H47.5796V44.4308Z" fill="#016FD0"/>
<path d="M63.4919 51.7316V49.6899H68.1972C68.8934 49.6899 69.1949 49.3136 69.1949 48.901C69.1949 48.5057 68.8944 48.106 68.1972 48.106H66.0709C64.2227 48.106 63.1934 46.9799 63.1934 45.2893C63.1934 43.7813 64.136 42.3271 66.8825 42.3271H71.461L70.471 44.4432H66.5112C65.7543 44.4432 65.5213 44.8404 65.5213 45.2197C65.5213 45.6095 65.8092 46.0395 66.3875 46.0395H68.6149C70.6752 46.0395 71.5692 47.2081 71.5692 48.7386C71.5692 50.384 70.573 51.7316 68.5027 51.7316H63.4919Z" fill="#016FD0"/>
<path d="M72.1228 51.7316V49.6899H76.8281C77.5243 49.6899 77.8258 49.3136 77.8258 48.901C77.8258 48.5057 77.5253 48.106 76.8281 48.106H74.7018C72.8536 48.106 71.8242 46.9799 71.8242 45.2893C71.8242 43.7813 72.7668 42.3271 75.5133 42.3271H80.0918L79.1019 44.4432H75.1421C74.3851 44.4432 74.1521 44.8404 74.1521 45.2197C74.1521 45.6095 74.4401 46.0395 75.0183 46.0395H77.2457C79.3061 46.0395 80.2001 47.2081 80.2001 48.7386C80.2001 50.384 79.2038 51.7316 77.1336 51.7316H72.1228Z" fill="#016FD0"/>
</g>
<defs>
<clipPath id="clip0_10474_108891">
<rect width="80.1992" height="80" fill="white"/>
</clipPath>
</defs>
</svg>
