<svg enable-background="new 0 0 50 50" viewBox="0 0 50 50" xmlns="http://www.w3.org/2000/svg"><path clip-rule="evenodd" d="m44.0972 24.9999c0 4.1667-1.3889 7.9861-3.6458 11.1111 0 .1737-.1736.3473-.3472.5209-3.4723 4.6875-9.0278 7.6389-15.2778 7.6389-.3472 0-.6945-.0434-1.0417-.0868s-.6944-.0868-1.0417-.0868h-.1736c-6.7708-.8681-12.5-5.382-15.1041-11.2848v-.1736c-1.0417-2.4305-1.5625-5.0347-1.5625-7.6389 0-4.1666 1.3889-7.9861 3.6458-11.1111 0-.0868.0434-.1302.0868-.1736s.0868-.0868.0868-.1736c3.4722-4.6875 9.0278-7.6389 15.2778-7.6389.6944 0 1.3889 0 2.0833.1736h.1736c6.9445.8681 12.6737 5.2084 15.2778 11.2847v.1737c1.0417 2.2569 1.5625 4.8611 1.5625 7.4652zm-22.2222 5.2084h6.0764l2.9514-5.2083-2.9514-5.2084h-6.0764l-2.9514 5.2084zm-12.5-5.2084c0-2.4305.5208-4.8611 1.5625-6.9444l6.9444 12.1527h-7.6389c-.5208-1.5625-.868-3.2986-.868-5.2083zm30.2083-5.2083h-7.6389l6.9445 12.1528c1.0416-2.0833 1.5625-4.5139 1.5625-6.9444 0-1.9098-.3472-3.6459-.8681-5.2084zm-1.5625-3.4722h-14.0625l3.8195-6.5973c4.3402.6945 7.9861 3.125 10.243 6.5973zm-21.0069 5.2083 6.9444-12.1527c-4.3403.3472-8.1597 2.4305-10.7639 5.5555zm-5.0347 12.1528h14.0625l-3.8195 6.5972c-4.3403-.6945-7.9861-3.125-10.243-6.5972zm21.0069-5.2084-6.9444 12.1528c4.3402-.3472 8.1597-2.4305 10.7638-5.5555z" fill-opacity=".95" fill-rule="evenodd"/></svg>