<svg enable-background="new 0 0 50 50" viewBox="0 0 50 50" xmlns="http://www.w3.org/2000/svg"><path d="m26.2276 11.6196c.678.678.678 1.7772 0 2.4552l-9.1894 9.1891h20.1146c.9588 0 1.7361.7772 1.7361 1.7361 0 .9588-.7773 1.7361-1.7361 1.7361h-20.1146l9.1894 9.189c.678.678.678 1.7773 0 2.4553s-1.7772.678-2.4552 0l-12.1528-12.1528-.1271-.1418c-.004-.005-.008-.01-.012-.0151l.1391.1569c-.0614-.0615-.1173-.1264-.1676-.1941-.031-.042-.0601-.0851-.0873-.1296-.013-.0209-.0253-.0421-.0372-.0635-.0188-.0344-.0369-.0698-.0538-.1059-.0138-.0295-.0268-.0595-.0389-.0898-.0138-.0343-.0263-.0687-.0377-.1035-.0083-.0259-.0164-.0526-.0238-.0794-.0104-.0375-.0194-.0751-.0272-.1132-.006-.0303-.0113-.0605-.0159-.0909-.005-.033-.0091-.0673-.0122-.1018-.0036-.0414-.0058-.0818-.0066-.1223-.0002-.0112-.0003-.0224-.0003-.0336l.0003-.0319c.0007-.0411.0029-.0821.0066-.1231l-.0069.155c0-.0879.0065-.1743.0191-.2586.0046-.0295.0099-.0598.016-.0899.0077-.0382.0167-.0759.0269-.1131.0076-.0271.0157-.0538.0244-.0803.011-.0342.0235-.0685.0371-.1023.0123-.0308.0253-.0609.0391-.0906.0169-.0359.035-.0713.0542-.106.0115-.021.0238-.0422.0367-.0632.0273-.0444.0564-.0876.0873-.1293.0095-.0129.0191-.0255.0289-.0379.0429-.0546.0894-.107.1388-.1564l12.1528-12.1528c.678-.678 1.7772-.678 2.4552 0z" fill-opacity=".95"/></svg>