<svg enable-background="new 0 0 50 50" viewBox="0 0 50 50" xmlns="http://www.w3.org/2000/svg"><path d="m16.3195 14.5834c.9588 0 1.7361.7773 1.7361 1.7361v13.1667l14.3973-14.3943c.678-.678 1.7773-.678 2.4553 0s.678 1.7772 0 2.4552l-14.3978 14.3974h13.1702c.9588 0 1.7361.7773 1.7361 1.7361s-.7773 1.7361-1.7361 1.7361h-17.3611l-.056-.0009c-.0313-.001-.0626-.0028-.0938-.0055l.1498.0064c-.0879 0-.1743-.0065-.2587-.0191-.0295-.0046-.0597-.0099-.0898-.016-.0383-.0077-.0759-.0167-.1131-.0269-.0271-.0076-.0538-.0156-.0804-.0243-.0341-.0111-.0684-.0236-.1022-.0371-.0308-.0124-.0609-.0253-.0906-.0392-.0359-.0169-.0713-.035-.106-.0542-.021-.0115-.0423-.0238-.0633-.0367-.0443-.0273-.0875-.0564-.1292-.0873-.0129-.0095-.0255-.0191-.038-.0289-.1096-.0861-.209-.1855-.2954-.2957l.139.1569c-.0614-.0614-.1173-.1263-.1676-.1941-.031-.042-.0601-.0851-.0873-.1296-.0129-.0209-.0253-.0421-.0371-.0635-.0189-.0343-.037-.0698-.0539-.1059-.0138-.0295-.0268-.0595-.0389-.0898-.0137-.0343-.0262-.0687-.0376-.1035-.0084-.0258-.0164-.0526-.0238-.0794-.0105-.0374-.0195-.0751-.0272-.1132-.0061-.0302-.0114-.0605-.0159-.0908-.0051-.0331-.0092-.0674-.0123-.1019-.0036-.0413-.0058-.0818-.0065-.1223-.0003-.0112-.0004-.0224-.0004-.0336v-17.3611c0-.9588.7773-1.7361 1.7362-1.7361z" fill-opacity=".95"/></svg>