<svg enable-background="new 0 0 50 50" viewBox="0 0 50 50" xmlns="http://www.w3.org/2000/svg"><path d="m26.2276 11.6196 12.1528 12.1528c.0494.0494.0959.1018.1391.1568l-.1391-.1568c.0614.0614.1173.1263.1676.1941.031.0419.0601.0851.0873.1295.013.021.0253.0422.0372.0636.0188.0343.0369.0697.0538.1058.0138.0295.0268.0596.0389.0899.0138.0343.0263.0686.0377.1035.0083.0258.0164.0525.0238.0794.0104.0374.0194.0751.0272.1132.006.0302.0113.0605.0159.0908.0053.0346.0095.0705.0126.1066.0028.0327.0046.0639.0056.0952.0006.0174.0009.0367.0009.056l-.001.0577c-.001.0301-.0027.0602-.0053.0902l.0063-.1479c0 .0879-.0065.1742-.0191.2586-.0046.0295-.0099.0597-.016.0899-.0077.0382-.0167.0758-.0269.113-.0076.0271-.0157.0538-.0244.0804-.011.0341-.0235.0685-.037.1023-.0124.0308-.0254.0608-.0392.0905-.0169.0359-.035.0713-.0542.106-.0115.0211-.0238.0423-.0367.0633-.0273.0444-.0564.0875-.0873.1292-.0095.013-.0191.0255-.0289.038-.0037.0046-.0077.0096-.0117.0146l-.1271.1418-12.1528 12.1528c-.678.678-1.7772.678-2.4552 0s-.678-1.7773 0-2.4553l9.1877-9.189h-20.1129c-.9588 0-1.7361-.7773-1.7361-1.7361 0-.9589.7773-1.7361 1.7361-1.7361h20.1129l-9.1877-9.1891c-.678-.678-.678-1.7772 0-2.4552s1.7772-.678 2.4552 0z" fill-opacity=".95"/></svg>