<svg enable-background="new 0 0 50 50" viewBox="0 0 50 50" xmlns="http://www.w3.org/2000/svg"><path d="m33.6805 14.5834c.9589 0 1.7361.7773 1.7361 1.7361s-.7772 1.7361-1.7361 1.7361h-13.1684l14.396 14.3974c.678.678.678 1.7772 0 2.4552-.6779.678-1.7772.678-2.4552 0l-14.3974-14.396v13.1684c0 .9588-.7772 1.7361-1.7361 1.7361-.9588 0-1.7361-.7773-1.7361-1.7361v-17.3611l.0003-.0319c.0008-.0411.003-.0821.0066-.1231l-.0069.155c0-.0879.0065-.1743.0191-.2586.0046-.0295.0099-.0598.0161-.0899.0076-.0382.0166-.0759.0268-.113.0076-.0272.0157-.0539.0244-.0804.011-.0342.0235-.0685.0371-.1023.0123-.0308.0253-.0608.0391-.0906.0169-.0359.035-.0713.0542-.106.0115-.021.0238-.0422.0367-.0632.0273-.0444.0564-.0876.0873-.1293.0095-.0129.0191-.0255.0289-.0379.0861-.1097.1856-.2091.2957-.2955l-.1569.1391c.0615-.0615.1264-.1174.1941-.1677.042-.0309.0851-.0601.1296-.0872.0209-.013.0421-.0253.0635-.0372.0344-.0189.0698-.037.1059-.0538.0295-.0139.0595-.0269.0898-.039.0343-.0137.0687-.0262.1035-.0376.0259-.0084.0526-.0164.0794-.0238.0375-.0104.0751-.0194.1132-.0272.0303-.006.0605-.0114.0909-.0159.0329-.005.067-.0091.1014-.0122.0423-.0037.0834-.0059.1244-.0066.0097-.0002.0208-.0003.0319-.0003z" fill-opacity=".95"/></svg>