<svg enable-background="new 0 0 50 50" viewBox="0 0 50 50" xmlns="http://www.w3.org/2000/svg"><path clip-rule="evenodd" d="m45.3125 45.3125c-.3472.3472-.6945.5208-1.2153.5208s-.868-.1736-1.2153-.5208l-9.8958-9.8959h-25.3472c-1.0417 0-1.7361-.6944-1.7361-1.7361 0-1.0416.6944-1.7361 1.7361-1.7361 1.9097 0 3.4722-1.5625 3.4722-3.4722v-8.6806c0-1.7361.3472-3.4722 1.0417-5.2083l-7.4653-7.4653c-.6944-.6944-.6944-1.7361 0-2.4306.6944-.6944 1.7361-.6944 2.4306 0l27.7778 27.7777 10.4167 10.4167c.6943.6946.6943 1.7362-.0001 2.4307zm-11.1111-30.5556c-2.9514-5.0347-9.2014-6.7708-14.2361-3.993-.8681.3472-1.9098.1736-2.4306-.6945-.5208-.868-.1736-1.9097.6944-2.2569 6.5973-3.8194 15.1042-1.3889 18.9237 5.2083 1.0416 2.0833 1.7361 4.3403 1.7361 6.7708v6.9445c0 1.0417-.6945 1.7361-1.7361 1.7361-1.0417 0-1.7362-.6944-1.7362-1.7361v-6.9445c0-1.7361-.5208-3.6458-1.2152-5.0347zm-9.2014 29.3403c1.7361 0 3.4722-.868 4.5139-2.6042.5208-.868.5208-2.0833-.3472-2.4305-.8681-.3472-1.9098-.1736-2.4306.6944-.5208.8681-1.5625 1.2153-2.4305.6945-.2421-.1211-.3998-.3265-.532-.4987l-.0001-.0002c-.0574-.0746-.1099-.143-.1624-.1956-.5208-.868-1.5625-1.2152-2.4305-.6944-.8681.5208-1.2153 1.5625-.6945 2.4305.5208.8681 1.0417 1.3889 1.9097 1.9098.8681.5208 1.7361.6944 2.6042.6944zm-10.0694-26.7362 14.5833 14.5834h-15.7986c.5208-1.0417.868-2.257.868-3.4722v-8.6806c0-.8681.1736-1.7361.3473-2.4306z" fill-opacity=".95" fill-rule="evenodd"/></svg>