<svg enable-background="new 0 0 50 50" viewBox="0 0 50 50" xmlns="http://www.w3.org/2000/svg"><path clip-rule="evenodd" d="m37.1528 9.3749h-3.4722v-1.7361c0-1.0417-.6945-1.7361-1.7362-1.7361-1.0416 0-1.7361.6944-1.7361 1.7361v1.7361h-10.4166v-1.7361c0-1.0417-.6945-1.7361-1.7361-1.7361-1.0417 0-1.7362.6944-1.7362 1.7361v1.7361h-3.4722c-2.9514 0-5.2083 2.257-5.2083 5.2084v24.3055c0 2.9514 2.2569 5.2084 5.2083 5.2084h24.3056c2.9514 0 5.2083-2.257 5.2083-5.2084v-24.3055c0-2.9514-2.2569-5.2084-5.2083-5.2084zm-24.3056 3.4722h3.4722v1.7361c0 1.0417.6945 1.7362 1.7361 1.7362 1.0417 0 1.7362-.6945 1.7362-1.7362v-1.7361h10.4166v1.7361c0 1.0417.6945 1.7362 1.7361 1.7362 1.0417 0 1.7361-.6945 1.7361-1.7362v-1.7361h3.4723c1.0416 0 1.7361.6945 1.7361 1.7361v5.2084h-27.7778v-5.2084c0-1.0416.6944-1.7361 1.7361-1.7361zm0 27.7778h24.3056c1.0416 0 1.7361-.6944 1.7361-1.7361v-15.625h-27.7778v15.625c0 1.0417.6944 1.7361 1.7361 1.7361z" fill-opacity=".95" fill-rule="evenodd"/></svg>