<svg enable-background="new 0 0 50 50" viewBox="0 0 50 50" xmlns="http://www.w3.org/2000/svg"><path clip-rule="evenodd" d="m15.7986 15.1042 8.6806 8.6806c.6944.6944.6944 1.7361 0 2.4305l-8.6806 8.6806c-.3472.3472-.6944.5208-1.2153.5208-.5208 0-.868-.1736-1.2152-.5208-.6945-.6945-.6945-1.7361 0-2.4306l7.4652-7.4653-7.4652-7.4652c-.6945-.6945-.6945-1.7361 0-2.4306.6944-.6944 1.7361-.6944 2.4305 0zm12.1528 19.7917 8.6806-8.6806c.6944-.6944.6944-1.7361 0-2.4305l-8.6806-8.6806c-.6944-.6944-1.7361-.6944-2.4306 0-.6944.6945-.6944 1.7361 0 2.4306l7.4653 7.4652-7.4653 7.4653c-.6944.6945-.6944 1.7361 0 2.4306.3473.3472.6945.5208 1.2153.5208.5209 0 .8681-.1736 1.2153-.5208z" fill-opacity=".95" fill-rule="evenodd"/></svg>