<svg enable-background="new 0 0 50 50" viewBox="0 0 50 50" xmlns="http://www.w3.org/2000/svg"><path clip-rule="evenodd" d="m42.6702 17.5347c-3.1366-6.9445-9.7582-11.632-17.5996-11.632-6.2731 0-11.8492 2.9514-15.3343 7.6389 0 .0868-.0436.1302-.0871.1736-.0436.0434-.0871.0868-.0871.1736-2.2653 3.125-3.6593 6.9445-3.6593 11.1111 0 9.7223 7.3186 17.7084 16.7283 18.9236h.1742c.3485 0 .697.0434 1.0455.0869.3485.0434.6971.0868 1.0456.0868 10.6294 0 19.1678-8.507 19.1678-19.0973.1742-2.6041-.3485-5.2083-1.394-7.4652zm-17.5996-8.1597c5.4018 0 10.2809 2.7778 13.069 6.9445h-13.069c-3.6593 0-6.6216 2.2569-8.0156 5.2083l-3.8336-6.5972c2.788-3.4723 7.1444-5.5556 11.8492-5.5556zm0 20.8333c2.9623 0 5.2276-2.257 5.2276-5.2083 0-2.9514-2.2653-5.2084-5.2276-5.2084s-5.2276 2.257-5.2276 5.2084c0 2.9513 2.2653 5.2083 5.2276 5.2083zm-15.6828-5.2084c0-2.4305.5228-4.8611 1.5683-6.9444l6.4474 11.2847s0 .1736.1742.1736c1.5683 2.4306 4.3564 4.1667 7.4929 4.1667.3485 0 .697 0 1.0455-.1736l-4.0078 6.7708c-7.1444-1.2153-12.7205-7.6389-12.7205-15.2778zm23.1757 4.3403-6.4474 11.2848c8.1899-.5209 14.6373-7.2917 14.463-15.625 0-1.9098-.3485-3.6459-.8712-5.2084h-7.8414c1.0455 1.3889 1.7425 3.2986 1.7425 5.2084 0 1.5625-.3485 2.9513-1.0455 4.1666z" fill-opacity=".95" fill-rule="evenodd"/></svg>