<svg enable-background="new 0 0 50 50" viewBox="0 0 50 50" xmlns="http://www.w3.org/2000/svg"><path clip-rule="evenodd" d="m35 20.0001h.8333c5.5 0 9.8334 4.5 9.8334 10s-4.5 10-10 10h-15c-6.8334 0-12.8334-4.6667-14.5-11.3334-1-3.8333-.3333-7.8333 1.6667-11.3333 2.1667-3.3333 5.3334-5.8333 9.3334-7 3.8332-1 7.8332-.3333 11.3332 1.6667 3 1.8333 5.3333 4.6666 6.5 8zm-14.1667 16.6666h15c3.6667 0 6.6667-2.8333 6.6667-6.5 0-3.6666-3-6.6666-6.6667-6.6666h-2c-.8333 0-1.5-.6667-1.6666-1.3334-1.3334-5.3333-6.1667-8.8333-11.3334-8.8333-1 0-2 .1667-2.8333.3333-3 .6667-5.5 2.5-7.1667 5.3334-1.6666 2.8333-2.1666 5.8333-1.3333 9 1.3333 5 6 8.6666 11.3333 8.6666z" fill-opacity=".95" fill-rule="evenodd"/></svg>