<svg enable-background="new 0 0 50 50" viewBox="0 0 50 50" xmlns="http://www.w3.org/2000/svg"><path clip-rule="evenodd" d="m45.1339 30.5513c-1.041 2.605-2.9496 4.689-5.5523 5.731-.1735.1736-.5205.1736-.694.1736-.6941 0-1.3881-.3473-1.5616-1.042-.347-.8683 0-1.9103.8675-2.2576 1.7351-.6947 2.9497-2.084 3.6437-3.8207.6941-1.7366.6941-3.647-.1735-5.3836-1.041-2.605-3.4702-4.168-6.2463-4.168h-2.2557c-.8675 0-1.5615-.521-1.7351-1.3893-1.7351-6.4257-8.3284-10.42-14.7483-8.6833-6.4198 1.7366-10.4106 8.3359-8.6755 14.7616.694 2.605 2.0821 4.8626 4.1643 6.4256.694.521.8675 1.7367.347 2.4313-.5206.6947-1.7351.8684-2.4292.3474-2.6026-2.084-4.5112-5.0363-5.3788-8.336-2.2556-8.336 2.7762-16.8456 11.1047-18.9296 7.9814-2.084 15.9629 2.4313 18.5655 9.899h1.0411c4.1642 0 7.8079 2.4313 9.543 6.252 1.0411 2.6049 1.2146 5.3836.1735 7.9886zm-25.8529.1736c-.6941-.6946-1.7351-.6946-2.4292 0-.1735.1737-.347.3474-.347.521-.1735.1737-.1735.521-.1735.6947s0 .521.1735.6947c.0868.0868.1301.1736.1735.2605.0434.0868.0868.1736.1735.2605.347.3473.6941.5209 1.2146.5209s.8675-.1736 1.2146-.5209c.1735-.1737.347-.3474.347-.521.1735-.1737.1735-.521.1735-.6947s0-.521-.1735-.6947c0-.1736-.1735-.3473-.347-.521zm-2.4292 6.9467c.1735-.1737.347-.3474.5206-.3474.694-.3473 1.388-.1736 1.9086.3474.347.3473.5205.6946.5205 1.2156s-.1735.8683-.5205 1.2157c-.3471.3473-.6941.521-1.2146.521s-.8676-.1737-1.2146-.521c-.347-.3474-.5205-.6947-.5205-1.2157s.1735-.8683.5205-1.2156zm6.9404-3.4733c-.1735.1737-.347.3473-.347.521 0 .0719-.0298.1439-.0647.2281-.0493.1192-.1088.2631-.1088.4666 0 .521.1735.8683.5205 1.2156.1735.1737.347.3473.5205.3473.0719 0 .1438.0298.228.0648.1191.0493.2628.1089.4661.1089.5205 0 .8675-.1737 1.2145-.521.3471-.3473.5206-.6946.5206-1.2156s-.1735-.8684-.5206-1.2157c-.694-.6947-1.735-.6947-2.4291 0zm0 6.9466c.5205-.6947 1.7351-.6947 2.4291 0 .1736.1737.3471.3473.3471.521.1735.1737.1735.521.1735.6946 0 .521-.1735.8684-.5206 1.2157-.0867.0868-.1735.1303-.2602.1737-.0868.0434-.1735.0868-.2603.1736-.1735.1737-.5205.1737-.694.1737-.5205 0-.8676-.1737-1.2146-.521s-.5205-.6947-.5205-1.2157c0-.1736 0-.5209.1735-.6946 0-.1737.1735-.3473.347-.521zm9.3695-10.42c-.694-.6946-1.7351-.6946-2.4291 0-.1735.1737-.347.3474-.347.521 0 .0869-.0434.2171-.0868.3473v.0001c-.0433.1302-.0867.2605-.0867.3473 0 .1737 0 .521.1735.6947.0867.0868.1301.1736.1735.2605.0434.0868.0867.1736.1735.2605.347.3473.694.5209 1.2146.5209.5205 0 .8675-.1736 1.2145-.5209.3471-.3474.5206-.6947.5206-1.2157 0-.1737 0-.521-.1735-.6947 0-.1736-.1735-.3473-.3471-.521zm-.347 6.6862c.0434.0434.0868.0868.1735.0868 0 0 .1735 0 .1735.1737.3471.3473.5206.6947.5206 1.2157s-.1735.8683-.5206 1.2156c-.347.3474-.694.521-1.2145.521-.5206 0-.8676-.1736-1.2146-.521-.347-.3473-.5205-.6946-.5205-1.2156s.1735-.8684.5205-1.2157c.347-.521 1.0411-.6947 1.5616-.521.0998.0999.1422.1423.1932.1604.0377.0133.0801.0133.1538.0133.0868 0 .1301.0434.1735.0868z" fill-opacity=".95" fill-rule="evenodd"/></svg>