<svg enable-background="new 0 0 50 50" viewBox="0 0 50 50" xmlns="http://www.w3.org/2000/svg"><path clip-rule="evenodd" d="m35.395 14.5834c4.1614 0 7.8026 2.4306 9.5365 6.25 1.0403 2.6042 1.2137 5.3819.3468 8.1597-1.0404 2.6042-2.9477 4.6875-5.5485 5.7292-.1734.1736-.5202.1736-.6936.1736-.6935 0-1.2137-.3472-1.5605-1.0417-.3468-.868 0-1.9097.867-2.2569 1.7339-.6945 2.9476-2.0833 3.6412-3.8195.6935-1.7361.5201-3.6458-.1734-5.3819-1.2138-2.6042-3.6412-4.1667-6.4155-4.1667h-2.254c-.867 0-1.5605-.6944-1.7339-1.3889-1.5605-6.4236-8.3227-10.4166-14.7382-8.6805-6.4154 1.5625-10.4034 8.3333-8.6695 14.7569.6936 2.4306 2.0807 4.8611 4.1614 6.4236.8669.5209.8669 1.7362.3468 2.4306-.5202.8681-1.7339.8681-2.4275.3472-2.6008-2.0833-4.5081-5.0347-5.3751-8.3333-2.254-8.507 2.7743-17.0139 11.2704-19.0972 7.8025-2.0833 15.9518 2.2569 18.5527 9.8958zm-19.0728 12.1528c0-1.0417.6935-1.7361 1.7339-1.7361 1.0403 0 1.7339.6944 1.7339 1.7361v13.8889c0 1.0416-.6936 1.7361-1.7339 1.7361-1.0404 0-1.7339-.6945-1.7339-1.7361zm17.3389 13.8889v-13.8889c0-1.0417-.6935-1.7361-1.7339-1.7361-1.0403 0-1.7339.6944-1.7339 1.7361v13.8889c0 1.0416.6936 1.7361 1.7339 1.7361 1.0404 0 1.7339-.6945 1.7339-1.7361zm-8.6695-12.1528c-1.0403 0-1.7339.6945-1.7339 1.7361v13.8889c0 1.0417.6936 1.7361 1.7339 1.7361 1.0404 0 1.7339-.6944 1.7339-1.7361v-13.8889c0-1.0416-.6935-1.7361-1.7339-1.7361z" fill-opacity=".95" fill-rule="evenodd"/></svg>