<svg enable-background="new 0 0 50 50" viewBox="0 0 50 50" xmlns="http://www.w3.org/2000/svg"><path clip-rule="evenodd" d="m12.8472 31.9444c1.0417 0 1.7361-.6944 1.7361-1.7361 0-1.0416-.6944-1.7361-1.7361-1.7361h-1.7361c-1.0416 0-1.7361-.6944-1.7361-1.7361v-15.625c0-1.0417.6945-1.7361 1.7361-1.7361h15.625c1.0417 0 1.7361.6944 1.7361 1.7361v1.7361c0 1.0417.6945 1.7361 1.7361 1.7361 1.0417 0 1.7362-.6944 1.7362-1.7361v-1.7361c0-2.9514-2.257-5.2083-5.2084-5.2083h-15.625c-2.9514 0-5.2083 2.257-5.2083 5.2083v15.625c0 2.9514 2.2569 5.2083 5.2083 5.2083zm26.0417-13.8889h-15.625c-2.9514 0-5.2083 2.257-5.2083 5.2084v15.625c0 2.9513 2.2569 5.2083 5.2083 5.2083h15.625c2.9514 0 5.2083-2.257 5.2083-5.2083v-15.625c0-2.9514-2.2569-5.2084-5.2083-5.2084zm1.7361 20.8334c0 1.0416-.6944 1.7361-1.7361 1.7361h-15.625c-1.0417 0-1.7361-.6945-1.7361-1.7361v-15.625c0-1.0417.6944-1.7361 1.7361-1.7361h15.625c1.0417 0 1.7361.6944 1.7361 1.7361z" fill-opacity=".95" fill-rule="evenodd"/></svg>