<svg enable-background="new 0 0 50 50" viewBox="0 0 50 50" xmlns="http://www.w3.org/2000/svg"><path d="m40.1042 20.9635c-.3473.3473-.6945.5209-1.2153.5209s-.8681-.1736-1.2153-.5209l-5.7292-5.7291v16.6666c0 4.8612-3.8194 8.6806-8.6805 8.6806h-12.1528c-1.0417 0-1.7361-.6944-1.7361-1.7361s.6944-1.7361 1.7361-1.7361h12.1528c2.9514 0 5.2083-2.257 5.2083-5.2084v-16.6666l-5.7291 5.7291c-.6945.6945-1.7362.6945-2.4306 0-.6944-.6944-.6944-1.7361 0-2.4305l8.6806-8.6806c.1736-.1736.3472-.3472.5208-.3472.3472-.1736.868-.1736 1.3889 0 .1736.1736.3472.1736.5208.3472l8.6806 8.6806c.6944.6944.6944 1.7361 0 2.4305z" fill-opacity=".95"/></svg>