<svg enable-background="new 0 0 50 50" viewBox="0 0 50 50" xmlns="http://www.w3.org/2000/svg"><path d="m40.625 11.1111c0 1.0417-.6944 1.7361-1.7361 1.7361h-12.1528c-2.9514 0-5.2083 2.257-5.2083 5.2084v16.6666l5.7291-5.7291c.6945-.6945 1.7362-.6945 2.4306 0 .6944.6944.6944 1.7361 0 2.4305l-8.6806 8.6806c-.1736.1736-.3472.3472-.5208.3472-.1736.1736-.5208.1736-.6944.1736s-.5209 0-.6945-.1736-.3472-.1736-.5208-.3472l-8.6806-8.6806c-.6944-.6944-.6944-1.7361 0-2.4305.6945-.6945 1.7361-.6945 2.4306 0l5.7292 5.7291v-16.6666c0-4.8612 3.8194-8.6806 8.6805-8.6806h12.1528c1.0417 0 1.7361.6944 1.7361 1.7361z" fill-opacity=".95"/></svg>