<svg enable-background="new 0 0 50 50" viewBox="0 0 50 50" xmlns="http://www.w3.org/2000/svg"><path d="m40.1042 31.4236-8.6806 8.6806c-.3472.3472-.6944.5208-1.2153.5208-.5208 0-.868-.1736-1.2152-.5208-.6945-.6945-.6945-1.7361 0-2.4306l5.7291-5.7292h-16.6666c-4.8612 0-8.6806-3.8194-8.6806-8.6805v-12.1528c0-1.0417.6944-1.7361 1.7361-1.7361s1.7361.6944 1.7361 1.7361v12.1528c0 2.9514 2.257 5.2083 5.2084 5.2083h16.6666l-5.7291-5.7291c-.6945-.6945-.6945-1.7362 0-2.4306.6944-.6944 1.7361-.6944 2.4305 0l8.6806 8.6806c.1736.1736.3472.3472.3472.5208.1736.3472.1736.868 0 1.3889 0 .1736-.1736.3472-.3472.5208z" fill-opacity=".95"/></svg>