<svg viewBox="0 0 50 50" xmlns="http://www.w3.org/2000/svg"><g fill="none" stroke="#000" stroke-width="2"><path d="m36.68649 28.02023 1.03529-3.65323a1.73841 1.73841 0 0 0 -1.19858-2.14652l-25.30044-7.17a1.73841 1.73841 0 0 0 -2.14655 1.19853l-1.0371 3.65957c.02178.00556.04358.00546.06535.01162a2.53439 2.53439 0 0 1 -1.382 4.87673c-.02177-.00617-.04027-.0177-.06173-.02439l-1.03712 3.65959a1.73842 1.73842 0 0 0 1.19859 2.14652l25.30043 7.17a1.73841 1.73841 0 0 0 2.14655-1.19852l1.03528-3.65315a2.53438 2.53438 0 0 1 1.382-4.87672z" stroke-linejoin="round"/><g stroke-linecap="round"><path d="m17.14257 17.14688-4.40056 15.52811" stroke-dasharray=".64455 2.98103" stroke-miterlimit="10"/><path d="m38.00208 34.72979a4.99458 4.99458 0 0 0 1.89874.15971 1.73546 1.73546 0 0 0 1.023-1.13857l1.03528-3.65314a2.53438 2.53438 0 1 1 1.382-4.87672l1.03529-3.6532a1.73842 1.73842 0 0 0 -1.19859-2.14652l-25.30043-7.17a1.73841 1.73841 0 0 0 -2.14655 1.19852" stroke-linejoin="round"/></g></g></svg>