<svg viewBox="0 0 50 50" xmlns="http://www.w3.org/2000/svg"><g fill="none" stroke="#000" stroke-width="2.09972"><path d="m43.47723 21.85437v-4.71283a2.15768 2.15768 0 0 0 -2.15771-2.15765h-32.63904a2.15768 2.15768 0 0 0 -2.15771 2.15765v4.72107c.02789-.00073.05389-.00824.082-.00824a3.14563 3.14563 0 0 1 0 6.29126c-.02808 0-.05408-.00751-.082-.00824v4.721a2.15768 2.15768 0 0 0 2.15771 2.15765h32.639a2.15768 2.15768 0 0 0 2.15771-2.15765v-4.71276a3.14563 3.14563 0 1 1 0-6.29126z" stroke-linejoin="round"/><path d="m16.45908 15.48389v20.03216" stroke-dasharray=".8 3.7" stroke-linecap="round" stroke-miterlimit="10"/></g></svg>