<svg enable-background="new 0 0 50 50" viewBox="0 0 50 50" xmlns="http://www.w3.org/2000/svg"><path clip-rule="evenodd" d="m5.9028 25c0-10.5903 8.5069-19.0972 19.0972-19.0972s19.0972 8.5069 19.0972 19.0972-8.5069 19.0972-19.0972 19.0972-19.0972-8.5069-19.0972-19.0972zm20.8333 10.4167v5.0347c7.2917-.6945 13.0209-6.4236 13.7153-13.7153h-5.0347c-1.0417 0-1.7361-.6944-1.7361-1.7361s.6944-1.7361 1.7361-1.7361h5.0347c-.6944-7.1181-6.4236-12.8472-13.7153-13.7153v5.0347c0 1.0417-.6944 1.7361-1.7361 1.7361-1.0416 0-1.7361-.6944-1.7361-1.7361v-5.0347c-7.2917.6944-13.0208 6.4236-13.7153 13.7153h5.0348c1.0416 0 1.7361.6944 1.7361 1.7361s-.6945 1.7361-1.7361 1.7361h-5.0348c.6945 7.1181 6.4236 12.8472 13.7153 13.7153v-5.0347c0-1.0417.6945-1.7362 1.7361-1.7362 1.0417 0 1.7361.6945 1.7361 1.7362z" fill-opacity=".95" fill-rule="evenodd"/></svg>