<svg enable-background="new 0 0 50 50" viewBox="0 0 50 50" xmlns="http://www.w3.org/2000/svg"><path clip-rule="evenodd" d="m40.6304 9.375h-22.5459c-.5203 0-1.0406.1736-1.3875.5208l-12.1401 13.8889c-.5203.6945-.5203 1.5625 0 2.257l12.1401 13.8889c.3469.5208.8672.6944 1.3875.6944h22.5459c2.9484 0 5.203-2.2569 5.203-5.2083v-20.8334c0-2.9514-2.2546-5.2083-5.203-5.2083zm1.7343 26.0417c0 1.0417-.6937 1.7361-1.7343 1.7361h-21.6788l-10.5792-12.1528 10.5792-12.1528h21.6788c1.0406 0 1.7343.6945 1.7343 1.7362zm-9.7121-10.4167 3.9889-3.993c.6938-.6945.6938-1.7361 0-2.4306-.6937-.6944-1.7343-.6944-2.428 0l-3.9889 3.9931-3.9889-3.9931c-.6937-.6944-1.7343-.6944-2.428 0-.6937.6945-.6937 1.7361 0 2.4306l3.9889 3.993-3.9889 3.9931c-.6937.6944-.6937 1.7361 0 2.4305.3468.3473.6937.5209 1.214.5209s.8672-.1736 1.214-.5209l3.9889-3.993 3.9889 3.993c.3469.3473.6937.5209 1.214.5209s.8672-.1736 1.214-.5209c.6938-.6944.6938-1.7361 0-2.4305z" fill-opacity=".95" fill-rule="evenodd"/></svg>