<svg enable-background="new 0 0 50 50" viewBox="0 0 50 50" xmlns="http://www.w3.org/2000/svg"><path clip-rule="evenodd" d="m43.5764 15.7986-17.3611 17.3611c-.3472.3472-.6944.5208-1.2153.5208h-6.9444c-1.0417 0-1.7361-.6944-1.7361-1.7361v-6.9444c0-.5208.1736-.8681.5208-1.2153l17.3611-17.3611c.6945-.6944 1.7361-.6944 2.4306 0l6.9444 6.9444c.6945.6945.6945 1.7362 0 2.4306zm-2.9514 13.8889v9.2014c0 2.9514-2.2569 5.2083-5.2083 5.2083h-24.3056c-2.9514 0-5.2083-2.2569-5.2083-5.2083v-24.3056c0-2.9513 2.2569-5.2083 5.2083-5.2083h9.2014c1.0417 0 1.7361.6945 1.7361 1.7361 0 1.0417-.6944 1.7361-1.7361 1.7361h-9.2014c-1.0416 0-1.7361.6945-1.7361 1.7361v24.3056c0 1.0417.6945 1.7361 1.7361 1.7361h24.3056c1.0417 0 1.7361-.6944 1.7361-1.7361v-9.2014c0-1.0417.6944-1.7361 1.7361-1.7361s1.7361.6944 1.7361 1.7361zm-5.2083-19.6181 4.5139 4.5139-15.625 15.625h-4.5139v-4.5139z" fill-opacity=".95" fill-rule="evenodd"/></svg>