<svg enable-background="new 0 0 50 50" viewBox="0 0 50 50" xmlns="http://www.w3.org/2000/svg"><path clip-rule="evenodd" d="m25 9.375c13.048 0 20.3549 14.2361 20.7028 14.9306.174.3472.174 1.0416 0 1.3888-.3479.6945-7.6548 14.9306-20.7028 14.9306-12.2815 0-19.4766-12.6126-20.5697-14.5288-.0682-.1196-.1127-.1975-.1331-.2281-.174-.5209-.174-1.0417 0-1.5625.3479-.6945 7.6548-14.9306 20.7028-14.9306zm-17.2234 15.625c1.7397 2.7778 7.8288 12.1528 17.2234 12.1528s15.4836-9.375 17.2234-12.1528c-1.7398-2.7778-7.8288-12.1528-17.2234-12.1528s-15.6576 9.375-17.2234 12.1528zm17.2234-6.9444c-3.8274 0-6.959 3.125-6.959 6.9444 0 3.8195 3.1316 6.9445 6.959 6.9445s6.9589-3.125 6.9589-6.9445c0-3.8194-3.1315-6.9444-6.9589-6.9444zm-3.4795 6.9444c0 1.9097 1.5658 3.4722 3.4795 3.4722s3.4795-1.5625 3.4795-3.4722-1.5658-3.4722-3.4795-3.4722-3.4795 1.5625-3.4795 3.4722z" fill-opacity=".95" fill-rule="evenodd"/></svg>