<svg enable-background="new 0 0 50 50" viewBox="0 0 50 50" xmlns="http://www.w3.org/2000/svg"><path clip-rule="evenodd" d="m37.0849 14.5833c0 1.0417-.6924 1.7361-1.7309 1.7361h-5.1927v3.4723h5.1927c.5193 0 1.0385 0 1.3847.5208s.5193 1.0417.3462 1.5625l-1.7309 6.9444c-.1731.8681-.8654 1.3889-1.7309 1.3889h-3.4618v12.1528c0 1.0417-.6923 1.7361-1.7309 1.7361h-6.9235c-1.0385 0-1.7309-.6944-1.7309-1.7361v-12.1528h-3.4618c-1.0385 0-1.7309-.6944-1.7309-1.7361v-6.9444c0-1.0417.6924-1.7361 1.7309-1.7361h3.4618v-3.4723c0-5.7291 4.6734-10.4166 10.3853-10.4166h5.1927c1.0385 0 1.7309.6944 1.7309 1.7361zm-3.9811 8.6806h-4.6734c-1.0385 0-1.7308-.6944-1.7308-1.7361v-5.2083c0-1.9098 1.5578-3.4723 3.4617-3.4723h3.4618v-3.4722h-3.4618c-3.8079 0-6.9235 3.125-6.9235 6.9445v5.2083c0 1.0417-.6924 1.7361-1.7309 1.7361h-3.4618v3.4722h3.4618c1.0385 0 1.7309.6945 1.7309 1.7361v12.1528h3.4618v-12.1528c0-1.0416.6923-1.7361 1.7308-1.7361h3.808z" fill-opacity=".95" fill-rule="evenodd"/></svg>