<svg enable-background="new 0 0 50 50" viewBox="0 0 50 50" xmlns="http://www.w3.org/2000/svg"><path clip-rule="evenodd" d="m8.6805 11.4738c-.5208-.3471-1.2153-.5206-1.7361-.1736-.6944.3471-1.0417.8676-1.0417 1.5617v24.2918c0 .6941.3472 1.2146 1.0417 1.5616.1736.1736.5208.1736.6944.1736.3472 0 .6945-.1736 1.0417-.3471l15.625-12.1459c.3473-.347.6945-.8676.6945-1.3881s-.1736-1.0411-.6945-1.3881zm19.0973 0 15.625 12.1459c.5208.347.6944.8676.6944 1.3881s-.3472 1.0411-.6944 1.3881l-15.625 12.1459c-.3472.1735-.6945.3471-1.0417.3471-.1736 0-.5208 0-.6944-.1736-.6945-.347-1.0417-.8675-1.0417-1.5616v-12.1459-12.1459c0-.6941.3472-1.2146.8681-1.5617.6944-.347 1.3888-.1735 1.9097.1736zm11.8055 13.534-11.1111-8.6757v17.3514zm-19.0972 0-11.1111-8.6757v17.3514z" fill-opacity=".95" fill-rule="evenodd"/></svg>