<svg enable-background="new 0 0 50 50" viewBox="0 0 50 50" xmlns="http://www.w3.org/2000/svg"><path clip-rule="evenodd" d="m40.4514 19.0972c-.0868-.0868-.1302-.1736-.1736-.2604s-.0868-.1736-.1736-.2604l-12.1528-12.1528c-.1736-.1736-.3472-.3472-.5208-.3472-.1737-.1736-.5209-.1736-.6945-.1736h-12.1528c-2.9514 0-5.2083 2.257-5.2083 5.2083v27.7778c0 2.9514 2.2569 5.2083 5.2083 5.2083h20.8334c2.9514 0 5.2083-2.2569 5.2083-5.2083v-19.0972c0-.1737 0-.5209-.1736-.6945zm-11.9792-7.2917 6.25 6.25h-6.25zm-13.8889 28.8195h20.8334c1.0416 0 1.7361-.6944 1.7361-1.7361v-17.3611h-10.4167c-1.0417 0-1.7361-.6945-1.7361-1.7361v-10.4167h-10.4167c-1.0416 0-1.7361.6945-1.7361 1.7361v27.7778c0 1.0417.6945 1.7361 1.7361 1.7361z" fill-opacity=".95" fill-rule="evenodd"/></svg>