<svg enable-background="new 0 0 50 50" viewBox="0 0 50 50" xmlns="http://www.w3.org/2000/svg"><path clip-rule="evenodd" d="m38.5417 5.9028h-27.0834c-3.125 0-5.5555 2.4306-5.5555 5.5555v27.0834c0 3.125 2.4306 5.5555 5.5555 5.5555h27.0834c3.125 0 5.5555-2.4305 5.5555-5.5555v-27.0834c0-3.125-2.4305-5.5555-5.5555-5.5555zm-3.1251 12.1527h5.2084v5.2084h-5.2084zm-17.361 5.2084h13.8889v-13.8889h-13.8889zm-3.4723 0h-5.2083v-5.2084h5.2083zm0 3.4722h-5.2083v5.2083h5.2083zm3.4723 0h13.8889v13.8889h-13.8889zm22.5694 0h-5.2084v5.2083h5.2084zm0-15.2778v3.125h-5.2084v-5.2083h3.125c1.2153 0 2.0834.8681 2.0834 2.0833zm-26.0417-2.0833h-3.125c-1.2153 0-2.0833.8681-2.0833 2.0833v3.125h5.2083zm-5.2083 29.1667v-3.125h5.2083v5.2083h-3.125c-1.2153 0-2.0833-.868-2.0833-2.0833zm26.0416 2.0833h3.125c1.2153 0 2.0834-.868 2.0834-2.0833v-3.125h-5.2084z" fill-opacity=".95" fill-rule="evenodd"/></svg>