<svg enable-background="new 0 0 50 50" viewBox="0 0 50 50" xmlns="http://www.w3.org/2000/svg"><path clip-rule="evenodd" d="m38.8889 12.8472h-14.757l-2.9513-4.5139c-.3473-.3472-.8681-.6944-1.3889-.6944h-8.6806c-2.9514 0-5.2083 2.2569-5.2083 5.2084v24.3055c0 2.9514 2.257 5.2084 5.2083 5.2084h27.7778c2.9514 0 5.2083-2.257 5.2083-5.2084v-19.0973c0-2.9514-2.2569-5.2083-5.2083-5.2083zm1.7361 24.3055c0 1.0417-.6944 1.7361-1.7361 1.7361h-27.7778c-1.0417 0-1.7361-.6944-1.7361-1.7361v-24.3056c0-1.0416.6944-1.7361 1.7361-1.7361h7.8125l2.9514 4.5139c.3472.3472.8681.6945 1.3889.6945h15.625c1.0417 0 1.7361.6944 1.7361 1.7361zm-10.4167-6.9444c1.0417 0 1.7361-.6945 1.7361-1.7362 0-1.0416-.6944-1.7361-1.7361-1.7361h-3.4722v-3.4722c0-1.0417-.6944-1.7361-1.7361-1.7361s-1.7361.6944-1.7361 1.7361v3.4722h-3.4722c-1.0417 0-1.7362.6945-1.7362 1.7361 0 1.0417.6945 1.7362 1.7362 1.7362h3.4722v3.4722c0 1.0416.6944 1.7361 1.7361 1.7361s1.7361-.6945 1.7361-1.7361v-3.4722z" fill-opacity=".95" fill-rule="evenodd"/></svg>