<svg enable-background="new 0 0 50 50" viewBox="0 0 50 50" xmlns="http://www.w3.org/2000/svg"><path clip-rule="evenodd" d="m24.1319 12.8472h14.757c2.9514 0 5.2083 2.2569 5.2083 5.2083v19.0972c0 2.9514-2.2569 5.2084-5.2083 5.2084h-27.7778c-2.9514 0-5.2083-2.257-5.2083-5.2084v-24.3055c0-2.9514 2.257-5.2084 5.2083-5.2084h8.6806c.5208 0 1.0416.3472 1.3889.6944zm14.757 26.0416c1.0417 0 1.7361-.6944 1.7361-1.7361v-19.0972c0-1.0417-.6944-1.7361-1.7361-1.7361h-15.625c-.5208 0-1.0417-.3473-1.3889-.6945l-2.9514-4.5139h-7.8125c-1.0417 0-1.7361.6945-1.7361 1.7361v24.3056c0 1.0417.6944 1.7361 1.7361 1.7361z" fill-opacity=".95" fill-rule="evenodd"/></svg>