<svg enable-background="new 0 0 50 50" viewBox="0 0 50 50" xmlns="http://www.w3.org/2000/svg"><path clip-rule="evenodd" d="m16.3194 25c0 .594.0571 1.1724.166 1.7302-.0542.004-.1096.006-.166.006h-10.4166c-1.0417 0-1.7361-.6944-1.7361-1.7361s.6944-1.7361 1.7361-1.7361h10.4166c.0564 0 .1117.002.166.006-.1089.5578-.166 1.1361-.166 1.73zm17.1952-1.73c-.7829-4.0073-4.2474-6.9505-8.5146-6.9505s-7.7317 2.9432-8.5146 6.9505c.9488.0701 1.5701.7448 1.5701 1.7301s-.6213 1.6599-1.5701 1.7301c.7829 4.0073 4.2474 6.9504 8.5146 6.9504s7.7317-2.9431 8.5146-6.9504c.0542.004.1096.006.166.006h10.4166c.8681 0 1.7361-.6944 1.7361-1.7361s-.6944-1.7361-1.7361-1.7361h-10.4166c-.0564 0-.1117.002-.166.006zm0 0c.1089.5578.166 1.1361.166 1.73 0 .594-.0571 1.1724-.166 1.7302-.9488-.0702-1.5702-.7448-1.5702-1.7301s.6214-1.66 1.5702-1.7301zm-13.7229 1.73c0-2.9514 2.2569-5.2083 5.2083-5.2083s5.2083 2.2569 5.2083 5.2083-2.2569 5.2083-5.2083 5.2083-5.2083-2.2569-5.2083-5.2083z" fill-opacity=".95" fill-rule="evenodd"/></svg>