<svg enable-background="new 0 0 50 50" viewBox="0 0 50 50" xmlns="http://www.w3.org/2000/svg"><path clip-rule="evenodd" d="m42.3611 14.5834c0-3.8195-3.125-6.9445-6.9444-6.9445-3.8195 0-6.9445 3.125-6.9445 6.9445 0 3.125 2.257 5.9027 5.2084 6.5972-.6945 6.4236-5.9028 11.6319-12.3264 12.3264-.6945-2.4306-2.6042-4.3403-4.8611-4.8611v-19.2709c0-1.0417-.6945-1.7361-1.7362-1.7361-1.0416 0-1.9097.6944-1.9097 1.7361v19.2709c-2.9514.6944-5.2083 3.4722-5.2083 6.7708 0 3.8194 3.125 6.9444 6.9444 6.9444 3.2986 0 5.9028-2.2569 6.7709-5.2083 8.3333-.6944 15.1041-7.4653 15.7986-15.7986 2.9514-.8681 5.2083-3.4722 5.2083-6.7708zm-27.7778 24.3055c-1.9097 0-3.4722-1.5625-3.4722-3.4722s1.5625-3.4722 3.4722-3.4722 3.4722 1.5625 3.4722 3.4722-1.5625 3.4722-3.4722 3.4722zm17.3611-24.3055c0 1.9097 1.5625 3.4722 3.4723 3.4722 1.9097 0 3.4722-1.5625 3.4722-3.4722s-1.5625-3.4722-3.4722-3.4722c-1.9098 0-3.4723 1.5625-3.4723 3.4722z" fill-opacity=".95" fill-rule="evenodd"/></svg>