<svg enable-background="new 0 0 50 50" viewBox="0 0 50 50" xmlns="http://www.w3.org/2000/svg"><path clip-rule="evenodd" d="m9.375 7.6389h12.1528c1.0417 0 1.7361.6944 1.7361 1.7361v12.1527c0 1.0417-.6944 1.7362-1.7361 1.7362h-12.1528c-1.0417 0-1.7361-.6945-1.7361-1.7362v-12.1527c0-1.0417.6945-1.7361 1.7361-1.7361zm1.7361 12.1527h8.6806v-8.6806h-8.6806zm29.5139-12.1527h-12.1528c-1.0416 0-1.7361.6944-1.7361 1.7361v12.1527c0 1.0417.6945 1.7362 1.7361 1.7362h12.1528c1.0417 0 1.7361-.6945 1.7361-1.7362v-12.1527c0-1.0417-.6944-1.7361-1.7361-1.7361zm-10.4167 12.1527h8.6806v-8.6806h-8.6806zm10.4167 6.9444h-12.1528c-1.0416 0-1.7361.6945-1.7361 1.7361v12.1528c0 1.0417.6945 1.7361 1.7361 1.7361h12.1528c1.0417 0 1.7361-.6944 1.7361-1.7361v-12.1528c0-1.0416-.6944-1.7361-1.7361-1.7361zm-10.4167 12.1529h8.6806v-8.6806h-8.6806zm-8.6805-12.1529h-12.1528c-1.0417 0-1.7361.6945-1.7361 1.7361v12.1528c0 1.0417.6945 1.7361 1.7361 1.7361h12.1528c1.0417 0 1.7361-.6944 1.7361-1.7361v-12.1528c0-1.0416-.6944-1.7361-1.7361-1.7361zm-10.4167 12.1529h8.6806v-8.6806h-8.6806z" fill-opacity=".95" fill-rule="evenodd"/></svg>