<svg enable-background="new 0 0 50 50" viewBox="0 0 50 50" xmlns="http://www.w3.org/2000/svg"><path clip-rule="evenodd" d="m25 7.6389c-9.5486 0-17.3611 7.8125-17.3611 17.3611v3.4722 6.9444 1.7361c0 2.9514 2.2569 5.2084 5.2083 5.2084h1.7361c2.9514 0 5.2084-2.257 5.2084-5.2084v-5.2083c0-2.9514-2.257-5.2083-5.2084-5.2083h-3.4722v-1.7361c0-7.6389 6.25-13.8889 13.8889-13.8889s13.8889 6.25 13.8889 13.8889v1.7361h-3.4722c-2.9514 0-5.2084 2.2569-5.2084 5.2083v5.2083c0 2.9514 2.257 5.2084 5.2084 5.2084h1.7361c2.9514 0 5.2083-2.257 5.2083-5.2084v-1.7361-6.9444-3.4722c0-9.5486-7.8125-17.3611-17.3611-17.3611zm-10.4167 22.5694c1.0417 0 1.7361.6945 1.7361 1.7362v5.2083c0 1.0417-.6944 1.7361-1.7361 1.7361h-1.7361c-1.0417 0-1.7361-.6944-1.7361-1.7361v-1.7361-5.2084zm22.5695 8.6806c1.0416 0 1.7361-.6944 1.7361-1.7361v-1.7361-5.2084h-3.4722c-1.0417 0-1.7361.6945-1.7361 1.7362v5.2083c0 1.0417.6944 1.7361 1.7361 1.7361z" fill-opacity=".95" fill-rule="evenodd"/></svg>