<svg enable-background="new 0 0 50 50" viewBox="0 0 50 50" xmlns="http://www.w3.org/2000/svg" xmlns:xlink="http://www.w3.org/1999/xlink"><clipPath id="a"><path d="m8.3333 8.3334h33.3333v33.3333h-33.3333z"/></clipPath><g clip-path="url(#a)" fill-opacity=".95"><path d="m25 34.5249c1.0104 0 1.8295-.819 1.8295-1.8294 0-1.0103-.8191-1.8294-1.8295-1.8294-1.0103 0-1.8294.8191-1.8294 1.8294 0 1.0104.8191 1.8294 1.8294 1.8294z"/><path d="m36.556 13.4441c-3.0859-3.0859-7.1875-4.7852-11.556-4.7852s-8.47 1.6993-11.556 4.7852c-3.0859 3.0859-4.7851 7.1875-4.7851 11.556s1.6992 8.47 4.7851 11.556c3.086 3.0859 7.1875 4.7851 11.556 4.7851s8.4701-1.6992 11.556-4.7851c3.0859-3.086 4.7852-7.1875 4.7852-11.556s-1.6993-8.4701-4.7852-11.556zm-11.556 24.8633c-3.5547 0-6.901-1.3802-9.414-3.8933-2.5131-2.513-3.8933-5.8593-3.8933-9.414s1.3802-6.9011 3.8933-9.4141c2.513-2.513 5.8593-3.8932 9.414-3.8932s6.9011 1.3802 9.4141 3.8932 3.8932 5.8529 3.8932 9.4141c0 3.5547-1.3802 6.901-3.8932 9.414-2.513 2.5131-5.8594 3.8933-9.4141 3.8933z"/><path d="m25 16.7318c-2.9166 0-5.2864 2.3698-5.2864 5.2865 0 .8333.6836 1.5169 1.5169 1.5169s1.5169-.6836 1.5169-1.5169c0-1.2435 1.0091-2.2526 2.2526-2.2526s2.2526 1.0091 2.2526 2.2526-1.0091 2.2526-2.2526 2.2526c-.8333 0-1.5169.6836-1.5169 1.5169v3.138c0 .8334.6836 1.5169 1.5169 1.5169.8334 0 1.5169-.6835 1.5169-1.5169v-1.8424c2.2266-.6641 3.7696-2.7214 3.7696-5.0651 0-2.9167-2.3698-5.2865-5.2865-5.2865z"/></g></svg>