<svg enable-background="new 0 0 50 50" viewBox="0 0 50 50" xmlns="http://www.w3.org/2000/svg"><path clip-rule="evenodd" d="m25 44.0973c10.5903 0 19.0972-8.507 19.0972-19.0972 0-10.5903-8.5069-19.0973-19.0972-19.0973s-19.0972 8.507-19.0972 19.0973c0 10.5902 8.5069 19.0972 19.0972 19.0972zm.3473-15.7986c.6944-.1736 6.4236-2.2569 6.4236-6.7708 0-2.9514-1.9098-5.5556-4.6875-6.4236-3.6459-1.3889-7.6389.5208-8.8542 4.1666-.1736.8681.1736 1.9098 1.0417 1.9098.868.3472 1.9097-.1736 2.2569-1.0417.6945-1.7361 2.7778-2.7778 4.5139-2.0833 1.3889.5208 2.2569 1.7361 2.2569 3.2986 0 1.9097-2.9513 3.2986-3.993 3.6458-.8681.3472-1.3889 1.3889-1.0417 2.257.1736.6944.8681 1.2152 1.5625 1.2152.1736 0 .3472 0 .5209-.1736zm15.2777-3.2987c0-8.6805-6.9444-15.625-15.625-15.625-8.6805 0-15.625 6.9445-15.625 15.625 0 8.6806 6.9445 15.625 15.625 15.625 8.6806 0 15.625-6.9444 15.625-15.625zm-14.7569 7.2917c.1736 0 .3472.1736.3472.1736.1736.1736.3472.3473.1736.5209.1736.1736.1736.5208.1736.6944 0 .5208-.1736.8681-.5208 1.2153s-.6945.5208-1.2153.5208-.868-.1736-1.2153-.5208c-.3472-.3472-.5208-.6945-.5208-1.2153 0-.2034.0596-.3472.1089-.4664.0349-.0842.0647-.1561.0647-.228 0-.1736.1736-.3473.3472-.5209s.3473-.3472.5209-.3472c.3472-.1736.6944-.1736 1.0416-.1736.0999.0998.1423.1423.1933.1603.0378.0133.0802.0133.154.0133.0868 0 .1302.0434.1736.0868s.0868.0868.1736.0868z" fill-opacity=".95" fill-rule="evenodd"/></svg>