<svg enable-background="new 0 0 50 50" viewBox="0 0 50 50" xmlns="http://www.w3.org/2000/svg"><path clip-rule="evenodd" d="m43.9236 26.0417-6.0764-13.5417c-.6944-1.9097-2.6042-3.125-4.6875-3.125h-16.3194c-2.0834 0-3.9931 1.2153-4.6875 3.125l-6.0764 13.5417c-.1736.1736-.1736.5208-.1736.6944v8.6806c0 2.9514 2.257 5.2083 5.2083 5.2083h27.7778c2.9514 0 5.2083-2.2569 5.2083-5.2083v-8.6806c0-.1736 0-.5208-.1736-.6944zm-28.6458-12.1529c.1736-.6944.868-1.0416 1.5625-1.0416h16.3194c.6945 0 1.3889.3472 1.5625 1.0416l4.8611 11.1112h-7.6389c-.5208 0-1.0416.3472-1.3888.6944l-2.9514 4.5139h-5.0348l-2.9513-4.5139c-.5209-.3472-1.0417-.6944-1.5625-.6944h-7.8125zm-4.1667 23.2639h27.7778c1.0416 0 1.7361-.6944 1.7361-1.7361v-6.9444h-7.8125l-2.9514 4.5139c-.3472.3472-.8681.6944-1.3889.6944h-6.9444c-.5209 0-1.0417-.3472-1.3889-.6944l-2.9514-4.5139h-7.8125v6.9444c0 1.0417.6944 1.7361 1.7361 1.7361z" fill-opacity=".95" fill-rule="evenodd"/></svg>