<svg enable-background="new 0 0 50 50" viewBox="0 0 50 50" xmlns="http://www.w3.org/2000/svg"><path clip-rule="evenodd" d="m33.6805 5.9028h-17.3611c-5.7291 0-10.4166 4.6875-10.4166 10.4167v17.3611c0 5.7292 4.6875 10.4167 10.4166 10.4167h17.3611c5.7292 0 10.4167-4.6875 10.4167-10.4167v-17.3611c0-5.7292-4.6875-10.4167-10.4167-10.4167zm6.9445 27.7778c0 3.8194-3.125 6.9444-6.9444 6.9444h-17.3612c-3.8194 0-6.9444-3.125-6.9444-6.9444v-17.3611c0-3.8195 3.125-6.9445 6.9444-6.9445h17.3612c3.8194 0 6.9444 3.125 6.9444 6.9445zm-16.8403-17.3611c.8681-.1736 1.7361-.1736 2.6042 0 3.8194.5208 6.7708 3.4722 7.118 7.2917.3473 2.2569-.1736 4.5139-1.5625 6.4236-1.3888 1.9097-3.4722 3.125-5.7291 3.4722-.3472.1736-.8681.1736-1.2153.1736-4.1667 0-7.8125-3.125-8.5069-7.4653-.6945-4.6875 2.6041-9.2014 7.2916-9.8958zm5.5556 11.6319c-.8681 1.0417-2.0834 1.9097-3.4722 2.0833-2.7778.3473-5.5556-1.5625-5.9028-4.3402-.5209-2.7778 1.5625-5.5556 4.3403-5.9028h.6944.6944c2.257.3472 3.9931 2.0833 4.3403 4.3403.3472 1.3888 0 2.7777-.6944 3.8194zm6.8355-12.9663c-.0349-.0843-.0647-.1562-.0647-.2281 0-.1736-.1736-.3472-.3472-.5208-.6945-.6945-1.7361-.6945-2.4306 0-.1736.1736-.3472.3472-.3472.5208-.1736.1736-.1736.5208-.1736.6944 0 .3473.1736.8681.5208 1.2153.3473.3472.8681.5209 1.2153.5209s.8681-.1737 1.2153-.5209.5208-.6944.5208-1.2153c0-.2034-.0596-.3472-.1089-.4663z" fill-opacity=".95" fill-rule="evenodd"/></svg>