<svg enable-background="new 0 0 50 50" viewBox="0 0 50 50" xmlns="http://www.w3.org/2000/svg"><path clip-rule="evenodd" d="m24.3056 26.5426-17.3612-8.6904c-.6944-.3477-1.0417-.8691-1.0417-1.5643 0-.6953.3472-1.2167.8681-1.5643l17.3612-8.6904c.5208-.1738 1.0416-.1738 1.5625 0l17.3611 8.6904c.6944.3476 1.0416.869 1.0416 1.5643 0 .6952-.3472 1.2166-1.0416 1.5643l-17.3611 8.6904c-.1737.1738-.3473.1738-.6945.1738s-.5208 0-.6944-.1738zm14.2361-10.2548-13.5417-6.7785-13.5417 6.7785 13.5417 6.7786zm5.3819 16.6857c.3472.869 0 1.9119-.6944 2.2595l-17.3611 8.6904c-.3473.1738-.5209.1738-.8681.1738s-.5208 0-.6944-.1738l-17.3612-8.6904c-.8681-.3476-1.2153-1.3905-.6944-2.2595.3472-.8691 1.3889-1.2167 2.2569-.6952l16.6667 8.3428 16.6667-8.3428c.5208-.5215 1.5625-.1739 2.0833.6952zm-.6944-6.4309c.6944-.3476 1.0416-1.3905.6944-2.2595-.5208-.8691-1.5625-1.2167-2.0833-.6953l-16.6667 8.3429-16.6667-8.3429c-.868-.5214-1.9097-.1738-2.2569.6953-.5208.869-.1736 1.9119.6944 2.2595l17.3612 8.6904c.1736.1738.3472.1738.6944.1738s.5208 0 .8681-.1738z" fill-opacity=".95" fill-rule="evenodd"/></svg>