<svg enable-background="new 0 0 50 50" viewBox="0 0 50 50" xmlns="http://www.w3.org/2000/svg"><path clip-rule="evenodd" d="m44.0972 25c0 5.382-2.0833 10.0695-5.5555 13.5417s-8.3333 5.5556-13.5417 5.5556c-5.3819 0-10.0694-2.0834-13.5416-5.5556-3.4723-3.4722-5.5556-8.3333-5.5556-13.5417 0-5.2083 2.0833-10.0694 5.5556-13.5416 3.4722-3.4723 8.3333-5.5556 13.5416-5.5556 5.2084 0 10.0695 2.0833 13.5417 5.5556 3.4722 3.4722 5.5555 8.3333 5.5555 13.5416zm-11.9791 4.6875 5.0347 5.0348c2.257-2.6042 3.4722-6.0764 3.4722-9.7223 0-3.6458-1.3889-7.118-3.4722-9.7222l-4.8611 4.8611c.8681 1.3889 1.3889 3.125 1.3889 4.8611 0 1.7362-.5208 3.4723-1.5625 4.6875zm-12.3264-4.6875c0-2.9514 2.2569-5.2083 5.2083-5.2083s5.2083 2.2569 5.2083 5.2083-2.2569 5.2083-5.2083 5.2083-5.2083-2.2569-5.2083-5.2083zm9.8958-7.1181 5.0347-5.0347c-2.6041-2.2569-6.0763-3.4722-9.7222-3.4722-3.6458 0-7.118 1.2153-9.7222 3.4722l4.8611 4.8611c1.3889-.868 3.125-1.3889 4.8611-1.3889s3.4722.5209 4.6875 1.5625zm-16.8403-2.6041 5.0348 5.0347c-1.0417 1.2153-1.5625 2.9514-1.5625 4.6875 0 1.7362.5208 3.4723 1.3888 4.8612l-4.8611 4.8611c-2.0833-2.6042-3.4722-6.0764-3.4722-9.7223 0-3.6458 1.2153-7.118 3.4722-9.7222zm7.4653 16.8403-5.0347 5.0348c2.6042 2.2569 6.0764 3.4722 9.8958 3.6458 3.6459 0 7.1181-1.3889 9.7223-3.4722l-5.0348-5.0347c-1.3889.868-3.125 1.3888-4.8611 1.3888s-3.4722-.5208-4.6875-1.5625z" fill-opacity=".95" fill-rule="evenodd"/></svg>