<svg enable-background="new 0 0 50 50" viewBox="0 0 50 50" xmlns="http://www.w3.org/2000/svg"><path clip-rule="evenodd" d="m42.3611 38.8889v-27.7777c0-2.9514-2.2569-5.2084-5.2083-5.2084h-8.6806c-1.0416 0-1.7361.6944-1.7361 1.7361s.6945 1.7361 1.7361 1.7361h8.6806c1.0417 0 1.7361.6945 1.7361 1.7362v27.7777c0 1.0417-.6944 1.7361-1.7361 1.7361h-8.6806c-1.0416 0-1.7361.6945-1.7361 1.7362 0 1.0416.6945 1.7361 1.7361 1.7361h8.6806c2.9514 0 5.2083-2.257 5.2083-5.2084zm-10.5903-14.5833c.1737.5208.1737 1.0417 0 1.3889 0 .1736-.1736.3472-.3472.5208l-6.9444 6.9445c-.3473.3472-.8681.5208-1.2153.5208s-.8681-.1736-1.2153-.5208c-.6944-.6945-.6944-1.7361 0-2.4306l3.9931-3.993h-16.6667c-1.0417 0-1.7361-.6945-1.7361-1.7362 0-1.0416.6944-1.7361 1.7361-1.7361h16.6667l-3.9931-3.993c-.6944-.6945-.6944-1.7361 0-2.4306.6945-.6944 1.7361-.6944 2.4306 0l6.9444 6.9445c.0868.0868.1302.1736.1736.2604s.0868.1736.1736.2604z" fill-opacity=".95" fill-rule="evenodd"/></svg>