<svg enable-background="new 0 0 50 50" viewBox="0 0 50 50" xmlns="http://www.w3.org/2000/svg"><path clip-rule="evenodd" d="m38.8889 9.375h-27.7778c-2.9514 0-5.2083 2.2569-5.2083 5.2083v20.8334c0 2.9514 2.2569 5.2083 5.2083 5.2083h27.7778c2.9514 0 5.2083-2.2569 5.2083-5.2083v-20.8334c0-2.9514-2.2569-5.2083-5.2083-5.2083zm-27.7778 3.4722h27.7778c.6944 0 1.2153.3472 1.5625 1.0416l-15.4514 10.7639-15.4514-10.7639c.3472-.6944.8681-1.0416 1.5625-1.0416zm-1.7361 22.5695c0 1.0417.6944 1.7361 1.7361 1.7361h27.7778c1.0417 0 1.7361-.6944 1.7361-1.7361v-17.5347l-14.5833 10.243c-.3473.1737-.6945.3473-1.0417.3473s-.6944-.1736-1.0417-.3473l-14.5833-10.243z" fill-opacity=".95" fill-rule="evenodd"/></svg>