<svg enable-background="new 0 0 50 50" viewBox="0 0 50 50" xmlns="http://www.w3.org/2000/svg"><path clip-rule="evenodd" d="m12.8472 7.6388h5.2084c1.0416 0 1.7361.6944 1.7361 1.7361 0 1.0416-.6945 1.7361-1.7361 1.7361h-5.2084c-1.0416 0-1.7361.6944-1.7361 1.7361v5.2083c0 1.0417-.6944 1.7361-1.7361 1.7361s-1.7361-.6944-1.7361-1.7361v-5.2083c0-2.9513 2.257-5.2083 5.2083-5.2083zm5.2084 34.7223c1.0416 0 1.7361-.6944 1.7361-1.7361s-.6945-1.7361-1.7361-1.7361h-5.2084c-1.0416 0-1.7361-.6945-1.7361-1.7361v-5.2084c0-1.0416-.6944-1.7361-1.7361-1.7361s-1.7361.6945-1.7361 1.7361v5.2084c0 2.9514 2.2569 5.2083 5.2083 5.2083zm22.5694-12.1528c-1.0416 0-1.7361.6945-1.7361 1.7361v5.2084c0 1.0416-.6944 1.7361-1.7361 1.7361h-5.2083c-1.0417 0-1.7361.6944-1.7361 1.7361s.6944 1.7361 1.7361 1.7361h5.2083c2.9514 0 5.2083-2.2569 5.2083-5.2083v-5.2084c0-1.0416-.6944-1.7361-1.7361-1.7361zm-8.6805-22.5695h5.2083c2.9514 0 5.2083 2.2569 5.2083 5.2084v5.2083c0 1.0417-.6944 1.7361-1.7361 1.7361-1.0416 0-1.7361-.6944-1.7361-1.7361v-5.2083c0-1.0417-.6944-1.7361-1.7361-1.7361h-5.2083c-1.0417 0-1.7361-.6945-1.7361-1.7361 0-1.0417.6944-1.7362 1.7361-1.7362z" fill-opacity=".95" fill-rule="evenodd"/></svg>