<svg viewBox="0 0 50 50" xmlns="http://www.w3.org/2000/svg"><g fill="none" stroke="#000" stroke-linecap="round" stroke-miterlimit="10" stroke-width="2.90597"><path d="m13.72112 39.18912v-2.71689a5.59773 5.59773 0 0 1 5.59773-5.59774h10.98015a5.59774 5.59774 0 0 1 5.59774 5.59774v2.71689"/><circle cx="24.76703" cy="20.76517" r="5.55335"/><path d="m35.20672 25.34985h4.1841a5.214 5.214 0 0 1 5.214 5.214v2.53064"/><path d="m30.855 12.07043a5.17321 5.17321 0 1 1 5.1991 8.75795"/><path d="m14.79328 25.34985h-4.1841a5.214 5.214 0 0 0 -5.214 5.214v2.53064"/><path d="m19.145 12.07043a5.17321 5.17321 0 1 0 -5.1991 8.75795"/></g></svg>