<svg enable-background="new 0 0 50 50" viewBox="0 0 50 50" xmlns="http://www.w3.org/2000/svg"><path clip-rule="evenodd" d="m9.375 16.3194h31.25c1.0417 0 1.7361-.6944 1.7361-1.7361s-.6944-1.7361-1.7361-1.7361h-31.25c-1.0417 0-1.7361.6944-1.7361 1.7361s.6944 1.7361 1.7361 1.7361zm32.9861 8.6806c0 1.0416-.6944 1.7361-1.7361 1.7361h-31.25c-1.0417 0-1.7361-.6945-1.7361-1.7361 0-1.0417.6944-1.7362 1.7361-1.7362h31.25c1.0417 0 1.7361.6945 1.7361 1.7362zm-32.9861 8.6805h31.25c1.0417 0 1.7361.6945 1.7361 1.7361 0 1.0417-.6944 1.7361-1.7361 1.7361h-31.25c-1.0417 0-1.7361-.6944-1.7361-1.7361 0-1.0416.6944-1.7361 1.7361-1.7361z" fill-opacity=".95" fill-rule="evenodd"/></svg>