<svg enable-background="new 0 0 50 50" viewBox="0 0 50 50" xmlns="http://www.w3.org/2000/svg"><path clip-rule="evenodd" d="m12.8472 7.6388h24.3056c2.9514 0 5.2083 2.2569 5.2083 5.2084v17.3611c0 2.9514-2.2569 5.2083-5.2083 5.2083h-20.1389l-6.4236 6.4236c-.3472.3473-.6944.5209-1.2153.5209-.1736 0-.5208 0-.6944-.1736-.6944-.1737-1.0417-.8681-1.0417-1.5625v-27.7778c0-2.9514 2.257-5.2084 5.2083-5.2084zm24.3056 24.3056c1.0417 0 1.7361-.6945 1.7361-1.7362v-17.3611c0-1.0416-.6944-1.7361-1.7361-1.7361h-24.3056c-1.0416 0-1.7361.6945-1.7361 1.7361v23.6111l3.9931-3.993c.3472-.3472.6944-.5208 1.2153-.5208z" fill-opacity=".95" fill-rule="evenodd"/></svg>