<svg enable-background="new 0 0 50 50" viewBox="0 0 50 50" xmlns="http://www.w3.org/2000/svg"><path clip-rule="evenodd" d="m37.1527 7.6388h-24.3055c-2.9514 0-5.2084 2.2569-5.2084 5.2084v24.3055c0 2.9514 2.2569 5.2084 5.2084 5.2084h24.3055c2.9514 0 5.2084-2.257 5.2084-5.2084v-24.3055c0-2.9514-2.257-5.2084-5.2084-5.2084zm1.7361 29.5139c0 1.0417-.6944 1.7361-1.7361 1.7361h-24.3055c-1.0417 0-1.7361-.6944-1.7361-1.7361v-24.3056c0-1.0416.6944-1.7361 1.7361-1.7361h24.3055c1.0417 0 1.7361.6945 1.7361 1.7361zm-6.9444-10.4166c1.0417 0 1.7361-.6945 1.7361-1.7361 0-1.0417-.6944-1.7362-1.7361-1.7362h-13.8889c-1.0417 0-1.7361.6945-1.7361 1.7362 0 1.0416.6944 1.7361 1.7361 1.7361z" fill-opacity=".95" fill-rule="evenodd"/></svg>