<svg enable-background="new 0 0 50 50" viewBox="0 0 50 50" xmlns="http://www.w3.org/2000/svg"><path clip-rule="evenodd" d="m25 5.9028c-10.5903 0-19.0972 8.507-19.0972 19.0972 0 10.5903 8.5069 19.0973 19.0972 19.0973s19.0972-8.507 19.0972-19.0973c0-10.5902-8.5069-19.0972-19.0972-19.0972zm0 34.7222c-8.6805 0-15.625-6.9444-15.625-15.625s6.9445-15.625 15.625-15.625c8.6806 0 15.625 6.9444 15.625 15.625s-6.9444 15.625-15.625 15.625zm6.9445-13.8888c1.0416 0 1.7361-.6944 1.7361-1.7361s-.6945-1.7361-1.7361-1.7361h-13.8889c-1.0417 0-1.7361.6944-1.7361 1.7361s.6944 1.7361 1.7361 1.7361z" fill-opacity=".95" fill-rule="evenodd"/></svg>