<svg enable-background="new 0 0 50 50" viewBox="0 0 50 50" xmlns="http://www.w3.org/2000/svg"><path clip-rule="evenodd" d="m41.6667 7.9861c-.3473-.3472-.8681-.3472-1.3889-.3472l-20.8334 3.4723c-.6944.1736-1.3888.868-1.3888 1.7361v19.0972h-5.2084c-2.9514 0-5.2083 2.2569-5.2083 5.2083s2.2569 5.2084 5.2083 5.2084h3.4722c2.9514 0 5.2084-2.257 5.2084-5.2084v-3.4722-19.4445l17.3611-2.9514v17.1875h-5.2083c-2.9514 0-5.2084 2.2569-5.2084 5.2083s2.257 5.2083 5.2084 5.2083h3.4722c2.9514 0 5.2083-2.2569 5.2083-5.2083v-3.4722-20.8333c0-.5209-.1736-1.0417-.6944-1.3889zm-23.6112 29.1667c0 1.0416-.6944 1.7361-1.7361 1.7361h-3.4722c-1.0417 0-1.7361-.6945-1.7361-1.7361 0-1.0417.6944-1.7361 1.7361-1.7361h5.2083zm19.0973-1.7362c1.0416 0 1.7361-.6945 1.7361-1.7361v-1.7361h-5.2084c-1.0416 0-1.7361.6944-1.7361 1.7361 0 1.0416.6945 1.7361 1.7361 1.7361z" fill-opacity=".95" fill-rule="evenodd"/></svg>