<svg enable-background="new 0 0 50 50" viewBox="0 0 50 50" xmlns="http://www.w3.org/2000/svg"><g clip-rule="evenodd" fill-rule="evenodd"><path d="m39.8 40.3h-1.6v-28.8c0-2.2-1.8-4-4-4h-18.5c-2.2 0-4 1.8-4 4v28.9h-1.6c-.9 0-1.7.8-1.7 1.7s.8 1.7 1.7 1.7h1.6 26.5 1.6c.9 0 1.7-.8 1.7-1.7s-.8-1.8-1.7-1.8zm-24.6-28.8c0-.3.2-.6.6-.6h18.5c.3 0 .6.2.6.6v28.9h-7.3v-4.4c0-.8-.6-1.4-1.4-1.4h-2.3c-.8 0-1.4.6-1.4 1.4v4.3h-7.3z"/><path d="m26.6 17.9v-2.5c0-.5.4-.9.9-.9h2.5c.5 0 .9.4.9.9v2.5c0 .5-.4.9-.9.9h-2.5c-.5 0-.9-.4-.9-.9z"/><path d="m26.7 29.9v-2.5c0-.5.4-.9.9-.9h2.5c.5 0 .9.4.9.9v2.5c0 .5-.4.9-.9.9h-2.5c-.4.1-.9-.3-.9-.9z"/><path d="m26.6 23.9v-2.5c0-.5.4-.9.9-.9h2.5c.5 0 .9.4.9.9v2.5c0 .5-.4.9-.9.9h-2.5c-.5.1-.9-.4-.9-.9z"/><path d="m18.9 17.9v-2.5c0-.5.4-.9.9-.9h2.5c.5 0 .9.4.9.9v2.5c0 .5-.4.9-.9.9h-2.5c-.5 0-.9-.4-.9-.9z"/><path d="m19 29.9v-2.5c0-.5.4-.9.9-.9h2.5c.5 0 .9.4.9.9v2.5c0 .5-.4.9-.9.9h-2.5c-.5.1-.9-.3-.9-.9z"/><path d="m18.9 23.9v-2.5c0-.5.4-.9.9-.9h2.5c.5 0 .9.4.9.9v2.5c0 .5-.4.9-.9.9h-2.5c-.5.1-.9-.4-.9-.9z"/></g></svg>