<svg enable-background="new 0 0 50 50" viewBox="0 0 50 50" xmlns="http://www.w3.org/2000/svg"><path clip-rule="evenodd" d="m14.5833 9.375h6.9445c1.0417 0 1.7361.6944 1.7361 1.7361v27.7778c0 1.0417-.6944 1.7361-1.7361 1.7361h-6.9445c-1.0416 0-1.7361-.6944-1.7361-1.7361v-27.7778c0-1.0417.6945-1.7361 1.7361-1.7361zm1.7362 27.7777h3.4722v-24.3055h-3.4722zm19.0972-27.7777h-6.9445c-1.0416 0-1.7361.6944-1.7361 1.7361v27.7778c0 1.0417.6945 1.7361 1.7361 1.7361h6.9445c1.0416 0 1.7361-.6944 1.7361-1.7361v-27.7778c0-1.0417-.6945-1.7361-1.7361-1.7361zm-5.2084 27.7777h3.4723v-24.3055h-3.4723z" fill-opacity=".95" fill-rule="evenodd"/></svg>