<svg enable-background="new 0 0 50 50" viewBox="0 0 50 50" xmlns="http://www.w3.org/2000/svg"><path clip-rule="evenodd" d="m45.8334 5.9862v10.917c0 1.0917-.7278 1.8195-1.8195 1.8195-1.0918 0-1.8196-.7278-1.8196-1.8195v-6.5502l-9.6433 9.6434c-.3639.3639-.7278.5458-1.2737.5458-.5458 0-.9097-.1819-1.2736-.5458-.7278-.7279-.7278-1.8196 0-2.5474l9.6433-9.6433h-6.5502c-1.0917 0-1.8195-.7278-1.8195-1.8195s.7278-1.8195 1.8195-1.8195h10.9171c.1819 0 .5458 0 .7277.182.364.182.7279.5459.9098.9097.182.1819.182.5458.182.7278zm-1.8195 28.9301v5.4586c0 1.4556-.5459 2.9112-1.6376 3.8209-1.0917.9098-2.3654 1.6376-3.821 1.6376h-.5458c-5.8224-.7278-11.6448-2.7293-16.5575-5.8224-4.5488-2.9112-8.5517-6.9142-11.4629-11.4629-3.2751-4.9127-5.2766-10.7351-5.8224-16.5575 0-1.4556.3639-2.9112 1.2737-4.0029.9097-1.0917 2.1834-1.8195 3.639-2.0015h.5458 5.4585c2.7293 0 5.0946 2.0015 5.4585 4.7307.182 1.6376.5459 3.2751 1.0917 4.7307.7278 2.0015.182 4.1849-1.2736 5.8225l-1.2737 1.2736c2.1834 3.2751 4.9127 6.1863 8.3698 8.3697l1.2736-1.2736c1.4556-1.4556 3.821-2.0015 5.8224-1.2737 1.4556.5459 3.0932.9098 4.7307 1.0917 2.7293.3639 4.7308 2.7293 4.7308 5.4585zm-5.2766-1.8195c.9097.182 1.6375.9098 1.6375 1.8195v5.4585c0 .5459-.1819.9098-.5458 1.2737s-.7278.5458-1.4556.5458c-5.2766-.5458-10.3712-2.3653-14.92-5.2765-4.1848-2.5473-7.6419-6.1863-10.3711-10.3712-2.9112-4.5488-4.7308-9.6434-5.2766-14.9199 0-.5459.182-.9098.3639-1.2737.3639-.3639.9098-.7278 1.4556-.7278h5.4585c.9098 0 1.8195.7278 1.8195 1.6376.3639 1.8195.7278 3.639 1.4556 5.4585.182.5458 0 1.4556-.3639 1.8195l-2.3653 2.3653c-.5459.5459-.7278 1.4556-.5459 2.1834 2.7293 4.9127 6.7322 8.9156 11.6448 11.6449.7279.3639 1.6376.1819 2.1835-.3639l2.3653-2.3654c.5459-.5458 1.2737-.5458 2.0015-.3639 1.8195.7278 3.639 1.2737 5.4585 1.4556z" fill-opacity=".95" fill-rule="evenodd"/></svg>