<svg enable-background="new 0 0 50 50" viewBox="0 0 50 50" xmlns="http://www.w3.org/2000/svg"><path clip-rule="evenodd" d="m5.9028 25.0001c0-10.5903 8.5069-19.0973 19.0972-19.0973s19.0972 8.507 19.0972 19.0973c0 10.5902-8.5069 19.0972-19.0972 19.0972s-19.0972-8.507-19.0972-19.0972zm3.4722-.0001c0 8.6806 6.9444 15.625 15.625 15.625s15.625-6.9444 15.625-15.625c0-8.6805-6.9444-15.625-15.625-15.625s-15.625 6.9445-15.625 15.625zm23.6111-1.3889-10.4167-6.9444c-.5208-.3472-1.2152-.3472-1.7361 0-.6944.1736-1.0416.6944-1.0416 1.3889v13.8889c0 .6944.3472 1.2152.868 1.5625.3472.1736.5209.1736.8681.1736s.6944-.1736 1.0416-.3472v-.0001l10.4167-6.9444c.5208-.3472.6945-.8681.6945-1.3889s-.3473-1.0417-.6945-1.3889zm-4.1667 1.3889-5.5555-3.6458v7.2916z" fill-opacity=".95" fill-rule="evenodd"/></svg>