<svg enable-background="new 0 0 50 50" viewBox="0 0 50 50" xmlns="http://www.w3.org/2000/svg"><path clip-rule="evenodd" d="m37.1528 7.6389h-24.3056c-2.9514 0-5.2083 2.2569-5.2083 5.2084v24.3055c0 2.9514 2.2569 5.2084 5.2083 5.2084h24.3056c2.9514 0 5.2083-2.257 5.2083-5.2084v-24.3056c0-2.9514-2.2569-5.2083-5.2083-5.2083zm1.7361 29.5138c0 1.0417-.6945 1.7361-1.7361 1.7361h-24.3056c-1.0417 0-1.7361-.6944-1.7361-1.7361v-24.3056c0-1.0416.6944-1.7361 1.7361-1.7361h24.3056c1.0416 0 1.7361.6945 1.7361 1.7361zm-6.9445-10.4167c1.0417 0 1.7361-.6944 1.7361-1.7361 0-1.0416-.6944-1.7361-1.7361-1.7361h-5.2083v-5.2083c0-1.0417-.6944-1.7361-1.7361-1.7361s-1.7361.6944-1.7361 1.7361v5.2083h-5.2084c-1.0416 0-1.7361.6945-1.7361 1.7361 0 1.0417.6945 1.7361 1.7361 1.7361h5.2084v5.2084c0 1.0416.6944 1.7361 1.7361 1.7361s1.7361-.6945 1.7361-1.7361v-5.2084z" fill-opacity=".95" fill-rule="evenodd"/></svg>