<svg viewBox="0 0 50 50" xmlns="http://www.w3.org/2000/svg"><g fill="none" stroke="#000"><path d="m30.63 27.04h12.101v3.969h-14.281" stroke-linejoin="round" stroke-width="2"/><path d="m28.314 31.009h14.417v3.97h-20.201" stroke-linejoin="round" stroke-width="2"/><path d="m22.247 34.979h20.484v3.97h-24.201v-3.269" stroke-linejoin="round" stroke-width="2"/><path d="m18.52966 38.604h24.20121v3.96992h-24.20121z" stroke-linejoin="round" stroke-width="2"/><circle cx="19.36973" cy="23.22411" r="12.1006" stroke-miterlimit="10" stroke-width="2.5"/></g><path d="m24.771 20.89844a3.80853 3.80853 0 0 1 -1.28321 3.082 4.75244 4.75244 0 0 1 -3.14843 1h-3.21582v3.94824a1.084 1.084 0 0 1 -.32471.7832 1.04712 1.04712 0 0 1 -.7749.333 1.06373 1.06373 0 0 1 -.791-.333 1.08448 1.08448 0 0 1 -.3252-.7832v-10.32907a1.47225 1.47225 0 0 1 1.666-1.666h3.76563a4.90736 4.90736 0 0 1 3.11523.916 3.64039 3.64039 0 0 1 1.31641 3.04883zm-2.29932.0332a1.93947 1.93947 0 0 0 -.583-1.48242 2.7953 2.7953 0 0 0 -1.93262-.59961h-2.41606a.36786.36786 0 0 0 -.4165.416v3.832h2.83251a2.65213 2.65213 0 0 0 1.89942-.63282 1.98133 1.98133 0 0 0 .61625-1.53315z"/></svg>