<svg viewBox="0 0 50 50" xmlns="http://www.w3.org/2000/svg"><path d="m33.39258 21.7417a5.73283 5.73283 0 0 1 -1.92871 4.6353 7.15717 7.15717 0 0 1 -4.73633 1.50391h-4.835v5.9375a1.63087 1.63087 0 0 1 -.48926 1.17773 1.56919 1.56919 0 0 1 -1.165.5 1.59621 1.59621 0 0 1 -1.18945-.5 1.63087 1.63087 0 0 1 -.48926-1.17773v-15.53423a2.21482 2.21482 0 0 1 2.50586-2.50586h5.66211a7.3764 7.3764 0 0 1 4.68555 1.37793 5.4767 5.4767 0 0 1 1.97949 4.58545zm-3.457.0498a2.91973 2.91973 0 0 0 -.877-2.22949 4.20909 4.20909 0 0 0 -2.90722-.90234h-3.63281a.55331.55331 0 0 0 -.626.62646v5.7627h4.25879a3.98378 3.98378 0 0 0 2.85644-.95215 2.97565 2.97565 0 0 0 .92777-2.30518z"/><circle cx="25" cy="25" fill="none" r="17.85725" stroke="#000" stroke-miterlimit="10" stroke-width="2.5"/></svg>