<svg fill="none" height="24" viewBox="0 0 34 24" width="34" xmlns="http://www.w3.org/2000/svg" xmlns:xlink="http://www.w3.org/1999/xlink"><mask id="a" height="24" maskUnits="userSpaceOnUse" width="34" x="0" y="0"><path clip-rule="evenodd" d="m.29834.0195312h33.29136v23.9175688h-33.29136z" fill="#fff" fill-rule="evenodd"/></mask><g mask="url(#a)"><path clip-rule="evenodd" d="m33.4708 9.92726-5.1351-5.7341c-.1578-.15858-.4133-.15858-.5711 0l-5.4199 5.7341c-.2544.25574-.0743.69244.2856.69244h3.0613c-.7354 5.1384-5.1563 9.1211-10.4631 9.1211h-.0168c-5.81711 0-10.57664-4.7841-10.57664-10.63149v-4.19055c0-.48459.39059-.87719.87233-.87719h16.38381c.116 0 .2266-.04636.3086-.12842l3.2509-3.144845c.275-.276329.0802-.7487738-.3085-.7487738h-23.09885c-.96384 0-1.74501.7855688-1.74501 1.7543788v7.17645c0 8.24274 6.70953 14.98684 14.91006 14.98684h.0238c7.6386 0 13.9754-5.8536 14.809-13.3175h3.1444c.3595 0 .5392-.4367.2852-.69244z" fill="#767676" fill-rule="evenodd"/></g></svg>