<svg viewBox="0 0 50 50" xmlns="http://www.w3.org/2000/svg"><path d="m37.77252 25.03464-3.67818-4.08618a.28914.28914 0 0 0 -.4089 0l-3.88219 4.08618a.28915.28915 0 0 0 .20444.49361h2.19286a7.59984 7.59984 0 0 1 -7.49442 6.49959h-.012a7.59825 7.59825 0 0 1 -7.576-7.576v-2.98627a.625.625 0 0 1 .625-.625h11.73532a.31247.31247 0 0 0 .221-.09154l2.32842-2.241a.31251.31251 0 0 0 -.221-.5335h-16.54487a1.2501 1.2501 0 0 0 -1.25009 1.25008v5.11385a10.71118 10.71118 0 0 0 10.6798 10.67975h.01692a10.71286 10.71286 0 0 0 10.60727-9.48996h2.25218a.28914.28914 0 0 0 .20444-.49361z"/><circle cx="25" cy="25" fill="none" r="17.85725" stroke="#000" stroke-miterlimit="10" stroke-width="2.5"/></svg>