<svg enable-background="new 0 0 50 50" viewBox="0 0 50 50" xmlns="http://www.w3.org/2000/svg"><path clip-rule="evenodd" d="m37.1528 18.0556h1.7361c2.9514 0 5.2083 2.257 5.2083 5.2083v8.6806c0 2.9514-2.2569 5.2083-5.2083 5.2083h-1.7361v5.2084c0 1.0416-.6945 1.7361-1.7361 1.7361h-20.8334c-1.0416 0-1.7361-.6945-1.7361-1.7361v-5.2084h-1.7361c-2.9514 0-5.2083-2.2569-5.2083-5.2083v-8.6806c0-2.9513 2.257-5.2083 5.2083-5.2083h1.7361v-10.4167c0-1.0417.6945-1.7361 1.7361-1.7361h20.8334c1.0416 0 1.7361.6944 1.7361 1.7361zm-3.4723-8.6806h-17.3611v8.6806h17.3611zm0 31.25h-17.3611v-10.4167h17.3611zm5.2084-6.9444c1.0416 0 1.7361-.6944 1.7361-1.7361v-8.6806c0-1.0416-.6945-1.7361-1.7361-1.7361h-27.7778c-1.0417 0-1.7361.6945-1.7361 1.7361v8.6806c0 1.0417.6944 1.7361 1.7361 1.7361h1.7361v-5.2083c0-1.0417.6945-1.7361 1.7361-1.7361h20.8334c1.0416 0 1.7361.6944 1.7361 1.7361v5.2083z" fill-opacity=".95" fill-rule="evenodd"/></svg>