<svg viewBox="0 0 50 50" xmlns="http://www.w3.org/2000/svg"><path d="m19.8628 23.8831h-10.0587a3.54 3.54 0 0 1 -3.5361-3.536v-10.0588a3.54 3.54 0 0 1 3.5361-3.5361h10.0587a3.54 3.54 0 0 1 3.5361 3.5361v10.0588a3.54 3.54 0 0 1 -3.5361 3.536zm-10.0587-13.5948v10.0588h10.0609l-.0022-10.0588z"/><path d="m13.197 13.6813h3.2727v3.2727h-3.2727z"/><path d="m19.8007 43.8625h-10.0592a3.54 3.54 0 0 1 -3.5361-3.5361v-10.0583a3.54 3.54 0 0 1 3.5361-3.5361h10.0592a3.54 3.54 0 0 1 3.5361 3.5361v10.0583a3.54 3.54 0 0 1 -3.5361 3.5361zm-10.0592-13.5944v10.0583h10.0613l-.0021-10.0583z"/><path d="m13.1348 33.6609h3.2727v3.2727h-3.2727z"/><path d="m39.9 23.8831h-10.06a3.54 3.54 0 0 1 -3.536-3.536v-10.0588a3.54 3.54 0 0 1 3.536-3.5361h10.06a3.54 3.54 0 0 1 3.5361 3.5361v10.0588a3.54 3.54 0 0 1 -3.5361 3.536zm-10.06-13.5948v10.0588h10.0622l-.0022-10.0588z"/><path d="m33.2338 13.6813h3.2727v3.2727h-3.2727z"/><path d="m28.0248 28.6828h3.2727v3.2727h-3.2727z"/><path d="m37.7321 28.6828h3.2727v3.2727h-3.2727z"/><path d="m32.8785 33.5157h3.2727v3.2727h-3.2727z"/><path d="m28.0248 38.2656h3.2727v3.2727h-3.2727z"/><path d="m37.7321 38.2656h3.2727v3.2727h-3.2727z"/></svg>