<svg enable-background="new 0 0 50 50" viewBox="0 0 50 50" xmlns="http://www.w3.org/2000/svg"><path clip-rule="evenodd" d="m7.6389 19.7917v3.4722c0 1.0417.6944 1.7361 1.7361 1.7361s1.7361-.6944 1.7361-1.7361v-3.4722c0-2.9514 2.257-5.2083 5.2083-5.2083h20.1389l-3.993 3.993c-.6945.6945-.6945 1.7361 0 2.4306.3472.3472.6944.5208 1.2153.5208.5208 0 .868-.1736 1.2152-.5208l6.9445-6.9445c.0868-.0868.1302-.1736.1736-.2604s.0868-.1736.1736-.2604c.1736-.5208.1736-1.0417 0-1.3889 0-.1736-.1736-.3472-.3472-.5208l-6.9445-6.9445c-.6944-.6944-1.7361-.6944-2.4305 0-.6945.6944-.6945 1.7361 0 2.4306l3.993 3.993h-20.1389c-4.8611 0-8.6805 3.8195-8.6805 8.6806zm31.25 6.9444c0-1.0416.6944-1.7361 1.7361-1.7361s1.7361.6945 1.7361 1.7361v3.4723c0 4.8611-3.8194 8.6805-8.6805 8.6805h-20.1389l3.993 3.9931c.6945.6944.6945 1.7361 0 2.4305-.3472.3472-.6944.5209-1.2153.5209-.5208 0-.868-.1737-1.2152-.5209l-6.9445-6.9444c-.0868-.0868-.1302-.1736-.1736-.2604s-.0868-.1737-.1736-.2605c-.1736-.5208-.1736-1.0416 0-1.3888 0-.1737.1736-.3473.3472-.5209l6.9445-6.9444c.6944-.6945 1.7361-.6945 2.4305 0 .6945.6944.6945 1.7361 0 2.4305l-3.993 3.9931h20.1389c2.9513 0 5.2083-2.257 5.2083-5.2083z" fill-opacity=".95" fill-rule="evenodd"/></svg>