<svg enable-background="new 0 0 50 50" viewBox="0 0 50 50" xmlns="http://www.w3.org/2000/svg"><path clip-rule="evenodd" d="m11.1111 9.375c-1.0417 0-1.7361.6944-1.7361 1.7361s.6944 1.7361 1.7361 1.7361c14.4097 0 26.0417 11.632 26.0417 26.0417 0 1.0417.6944 1.7361 1.7361 1.7361s1.7361-.6944 1.7361-1.7361c0-16.3195-13.1944-29.5139-29.5139-29.5139zm17.3611 29.5139c0 1.0417-.6944 1.7361-1.7361 1.7361s-1.7361-.6944-1.7361-1.7361c0-7.6389-6.25-13.8889-13.8889-13.8889-1.0417 0-1.7361-.6944-1.7361-1.7361 0-1.0416.6944-1.7361 1.7361-1.7361 9.5486 0 17.3611 7.8125 17.3611 17.3611zm-19.0972-1.7362c0-1.9097 1.5625-3.4722 3.4722-3.4722s3.4722 1.5625 3.4722 3.4722c0 1.9098-1.5625 3.4723-3.4722 3.4723s-3.4722-1.5625-3.4722-3.4723z" fill-opacity=".95" fill-rule="evenodd"/></svg>