<svg enable-background="new 0 0 50 50" viewBox="0 0 50 50" xmlns="http://www.w3.org/2000/svg"><path clip-rule="evenodd" d="m11.1111 5.9028h27.7778c2.9514 0 5.2083 2.2569 5.2083 5.2084v6.9444c0 2.9514-2.2569 5.2083-5.2083 5.2083h-27.7778c-2.9514 0-5.2083-2.2569-5.2083-5.2083v-6.9444c0-2.9514 2.2569-5.2084 5.2083-5.2084zm27.7778 13.8889c1.0417 0 1.7361-.6945 1.7361-1.7361v-6.9445c0-1.0416-.6944-1.7361-1.7361-1.7361h-27.7778c-1.0417 0-1.7361.6945-1.7361 1.7361v6.9445c0 1.0416.6944 1.7361 1.7361 1.7361zm0 6.9445h-27.7778c-2.9514 0-5.2083 2.2569-5.2083 5.2083v6.9444c0 2.9514 2.257 5.2084 5.2083 5.2084h27.7778c2.9514 0 5.2083-2.257 5.2083-5.2084v-6.9444c0-2.9514-2.2569-5.2083-5.2083-5.2083zm0 13.8888c1.0417 0 1.7361-.6944 1.7361-1.7361v-6.9444c0-1.0417-.6944-1.7362-1.7361-1.7362h-27.7778c-1.0417 0-1.7361.6945-1.7361 1.7362v6.9444c0 1.0417.6944 1.7361 1.7361 1.7361zm-23.0903-27.2569c.3472.3472.5208.6944.5208 1.2152 0 .5209-.1736.8681-.5208 1.2153s-.6944.5209-1.2153.5209c-.5208 0-.868-.1737-1.2153-.5209-.1736-.1736-.3472-.3472-.3472-.5208-.1736-.1736-.1736-.5208-.1736-.6945 0-.1736 0-.5208.1736-.6944.0868-.0868.1302-.1736.1736-.2604s.0868-.1736.1736-.2604c.1737-.1736.3473-.3473.5209-.3473.5208-.1736.868-.1736 1.3889 0 .1736 0 .3472.1737.5208.3473zm.5208 22.0487c0-.5209-.1736-.8681-.5208-1.2153-.6944-.6945-1.7361-.6945-2.4306 0-.0868.0868-.1302.1736-.1736.2604s-.0868.1736-.1736.2604c-.1736.1736-.1736.5209-.1736.6945 0 .5208.1736.868.5208 1.2152.3473.3473.6945.5209 1.2153.5209.5209 0 .8681-.1736 1.2153-.5209.3472-.3472.5208-.6944.5208-1.2152z" fill-opacity=".95" fill-rule="evenodd"/></svg>