<svg enable-background="new 0 0 50 50" viewBox="0 0 50 50" xmlns="http://www.w3.org/2000/svg"><path clip-rule="evenodd" d="m30.5556 32.2917c1.2152-1.2153 2.9513-2.0833 4.8611-2.0833 3.8194 0 6.9444 3.125 6.9444 6.9444 0 3.8195-3.125 6.9445-6.9444 6.9445-3.8195 0-6.9445-3.125-6.9445-6.9445 0-.3472.0434-.651.0868-.9548v-.0001c.0434-.3038.0868-.6076.0868-.9548l-9.2014-5.3819c-1.2152 1.2152-2.9513 2.0833-4.8611 2.0833-3.8194 0-6.9444-3.125-6.9444-6.9444 0-3.8195 3.125-6.9445 6.9444-6.9445 1.9098 0 3.6459.8681 4.8611 2.0833l9.375-5.3819c-.0297-.1192-.0595-.2332-.0884-.3439-.1396-.5344-.2588-.9905-.2588-1.5658 0-3.8195 3.125-6.9445 6.9445-6.9445 3.8194 0 6.9444 3.125 6.9444 6.9445 0 3.8194-3.125 6.9444-6.9444 6.9444-1.9098 0-3.6459-.868-5.0348-2.0833l-9.2013 5.3819c.0297.1192.0595.2332.0884.3438v.0001c.1396.5344.2588.9906.2588 1.5659 0 .3472-.0434.651-.0868.9548s-.0868.6077-.0868.9549zm8.3333-19.4445c0-1.9097-1.5625-3.4722-3.4722-3.4722s-3.4722 1.5625-3.4722 3.4722c0 1.9098 1.5625 3.4723 3.4722 3.4723s3.4722-1.5625 3.4722-3.4723zm-24.3056 15.6251c-1.9097 0-3.4722-1.5625-3.4722-3.4722 0-1.9098 1.5625-3.4723 3.4722-3.4723 1.9098 0 3.4723 1.5625 3.4723 3.4723 0 1.9097-1.5625 3.4722-3.4723 3.4722zm17.3612 8.6806c0 1.9097 1.5625 3.4722 3.4722 3.4722s3.4722-1.5625 3.4722-3.4722-1.5625-3.4722-3.4722-3.4722c-1.2153 0-2.4306.6944-2.9514 1.7361-.3472.5208-.5208 1.0416-.5208 1.7361z" fill-opacity=".95" fill-rule="evenodd"/></svg>