<svg enable-background="new 0 0 50 50" viewBox="0 0 50 50" xmlns="http://www.w3.org/2000/svg"><path clip-rule="evenodd" d="m37.1528 7.6389h-24.3056c-2.9514 0-5.2083 2.2569-5.2083 5.2084v24.3055c0 2.9514 2.2569 5.2084 5.2083 5.2084h24.3056c2.9514 0 5.2083-2.257 5.2083-5.2084v-24.3056c0-2.9514-2.2569-5.2083-5.2083-5.2083zm-26.0417 29.5138v-24.3056c0-1.0416.6944-1.7361 1.7361-1.7361h5.2083v27.7778h-5.2083c-1.0417 0-1.7361-.6944-1.7361-1.7361zm26.0417 1.7361c1.0416 0 1.7361-.6944 1.7361-1.7361v-24.3056c0-1.0416-.6945-1.7361-1.7361-1.7361h-15.625v27.7778z" fill-opacity=".95" fill-rule="evenodd"/></svg>