<svg enable-background="new 0 0 50 50" viewBox="0 0 50 50" xmlns="http://www.w3.org/2000/svg"><path clip-rule="evenodd" d="m9.375 9.375v12.1527c0 1.0417.6944 1.7362 1.7361 1.7362s1.7361-.6945 1.7361-1.7362v-12.1527c0-1.0417-.6944-1.7361-1.7361-1.7361s-1.7361.6944-1.7361 1.7361zm13.8889 15.625c0-1.0417.6944-1.7361 1.7361-1.7361 1.0416 0 1.7361.6944 1.7361 1.7361v15.625c0 1.0416-.6945 1.7361-1.7361 1.7361-1.0417 0-1.7361-.6945-1.7361-1.7361zm15.625 1.7361c1.0417 0 1.7361-.6945 1.7361-1.7361v-15.625c0-1.0417-.6944-1.7361-1.7361-1.7361s-1.7361.6944-1.7361 1.7361v15.625c0 1.0416.6944 1.7361 1.7361 1.7361zm-34.7222 1.736c0-1.0416.6944-1.7361 1.7361-1.7361h10.4166c1.0417 0 1.7361.6945 1.7361 1.7361 0 1.0417-.6944 1.7362-1.7361 1.7362h-3.4722v10.4166c0 1.0417-.6944 1.7361-1.7361 1.7361s-1.7361-.6944-1.7361-1.7361v-10.4166h-3.4722c-1.0417 0-1.7361-.6945-1.7361-1.7362zm26.0416-12.1527h-3.4722v-6.9444c0-1.0417-.6945-1.7361-1.7361-1.7361-1.0417 0-1.7361.6944-1.7361 1.7361v6.9444h-3.4723c-1.0416 0-1.7361.6945-1.7361 1.7361 0 1.0417.6945 1.7361 1.7361 1.7361h10.4167c1.0417 0 1.7361-.6944 1.7361-1.7361 0-1.0416-.6944-1.7361-1.7361-1.7361zm3.4723 13.8889h10.4166c1.0417 0 1.7361.6945 1.7361 1.7362 0 1.0416-.6944 1.7361-1.7361 1.7361h-3.4722v6.9444c0 1.0417-.6944 1.7361-1.7361 1.7361s-1.7361-.6944-1.7361-1.7361v-6.9444h-3.4722c-1.0417 0-1.7362-.6945-1.7362-1.7361 0-1.0417.6945-1.7362 1.7362-1.7362z" fill-opacity=".95" fill-rule="evenodd"/></svg>