<svg enable-background="new 0 0 50 50" viewBox="0 0 50 50" xmlns="http://www.w3.org/2000/svg"><path clip-rule="evenodd" d="m35.4167 5.9028h-20.8334c-2.9514 0-5.2083 2.2569-5.2083 5.2084v27.7777c0 2.9514 2.2569 5.2084 5.2083 5.2084h20.8334c2.9514 0 5.2083-2.257 5.2083-5.2084v-27.7777c0-2.9514-2.2569-5.2084-5.2083-5.2084zm1.7361 32.9861c0 1.0417-.6945 1.7361-1.7361 1.7361h-20.8334c-1.0416 0-1.7361-.6944-1.7361-1.7361v-27.7778c0-1.0416.6945-1.7361 1.7361-1.7361h20.8334c1.0416 0 1.7361.6945 1.7361 1.7361zm-20.8333-10.4167c0-4.8611 3.8194-8.6805 8.6805-8.6805s8.6806 3.8194 8.6806 8.6805-3.8195 8.6806-8.6806 8.6806-8.6805-3.8195-8.6805-8.6806zm8.6805 5.2085c-2.9514 0-5.2083-2.257-5.2083-5.2084s2.2569-5.2083 5.2083-5.2083 5.2083 2.2569 5.2083 5.2083-2.2569 5.2084-5.2083 5.2084zm-1.7361-19.0973c0 .5209.1736.8681.5208 1.2153 0 .1736.1736.1736.1736.1736.0868 0 .1302.0434.1736.0868s.0868.0868.1736.0868c.0999.0999.1423.1423.1933.1603.0378.0133.0802.0133.154.0133h.3472c.5208 0 .868-.1736 1.2153-.5208.3472-.3472.5208-.6944.5208-1.2153 0-.1736 0-.5208-.1736-.6944 0-.1736-.1736-.3472-.3472-.5208-.3473-.5209-1.0417-.6945-1.5625-.5209-.0999.0999-.1423.1423-.1933.1603-.0378.0133-.0802.0133-.154.0133-.0868 0-.1302.0434-.1736.0868s-.0868.0868-.1736.0868l-.1736.1737c-.0868.0868-.1302.1736-.1736.2604s-.0868.1736-.1736.2604c-.1736.1736-.1736.5208-.1736.6944z" fill-opacity=".95" fill-rule="evenodd"/></svg>