<svg enable-background="new 0 0 50 50" viewBox="0 0 50 50" xmlns="http://www.w3.org/2000/svg" xmlns:xlink="http://www.w3.org/1999/xlink"><clipPath id="a"><path d="m6.25 6.25h37.5v37.5h-37.5z"/></clipPath><g clip-path="url(#a)"><path d="m43.7186 15.6977c-.0078-.1491-.0314-.2982-.0785-.4394l-2.6443-7.941c-.2041-.6199-.7847-1.0358-1.436-1.0358h-29.1118c-.6512 0-1.2319.4159-1.4359 1.0358l-2.6522 7.941c-.0471.1412-.0706.2903-.0785.4394v1.3575c.0078 2.0872.9887 4.0882 2.6444 5.3594v17.1296c0 2.2991 1.8675 4.1667 4.1666 4.1667h23.8152c2.2991 0 4.1666-1.8676 4.1666-4.1667v-17.1218c1.6557-1.2712 2.6444-3.2721 2.6444-5.3594zm-16.2665 14.7913v10.2008h-4.9042v-10.2008zm-17.5533-16.2665 1.6321-4.9043h4.0019v4.9043zm8.6786 0v-4.9043h4.9042v4.9043zm7.9409 0v-4.9043h4.9043v4.9043zm7.9332 0v-4.9043h4.0019l1.6321 4.9043zm-5.4849 13.2297h-7.941c-.8396 0-1.5145.6827-1.5145 1.5145v11.7153h-6.4187c-.6199 0-1.1299-.51-1.1299-1.1299v-15.7722c1.7891.3061 3.6331-.1334 5.1004-1.2084 2.3933 1.6792 5.5477 1.6792 7.9332 0 2.3932 1.6871 5.5477 1.6871 7.9331 0 1.4674 1.075 3.3114 1.5066 5.1004 1.2084v15.78c0 .6199-.51 1.1299-1.1299 1.1299h-6.4187v-11.7231c.0078-.8318-.6748-1.5145-1.5144-1.5145zm2.9739-8.0665c-.0549.0471-.102.0942-.1412.1412-1.3968 1.5616-3.8057 1.695-5.3594.2904-.102-.0942-.204-.1883-.2982-.2982-.5885-.6277-1.5772-.6591-2.205-.0706-.0235.0235-.047.0471-.0706.0706-1.3967 1.5615-3.8057 1.6949-5.3594.2903-.102-.0941-.204-.1883-.2981-.2981-.2825-.3061-.6749-.4787-1.0908-.4944-.4158-.0157-.816.1412-1.1142.4237-.0235.0236-.0471.0471-.0706.0707l-.0079.0078c-.7062.8318-1.7341 1.3026-2.8248 1.3026-2.0167 0-3.6723-1.5929-3.7744-3.5782h31.356c-.102 1.9931-1.7577 3.5782-3.7743 3.5782-1.0908 0-2.1187-.4787-2.8249-1.3104-.5571-.6121-1.5144-.6749-2.1422-.1256z" fill-opacity=".95"/></g></svg>