<svg enable-background="new 0 0 50 50" viewBox="0 0 50 50" xmlns="http://www.w3.org/2000/svg"><path clip-rule="evenodd" d="m24.3056 21.3542c-.1736 0-.3473-.1736-.5209-.3472l-6.9444-6.9444c-.6944-.6945-.6944-1.7362 0-2.4306s1.7361-.6944 2.4306 0l3.993 3.9931v-7.9862c0-1.0417.6944-1.7361 1.7361-1.7361s1.7361.6944 1.7361 1.7361v7.9862l3.9931-3.9931c.6944-.6944 1.7361-.6944 2.4305 0 .6945.6944.6945 1.7361 0 2.4306l-6.9444 6.9444c-.0868.0868-.1736.1302-.2604.1736s-.1736.0868-.2604.1736c-.1736.1736-.5209.1736-.6945.1736s-.5208 0-.6944-.1736zm-11.632 4.1667c.3472.3473.8681.5209 1.2153.5209s.868-.1736 1.2153-.5209c.6944-.6944.6944-1.7361 0-2.4305l-2.4306-2.4306c-.6944-.6944-1.7361-.6944-2.4306 0-.6944.6945-.6944 1.7361 0 2.4306zm22.7431 9.8958c0 1.0416-.6945 1.7361-1.7361 1.7361-1.0417 0-1.7362-.6945-1.7362-1.7361 0-3.8195-3.125-6.9445-6.9444-6.9445s-6.9444 3.125-6.9444 6.9445c0 1.0416-.6945 1.7361-1.7362 1.7361-1.0416 0-1.7361-.6945-1.7361-1.7361 0-5.7292 4.6875-10.4167 10.4167-10.4167s10.4167 4.6875 10.4167 10.4167zm-26.0417 1.7362h-3.4722c-1.0417 0-1.7361-.6945-1.7361-1.7361 0-1.0417.6945-1.7361 1.7361-1.7361h3.4722c1.0417 0 1.7361.6944 1.7361 1.7361 0 1.0416-.6944 1.7361-1.7361 1.7361zm29.5139-1.7361c0 1.0416.6944 1.7361 1.7361 1.7361h3.4722c1.0417 0 1.7361-.6945 1.7361-1.7361 0-1.0417-.6944-1.7361-1.7361-1.7361h-3.4722c-1.0417 0-1.7361.6944-1.7361 1.7361zm-1.5625-9.8959c-.3472.3473-.6944.5209-1.2153.5209-.5208 0-1.0417-.1736-1.2153-.5209-.6944-.6944-.6944-1.7361 0-2.4305l2.4306-2.4306c.6944-.6944 1.7361-.6944 2.4306 0 .6944.6945.6944 1.7361 0 2.4306zm-31.4236 15.1041c-1.0417 0-1.7361.6945-1.7361 1.7361 0 1.0417.6945 1.7361 1.7361 1.7361h38.1944c1.0417 0 1.7361-.6944 1.7361-1.7361 0-1.0416-.6944-1.7361-1.7361-1.7361z" fill-opacity=".95" fill-rule="evenodd"/></svg>