<svg viewBox="0 0 50 50" xmlns="http://www.w3.org/2000/svg"><g fill="none" stroke="#000" stroke-linecap="round" stroke-miterlimit="10" stroke-width="2.09864"><path d="m10.776 29.25045v-1.96209a4.04258 4.04258 0 0 1 4.04258-4.04258h7.92967a4.04258 4.04258 0 0 1 4.04257 4.04258v1.96209"/><circle cx="18.75313" cy="15.94502" r="4.01052"/><path d="m26.29247 19.256h3.02168a3.76545 3.76545 0 0 1 3.76545 3.76545v1.82755"/><path d="m23.14977 9.66585a3.736 3.736 0 1 1 3.75469 6.32482"/><path d="m11.55027 19.256h-3.02167a3.76545 3.76545 0 0 0 -3.76545 3.76545v1.82755"/><path d="m14.693 9.66585a3.736 3.736 0 1 0 -3.7547 6.32482"/></g><path d="m37.266 45.29383a2.34311 2.34311 0 0 1 -2.39551-2.39648c0-.30566-.081-.3877-.23828-.44043a.79554.79554 0 0 0 -.249-.0459.35833.35833 0 0 0 -.26172.09766 2.34365 2.34365 0 0 1 -3.43164.07617 2.31749 2.31749 0 0 1 0-3.35547.41606.41606 0 0 0 .13379-.49707.42267.42267 0 0 0 -.37012-.251h-.15332a2.39648 2.39648 0 0 1 0-4.793.55107.55107 0 0 0 .44629-.251.48984.48984 0 0 0 -.05664-.49707 2.34494 2.34494 0 0 1 -.07715-3.43262 2.20758 2.20758 0 0 1 1.64941-.71875 2.399 2.399 0 0 1 1.70606.71875.83222.83222 0 0 0 .40527.15332c.12012-.05371.14746-.08008.18946-.0957l.10058-.01074a.35576.35576 0 0 0 .12988-.28321v-.15332a2.39649 2.39649 0 0 1 4.793 0c0 .19141.12891.36035.20606.36035a.62178.62178 0 0 0 .21875.04981.34737.34737 0 0 0 .24707-.09766 2.46092 2.46092 0 0 1 1.75488-.71777 2.30836 2.30836 0 0 1 1.67774.71777 2.21769 2.21769 0 0 1 .71777 1.59961 2.43051 2.43051 0 0 1 -.71777 1.75684.416.416 0 0 0 -.13379.49707.20315.20315 0 0 1 .08593.19824.36659.36659 0 0 0 .28321.12988h.15332a2.396 2.396 0 1 1 0 4.792.45925.45925 0 0 0 -.44727.252.59449.59449 0 0 0 .07715.44531 2.32659 2.32659 0 0 1 .7666 1.68067 2.35878 2.35878 0 0 1 -.709 1.72656 2.20758 2.20758 0 0 1 -1.64942.71875 2.39906 2.39906 0 0 1 -1.706-.71875.507.507 0 0 0 -.34766-.16895.32959.32959 0 0 0 -.14941.03516.42327.42327 0 0 0 -.252.37012v.15234a2.34391 2.34391 0 0 1 -2.39652 2.39651zm-2.9082-4.5625a1.59142 1.59142 0 0 1 .89746.16993 2.05776 2.05776 0 0 1 1.3457 1.91992c0 .48047.26172.74219.665.74219a.62441.62441 0 0 0 .666-.666v-.15237a2.08811 2.08811 0 0 1 1.28808-1.93067 1.98262 1.98262 0 0 1 .89453-.21582 2.02938 2.02938 0 0 1 1.43262.6211.70129.70129 0 0 0 .542.27734.65819.65819 0 0 0 .46485-1.13184 2.26162 2.26162 0 0 1 -.48145-2.40332 2.0881 2.0881 0 0 1 1.93067-1.28808.64945.64945 0 0 0 .74218-.666.62415.62415 0 0 0 -.666-.665h-.15332a2.08676 2.08676 0 0 1 -1.92969-1.28808.33125.33125 0 0 1 -.083-.26661 2.12636 2.12636 0 0 1 .48828-2.13671.81569.81569 0 0 0 .26758-.56641.61451.61451 0 0 0 -.19141-.44043.59213.59213 0 0 0 -.46484-.20117.59911.59911 0 0 0 -.46582.20019 2.36937 2.36937 0 0 1 -1.584.6416 2.19822 2.19822 0 0 1 -.82032-.16015 2.00568 2.00568 0 0 1 -1.28711-1.92969.64945.64945 0 0 0 -.666-.74219.62415.62415 0 0 0 -.666.665v.15332a2.08623 2.08623 0 0 1 -1.28706 1.93062.33126.33126 0 0 1 -.2666.083 1.93972 1.93972 0 0 1 -.64941.10352 2.11012 2.11012 0 0 1 -1.48828-.5918.81393.81393 0 0 0 -.56641-.26757.6151.6151 0 0 0 -.44043.19043.63778.63778 0 0 0 0 .93164 2.26092 2.26092 0 0 1 .48145 2.40332 2.073 2.073 0 0 1 -1.92969 1.36425c-.48145 0-.74317.26172-.74317.666a.62441.62441 0 0 0 .666.666h.15332a2.08388 2.08388 0 0 1 1.92969 1.2871 1.96944 1.96944 0 0 1 -.40528 2.32715.70157.70157 0 0 0 -.27636.542.59913.59913 0 0 0 .20019.46582.63978.63978 0 0 0 .92969 0 2.1788 2.1788 0 0 1 1.52639-.64153zm2.832-1.56152a3.16162 3.16162 0 1 1 3.1622-3.16211 3.16477 3.16477 0 0 1 -3.16214 3.16211zm0-4.59277a1.43115 1.43115 0 1 0 1.4317 1.43066 1.43287 1.43287 0 0 0 -1.43164-1.4307z" fill-opacity=".95" fill-rule="evenodd"/><path d="m43.54369 38.61088a.551.551 0 0 1 .53587-.30619 2.29654 2.29654 0 0 0 0-4.59308h-.15309a.421.421 0 0 1 -.38278-.22964c0-.07659 0-.07659-.07654-.15313a.51736.51736 0 0 1 .15309-.61242 2.29675 2.29675 0 0 0 -1.60756-3.90407 2.37462 2.37462 0 0 0 -1.68411.689.47155.47155 0 0 1 -.53586.07654c-.1531 0-.30623-.22968-.30623-.45932a2.29652 2.29652 0 0 0 -4.593 0v.15309a.42093.42093 0 0 1 -.22968.38278.21.21 0 0 0 -.06786.00586c-.02249.00794-.04118.02668-.08523.07069a.675.675 0 0 1 -.61242-.1531 2.21948 2.21948 0 0 0 -3.21511 0 2.24734 2.24734 0 0 0 .07654 3.29171.57788.57788 0 0 1 .07655.61241.64446.64446 0 0 1 -.53587.30619 2.29654 2.29654 0 0 0 0 4.59308h.15309a.51409.51409 0 0 1 .30623.9186 2.22 2.22 0 0 0 0 3.21516 2.24741 2.24741 0 0 0 3.29171-.07655.57779.57779 0 0 1 .61237-.07659c.22968.07659.30623.22969.30623.53587a2.29654 2.29654 0 1 0 4.59308 0v-.15309a.51407.51407 0 0 1 .9186-.30618 2.21961 2.21961 0 0 0 3.21516 0 2.24738 2.24738 0 0 0 -.07659-3.29171.67233.67233 0 0 1 -.07659-.53591zm-9.41575-2.60275a3.062 3.062 0 1 1 3.062 3.062 3.071 3.071 0 0 1 -3.062-3.062zm1.531 0a1.531 1.531 0 1 0 1.531-1.53105 1.53552 1.53552 0 0 0 -1.53094 1.53109zm6.96615 4.28687a2.16631 2.16631 0 0 1 -.45932-2.29652 1.98949 1.98949 0 0 1 1.83723-1.22484.7464.7464 0 0 0 .842-.76551.72321.72321 0 0 0 -.7655-.76551h-.15309a1.98948 1.98948 0 0 1 -1.83724-1.22482.28121.28121 0 0 1 -.07655-.22964 2.06085 2.06085 0 0 1 .45932-2.06688.77222.77222 0 0 0 .07655-1.14828.74005.74005 0 0 0 -1.07174 0 2.16631 2.16631 0 0 1 -2.29652.45932 1.91485 1.91485 0 0 1 -1.22482-1.83724.74638.74638 0 0 0 -.76541-.84208.72321.72321 0 0 0 -.76551.7655v.15309a1.98947 1.98947 0 0 1 -1.22482 1.83724.28121.28121 0 0 1 -.22964.07655 2.06088 2.06088 0 0 1 -2.06688-.45932.77222.77222 0 0 0 -1.14828-.07655.74.74 0 0 0 0 1.07174 2.16631 2.16631 0 0 1 .45932 2.29652 1.98353 1.98353 0 0 1 -1.83724 1.30137h-.07655a.76551.76551 0 0 0 0 1.531h.15309a1.98945 1.98945 0 0 1 1.83721 1.22486 1.869 1.869 0 0 1 -.38278 2.22.79062.79062 0 0 0 -.30618.61241.69506.69506 0 0 0 .22963.53587.74.74 0 0 0 1.07174 0 2.09127 2.09127 0 0 1 1.45446-.61241 1.51428 1.51428 0 0 1 .84206.15309 1.98345 1.98345 0 0 1 1.30137 1.83722v.07655a.76551.76551 0 0 0 1.531 0v-.1531a1.9894 1.9894 0 0 1 1.22483-1.83724 1.86906 1.86906 0 0 1 2.22.38274.7906.7906 0 0 0 .61241.30622.7579.7579 0 0 0 .53587-1.30137z" fill-opacity=".95" fill-rule="evenodd"/></svg>