<svg enable-background="new 0 0 50 50" viewBox="0 0 50 50" xmlns="http://www.w3.org/2000/svg"><path clip-rule="evenodd" d="m44.0972 10.9605c-.3516-2.9648-2.8131-5.0577-5.8021-5.0577h-.1758-24.4392c-2.6373 0-4.7471 1.9184-5.2746 4.3601l-2.4615 15.6964c-.3516 2.7904 1.5824 5.5809 4.3955 5.9297h.8791 8.2636v5.2321c0 3.8369 3.1648 6.9762 7.0329 6.9762.7033 0 1.4066-.3488 1.5824-1.0464l6.5054-14.65h3.5164c2.989 0 5.4505-2.0928 5.8021-5.0577v-.1744-12.0339c.1758 0 .1758-.1744.1758-.1744zm-12.3075 15.522-6.3295 14.1267c-1.4066-.5232-2.4615-1.744-2.4615-3.3136v-6.9762c0-1.0464-.7033-1.744-1.7582-1.744h-10.0219-.3516c-.8791-.1744-1.5824-1.0464-1.4066-1.9185l2.4615-15.6963c.1758-.872.8791-1.5696 1.7582-1.5696h18.1096zm6.5054-1.3952c1.0549 0 2.1099-.872 2.2857-1.9184v-11.8595c-.1758-1.0464-1.2308-1.9184-2.2857-1.9184h-2.9889v15.6963z" fill-opacity=".95" fill-rule="evenodd"/></svg>