<svg enable-background="new 0 0 50 50" viewBox="0 0 50 50" xmlns="http://www.w3.org/2000/svg"><path clip-rule="evenodd" d="m42.9984 20.1389c-.879-1.0416-2.1097-1.9097-3.5161-2.0833h-.8791-8.0872v-5.2083c0-3.8195-3.1645-6.9445-7.0323-6.9445-.7033 0-1.4065.3472-1.5823 1.0417l-6.5049 14.5833h-4.2194c-2.9888 0-5.2743 2.257-5.2743 5.2084v12.1527c0 2.9514 2.2855 5.2084 5.2743 5.2084h25.1406c2.6371 0 4.7468-1.9097 5.2743-4.3403l2.4613-15.625c.1758-1.3889-.1758-2.7778-1.0549-3.9931zm-28.3052 20.4861h-3.5161c-1.0549 0-1.7581-.6944-1.7581-1.7361v-12.1528c0-1.0416.7032-1.7361 1.7581-1.7361h3.5161zm21.6245.0001c.879 0 1.5823-.5209 1.7581-1.3889l2.6371-15.7986c0-.3473 0-.8681-.3516-1.2153s-.7032-.6945-1.2307-.6945h-.3516-10.0211c-1.0548 0-1.7581-.6944-1.7581-1.7361v-6.9444c0-1.5625-1.0548-2.7778-2.4613-3.2986l-6.3291 14.0625v17.0139z" fill-opacity=".95" fill-rule="evenodd"/></svg>