<svg enable-background="new 0 0 50 50" viewBox="0 0 50 50" xmlns="http://www.w3.org/2000/svg"><path clip-rule="evenodd" d="m40.625 12.8473h-6.9444v-1.7361c0-2.9514-2.257-5.2084-5.2084-5.2084h-6.9444c-2.9514 0-5.2084 2.2569-5.2084 5.2084v1.7361h-6.9444c-1.0417 0-1.7361.6944-1.7361 1.7361s.6944 1.7361 1.7361 1.7361h1.7361v22.5694c0 2.9514 2.257 5.2084 5.2083 5.2084h17.3612c2.9513 0 5.2083-2.257 5.2083-5.2084v-22.5694h1.7361c1.0417 0 1.7361-.6944 1.7361-1.7361s-.6944-1.7361-1.7361-1.7361zm-20.8333-1.7362c0-1.0416.6944-1.7361 1.7361-1.7361h6.9444c1.0417 0 1.7361.6945 1.7361 1.7361v1.7361h-10.4166zm13.8889 29.514c1.0416 0 1.7361-.6945 1.7361-1.7362v-22.5694h-20.8334v22.5694c0 1.0417.6945 1.7362 1.7361 1.7362zm-10.4167-17.3612v10.4167c0 1.0417-.6945 1.7361-1.7361 1.7361-1.0417 0-1.7361-.6944-1.7361-1.7361v-10.4167c0-1.0416.6944-1.7361 1.7361-1.7361 1.0416 0 1.7361.6945 1.7361 1.7361zm6.9444 10.4167v-10.4167c0-1.0416-.6944-1.7361-1.7361-1.7361-1.0416 0-1.7361.6945-1.7361 1.7361v10.4167c0 1.0417.6945 1.7361 1.7361 1.7361 1.0417 0 1.7361-.6944 1.7361-1.7361z" fill-opacity=".95" fill-rule="evenodd"/></svg>