<svg enable-background="new 0 0 50 50" viewBox="0 0 50 50" xmlns="http://www.w3.org/2000/svg"><path clip-rule="evenodd" d="m29.6269 10.2172 15.296 24.4087c.5047.6353.6986 1.564.8688 2.3795.014.0671.0278.1335.0417.1989 0 1.3751-.5463 2.5783-1.6389 3.6097-.9105 1.0313-2.3672 1.547-3.824 1.547h-30.9562c-.9105 0-1.821-.1719-2.5493-.6876-2.5493-1.3751-3.4598-4.641-2.0031-7.0475l15.296-24.5806c.3642-.6876 1.0926-1.3751 1.821-1.7189 1.2746-.6876 2.7314-.8595 4.1882-.5157 1.4567.3438 2.7314 1.2032 3.4598 2.4065zm10.7436 28.706c.3642 0 .9105-.1719 1.2747-.5156.0395-.0746.0876-.1492.1368-.2256.1776-.2755.3699-.5739.2273-.9777 0-.3438.0001-.6876-.182-.8595l-15.4781-24.2368c-.5463-.6875-1.6389-1.0313-2.5494-.5156-.1214 0-.2428.1528-.3642.3056-.0607.0764-.1214.1528-.1821.21l-15.478 24.2368c-.3642.8595-.1821 1.8909.7284 2.4065.3642.1719.5463.1719.9105.1719z" fill-opacity=".95" fill-rule="evenodd"/></svg>