<svg enable-background="new 0 0 50 50" viewBox="0 0 50 50" xmlns="http://www.w3.org/2000/svg"><path clip-rule="evenodd" d="m43.1897 7.9666c.5197-.3492 1.3859-.3492 1.9056 0s.8662 1.0476.693 1.7459c-.5198 2.4443-1.7324 4.714-3.4648 6.6345v.8729c0 9.6025-4.1578 17.6337-11.6071 21.8239-3.8112 2.2697-7.969 3.3172-12.3 3.3172-4.3309 0-9.0084-1.2221-13.3394-3.6664-.693-.3492-1.0394-1.2221-.8662-1.9205s1.0394-1.2221 1.7324-1.2221c2.9451 0 5.8901-.5238 8.4887-1.7459-6.4098-4.0156-8.1422-9.6025-8.3155-13.9673-.1732-5.0632 1.5592-9.2533 1.7324-9.4279.1732-.5238.693-1.0476 1.3859-1.0476.693 0 1.2127.1746 1.5591.6984 2.9451 4.1902 7.4493 6.809 12.4732 7.1582 0-2.7934 1.2127-5.4123 3.4648-7.1582 3.6381-3.3172 9.0085-3.1426 12.4733 0 1.386-.5238 2.7719-1.2221 3.9846-2.0951zm-4.5042 8.2058c0-.5238.1732-1.2221.5197-1.5713.1732-.2619.3465-.4802.5197-.6984s.3465-.4365.5197-.6984c-.1732.0873-.3898.131-.6063.1746-.2166.0437-.4331.0873-.6064.1746-.5197.1746-1.2126 0-1.7324-.5237-2.0788-2.4443-6.0633-2.7935-8.4887-.5238-1.3859 1.2221-2.0789 2.968-2.0789 4.7139v1.7459c0 .873-.8662 1.746-1.7324 1.746-5.7169.1745-11.0873-2.0951-14.8986-5.9361-1.0394 4.3647-1.3859 12.9197 8.662 17.4591.5197.1746 1.0395.6983 1.0395 1.3967s-.1733 1.2221-.8662 1.5713c-1.9057 1.3967-3.9846 2.2697-6.2367 2.9681 5.7169 1.3967 11.4338.6983 16.2845-2.0951 6.2367-3.6664 9.8747-10.4755 9.8747-18.8559 0-.3491 0-.6983-.1732-1.0475z" fill-opacity=".95" fill-rule="evenodd"/></svg>