<svg enable-background="new 0 0 50 50" viewBox="0 0 50 50" xmlns="http://www.w3.org/2000/svg"><path clip-rule="evenodd" d="m40.4671 37.6483c2.4204-1.3963 4.1493-3.6654 5.0138-6.2836.6915-2.6181.3458-5.5854-.8645-7.8545-1.9017-3.3163-5.3595-5.4108-9.1631-5.4108h-1.0373c-2.5933-7.5054-10.7191-12.0436-18.4991-9.9491-3.9765 1.0473-7.2613 3.4909-9.5089 7.1564-2.2476 3.6654-2.7662 7.8544-1.7289 11.869.6915 2.4436 1.9018 4.5381 3.4578 6.4581.6916.6982 1.7289.8727 2.4204.1745.6916-.6981.8645-1.7454.1729-2.4436-1.2102-1.3963-2.0746-3.1418-2.5933-5.0618-.8644-3.3163-.3458-6.4581 1.3831-9.4254 1.556-2.7927 4.1493-4.7126 7.2613-5.4108 6.3969-1.7455 12.9667 2.2691 14.6956 8.7272.1729.6982.8644 1.2218 1.7289 1.2218h2.2475c2.5934 0 4.8409 1.3964 6.0511 3.6654.8645 1.5709 1.0374 3.4909.5187 5.2364-.5187 1.7454-1.7289 3.3163-3.2849 4.189-.8644.5237-1.2102 1.5709-.6915 2.4436.3457.5237.8644.8728 1.556.8728.3457 0 .5186 0 .8644-.1746zm-14.6955-14.3126c.1728 0 .3457.1745.5186.3491l6.9156 6.9818c.6915.6981.6915 1.7454 0 2.4436-.3458.3491-.8645.5236-1.2102.5236-.3458 0-.8645-.1745-1.2103-.5236l-3.9764-4.0145v11.5199c0 1.0472-.6916 1.7454-1.7289 1.7454s-1.7289-.6982-1.7289-1.7454v-11.5199l-3.9764 4.0145c-.6916.6982-1.7289.6982-2.4205 0-.6915-.6982-.6915-1.7455 0-2.4436l6.9156-6.9818c.0864-.0873.1729-.1309.2593-.1746.0865-.0436.1729-.0872.2593-.1745.5187-.1745 1.0374-.1745 1.3832 0z" fill-opacity=".95" fill-rule="evenodd"/></svg>