<svg enable-background="new 0 0 50 50" viewBox="0 0 50 50" xmlns="http://www.w3.org/2000/svg"><path clip-rule="evenodd" d="m18.9236 7.6388c-4.8611 0-8.6805 3.8194-8.6805 8.6805 0 4.8612 3.8194 8.6806 8.6805 8.6806s8.6806-3.8194 8.6806-8.6806c0-4.8611-3.8195-8.6805-8.6806-8.6805zm14.757 32.9861v-3.4722c0-4.8611-3.8195-8.6806-8.6806-8.6806h-12.1528c-4.8611 0-8.6805 3.8195-8.6805 8.6806v3.4722c0 1.0417.6944 1.7361 1.7361 1.7361s1.7361-.6944 1.7361-1.7361v-3.4722c0-2.9514 2.2569-5.2084 5.2083-5.2084h12.1528c2.9514 0 5.2083 2.257 5.2083 5.2084v3.4722c0 1.0417.6945 1.7361 1.7362 1.7361 1.0416 0 1.7361-.6944 1.7361-1.7361zm-19.9653-24.3056c0 2.9514 2.257 5.2083 5.2083 5.2083 2.9514 0 5.2084-2.2569 5.2084-5.2083s-2.257-5.2083-5.2084-5.2083c-2.9513 0-5.2083 2.2569-5.2083 5.2083zm29.1667 2.257c.6944-.6945 1.7361-.6945 2.4305 0 .6945.6944.6945 1.7361 0 2.4305l-6.9444 6.9445c-.3472.3472-.8681.5208-1.2153.5208s-.868-.1736-1.2153-.5208l-3.4722-3.4722c-.6944-.6945-.6944-1.7361 0-2.4306.6945-.6944 1.7361-.6944 2.4306 0l2.2569 2.257z" fill-opacity=".95" fill-rule="evenodd"/></svg>