<svg enable-background="new 0 0 50 50" viewBox="0 0 50 50" xmlns="http://www.w3.org/2000/svg"><path clip-rule="evenodd" d="m36.2847 16.3195c-5.2083 0-9.5486 4.3402-9.5486 9.5486 0 2.2569.8681 4.3402 2.2569 6.0764h-7.9861c1.3889-1.7362 2.257-3.8195 2.257-6.0764 0-5.2084-4.3403-9.5486-9.5486-9.5486-5.2084 0-9.5486 4.3402-9.5486 9.5486 0 5.2083 4.3403 9.5486 9.5486 9.5486h22.5694c5.2083 0 9.5486-4.3403 9.5486-9.5486 0-5.2084-4.3403-9.5486-9.5486-9.5486zm-28.6458 9.5485c0-3.2986 2.7777-6.0764 6.0764-6.0764 3.2986 0 6.0763 2.7778 6.0763 6.0764s-2.7777 6.0764-6.0763 6.0764c-3.2987 0-6.0764-2.7778-6.0764-6.0764zm22.5694 0c0 3.2986 2.7778 6.0764 6.0764 6.0764s6.0764-2.7778 6.0764-6.0764-2.7778-6.0764-6.0764-6.0764-6.0764 2.7778-6.0764 6.0764z" fill-opacity=".95" fill-rule="evenodd"/></svg>