<svg enable-background="new 0 0 50 50" viewBox="0 0 50 50" xmlns="http://www.w3.org/2000/svg"><path clip-rule="evenodd" d="m38.8889 25c0-3.9931-1.7361-7.4653-4.3403-10.0695l-.5208-6.0764c-.3472-2.6042-2.4306-4.6875-5.2084-4.6875h-7.6388c-2.6042 0-4.8612 2.0833-5.2084 4.6875l-.5208 6.0764c-2.6042 2.4306-4.3403 6.0764-4.3403 10.0695 0 3.993 1.7361 7.6388 4.3403 10.0694l.5208 6.0764c.3472 2.6042 2.6042 4.6875 5.2084 4.6875h7.4652c2.7778 0 4.8611-2.0833 5.2084-4.6875l.5208-5.9028c2.7778-2.6041 4.5139-6.25 4.5139-10.243zm-19.4445-15.7987c0-.868.8681-1.5625 1.7362-1.5625h7.6388c.8681 0 1.5625.6944 1.7362 1.5625l.3472 3.125c-1.9097-.6944-3.8195-1.2153-5.9028-1.2153s-3.9931.5209-5.7292 1.2153zm5.5556 5.382c-5.7292 0-10.4167 4.6875-10.4167 10.4167 0 5.7291 4.6875 10.4166 10.4167 10.4166 2.6042 0 5.0347-.868 6.7708-2.4305 2.257-1.9098 3.6459-4.8611 3.6459-7.9861 0-5.7292-4.6875-10.4167-10.4167-10.4167zm5.5555 26.2153c0 .8681-.868 1.5625-1.7361 1.5625h-7.6389c-.868 0-1.5625-.6944-1.7361-1.5625l-.3472-3.125c1.7361.8681 3.6458 1.2153 5.7292 1.2153 2.0833 0 3.993-.5208 5.7291-1.2153zm-7.2916-15.7987c0 .5208.1736.8681.5208 1.2153l2.6042 2.6042c.3472.3472.868.5208 1.2153.5208.3472 0 .868-.1736 1.2152-.5208.6945-.6945.6945-1.7362 0-2.4306l-2.0833-2.0833v-4.5139c0-1.0417-.6944-1.7361-1.7361-1.7361s-1.7361.6944-1.7361 1.7361z" fill-opacity=".95" fill-rule="evenodd"/></svg>