<svg enable-background="new 0 0 50 50" viewBox="0 0 50 50" xmlns="http://www.w3.org/2000/svg"><path clip-rule="evenodd" d="m45.0082 15.0043-.0244-.1133c-.5708-2.2804-2.3177-4.0813-4.5796-4.7213-1.3656-.3346-3.9345-.5317-7.5422-.6576-1.7214-.0601-3.5625-.0986-5.4031-.12-.6439-.0075-1.2419-.0123-1.7789-.015-.3229-.0016-.5543-.0021-.679-.0021-.1249 0-.3566.0006-.6798.0023-.5373.0029-1.1357.0082-1.7799.0164-1.8419.0234-3.6842.0657-5.407.1315-3.6194.1383-6.194.3547-7.5124.7073-2.286.6465-4.0329 2.4474-4.6037 4.7278-.5897 3.2484-.8663 6.4286-.8506 9.6142-.0201 3.19.2564 6.3944.8262 9.553.6676 2.3751 2.4042 4.0939 4.6184 4.6997 1.328.3552 3.9026.5716 7.522.7099 1.7228.0658 3.5651.1081 5.407.1315.6442.0082 1.2426.0135 1.7799.0164.3232.0018.5549.0024.6798.0024.125 0 .3566-.0006.6799-.0024.5372-.0029 1.1356-.0082 1.7799-.0164 1.8418-.0234 3.6842-.0657 5.407-.1315 3.6193-.1383 6.1939-.3547 7.5123-.7073 2.286-.6465 4.0329-2.4474 4.6037-4.7278.5854-3.2249.8619-6.3808.8505-9.5424.0203-3.1922-.2563-6.3967-.826-9.5553zm-12.2673-2.0221c3.3397.1165 5.7983.3052 6.7788.5446.9886.2808 1.8011 1.1069 2.0827 2.1568.5241 2.9276.7784 5.8972.7598 8.8714.0105 2.9679-.2476 5.9135-.7711 8.8175-.2444.9603-1.067 1.8083-2.1322 2.1097-.9428.252-3.3958.4581-6.7237.5853-1.6899.0646-3.5041.1061-5.3187.1292-.6355.0081-1.2254.0133-1.7546.0162-.3167.0018-.5421.0023-.6609.0023s-.3442-.0005-.6609-.0023c-.5291-.0029-1.1191-.0081-1.7546-.0162-1.8146-.0231-3.6287-.0646-5.3187-.1292-3.3279-.1272-5.7809-.3333-6.7478-.5919-1.033-.2827-1.8508-1.0921-2.1469-2.1317-.4929-2.7807-.7511-5.7715-.7323-8.7671-.0146-2.9926.2435-5.9608.7711-8.8868.2444-.9604 1.067-1.8084 2.1322-2.1098.9428-.2519 3.3958-.4581 6.7237-.5853 1.69-.0645 3.5041-.1061 5.3187-.1292.6355-.0081 1.2255-.0133 1.7546-.0162.3167-.0017.5421-.0023.6609-.0023.1191 0 .3448.0005.6617.0021.5295.0026 1.1199.0074 1.7558.0148 1.8158.0211 3.6311.0591 5.3224.1181zm-10.7879 18.7699c-1.1574.6582-2.5943-.1777-2.5943-1.5091v-11.3542c0-1.3314 1.4369-2.1673 2.5943-1.5091l9.9826 5.6771c1.1705.6656 1.1705 2.3526 0 3.0183zm.8779-9.8786 4.7346 2.6925-4.7346 2.6925z" fill-opacity=".95" fill-rule="evenodd"/></svg>