<svg enable-background="new 0 0 50 50" viewBox="0 0 50 50" xmlns="http://www.w3.org/2000/svg"><path clip-rule="evenodd" d="m44.0972 45.8333c.5209 0 .8681-.1736 1.2153-.5208.6945-.6945.6945-1.7361 0-2.4306l-38.1944-38.1944c-.6944-.6944-1.7361-.6944-2.4306 0-.6944.6944-.6944 1.7361 0 2.4306l10.9375 10.9374-7.6389 9.2014c-.3472.5208-.5208 1.2153-.1736 1.9097.3472.6945.8681 1.0417 1.5625 1.0417h13.7153l-1.5625 11.9792c0 .6944.3472 1.3889 1.0417 1.7361.1736.1736.5208.1736.6944.1736.5208 0 1.0417-.1736 1.3889-.5208l7.4653-9.0278 10.7639 10.7639c.3472.3472.6944.5208 1.2152.5208zm-22.743-31.7708c-.6945-.6944-.8681-1.7361-.1736-2.4306l4.1666-5.0347c.5209-.6944 1.3889-.8681 2.0834-.5208.6944.3472 1.0416 1.0417 1.0416 1.7361l-1.0416 8.3333c-.1736.8681-.8681 1.5625-1.7361 1.5625h-.1736c-.8681-.1736-1.5625-1.0416-1.5625-1.9097l.3472-2.4305-.3472.5208c-.6945.6944-1.7362.6944-2.6042.1736zm10.0694 9.2013h5.5556l-1.9097 2.257c-.6945.6944-.5209 1.9097.1736 2.4305.3472.3473.6944.3473 1.0416.3473.5209 0 1.0417-.1736 1.3889-.6945l4.1667-5.0347c.3472-.5208.5208-1.2153.1736-1.9097-.1736-.5209-.6944-.8681-1.3889-.8681h-9.2014c-1.0416 0-1.7361.6945-1.7361 1.7361 0 1.0417.6945 1.7361 1.7361 1.7361zm-7.118 3.4722-6.0764-6.0764-5.2083 6.0764zm2.4305 2.4306 2.7778 2.9514-3.6458 4.6875z" fill-opacity=".95" fill-rule="evenodd"/></svg>