<svg enable-background="new 0 0 50 50" viewBox="0 0 50 50" xmlns="http://www.w3.org/2000/svg"><path clip-rule="evenodd" d="m41.8403 39.4096-6.4236-6.4236c2.0833-2.6042 3.4722-6.0764 3.4722-9.7222 0-8.6806-6.9444-15.625-15.625-15.625s-15.625 6.9444-15.625 15.625c0 8.6805 6.9444 15.625 15.625 15.625 3.6458 0 7.1181-1.2153 9.7222-3.4722l6.4236 6.4236c.3473.3472.8681.5208 1.2153.5208s.8681-.1736 1.2153-.5208c.6944-.6945.6944-1.7361 0-2.4306zm-30.7292-16.1459c0-6.7708 5.382-12.1527 12.1528-12.1527s12.1528 5.3819 12.1528 12.1527c0 3.2987-1.3889 6.4237-3.4722 8.507-2.257 2.2569-5.2084 3.4722-8.507 3.4722-6.9444.1736-12.3264-5.2083-12.3264-11.9792zm17.3611 1.7362c1.0417 0 1.7362-.6945 1.7362-1.7362 0-1.0416-.6945-1.7361-1.7362-1.7361h-10.4166c-1.0417 0-1.7361.6945-1.7361 1.7361 0 1.0417.6944 1.7362 1.7361 1.7362z" fill-opacity=".95" fill-rule="evenodd"/></svg>