<svg enable-background="new 0 0 50 50" viewBox="0 0 50 50" xmlns="http://www.w3.org/2000/svg"><path clip-rule="evenodd" d="m7.6389 41.6666c.8681.5208 1.7361.6944 2.6042.6944h29.5139c1.3888 0 2.6041-.5208 3.4722-1.5625 1.0416-.868 1.5625-2.2569 1.5625-3.6458 0-.868-.1736-1.7361-.6945-2.6042l-14.5833-24.4791c-.8681-1.2153-1.9097-2.0834-3.2986-2.4306s-2.7778-.1736-3.9931.5208c-.6944.3472-1.3889 1.0417-1.7361 1.7361l-14.7569 24.6528c-1.3889 2.4306-.5209 5.7292 1.9097 7.1181zm1.2153-5.382 14.5833-24.4791c.1736-.3473.3472-.5209.6944-.6945.8681-.3472 1.9098-.1736 2.4306.6945l14.5833 24.4791c.1736.3472.1736.5209.1736.8681 0 .5208-.1736.868-.5208 1.2153-.3472.3472-.6944.5208-1.2153.5208h-29.3402c-.1737 0-.5209 0-.6945-.1736-.8681-.5209-1.2153-1.5625-.6944-2.4306zm17.8819-9.5486v-6.9444c0-1.0417-.6944-1.7361-1.7361-1.7361s-1.7361.6944-1.7361 1.7361v6.9444c0 1.0417.6944 1.7361 1.7361 1.7361s1.7361-.6944 1.7361-1.7361zm0 6.9445c0 .5208-.1736.868-.5208 1.2153-.3472.3472-.6945.5208-1.3889.5208-.5208 0-.8681-.1736-1.2153-.5208-.3472-.3473-.5208-.6945-.5208-1.2153 0-.2034.0596-.3472.1089-.4664.0349-.0842.0647-.1561.0647-.2281 0-.1736.1736-.3472.3472-.5208s.3472-.3472.5209-.3472c.3472-.1736.6944-.1736 1.0416-.1736.0999.0998.1423.1422.1933.1603.0377.0133.0802.0133.1539.0133.0869 0 .1303.0434.1737.0868s.0868.0868.1736.0868c.1736 0 .3472.1736.3472.1736.1736.1736.3472.3472.3472.5208.1736.1737.1736.5209.1736.6945z" fill-opacity=".95" fill-rule="evenodd"/></svg>