<svg enable-background="new 0 0 50 50" viewBox="0 0 50 50" xmlns="http://www.w3.org/2000/svg"><path clip-rule="evenodd" d="m37.1528 23.2639h5.2083c1.0417 0 1.7361.6945 1.7361 1.9098 0 10.5902-8.5069 19.0972-19.0972 19.0972s-19.0972-8.507-19.0972-19.0972c0-1.0417.6944-1.7361 1.7361-1.7361h5.2083c1.0417 0 1.7361.6944 1.7361 1.7361 0 1.0416-.6944 1.7361-1.7361 1.7361h-3.2986c.6944 7.118 6.4236 12.8472 13.7153 13.7152v-21.0069c-2.9514-.868-5.2084-3.4722-5.2084-6.7708 0-3.8195 3.125-6.9445 6.9445-6.9445 3.8194 0 6.9444 3.125 6.9444 6.9445 0 3.2986-2.2569 6.0764-5.2083 6.7708v20.8333c7.1181-.6944 12.8472-6.4236 13.7153-13.7152h-3.2986c-1.0417 0-1.7361-.6945-1.7361-1.7361 0-1.0417.6944-1.7362 1.7361-1.7362zm-12.1528-13.8889c-1.9097 0-3.4722 1.5625-3.4722 3.4723 0 1.9097 1.5625 3.4722 3.4722 3.4722s3.4722-1.5625 3.4722-3.4722c0-1.9098-1.5625-3.4723-3.4722-3.4723z" fill-opacity=".95" fill-rule="evenodd"/></svg>