<svg enable-background="new 0 0 24 24" viewBox="0 0 24 24" xmlns="http://www.w3.org/2000/svg"><path clip-rule="evenodd" d="m22 4.5c0-.4602-.3731-.8333-.8333-.8333h-18.3334c-.4602 0-.8333.3731-.8333.8333v4.1667c0 .4602.3731.8333.8333.8333h.8333v10c0 .4603.3731.8334.8333.8334h15c.4602 0 .8333-.3731.8333-.8334v-10h.8334c.4603 0 .8334-.3731.8334-.8333zm-3.3333 5h1.6666v-.8333c0-.4602-.3731-.8333-.8333-.8333h.8333v-2.5h-16.6666v2.5h.8333c-.4602 0-.8333.3731-.8333.8333v.8333h1.6667v9.1667h13.3334v-9.1667zm-13.3334 0h13.3334v-.8333c0-.4602.3731-.8333.8333-.8333h-15c.4602 0 .8333.3731.8333.8333zm8.3334 1.6667c.4602 0 .8333.3731.8333.8333 0 .4603-.3731.8334-.8333.8334h-3.3334c-.4602 0-.8333-.3731-.8333-.8334 0-.4602.3731-.8333.8333-.8333z" fill-opacity=".95" fill-rule="evenodd"/></svg>