<svg enable-background="new 0 0 50 50" viewBox="0 0 50 50" xmlns="http://www.w3.org/2000/svg"><path d="m25 11.1111.0336.0003c.0405.0008.081.003.1214.0066l-.155-.0069c.0879 0 .1742.0065.2586.0191.0295.0045.0598.0099.0899.016.0382.0077.0759.0167.113.0269.0272.0076.0539.0156.0804.0243.0341.0111.0685.0236.1023.0371.0308.0123.0608.0253.0906.0392.0358.0169.0713.0349.106.0542.021.0115.0422.0238.0632.0366.0444.0273.0876.0565.1293.0874.0129.0095.0255.0191.0379.0289.0046.0037.0096.0077.0147.0117l.1417.1271 12.1528 12.1528c.678.678.678 1.7772 0 2.4552s-1.7772.678-2.4552 0l-9.1891-9.1894v20.1146c0 .9588-.7773 1.7361-1.7361 1.7361s-1.7361-.7773-1.7361-1.7361v-20.1146l-9.1891 9.1894c-.678.678-1.7772.678-2.4552 0s-.678-1.7772 0-2.4552l12.1528-12.1528.1418-.1271c.005-.004.01-.008.0151-.012l-.1569.1391c.0614-.0615.1263-.1173.1941-.1677.042-.0309.0851-.0601.1296-.0872.0209-.013.0421-.0253.0635-.0372.0343-.0189.0698-.0369.1059-.0538.0295-.0139.0595-.0269.0898-.039.0343-.0137.0687-.0262.1035-.0376.0258-.0084.0526-.0164.0794-.0238.0374-.0104.0751-.0194.1132-.0272.0302-.006.0605-.0114.0908-.0159.033-.005.0671-.0091.1015-.0122.0423-.0037.0834-.0059.1244-.0066.0097-.0002.0208-.0003.0319-.0003z" fill-opacity=".95"/></svg>