<svg enable-background="new 0 0 50 50" viewBox="0 0 50 50" xmlns="http://www.w3.org/2000/svg"><path d="m33.6805 14.5834.0336.0003c.0405.0008.081.003.1214.0066l-.155-.0069c.0879 0 .1743.0065.2586.0191.0295.0045.0598.0099.0899.016.0382.0077.0759.0167.1131.0269.0271.0076.0538.0156.0803.0243.0342.0111.0685.0236.1023.0371.0308.0123.0609.0253.0906.0392.0359.0168.0713.0349.106.0542.021.0115.0422.0238.0632.0366.0444.0273.0876.0565.1293.0874.0129.0094.0255.019.038.0288.1096.0862.209.1856.2954.2957l-.1391-.1568c.0615.0614.1174.1263.1677.1941.031.0419.0601.0851.0873.1296.0129.0209.0252.0421.0371.0635.0189.0343.037.0697.0539.1058.0138.0296.0268.0596.0389.0899.0137.0343.0262.0686.0376.1035.0084.0258.0164.0525.0238.0794.0105.0374.0195.0751.0272.1132.006.0302.0114.0605.0159.0908.0053.0347.0095.0705.0127.1066.0027.0327.0045.0639.0055.0952.0006.0174.0009.0367.0009.056v17.3611c0 .9588-.7772 1.7361-1.7361 1.7361-.9588 0-1.7361-.7773-1.7361-1.7361v-13.1701l-14.3974 14.3977c-.678.678-1.7772.678-2.4552 0s-.678-1.7772 0-2.4552l14.3943-14.3974h-13.1667c-.9588 0-1.7361-.7773-1.7361-1.7361s.7773-1.7361 1.7361-1.7361z" fill-opacity=".95"/></svg>