<svg enable-background="new 0 0 50 50" viewBox="0 0 50 50" xmlns="http://www.w3.org/2000/svg"><path clip-rule="evenodd" d="m11.4583 11.4583c3.6459-3.6459 8.507-5.5556 13.5417-5.5556 10.5903 0 19.0972 8.507 19.0972 19.0972v1.7361c0 3.8195-3.125 6.9445-6.9444 6.9445-2.4306 0-4.5139-1.2153-5.7292-2.9514-1.5625 1.7361-3.8194 2.9514-6.4236 2.9514-4.8611 0-8.6806-3.8195-8.6806-8.6806s3.8195-8.6805 8.6806-8.6805 8.6805 3.8194 8.6805 8.6805v1.7361c0 1.9098 1.5626 3.4723 3.4723 3.4723s3.4722-1.5625 3.4722-3.4723v-1.7361c0-8.6805-6.9444-15.625-15.625-15.625-4.1667 0-8.1597 1.5625-11.1111 4.5139s-4.5139 6.9445-4.5139 11.1111c0 8.6806 6.9444 15.625 15.625 15.625 3.4722 0 6.7708-1.2152 9.5486-3.2986.6945-.5208 1.9097-.3472 2.4306.3472.5208.6945.3472 1.9098-.3473 2.4306-3.2986 2.6042-7.4652 3.9931-11.6319 3.9931-10.5903 0-19.0972-8.507-19.0972-19.0973 0-5.0347 1.9097-9.8958 5.5555-13.5416zm8.3334 13.5417c0 2.9513 2.2569 5.2083 5.2083 5.2083s5.2083-2.257 5.2083-5.2083c0-2.9514-2.2569-5.2084-5.2083-5.2084s-5.2083 2.257-5.2083 5.2084z" fill-opacity=".95" fill-rule="evenodd"/></svg>