<svg enable-background="new 0 0 50 50" viewBox="0 0 50 50" xmlns="http://www.w3.org/2000/svg"><path clip-rule="evenodd" d="m35.4167 9.375c-1.0417 0-1.7361.6944-1.7361 1.7361v27.7778c0 1.0417.6944 1.7361 1.7361 1.7361 1.0416 0 1.7361-.6944 1.7361-1.7361v-27.7778c0-1.0417-.6945-1.7361-1.7361-1.7361zm-10.4167 10.4167c1.0417 0 1.7361.6944 1.7361 1.7361v17.3611c0 1.0417-.6944 1.7361-1.7361 1.7361s-1.7361-.6944-1.7361-1.7361v-17.3611c0-1.0417.6944-1.7361 1.7361-1.7361zm-12.1528 12.1527c0-1.0416.6945-1.7361 1.7361-1.7361 1.0417 0 1.7362.6945 1.7362 1.7361v6.9445c0 1.0417-.6945 1.7361-1.7362 1.7361-1.0416 0-1.7361-.6944-1.7361-1.7361z" fill-opacity=".95" fill-rule="evenodd"/></svg>