<svg enable-background="new 0 0 50 50" viewBox="0 0 50 50" xmlns="http://www.w3.org/2000/svg"><path clip-rule="evenodd" d="m34.375 24.3056c1.7361-1.5625 2.7778-3.8195 2.7778-6.25 0-4.8612-3.8195-8.6806-8.6806-8.6806h-13.8889c-1.0416 0-1.7361.6944-1.7361 1.7361v13.8889 13.8889c0 1.0417.6945 1.7361 1.7361 1.7361h15.625c4.8612 0 8.6806-3.8194 8.6806-8.6806 0-3.2986-1.9097-6.0763-4.5139-7.6388zm-18.0555-11.4584h12.1527c2.9514 0 5.2084 2.257 5.2084 5.2084s-2.257 5.2083-5.2084 5.2083h-12.1527zm0 24.3056h13.8888c2.9514 0 5.2084-2.257 5.2084-5.2084s-2.257-5.2083-5.2084-5.2083h-1.7361-12.1527z" fill-opacity=".95" fill-rule="evenodd"/></svg>