<svg enable-background="new 0 0 50 50" viewBox="0 0 50 50" xmlns="http://www.w3.org/2000/svg"><path clip-rule="evenodd" d="m42.3611 7.6389h-10.4167c-2.7777 0-5.3819 1.3889-6.9444 3.4722-1.5625-2.0833-4.1667-3.4722-6.9445-3.4722h-10.4166c-1.0417 0-1.7361.6944-1.7361 1.7361v26.0417c0 1.0417.6944 1.7361 1.7361 1.7361h12.1528c1.9097 0 3.4722 1.5625 3.4722 3.4722 0 1.0417.6944 1.7361 1.7361 1.7361s1.7361-.6944 1.7361-1.7361c0-1.9097 1.5625-3.4722 3.4722-3.4722h12.1528c1.0417 0 1.7361-.6944 1.7361-1.7361v-26.0417c0-1.0416-.6944-1.7361-1.7361-1.7361zm-19.0972 26.9098c-1.0417-.5209-2.257-.8681-3.4722-.8681h-10.4167v-22.5694h8.6805c2.9514 0 5.2084 2.2569 5.2084 5.2083zm6.9444-.8681h10.4167v-22.5694h-8.6806c-2.9514 0-5.2083 2.2569-5.2083 5.2083v18.2292c1.0417-.5209 2.2569-.8681 3.4722-.8681z" fill-opacity=".95" fill-rule="evenodd"/></svg>