<svg enable-background="new 0 0 50 50" viewBox="0 0 50 50" xmlns="http://www.w3.org/2000/svg"><path clip-rule="evenodd" d="m38.8889 5.9027h-23.4375c-3.2986 0-6.0764 2.7778-6.0764 6.0764v26.0417c0 3.2986 2.7778 6.0764 6.0764 6.0764h23.4375c1.0417 0 1.7361-.6945 1.7361-1.7362v-34.7222c0-1.0417-.6944-1.7361-1.7361-1.7361zm-23.4375 3.4723h21.7014v22.5695h-21.7014c-.8681 0-1.7361.1736-2.6042.6944v-20.6598c0-1.3889 1.2153-2.6041 2.6042-2.6041zm-2.6042 28.6458c0 1.3889 1.2153 2.6042 2.6042 2.6042h21.7014v-5.2084h-21.7014c-1.3889 0-2.6042 1.2153-2.6042 2.6042z" fill-opacity=".95" fill-rule="evenodd"/></svg>