<svg enable-background="new 0 0 50 50" viewBox="0 0 50 50" xmlns="http://www.w3.org/2000/svg"><path clip-rule="evenodd" d="m15.7986 13.368 26.0417 26.0417 3.4722 3.4722c.6945.6945.6945 1.7361 0 2.4306-.3472.3472-.868.5208-1.2153.5208-.3472 0-.868-.1736-1.2152-.5208l-2.9514-2.9514h-30.5556c-2.9514 0-5.2083-2.257-5.2083-5.2084v-19.0972c0-2.9514 2.2569-5.2083 5.2083-5.2083h1.0417l-5.7292-5.7292c-.6944-.6944-.6944-1.7361 0-2.4306.6944-.6944 1.7361-.6944 2.4306 0zm5.2084 10.0695-.3473.3472c-.6944 1.2153-1.0416 2.6041-.868 3.993.3472 1.3889 1.0416 2.4306 2.2569 3.2986 1.0417.8681 2.4306 1.2153 3.8195.8681.868-.1736 1.7361-.6944 2.4305-1.2153zm-11.632 15.4513c-1.0417 0-1.7361-.6944-1.7361-1.7361v-19.0972c0-1.0417.6944-1.7361 1.7361-1.7361h4.5139l4.6875 4.6875c-.3472.3472-.5208.5208-.6944.868-1.3889 1.9098-1.7362 4.1667-1.3889 6.4236.3472 2.257 1.7361 4.3403 3.6458 5.5556 1.3889 1.0417 3.125 1.5625 4.8611 1.5625.5208 0 1.0417 0 1.5625-.1736 1.5625-.3472 2.9514-1.0417 4.1667-2.0833l5.7291 5.7291zm36.4583-4.6874v-16.1459c0-2.9514-2.2569-5.2083-5.2083-5.2083h-6.0764l-2.9514-4.5139c-.3472-.3472-.868-.6944-1.3889-.6944h-10.4166c-1.0417 0-1.7361.6944-1.7361 1.7361 0 1.0416.6944 1.7361 1.7361 1.7361h9.5486l2.9514 4.5139c.3472.3472.868.6944 1.3889.6944h6.9444c1.0417 0 1.7361.6945 1.7361 1.7361v16.1459c0 1.0416.6945 1.7361 1.7361 1.7361 1.0417 0 1.7361-.6945 1.7361-1.7361z" fill-opacity=".95" fill-rule="evenodd"/></svg>