<svg enable-background="new 0 0 50 50" viewBox="0 0 50 50" xmlns="http://www.w3.org/2000/svg"><path clip-rule="evenodd" d="m34.5486 12.8472h6.0764c2.9514 0 5.2084 2.257 5.2084 5.2084v19.0972c0 2.9514-2.257 5.2083-5.2084 5.2083h-31.25c-2.9514 0-5.2083-2.2569-5.2083-5.2083v-19.0972c0-2.9514 2.2569-5.2084 5.2083-5.2084h6.0764l2.9514-4.5138c.3472-.3472.8681-.6944 1.3889-.6944h10.4167c.5208 0 1.0416.3472 1.3888.6944zm6.0764 26.0417c1.0417 0 1.7361-.6944 1.7361-1.7361v-19.0972c0-1.0417-.6944-1.7361-1.7361-1.7361h-6.9444c-.5209 0-1.0417-.3472-1.5625-.6944l-2.9514-4.5139h-8.507l-2.9514 4.5139c-.3472.3472-.868.6944-1.3888.6944h-6.9445c-1.0417 0-1.7361.6944-1.7361 1.7361v19.0972c0 1.0417.6944 1.7361 1.7361 1.7361zm-15.625-20.8333c-4.8611 0-8.6805 3.8194-8.6805 8.6805s3.8194 8.6806 8.6805 8.6806 8.6806-3.8195 8.6806-8.6806-3.8195-8.6805-8.6806-8.6805zm-5.2083 8.6806c0 2.9513 2.2569 5.2083 5.2083 5.2083s5.2084-2.257 5.2084-5.2083c0-2.9514-2.257-5.2084-5.2084-5.2084s-5.2083 2.257-5.2083 5.2084z" fill-opacity=".95" fill-rule="evenodd"/></svg>