<svg enable-background="new 0 0 50 50" viewBox="0 0 50 50" xmlns="http://www.w3.org/2000/svg"><path clip-rule="evenodd" d="m25 25.0001c-.3472 0-.868-.1736-1.2153-.5209l-8.6805-8.6805c-.6945-.6945-.6945-1.7361 0-2.4306.6944-.6944 1.7361-.6944 2.4305 0l7.4653 7.4653 7.4653-7.4653c.6944-.6944 1.7361-.6944 2.4305 0 .6945.6945.6945 1.7361 0 2.4306l-8.6805 8.6805c-.3472.3473-.8681.5209-1.2153.5209zm9.8958 2.9513c.6945-.6944.6945-1.7361 0-2.4305-.6944-.6945-1.7361-.6945-2.4305 0l-7.4653 7.4653-7.4653-7.4653c-.6944-.6945-1.7361-.6945-2.4305 0-.6945.6944-.6945 1.7361 0 2.4305l8.6805 8.6806c.3473.3472.6945.5208 1.2153.5208s.8681-.1736 1.2153-.5208z" fill-opacity=".95" fill-rule="evenodd"/></svg>