<svg enable-background="new 0 0 50 50" viewBox="0 0 50 50" xmlns="http://www.w3.org/2000/svg"><path clip-rule="evenodd" d="m24.4792 34.8959c.6944-.6945.6944-1.7361 0-2.4306l-7.4653-7.4653 7.4653-7.4652c.6944-.6945.6944-1.7361 0-2.4306-.6945-.6944-1.7361-.6944-2.4306 0l-8.6805 8.6806c-.6945.6944-.6945 1.7361 0 2.4305l8.6805 8.6806c.3472.3472.6945.5208 1.2153.5208s.868-.1736 1.2153-.5208zm12.1528-17.3611-7.4653 7.4652 7.4653 7.4653c.6944.6945.6944 1.7361 0 2.4306-.3473.3472-.8681.5208-1.2153.5208s-.8681-.1736-1.2153-.5208l-8.6805-8.6806c-.6945-.6944-.6945-1.7361 0-2.4305l8.6805-8.6806c.6945-.6944 1.7361-.6944 2.4306 0 .6944.6945.6944 1.7361 0 2.4306z" fill-opacity=".95" fill-rule="evenodd"/></svg>