<svg enable-background="new 0 0 50 50" viewBox="0 0 50 50" xmlns="http://www.w3.org/2000/svg"><path clip-rule="evenodd" d="m35.4167 9.3749h-1.7361c0-1.9097-1.5625-3.4722-3.4723-3.4722h-10.4166c-1.9098 0-3.4723 1.5625-3.4723 3.4722h-1.7361c-2.9514 0-5.2083 2.257-5.2083 5.2084v24.3055c0 2.9514 2.2569 5.2084 5.2083 5.2084h20.8334c2.9514 0 5.2083-2.257 5.2083-5.2084v-24.3055c0-2.9514-2.2569-5.2084-5.2083-5.2084zm-15.625.0001h10.4166v3.4722h-10.4166v-1.7361zm15.625 31.2499c1.0416 0 1.7361-.6944 1.7361-1.7361v-24.3056c0-1.0416-.6945-1.7361-1.7361-1.7361h-1.7361c0 1.9098-1.5625 3.4723-3.4723 3.4723h-10.4166c-1.9098 0-3.4723-1.5625-3.4723-3.4723h-1.7361c-1.0416 0-1.7361.6945-1.7361 1.7361v24.3056c0 1.0417.6945 1.7361 1.7361 1.7361z" fill-opacity=".95" fill-rule="evenodd"/></svg>