<svg enable-background="new 0 0 50 50" viewBox="0 0 50 50" xmlns="http://www.w3.org/2000/svg"><path clip-rule="evenodd" d="m45.3153 42.8819c.6907.6945.6907 1.7361 0 2.4306-.3454.3472-.6908.5208-1.2089.5208-.518 0-.8634-.1736-1.2088-.5208l-5.0081-5.0348c-.126.0254-.2483.0507-.368.0755-.7007.1451-1.3122.2718-2.0497.2718h-15.5424-.1726c-5.6989 0-10.8797-3.125-13.6428-7.9861-2.0723-3.6459-2.4177-7.8126-1.3815-11.8056 1.0362-3.4722 2.9358-6.25 5.5262-8.3333l-5.3535-5.382c-.6908-.6944-.6908-1.7361 0-2.4306.6908-.6944 1.7269-.6944 2.4177 0zm-25.9039-31.9445c0-.868.8634-1.7361 1.8996-1.5625 6.0442.5208 11.225 4.6875 13.2973 10.4167h.8635c1.3815 0 2.7631.3472 3.9719.8681 5.1808 2.2569 7.7712 8.3333 5.5262 13.7152-.1727.5209-.8635 1.0417-1.5543 1.0417-.1727 0-.518 0-.6907-.1736-.8635-.3472-1.2089-1.3889-.8635-2.2569 1.5542-3.4723-.1727-7.6389-3.6265-9.0278-.8635-.3472-1.727-.5209-2.7631-.5209h-2.245c-.8635 0-1.5543-.5208-1.727-1.3888-1.2088-5.0348-5.3534-8.6806-10.5342-9.2014-.8635-.1736-1.7269-.8681-1.5542-1.9098zm-6.5624 4.1667 21.932 22.0486h-14.8516c-4.49.1736-8.6346-2.2569-10.7069-6.25-1.5542-2.7777-1.8996-6.0764-1.0361-9.2014.6907-2.7777 2.4176-5.0347 4.6626-6.5972z" fill-opacity=".95" fill-rule="evenodd"/></svg>