<svg enable-background="new 0 0 50 50" viewBox="0 0 50 50" xmlns="http://www.w3.org/2000/svg"><path clip-rule="evenodd" d="m37.1843 35.1956h.3458c5.5328-1.2207 9.1637-6.8011 8.1263-12.2071-1.0374-4.8829-5.3599-8.3707-10.2011-8.3707h-1.0374c-2.5935-7.4987-10.7198-12.0327-18.5003-9.9401-3.9767 1.0463-7.4347 3.4878-9.5095 7.1499-2.2477 3.4878-2.7664 7.8475-1.729 11.8584 1.2103 4.1853 3.8038 7.6731 7.6076 9.7657.8645.5232 1.9019.1744 2.4206-.6975.5187-.872.1729-1.9183-.6916-2.2671-2.9393-1.7438-5.0141-4.3597-5.8786-7.673-.8645-3.3134-.3458-6.4524 1.3832-9.417 1.5561-2.7902 4.1496-4.7085 7.2618-5.5804 6.3973-1.7439 12.9675 2.267 14.6965 8.7194.1729.8719.8645 1.3951 1.729 1.3951h2.2477c3.2851 0 6.0515 2.267 6.7431 5.5804.8645 3.6622-1.5561 7.4987-5.3599 8.1963-1.0374.1743-1.5561 1.2207-1.3832 2.0926.1729.872.8645 1.3951 1.729 1.3951zm-14.0049-3.3134h7.0889c.6916 0 1.0374.5232 1.3832 1.0463.3458.5232.3458 1.2208 0 1.7439l-6.916 10.4633c-.3458.3488-.8645.6976-1.3832.6976-.3458 0-.6916-.1744-1.0374-.3488-.8645-.5232-1.0374-1.5695-.5187-2.4414l5.187-7.6731h-7.0889c-.6916 0-1.2103-.3488-1.3832-.872-.3458-.5231-.3458-1.2207 0-1.7438l6.916-10.4633c.5187-.872 1.5561-1.0464 2.4206-.5232s1.0374 1.5695.5187 2.4414z" fill-opacity=".95" fill-rule="evenodd"/></svg>