<svg enable-background="new 0 0 50 50" viewBox="0 0 50 50" xmlns="http://www.w3.org/2000/svg"><path clip-rule="evenodd" d="m16.8403 13.3681c.6944-.6945 1.7361-.6945 2.4305 0 .6945.6944.6945 1.7361 0 2.4305l-9.2014 9.2014 9.2014 9.2014c.6945.6944.6945 1.7361 0 2.4305-.3472.3473-.6944.5209-1.2153.5209-.5208 0-.868-.1736-1.2152-.5209l-10.4167-10.4166c-.6944-.6945-.6944-1.7361 0-2.4306zm16.3194 23.2638 10.4167-10.4166c.6944-.6945.6944-1.7361 0-2.4306l-10.4167-10.4166c-.6944-.6945-1.7361-.6945-2.4305 0-.6945.6944-.6945 1.7361 0 2.4305l9.2014 9.2014-9.2014 9.2014c-.6945.6944-.6945 1.7361 0 2.4305.3472.3473.6944.5209 1.2152.5209.5209 0 .8681-.1736 1.2153-.5209z" fill-opacity=".95" fill-rule="evenodd"/></svg>