<svg enable-background="new 0 0 50 50" viewBox="0 0 50 50" xmlns="http://www.w3.org/2000/svg"><path clip-rule="evenodd" d="m31.9444 28.4722h3.4723c3.8194 0 6.9444 3.125 6.9444 6.9445 0 3.8194-3.125 6.9444-6.9444 6.9444-3.8195 0-6.9445-3.125-6.9445-6.9444v-3.4722h-6.9444v3.4722c0 3.8194-3.125 6.9444-6.9445 6.9444-3.8194 0-6.9444-3.125-6.9444-6.9444 0-3.8195 3.125-6.9445 6.9444-6.9445h3.4723v-6.9444h-3.4723c-3.8194 0-6.9444-3.125-6.9444-6.9444 0-3.8195 3.125-6.9445 6.9444-6.9445 3.8195 0 6.9445 3.125 6.9445 6.9445v3.4722h6.9444v-3.4722c0-3.8195 3.125-6.9445 6.9445-6.9445 3.8194 0 6.9444 3.125 6.9444 6.9445 0 3.8194-3.125 6.9444-6.9444 6.9444h-3.4723zm3.4723-17.361c-1.9097 0-3.4722 1.5625-3.4722 3.4722v3.4722h3.4722c1.9097 0 3.4722-1.5625 3.4722-3.4722s-1.5625-3.4722-3.4722-3.4722zm-17.3611 24.3055c0 1.9097-1.5625 3.4722-3.4723 3.4722-1.9097 0-3.4722-1.5625-3.4722-3.4722s1.5625-3.4722 3.4722-3.4722h3.4723zm-3.4723-17.3611h3.4723v-3.4722c0-1.9097-1.5625-3.4722-3.4723-3.4722-1.9097 0-3.4722 1.5625-3.4722 3.4722s1.5625 3.4722 3.4722 3.4722zm13.8889 10.4167h-6.9444v-6.9445h6.9444zm3.4723 6.9444c0 1.9097 1.5625 3.4722 3.4722 3.4722s3.4722-1.5625 3.4722-3.4722-1.5625-3.4722-3.4722-3.4722h-3.4722z" fill-opacity=".95" fill-rule="evenodd"/></svg>