<svg enable-background="new 0 0 50 50" viewBox="0 0 50 50" xmlns="http://www.w3.org/2000/svg"><path d="m40.1042 31.4236-8.6806 8.6806c-.1736.1736-.3472.3472-.5208.3472-.1736.1736-.5209.1736-.6945.1736s-.5208 0-.6944-.1736-.3472-.1736-.5208-.3472l-8.6806-8.6806c-.6944-.6944-.6944-1.7361 0-2.4305.6944-.6945 1.7361-.6945 2.4306 0l5.7291 5.7291v-16.6666c0-2.9514-2.2569-5.2084-5.2083-5.2084h-12.1528c-1.0417 0-1.7361-.6944-1.7361-1.7361s.6944-1.7361 1.7361-1.7361h12.1528c4.8611 0 8.6805 3.8194 8.6805 8.6806v16.6666l5.7292-5.7291c.6945-.6945 1.7361-.6945 2.4306 0 .6944.6944.6944 1.7361 0 2.4305z" fill-opacity=".95"/></svg>