<svg enable-background="new 0 0 50 50" viewBox="0 0 50 50" xmlns="http://www.w3.org/2000/svg"><path d="m40.625 11.1111v12.1528c0 4.8611-3.8248 8.6805-8.6926 8.6805h-16.6899l5.7372 5.7292c.6954.6945.6954 1.7361 0 2.4306-.3477.3472-.6955.5208-1.217.5208-.5216 0-.8693-.1736-1.217-.5208l-8.6926-8.6806c-.1739-.1736-.3477-.3472-.3477-.5208-.1739-.3472-.1739-.8681 0-1.3889.1739-.1736.1739-.3472.3477-.5208l8.6926-8.6806c.6954-.6944 1.7385-.6944 2.434 0 .6954.6944.6954 1.7361 0 2.4306l-5.7372 5.7291h16.6899c2.9555 0 5.2155-2.2569 5.2155-5.2083v-12.1528c0-1.0417.6955-1.7361 1.7386-1.7361s1.7385.6944 1.7385 1.7361z" fill-opacity=".95"/></svg>