<svg enable-background="new 0 0 50 50" viewBox="0 0 50 50" xmlns="http://www.w3.org/2000/svg"><path clip-rule="evenodd" d="m37.1528 33.6806h6.9444c1.0417 0 1.7361.6944 1.7361 1.7361s-.6944 1.7361-1.7361 1.7361h-6.9444v6.9444c0 1.0417-.6945 1.7362-1.7361 1.7362-1.0417 0-1.7361-.6945-1.7361-1.7362v-6.9444h-15.625c-2.9514 0-5.2084-2.2569-5.2084-5.2083l.1736-15.4514h-7.118c-.8681 0-1.7361-.8681-1.7361-1.7361 0-.8681.6945-1.7361 1.7361-1.7361h7.118v-7.1181c0-1.0417.8681-1.7361 1.7362-1.7361 1.0416 0 1.7361.6944 1.7361 1.7361v7.1181l15.4514-.1737c2.9513 0 5.2083 2.257 5.2083 5.2084zm-20.8333-1.7362c0 1.0417.6944 1.7362 1.7361 1.7362h15.625v-15.625c0-1.0417-.6945-1.7362-1.7361-1.7362l-15.4514.1737z" fill-opacity=".95" fill-rule="evenodd"/></svg>