<svg enable-background="new 0 0 50 50" viewBox="0 0 50 50" xmlns="http://www.w3.org/2000/svg"><path clip-rule="evenodd" d="m7.6389 12.8472c0-4.6875 9.0277-6.9444 17.3611-6.9444 8.3333 0 17.3611 2.257 17.3611 6.9444v24.3056c0 4.6875-9.0278 6.9444-17.3611 6.9444-8.3334 0-17.3611-2.2569-17.3611-6.9444zm17.3611 15.625c9.5486 0 13.8888-2.6041 13.8888-3.4722v-7.8125c-3.2986 1.7361-8.6805 2.6042-13.8888 2.6042-5.2084 0-10.5903-.8681-13.8889-2.6042v7.8125c0 .8681 4.3402 3.4722 13.8889 3.4722zm0-19.0972c9.0277 0 13.8888 2.6042 13.8888 3.4722 0 .8681-4.8611 3.4723-13.8888 3.4723-9.0278 0-13.8889-2.6042-13.8889-3.4723 0-.868 4.8611-3.4722 13.8889-3.4722zm-13.8889 27.7778c0 .868 4.3402 3.4722 13.8889 3.4722 9.5486 0 13.8888-2.6042 13.8888-3.4722v-7.8125c-3.2986 1.7361-8.6805 2.6041-13.8888 2.6041-5.2084 0-10.5903-.868-13.8889-2.6041z" fill-opacity=".95" fill-rule="evenodd"/></svg>