<svg enable-background="new 0 0 50 50" viewBox="0 0 50 50" xmlns="http://www.w3.org/2000/svg"><path clip-rule="evenodd" d="m5.9028 25c0-10.5903 8.5069-19.0972 19.0972-19.0972s19.0972 8.5069 19.0972 19.0972-8.5069 19.0972-19.0972 19.0972-19.0972-8.5069-19.0972-19.0972zm3.4722 0c0 8.6806 6.9444 15.625 15.625 15.625 8.6805 0 15.625-6.9444 15.625-15.625 0-8.6805-6.9445-15.625-15.625-15.625-8.6806 0-15.625 6.9445-15.625 15.625zm15.625-6.9445c-3.8194 0-6.9444 3.125-6.9444 6.9445 0 3.8194 3.125 6.9444 6.9444 6.9444s6.9444-3.125 6.9444-6.9444c0-3.8195-3.125-6.9445-6.9444-6.9445zm-3.4722 6.9445c0 1.9097 1.5625 3.4722 3.4722 3.4722s3.4722-1.5625 3.4722-3.4722-1.5625-3.4722-3.4722-3.4722-3.4722 1.5625-3.4722 3.4722z" fill-opacity=".95" fill-rule="evenodd"/></svg>