<svg enable-background="new 0 0 50 50" viewBox="0 0 50 50" xmlns="http://www.w3.org/2000/svg"><path clip-rule="evenodd" d="m24.3056 33.5069c-.1736 0-.3473-.1736-.5209-.3472l-6.9444-6.9444c-.6945-.6945-.6945-1.7361 0-2.4306.6944-.6944 1.7361-.6944 2.4305 0l3.9931 3.9931v-20.1389c0-1.0417.6944-1.7361 1.7361-1.7361s1.7361.6944 1.7361 1.7361v20.1389l3.9931-3.9931c.6944-.6944 1.7361-.6944 2.4305 0 .6945.6945.6945 1.7361 0 2.4306l-6.9444 6.9444c-.0868.0868-.1736.1302-.2604.1736s-.1736.0868-.2604.1736c-.1737.1737-.5209.1736-.6945.1736s-.5208.0001-.6944-.1736zm18.0555 5.382v-5.2084c0-1.0416-.6944-1.7361-1.7361-1.7361s-1.7361.6945-1.7361 1.7361v5.2084c0 1.0416-.6945 1.7361-1.7361 1.7361h-24.3056c-1.0416 0-1.7361-.6945-1.7361-1.7361v-5.2084c0-1.0416-.6944-1.7361-1.7361-1.7361s-1.7361.6945-1.7361 1.7361v5.2084c0 2.9514 2.2569 5.2083 5.2083 5.2083h24.3056c2.9514 0 5.2083-2.2569 5.2083-5.2083z" fill-opacity=".95" fill-rule="evenodd"/></svg>