<svg fill="none" height="80" viewBox="0 0 80 80" width="80" xmlns="http://www.w3.org/2000/svg"><path clip-rule="evenodd" d="m40 68.5c-15.7 0-28.5-12.8-28.5-28.5s12.8-28.5 28.5-28.5 28.5 12.8 28.5 28.5-12.8 28.5-28.5 28.5zm0-53.3c-13.7 0-24.8 11.1-24.8 24.8s11.1 24.8 24.8 24.8 24.8-11.1 24.8-24.8-11.1-24.8-24.8-24.8zm-.3 37.3c-.5 0-.9-.1-1.3-.6-.4-.4-.6-.7-.6-1.3 0-.1 0-.3.1-.4.1-.2.1-.3.2-.6.1-.1.2-.2.3-.3.3-.3.7-.6 1.2-.6.2 0 .5.1.8.2l.2.1c.1.1.3.2.7.3 0 0 .1.1.1.2.1.2.2.4.4.6v.5s-.1.2-.1.3c-.1.2-.2.5-.2.7-.1.1-.2.2-.3.3-.3.4-.6.6-1.5.6zm.3-10.7c-1.2 0-1.8-.7-1.8-1.8v-10.7c0-1.2.7-1.8 1.8-1.8s1.8.7 1.8 1.8v10.7c0 1.1-.7 1.8-1.8 1.8z" fill="#000" fill-opacity=".95" fill-rule="evenodd"/></svg>