<svg enable-background="new 0 0 50 50" viewBox="0 0 50 50" xmlns="http://www.w3.org/2000/svg"><path clip-rule="evenodd" d="m40.4514 9.4144c-4.6875-4.6822-12.5-4.6822-17.1875 0l-11.632 11.7922c-.3472.3468-.5208.6936-.5208 1.2139v14.0465l-4.6875 4.6822c-.6944.6936-.6944 1.7341 0 2.4278.3472.3468.6944.5202 1.2153.5202.5208 0 .8681-.1734 1.2153-.5202l4.6875-4.6822h14.0625c.5208 0 .868-.1734 1.2152-.5202l11.632-11.7922c4.8611-4.6822 4.8611-12.3124 0-17.168zm-13.5417 26.0121h-9.8958l3.4722-3.4683h9.8958zm6.9445-6.9365 4.1666-4.3354c3.4723-3.2949 3.4723-8.8441.1736-12.3124-3.4722-3.4683-8.8541-3.4683-12.3263 0l-11.2848 11.2719v9.8846l3.9931-3.9885 12.1528-12.139c.6944-.6936 1.7361-.6936 2.4305 0 .6945.6937.6945 1.7342 0 2.4278l-9.2014 9.191h9.7223z" fill-opacity=".95" fill-rule="evenodd"/></svg>