<svg enable-background="new 0 0 50 50" viewBox="0 0 50 50" xmlns="http://www.w3.org/2000/svg"><path clip-rule="evenodd" d="m37.6736 8.1597c.5208-.5208 1.2153-.6945 1.9097-.3472.6945.3472 1.0417.8681 1.0417 1.5625v20.8333c0 .5209-.1736.8681-.5208 1.2153-.3473.3472-2.6042 2.2569-8.1598 2.2569-2.7192 0-4.9963-.8842-7.1029-1.7022-.1798-.0698-.3584-.1392-.5359-.2075-.3996-.1332-.7928-.2727-1.1833-.4113-1.6454-.5842-3.2427-1.1512-5.0667-1.1512-2.7778 0-4.5139.5209-5.2084.8681v11.2847c0 1.0417-.6944 1.7361-1.7361 1.7361s-1.7361-.6944-1.7361-1.7361v-12.1528-20.8333c0-.5208.1736-.8681.5208-1.2153.3473-.3472 2.6042-2.257 8.1598-2.257 2.9513 0 5.3819.8681 7.6388 1.9097.3996.1332.7928.2728 1.1832.4114 1.6455.5841 3.2428 1.1511 5.0668 1.1511 4.1667.0001 5.7292-1.2152 5.7292-1.2152zm-5.7292 22.0487c2.7778 0 4.5139-.5209 5.2084-.8681v-17.1875c-1.2153.3472-2.9514.6944-5.2084.6944-2.9513 0-5.3819-.868-7.6388-1.9097-.3996-.1332-.7928-.2727-1.1832-.4114-1.6455-.5841-3.2428-1.1511-5.0668-1.1511-2.7778 0-4.5139.5208-5.2084.8681v17.1875c1.2153-.3472 2.9514-.6945 5.2084-.6945 2.9513 0 5.3819.8681 7.6388 1.9097.3996.1332.7928.2728 1.1833.4114 1.6454.5841 3.2427 1.1512 5.0667 1.1512z" fill-opacity=".95" fill-rule="evenodd"/></svg>