<svg enable-background="new 0 0 24 24" viewBox="0 0 24 24" xmlns="http://www.w3.org/2000/svg"><path clip-rule="evenodd" d="m5.614 7c.4681.9854 1.4725 1.6666 2.636 1.6666h-3.75v2.5h.832c-.4596.0007-.832.3736-.832.8334v.8333h-.8333c-.4602 0-.8333-.3731-.8333-.8333v-4.1667c-.0001-.4602.373-.8333.8333-.8333zm.5527 5.8333h-1.6667v7.5c0 .4603.3731.8333.8333.8333h6.6649c-.4594-.0009-.8315-.3737-.8315-.8333v-.8333h1.6666v.8333c0 .4596-.3721.8324-.8315.8333h6.6649c.4602 0 .8333-.373.8333-.8333v-7.5h.8333c.4603 0 .8334-.3731.8334-.8333v-4.1667c0-.4602-.3731-.8333-.8334-.8333h-1.9473c.18-.3789.2807-.8027.2807-1.25 0-1.6108-1.3059-2.9167-2.9167-2.9167-1.6341 0-2.8512.9737-3.6989 2.5151-.0173.0313-.0343.0628-.0511.0944-.0168-.0316-.0338-.063-.0511-.0944-.8477-1.5414-2.0649-2.5151-3.6989-2.5151-1.6108 0-2.9167 1.3058-2.9167 2.9167 0 .4473.1007.8711.2807 1.25h2.636c-.6904 0-1.25-.5597-1.25-1.25s.5596-1.25 1.25-1.25c.918 0 1.654.5888 2.2386 1.6516.1487.2704.2785.5567.3899.8484h.4811c-.0861.2786-.1423.5027-.1727.6502-.0066.029-.0116.0587-.015.0888-.0045.0397-.0063.079-.0052.1178v.8099 2.5h-5.8321c.4597.0006.8321.3735.8321.8333zm5 0v6.6667h-5v-6.6667zm1.6666 0v6.6667h5v-6.6667h1.6667v-.8333c0-.4598-.3724-.8327-.8321-.8334h.8321v-2.5h-3.75c1.1635 0 2.1679-.6813 2.636-1.6667h-2.636c.6904.0001 1.25-.5596 1.25-1.2499s-.5596-1.25-1.25-1.25c-.918 0-1.654.5888-2.2386 1.6516-.1487.2704-.2786.5567-.39.8484h-.4811l-.0216-.0693c-.1596-.5038-.3634-1.0081-.6187-1.4879-.2553.4798-.4592.9842-.6187 1.4879l-.0217.0693h.6404c-.3973 0-.7297.278-.8131.6502l-.0041.0197c-.0046.0231-.0082.0461-.0109.069-.0034.031-.0052.0625-.0052.0944v.0234c.0115.4393.3717.8099.8333.8099.4615 0 .8218-.3706.8333-.8099v.8099 2.5h-1.6666v1.6667zm0 0v-1.6667h5.8321c-.4597.0007-.8321.3736-.8321.8334v.8333zm-.0053-5.0944c.0046.0397.0063.079.0053.1178v-.0234c0-.0319-.0018-.0634-.0053-.0944zm-.0149-.0888c.0065.0291.0115.0587.0149.0888-.0026-.0229-.0062-.0459-.0109-.069zm0 0c-.0304-.1475-.0866-.3715-.1728-.6501h-.6403c.3973 0 .7297.278.8131.6501z" fill-opacity=".95" fill-rule="evenodd"/></svg>