<svg enable-background="new 0 0 50 50" viewBox="0 0 50 50" xmlns="http://www.w3.org/2000/svg"><path clip-rule="evenodd" d="m14.5833 7.6389c-3.8194 0-6.9444 3.125-6.9444 6.9445 0 3.2986 2.2569 5.9027 5.2084 6.7708v19.2708c0 1.0417.6944 1.7361 1.7361 1.7361s1.7361-.6944 1.7361-1.7361v-19.2708c2.9514-.6945 5.2083-3.4722 5.2083-6.7708-.0001-3.8195-3.1251-6.9445-6.9445-6.9445zm22.5695 10.4167v10.5903c2.9513.868 5.2083 3.4722 5.2083 6.7708 0 3.8194-3.125 6.9444-6.9445 6.9444-3.8194 0-6.9444-3.125-6.9444-6.9444 0-3.2986 2.2569-6.0764 5.2083-6.7708v-10.5903c0-1.0417-.6944-1.7361-1.7361-1.7361h-5.2083c-1.0417 0-1.7361-.6945-1.7361-1.7361 0-1.0417.6944-1.7362 1.7361-1.7362h5.2083c2.9514 0 5.2084 2.257 5.2084 5.2084zm-5.2084 17.3611c0 1.9097 1.5625 3.4722 3.4722 3.4722s3.4722-1.5625 3.4722-3.4722-1.5625-3.4722-3.4722-3.4722-3.4722 1.5625-3.4722 3.4722zm-20.8333-20.8333c0 1.9097 1.5625 3.4722 3.4722 3.4722s3.4722-1.5625 3.4722-3.4722-1.5625-3.4722-3.4722-3.4722-3.4722 1.5625-3.4722 3.4722z" fill-opacity=".95" fill-rule="evenodd"/></svg>