<svg enable-background="new 0 0 50 50" viewBox="0 0 50 50" xmlns="http://www.w3.org/2000/svg"><path clip-rule="evenodd" d="m35.4166 28.4722c-3.125 0-5.9027 2.257-6.5972 5.2084-6.4236-.6945-11.6319-5.9028-12.3264-12.3264 2.9514-.8681 5.2084-3.4723 5.2084-6.5973 0-3.8194-3.125-6.9444-6.9445-6.9444-3.8194 0-7.118 2.9514-7.118 6.7708 0 3.2986 2.2569 5.9028 5.2084 6.7709v19.2708c0 1.0417.6944 1.7361 1.7361 1.7361s1.7361-.6944 1.7361-1.7361v-10.4167c2.9514 3.8195 7.2917 6.4236 12.3264 6.9445.6944 2.9514 3.4722 5.3819 6.7708 5.3819 3.8195 0 6.9445-3.125 6.9445-6.9444-.0001-3.8195-3.1251-7.1181-6.9446-7.1181zm-24.3055-13.8888c0-1.9097 1.5625-3.4722 3.4722-3.4722s3.4722 1.5625 3.4722 3.4722-1.5625 3.4722-3.4722 3.4722-3.4722-1.5625-3.4722-3.4722zm20.8333 20.8333c0 1.9097 1.5625 3.4722 3.4722 3.4722s3.4722-1.5625 3.4722-3.4722-1.5625-3.4722-3.4722-3.4722-3.4722 1.5625-3.4722 3.4722z" fill-opacity=".95" fill-rule="evenodd"/></svg>