<svg enable-background="new 0 0 50 50" viewBox="0 0 50 50" xmlns="http://www.w3.org/2000/svg"><path d="m33.8187 34.2335c.3545 1.0388.5317 2.2507.5317 3.2895v6.5791c0 1.0388-.7089 1.7313-1.7722 1.7313s-1.7721-.6925-1.7721-1.7313v-6.7522c.1772-1.3851-.3544-2.4238-1.2405-3.2895-.5317-.5194-.7089-1.2119-.3544-1.7313.1772-.6926.886-1.0388 1.4177-1.212 5.1392-.5193 9.924-2.2507 9.924-10.3879 0-1.9044-.7088-3.8089-2.1266-5.3671-.5316-.5194-.5316-1.2119-.3544-1.7313.5317-1.3851.5316-2.7701.1772-4.1552-.8861.1731-2.3038.6925-4.6076 2.2507-.3544.3463-.886.3463-1.4177.1732-3.7215-1.0388-7.7975-1.0388-11.519 0-.5316.1731-1.0633.1731-1.5949-.1732-2.1266-1.5582-3.7215-2.0775-4.6076-2.2507-.3544 1.3851-.3544 2.7701.1772 4.1552.1772.6925.1772 1.385-.3544 1.7313-1.4177 1.5582-2.1266 3.4627-2.1266 5.3671 0 8.1372 4.7848 9.8686 9.9241 10.3879.7088 0 1.2405.5194 1.4177 1.212.1772.6925 0 1.385-.3545 1.7313-.886.8657-1.2405 1.9044-1.2405 3.1164v1.5582.1731 5.0208c0 1.0388-.7088 1.7314-1.7721 1.7314s-1.7722-.6926-1.7722-1.7314v-2.9432c-5.3164.8656-7.6202-2.0776-9.2151-3.9821-.7089-.8656-1.2405-1.5581-1.9494-1.7313-.8861-.1731-1.5949-1.2119-1.2405-2.0776.1772-.8656 1.2405-1.5582 2.1266-1.2119 1.7722.5194 2.8354 1.7313 3.8987 2.9433 1.4177 1.9044 2.6582 3.2895 6.3797 2.5969v-.1731c0-1.0388.1772-2.2507.5317-3.1164-4.962-1.0388-10.2785-4.1551-10.2785-13.3312 0-2.5969.8861-5.0208 2.481-6.9252-.7088-2.4239-.5316-4.6746.5317-6.9253.1772-.5194.5316-.8657 1.0633-1.0388.7088-.1731 3.0126-.5194 7.7974 2.4239 3.8987-.8657 7.9747-.8657 11.6962 0 4.6076-2.9432 7.0886-2.597 7.7975-2.4239.5316.1731.886.5194 1.0633 1.0388.886 2.2507 1.0633 4.5014.5316 6.7521 1.5949 1.9045 2.481 4.3283 2.481 6.9253 0 9.8685-6.0253 12.6387-10.2785 13.5043z" fill-opacity=".95"/></svg>