<svg enable-background="new 0 0 50 50" viewBox="0 0 50 50" xmlns="http://www.w3.org/2000/svg"><path clip-rule="evenodd" d="m37.8597 8.2916 6.1667 18.6667c.5 1.3333 0 2.8333-1.1667 3.5l-17.6666 12.8333h-.0001c-.3333.1667-.6666.3334-.9999.3334-.3334 0-.6667-.1667-1-.3334l-17.6667-12.8333c-1.1667-.8333-1.6667-2.1667-1.1667-3.5l6.1667-18.6667c.1667-.5.3333-.8333.6667-1 .8333-.8333 2.3333-.8333 3.1666 0 .3334.3333.5.6667.6667 1l3.6667 11.3334h11l3.6666-11.3334c.1667-.5.3334-.8333.6667-1 .8333-.8333 2.3333-.8333 3.1667 0 .3333.3334.5.6667.6666 1zm-30.3333 19.6667 16.6667 12 16.6666-12.1667-2-6-3.1666-9.6666-3.1667 9.6666c-.3333.6667-1 1.1667-1.6667 1.1667h-13.3333c-.8333 0-1.5-.5-1.6667-1.1667l-3.1666-9.6666z" fill-opacity=".95" fill-rule="evenodd"/></svg>