<svg width="50" height="50" viewBox="0 0 50 50" fill="none" xmlns="http://www.w3.org/2000/svg">
<g clip-path="url(#clip0_228_5029)">
<path d="M45.3015 24.9394L39.5009 18.4064C39.3483 18.2508 39.043 18.2508 38.8395 18.4064L32.7336 24.9394C32.4283 25.2505 32.6319 25.7171 33.0389 25.7171H36.4989C35.7356 31.5761 30.7492 36.1389 24.7451 36.1389C18.1814 36.1389 12.8388 30.6947 12.8388 24.0061V19.236C12.8388 18.6656 13.2967 18.2508 13.8055 18.2508H32.2248C32.3774 18.2508 32.4792 18.199 32.581 18.0953L36.2445 14.5177C36.6006 14.1548 36.3462 13.6363 35.9392 13.6363H9.9385C8.81909 13.6363 7.9541 14.5177 7.9541 15.6584V23.8506C7.9541 33.2353 15.4846 40.9608 24.7451 40.9608C33.3442 40.9608 40.4677 34.2723 41.4344 25.769H44.9962C45.4032 25.7171 45.5559 25.2505 45.3015 24.9394Z" fill="#21BF25"/>
</g>
<defs>
<clipPath id="clip0_228_5029">
<rect width="37.5" height="27.2727" fill="white" transform="translate(7.9541 13.6363)"/>
</clipPath>
</defs>
</svg>
