<svg enable-background="new 0 0 50 50" viewBox="0 0 50 50" xmlns="http://www.w3.org/2000/svg"><path clip-rule="evenodd" d="m33.5027 7.6389c2.8436 0 5.5199 1.2032 7.5272 3.266 2.1745 2.0627 3.3454 4.9849 3.0109 7.907 0 2.9222-1.1709 5.8444-3.1782 7.9071l-14.7199 15.1264c-.3346.3438-.6691.5157-1.1709.5157s-.8364-.1719-1.1709-.5157l-14.7199-15.1265c-2.0073-2.0627-3.1782-4.9849-3.1782-7.9071 0-2.9221 1.1709-5.8443 3.3454-7.907 4.1818-4.2973 11.04-4.2973 15.2218 0l.6691.6876.669-.6876c2.0073-2.0627 4.8509-3.2659 7.6946-3.2659zm-8.3636 30.5967 13.549-13.9232c1.5054-1.5471 2.3418-3.4379 2.3418-5.5006s-.8364-3.9535-2.1745-5.5005c-1.5055-1.3752-3.3455-2.2346-5.3527-2.2346-2.1746 0-4.0146.8594-5.52 2.2346l-1.6727 1.8908c-.6691.6876-1.6728.6876-2.3418 0l-1.84-1.8908c-1.5055-1.5471-3.3455-2.2346-5.3527-2.2346-1.84 0-3.8473.6875-5.1855 2.2346-1.3381 1.547-2.1745 3.4378-2.1745 5.5005s.6691 3.9535 2.1745 5.5006z" fill-opacity=".95" fill-rule="evenodd"/></svg>