<svg enable-background="new 0 0 50 50" viewBox="0 0 50 50" xmlns="http://www.w3.org/2000/svg"><path clip-rule="evenodd" d="m5.9028 25c0-10.5902 8.5069-19.0972 19.0972-19.0972s19.0972 8.507 19.0972 19.0972c0 10.5903-8.5069 19.0973-19.0972 19.0973s-19.0972-8.507-19.0972-19.0973zm3.4722 0c0 8.6805 6.9444 15.625 15.625 15.625s15.625-6.9445 15.625-15.625c0-8.6806-6.9444-15.625-15.625-15.625s-15.625 6.9444-15.625 15.625zm17.3611.0001v6.9444c0 1.0417-.6944 1.7361-1.7361 1.7361s-1.7361-.6944-1.7361-1.7361v-6.9444c0-1.0417.6944-1.7361 1.7361-1.7361s1.7361.6944 1.7361 1.7361zm0-6.9445c0-.5208-.1736-.8681-.5208-1.2153-.3473-.3472-1.0417-.5208-1.5625-.5208-.0999.0998-.1423.1422-.1933.1603-.0378.0133-.0802.0133-.154.0133-.0868 0-.1302.0434-.1736.0868s-.0868.0868-.1736.0868l-.1736.1736c-.3472.3472-.5208.6945-.5208 1.2153s.1736.8681.5208 1.2153c0 0 0 .1736.1736.1736.0868 0 .1302.0434.1736.0868s.0868.0868.1736.0868c.0999.0998.1423.1423.1933.1603.0378.0133.0802.0133.154.0133h.3472c.5208 0 .868-.1736 1.2153-.5208.3472-.3472.5208-.6945.5208-1.2153z" fill-opacity=".95" fill-rule="evenodd"/></svg>