<svg width="104" height="80" viewBox="0 0 104 80" fill="none" xmlns="http://www.w3.org/2000/svg">
<defs>
<linearGradient id="paint0_linear_10474_108892" x1="69.6412" y1="44.444" x2="98.1729" y2="44.444" gradientUnits="userSpaceOnUse">
<stop stop-color="#007940"/>
<stop offset="0.2285" stop-color="#00873F"/>
<stop offset="0.7433" stop-color="#40A737"/>
<stop offset="1" stop-color="#5CB531"/>
</linearGradient>
<linearGradient id="paint1_linear_10474_108892" x1="69.6398" y1="40.0313" x2="98.1478" y2="40.0313" gradientUnits="userSpaceOnUse">
<stop stop-color="#007940"/>
<stop offset="0.2285" stop-color="#00873F"/>
<stop offset="0.7433" stop-color="#40A737"/>
<stop offset="1" stop-color="#5CB531"/>
</linearGradient>
<linearGradient id="paint2_linear_10474_108892" x1="69.6405" y1="35.1741" x2="98.1734" y2="35.1741" gradientUnits="userSpaceOnUse">
<stop stop-color="#007940"/>
<stop offset="0.2285" stop-color="#00873F"/>
<stop offset="0.7433" stop-color="#40A737"/>
<stop offset="1" stop-color="#5CB531"/>
</linearGradient>
<linearGradient id="paint3_linear_10474_108892" x1="5.76466" y1="39.9996" x2="34.7381" y2="39.9996" gradientUnits="userSpaceOnUse">
<stop stop-color="#1F286F"/>
<stop offset="0.4751" stop-color="#004E94"/>
<stop offset="0.8261" stop-color="#0066B1"/>
<stop offset="1" stop-color="#006FBC"/>
</linearGradient>
<linearGradient id="paint4_linear_10474_108892" x1="37.5505" y1="40.0631" x2="65.6904" y2="40.0631" gradientUnits="userSpaceOnUse">
<stop stop-color="#6C2C2F"/>
<stop offset="0.1735" stop-color="#882730"/>
<stop offset="0.5731" stop-color="#BE1833"/>
<stop offset="0.8585" stop-color="#DC0436"/>
<stop offset="1" stop-color="#E60039"/>
</linearGradient>
<clipPath id="clip0_10474_108892">
<rect width="103.873" height="80" fill="white"/>
</clipPath>
</defs>
<g clip-path="url(#clip0_10474_108892)">
<path d="M103.873 63.873C103.867 68.1483 102.166 72.2468 99.1429 75.2698C96.1198 78.2929 92.0213 79.994 87.746 80H0V16.127C0.00603976 11.8517 1.70707 7.75324 4.73016 4.73015C7.75324 1.70707 11.8517 0.00603883 16.127 0L103.873 0V63.873Z" fill="white"/>
<path d="M75.3027 47.4921H81.9694C82.1599 47.4921 82.6043 47.4286 82.7948 47.4286C83.4729 47.2831 84.0787 46.9052 84.5077 46.3603C84.9367 45.8154 85.1617 45.1378 85.144 44.4445C85.142 43.7562 84.9095 43.0884 84.4837 42.5475C84.058 42.0067 83.4634 41.624 82.7948 41.4604C82.5234 41.4052 82.2461 41.3839 81.9694 41.3969H75.3027V47.4921Z" fill="url(#paint0_linear_10474_108892)"/>
<path d="M81.2069 5.39685C78.1423 5.39718 75.2033 6.61475 73.0363 8.78176C70.8693 10.9488 69.6517 13.8878 69.6514 16.9524V28.9524H85.9689C86.3509 28.9401 86.7334 28.9613 87.1117 29.0159C90.7943 29.2064 93.5244 31.1111 93.5244 34.4127C93.5244 37.0159 91.6832 39.2381 88.2546 39.6826V39.8096C92.0006 40.0635 94.8578 42.1588 94.8578 45.3969C94.8578 48.8889 91.6831 51.1746 87.4927 51.1746H69.5879V74.6667H86.5403C89.6049 74.6664 92.5439 73.4488 94.7109 71.2818C96.8779 69.1148 98.0955 66.1758 98.0958 63.1111V5.39685H81.2069V5.39685Z" fill="url(#paint1_linear_10474_108892)"/>
<path d="M84.3186 35.1746C84.3314 34.5103 84.0989 33.8645 83.6655 33.3608C83.2321 32.8572 82.6282 32.5309 81.9694 32.4445C81.8424 32.4445 81.525 32.381 81.3345 32.381H75.3027V37.9683H81.3345C81.5482 37.9858 81.7634 37.9643 81.9694 37.9048C82.6282 37.8183 83.2321 37.4921 83.6655 36.9884C84.0989 36.4847 84.3314 35.839 84.3186 35.1746Z" fill="url(#paint2_linear_10474_108892)"/>
<path d="M17.3339 5.39685C14.2693 5.39719 11.3303 6.61475 9.16326 8.78177C6.99625 10.9488 5.77869 13.8878 5.77835 16.9524V45.4604C9.01645 47.0477 12.3815 48.0635 15.7466 48.0635C19.7466 48.0635 21.9053 45.6508 21.9053 42.3492V28.8889H31.8101V42.2858C31.8101 47.4921 28.572 51.7461 17.5879 51.7461C13.5852 51.7487 9.59754 51.2582 5.71484 50.2858V74.6032H22.6672C25.7319 74.6029 28.6709 73.3853 30.8379 71.2183C33.0049 69.0513 34.2225 66.1123 34.2228 63.0477V5.39685L17.3339 5.39685Z" fill="url(#paint3_linear_10474_108892)"/>
<path d="M49.2704 5.39685C46.2058 5.39719 43.2668 6.61475 41.0998 8.78176C38.9327 10.9488 37.7152 13.8878 37.7148 16.9524V32.0635C40.6355 29.5873 45.7148 28 53.9053 28.381C56.9673 28.5753 60.0059 29.0428 62.9847 29.7778V34.6667C60.2738 33.2167 57.2889 32.3515 54.2228 32.127C48.0006 31.6826 44.2545 34.7302 44.2545 40.0635C44.2545 45.4604 48.0006 48.508 54.2228 48.0001C57.8418 47.7461 60.6355 46.6032 62.9847 45.4604V50.3493C60.0072 51.0909 56.9681 51.5584 53.9053 51.7461C45.7148 52.127 40.6355 50.5397 37.7148 48.0635V74.7302H54.6672C57.7319 74.7299 60.6709 73.5123 62.8379 71.3453C65.0049 69.1783 66.2225 66.2393 66.2228 63.1746V5.39685L49.2704 5.39685Z" fill="url(#paint4_linear_10474_108892)"/>
</g>
</svg>
