<svg enable-background="new 0 0 50 50" viewBox="0 0 50 50" xmlns="http://www.w3.org/2000/svg"><path clip-rule="evenodd" d="m12.8472 7.6389h24.3056c2.9514 0 5.2083 2.2569 5.2083 5.2084v24.3055c0 2.9514-2.2569 5.2084-5.2083 5.2084h-24.3056c-2.9514 0-5.2083-2.257-5.2083-5.2084v-24.3056c0-2.9514 2.2569-5.2083 5.2083-5.2083zm24.3056 3.4721h-24.3056c-1.0417 0-1.7361.6945-1.7361 1.7361v5.2084h27.7778v-5.2084c0-1.0416-.6945-1.7361-1.7361-1.7361zm-26.0417 26.0417v-15.625h6.9444v17.3611h-5.2083c-1.0417 0-1.7361-.6944-1.7361-1.7361zm10.4167 1.7361h15.625c1.0416 0 1.7361-.6944 1.7361-1.7361v-15.625h-17.3611z" fill-opacity=".95" fill-rule="evenodd"/></svg>