<svg enable-background="new 0 0 50 50" viewBox="0 0 50 50" xmlns="http://www.w3.org/2000/svg"><path clip-rule="evenodd" d="m11.1111 7.6388c-2.9514 0-5.2083 2.2569-5.2083 5.2084 0 2.9514 2.257 5.2083 5.2083 5.2083 2.9514 0 5.2083-2.2569 5.2083-5.2083s-2.2569-5.2084-5.2083-5.2084zm8.6806 22.5695c0-6.7708 5.3819-12.1528 12.1527-12.1528 6.7709 0 12.1528 5.382 12.1528 12.1528v12.1528c0 1.0416-.6944 1.7361-1.7361 1.7361h-6.9444c-1.0417 0-1.7361-.6945-1.7361-1.7361v-12.1528c0-1.0417-.6945-1.7361-1.7362-1.7361-1.0416 0-1.7361.6944-1.7361 1.7361v12.1528c0 1.0416-.6944 1.7361-1.7361 1.7361h-6.9444c-1.0417 0-1.7361-.6945-1.7361-1.7361zm17.3611 10.4166h3.4722v-10.4167c0-4.8611-3.8195-8.6805-8.6806-8.6805s-8.6805 3.8194-8.6805 8.6805v10.4167h3.4722v-10.4167c0-2.9514 2.2569-5.2083 5.2083-5.2083s5.2084 2.2569 5.2084 5.2083zm-29.5139-20.8332c-1.0417 0-1.7361.6944-1.7361 1.7361v20.8333c0 1.0417.6944 1.7361 1.7361 1.7361h6.9444c1.0417 0 1.7361-.6944 1.7361-1.7361v-20.8333c0-1.0417-.6944-1.7361-1.7361-1.7361zm1.7361 3.4721v17.3611h3.4722v-17.3611zm0-10.4167c0 1.0417.6944 1.7361 1.7361 1.7361s1.7361-.6944 1.7361-1.7361c0-1.0416-.6944-1.7361-1.7361-1.7361s-1.7361.6945-1.7361 1.7361z" fill-opacity=".95" fill-rule="evenodd"/></svg>