<svg enable-background="new 0 0 50 50" viewBox="0 0 50 50" xmlns="http://www.w3.org/2000/svg"><path clip-rule="evenodd" d="m37.1528 21.5278h-1.7361v-5.2083c0-5.7292-4.6875-10.4167-10.4167-10.4167s-10.4167 4.6875-10.4167 10.4167v5.2083h-1.7361c-2.9514 0-5.2083 2.257-5.2083 5.2084v12.1527c0 2.9514 2.257 5.2084 5.2083 5.2084h24.3056c2.9514 0 5.2083-2.257 5.2083-5.2084v-12.1527c0-2.9514-2.2569-5.2084-5.2083-5.2084zm-19.0972-5.2084c0-3.8194 3.125-6.9444 6.9444-6.9444 3.8195 0 6.9445 3.125 6.9445 6.9444v5.2084h-13.8889zm19.0972 24.3056c1.0417 0 1.7361-.6944 1.7361-1.7361v-12.1528c0-1.0417-.6944-1.7361-1.7361-1.7361h-24.3056c-1.0416 0-1.7361.6944-1.7361 1.7361v12.1528c0 1.0417.6945 1.7361 1.7361 1.7361z" fill-opacity=".95" fill-rule="evenodd"/></svg>