<svg enable-background="new 0 0 50 50" viewBox="0 0 50 50" xmlns="http://www.w3.org/2000/svg"><path clip-rule="evenodd" d="m21.5452 44.0973c1.0429 0 1.7383-.6945 1.7383-1.7361 0-1.0417-.6954-1.7362-1.7383-1.7362h-8.6915c-1.0429 0-1.7382-.6944-1.7382-1.7361v-27.7777c0-1.0417.6953-1.7362 1.7382-1.7362h8.6915c1.0429 0 1.7383-.6944 1.7383-1.7361s-.6954-1.7361-1.7383-1.7361h-8.6915c-2.955 0-5.2148 2.2569-5.2148 5.2084v27.7777c0 2.9514 2.2598 5.2084 5.2148 5.2084zm20.6855-19.7917c.1739.5208.1739 1.0417 0 1.3889 0 .1736-.1738.3472-.3476.5208l-6.9532 6.9445c-.3476.3472-.8691.5208-1.2167.5208-.3477 0-.8692-.1736-1.2168-.5208-.6954-.6945-.6954-1.7361 0-2.4306l3.998-3.993h-16.6875c-1.043 0-1.7383-.6945-1.7383-1.7362 0-1.0416.6953-1.7361 1.7383-1.7361h16.6875l-3.998-3.993c-.6954-.6945-.6954-1.7361 0-2.4306.6953-.6944 1.7382-.6944 2.4335 0l6.9532 6.9445c.0869.0868.1304.1736.1738.2604.0435.0868.0869.1736.1738.2604z" fill-opacity=".95" fill-rule="evenodd"/></svg>