<svg enable-background="new 0 0 50 50" viewBox="0 0 50 50" xmlns="http://www.w3.org/2000/svg"><path clip-rule="evenodd" d="m7.6389 21.5278c0-9.5486 7.8125-17.3611 17.3611-17.3611s17.3611 7.8125 17.3611 17.3611c0 12.8472-15.7986 23.6111-16.3194 23.9583-.3473.1736-.6945.3472-1.0417.3472s-.6944-.1736-1.0417-.3472c-.5208-.3472-16.3194-11.1111-16.3194-23.9583zm3.4722-.0001c0 9.375 10.5903 18.0556 13.8889 20.4861 3.2986-2.4305 13.8889-11.1111 13.8889-20.4861 0-7.6389-6.25-13.8889-13.8889-13.8889s-13.8889 6.25-13.8889 13.8889zm13.8889-6.9444c-3.8194 0-6.9444 3.125-6.9444 6.9445 0 3.8194 3.125 6.9444 6.9444 6.9444s6.9444-3.125 6.9444-6.9444c0-3.8195-3.125-6.9445-6.9444-6.9445zm-3.4722 6.9444c0 1.9098 1.5625 3.4723 3.4722 3.4723s3.4722-1.5625 3.4722-3.4723c0-1.9097-1.5625-3.4722-3.4722-3.4722s-3.4722 1.5625-3.4722 3.4722z" fill-opacity=".95" fill-rule="evenodd"/></svg>