<svg enable-background="new 0 0 50 50" viewBox="0 0 50 50" xmlns="http://www.w3.org/2000/svg"><path clip-rule="evenodd" d="m43.2292 6.1621c.5208-.3456 1.2152-.3456 1.7361 0 .5208.3457.868.8641.868 1.5554v27.6521c0 .6913-.3472 1.2098-.868 1.5554l-12.1528 6.913h-.1736-.1736c-.1736.1729-.3473.1729-.5209.1729-.3472 0-.5208 0-.868-.1729l-13.0209-6.5673-11.2847 6.5673c-.5208.3457-1.2153.3457-1.7361 0-.5208-.3456-.8681-.8641-.8681-1.5554v-27.6521c0-.6913.3472-1.2098.6944-1.5554l12.1528-6.913h.1736.1736c.3472-.1728.5208-.1728.6944-.1728.1737 0 .3473 0 .5209.1728h.1737l13.1944 6.5673zm-13.0209 9.5054-10.4166-5.1848v23.85l10.4166 5.1847zm-22.5694-.0001 8.6805-5.0119v23.6771l-8.6805 5.0119zm26.0416 23.6771 8.6806-5.0119v-23.6771l-8.6806 5.0119z" fill-opacity=".95" fill-rule="evenodd"/></svg>