<svg enable-background="new 0 0 50 50" viewBox="0 0 50 50" xmlns="http://www.w3.org/2000/svg"><path clip-rule="evenodd" d="m42.3611 19.7916v-10.4166c0-.1736 0-.5208-.1736-.6945-.1737-.3472-.5209-.6944-.8681-.868-.1736-.1736-.5208-.1736-.6944-.1736h-10.4167c-1.0417 0-1.7361.6944-1.7361 1.7361 0 1.0416.6944 1.7361 1.7361 1.7361h6.25l-9.2014 9.2014c-.6944.6944-.6944 1.7361 0 2.4305.3472.3472.6944.5208 1.2153.5208.5208 0 .868-.1736 1.2153-.5208l9.2013-9.2014v6.25c0 1.0417.6945 1.7361 1.7362 1.7361 1.0416 0 1.7361-.6944 1.7361-1.7361zm-31.25 16.6666 9.2014-9.2013c.6944-.6945 1.7361-.6945 2.4305 0 .6945.6944.6945 1.7361 0 2.4305l-9.2014 9.2014h6.25c1.0417 0 1.7361.6944 1.7361 1.7361s-.6944 1.7361-1.7361 1.7361h-10.4166c-.1736 0-.5208 0-.6945-.1736-.3472-.1736-.6944-.5208-.8681-.868-.1736-.1737-.1736-.5209-.1736-.6945v-10.4167c0-1.0416.6944-1.7361 1.7361-1.7361 1.0416 0 1.7361.6945 1.7361 1.7361v6.25z" fill-opacity=".95" fill-rule="evenodd"/></svg>