<svg viewBox="0 0 50 50" xmlns="http://www.w3.org/2000/svg"><path d="m18.20628 20.45406a6.79377 6.79377 0 1 1 6.79372 6.76679 6.71439 6.71439 0 0 1 -6.79372-6.76679zm19.0224 15.02594v2.70668a1.35873 1.35873 0 0 1 -2.71744 0v-2.70668a3.99562 3.99562 0 0 0 -4.07624-4.06008h-10.87a3.99562 3.99562 0 0 0 -4.07624 4.06008v2.70668a1.28113 1.28113 0 0 1 -1.35876 1.35337 1.28114 1.28114 0 0 1 -1.35872-1.35334v-2.70671a6.71446 6.71446 0 0 1 6.79372-6.76676h10.87a6.71441 6.71441 0 0 1 6.79368 6.76676zm-12.22868-10.96592a4.06005 4.06005 0 1 1 4.07624-4.06 3.99549 3.99549 0 0 1 -4.07624 4.06z" fill-opacity=".95" fill-rule="evenodd"/><circle cx="25" cy="25" fill="none" r="17.85725" stroke="#000" stroke-miterlimit="10" stroke-width="2.79286"/></svg>