<svg viewBox="0 0 50 50" xmlns="http://www.w3.org/2000/svg"><path d="m16.52839 22.15521a4.3122 4.3122 0 0 1 4.3122-4.3122h8.45854a4.3122 4.3122 0 0 1 4.3122 4.3122" fill="none" stroke="#000" stroke-linecap="round" stroke-miterlimit="10" stroke-width="2.23266"/><g fill-opacity=".95" fill-rule="evenodd"><path d="m9.9004 30.11376a4.99652 4.99652 0 1 1 4.99645 4.97668 4.93814 4.93814 0 0 1 -4.99645-4.97668zm13.99014 11.05094v1.99065a.99929.99929 0 0 1 -1.99856 0v-1.99065a2.9386 2.9386 0 0 0 -2.9979-2.986h-7.9944a2.9386 2.9386 0 0 0 -2.9979 2.986v1.99065a.94222.94222 0 0 1 -.99928.99532.94222.94222 0 0 1 -.99928-.99532v-1.99065a4.93819 4.93819 0 0 1 4.99646-4.9767h7.9944a4.93816 4.93816 0 0 1 4.99646 4.9767zm-8.99369-8.065a2.986 2.986 0 1 1 2.9979-2.986 2.93851 2.93851 0 0 1 -2.9979 2.98603z"/><path d="m30.10664 30.11376a4.99652 4.99652 0 1 1 4.99645 4.97668 4.93814 4.93814 0 0 1 -4.99645-4.97668zm13.99014 11.05094v1.99065a.99929.99929 0 0 1 -1.99856 0v-1.99065a2.9386 2.9386 0 0 0 -2.9979-2.986h-7.9944a2.9386 2.9386 0 0 0 -2.9979 2.986v1.99065a.99929.99929 0 0 1 -1.99856 0v-1.99065a4.93819 4.93819 0 0 1 4.99646-4.9767h7.9944a4.93816 4.93816 0 0 1 4.99646 4.9767zm-8.99369-8.065a2.986 2.986 0 1 1 2.9979-2.986 2.93851 2.93851 0 0 1 -2.9979 2.98603z"/><path d="m20.01428 10.926a4.99652 4.99652 0 1 1 4.99646 4.97667 4.93815 4.93815 0 0 1 -4.99646-4.97667zm4.99646 2.986a2.986 2.986 0 1 1 2.99789-2.986 2.93851 2.93851 0 0 1 -2.99789 2.986z"/></g></svg>