<svg enable-background="new 0 0 50 50" viewBox="0 0 50 50" xmlns="http://www.w3.org/2000/svg"><path clip-rule="evenodd" d="m35.0694 32.5207 10.2431 10.2006c.6945.6916.6945 1.7289 0 2.5934-.3472.3457-.8681.5186-1.2153.5186s-.868-.1729-1.2152-.5186l-9.3751-9.3361c-1.9097 1.556-4.3402 2.4204-6.7708 2.7662v3.4578h5.2083c1.0417 0 1.7362.6916 1.7362 1.7289 0 1.0374-.6945 1.7289-1.7362 1.7289h-13.8888c-1.0417 0-1.7362-.6915-1.7362-1.7289 0-1.0373.6945-1.7289 1.7362-1.7289h5.2083v-3.4578c-2.9514-.3458-5.7292-1.556-7.9861-3.8036-2.6042-2.5933-4.1667-6.224-4.1667-10.0276v-3.4579c0-1.0373.6945-1.7289 1.7361-1.7289 1.0417 0 1.7361.6916 1.7361 1.7289v3.4579c0 2.7662 1.0417 5.5325 3.125 7.4343 1.9098 1.9018 4.3403 2.9391 6.9445 2.9391h.3472.3472c2.0834 0 3.9931-.6916 5.7292-1.9018l-2.6042-2.5934c-1.0416.6916-2.2569 1.0374-3.4722 1.0374-1.9097 0-3.6458-.6916-4.8611-2.0747-1.3889-1.2102-2.0833-2.9391-2.0833-4.8409v-4.4952l-13.3681-13.3126c-.6944-.6916-.6944-1.7289 0-2.4205s1.7361-.6916 2.4306 0l13.8888 13.8313 13.7153 13.4855.1736.1729c0 .0864.0434.1296.0868.1729.0434.0432.0868.0864.0868.1728zm-12.5-5.1867c.6945.6916 1.5625 1.0374 2.4306 1.0374.3472 0 .5208 0 .868-.1729l-4.3402-4.3223v1.0373c0 .8645.3472 1.729 1.0416 2.4205zm-4.3402-17.6348c.6944-3.285 3.4722-5.5325 6.7708-5.5325 1.9097 0 3.6458.6916 4.8611 2.0747 1.3889 1.2102 2.0833 2.9391 2.0833 4.841v9.1632c0 1.0373-.6944 1.7289-1.7361 1.7289-1.0416 0-1.7361-.6916-1.7361-1.7289v-9.1632c0-.8645-.3472-1.7289-1.0416-2.4205-.6945-.6916-1.5625-1.0374-2.4306-1.0374-1.5625 0-3.125 1.2102-3.4722 2.7662-.1736.8645-1.0417 1.556-1.9097 1.3832-1.0417-.1729-1.5625-1.2103-1.3889-2.0747zm17.1875 15.2143c0 .6916 0 1.2103-.1736 1.9018-.1737.8645.5208 1.729 1.3888 1.9018h.3473c.868 0 1.5625-.5186 1.7361-1.3831.1736-.8644.1736-1.556.1736-2.4204v-.0001-3.4578c0-1.0373-.6945-1.7289-1.7361-1.7289-1.0417 0-1.7361.6916-1.7361 1.7289z" fill-opacity=".95" fill-rule="evenodd"/></svg>