<svg enable-background="new 0 0 50 50" viewBox="0 0 50 50" xmlns="http://www.w3.org/2000/svg"><path clip-rule="evenodd" d="m25 31.9444c3.8195 0 6.9445-3.125 6.9445-6.9444v-13.8889c0-3.8194-3.125-6.9444-6.9445-6.9444-3.8194 0-6.9444 3.125-6.9444 6.9444v13.8889c0 3.8194 3.125 6.9444 6.9444 6.9444zm-3.4722-20.8333c0-1.9098 1.5625-3.4723 3.4722-3.4723s3.4722 1.5625 3.4722 3.4723v13.8889c0 1.9097-1.5625 3.4722-3.4722 3.4722s-3.4722-1.5625-3.4722-3.4722zm17.3611 13.8889v-3.4722c0-1.0417-.6944-1.7361-1.7361-1.7361s-1.7361.6944-1.7361 1.7361v3.4722c0 5.7292-4.6875 10.4167-10.4167 10.4167s-10.4167-4.6875-10.4167-10.4167v-3.4722c0-1.0417-.6944-1.7361-1.7361-1.7361-1.0416 0-1.7361.6944-1.7361 1.7361v3.4722c0 6.9444 5.382 12.8472 12.1528 13.7153v3.6458h-5.2083c-1.0417 0-1.7362.6945-1.7362 1.7361 0 1.0417.6945 1.7361 1.7362 1.7361h13.8889c1.0416 0 1.7361-.6944 1.7361-1.7361 0-1.0416-.6945-1.7361-1.7361-1.7361h-5.2084v-3.6458c6.7709-.8681 12.1528-6.5972 12.1528-13.7153z" fill-opacity=".95" fill-rule="evenodd"/></svg>