<svg enable-background="new 0 0 50 50" viewBox="0 0 50 50" xmlns="http://www.w3.org/2000/svg"><path clip-rule="evenodd" d="m39.4097 8.1597c.6945-.6945 1.7361-.6945 2.4306 0 .6944.6944.6944 1.7361 0 2.4305l-9.2014 9.2014h6.25c1.0416 0 1.7361.6945 1.7361 1.7361 0 1.0417-.6945 1.7361-1.7361 1.7361h-10.4167c-.1736 0-.5208 0-.6944-.1736-.3473-.1736-.6945-.5208-.8681-.868-.1736-.1736-.1736-.5209-.1736-.6945v-10.4166c0-1.0417.6944-1.7361 1.7361-1.7361s1.7361.6944 1.7361 1.7361v6.25zm-16.1458 20.3124c0-.1736 0-.5208-.1736-.6944-.1736-.3472-.5209-.6945-.8681-.8681-.1736-.1736-.5208-.1736-.6944-.1736h-10.4167c-1.0417 0-1.7361.6945-1.7361 1.7361 0 1.0417.6944 1.7361 1.7361 1.7361h6.25l-9.2014 9.2014c-.6945.6945-.6945 1.7361 0 2.4306.3472.3472.6944.5208 1.2153.5208.5208 0 .8681-.1736 1.2153-.5208l9.2014-9.2014v6.25c0 1.0417.6944 1.7361 1.7361 1.7361 1.0416 0 1.7361-.6944 1.7361-1.7361z" fill-opacity=".95" fill-rule="evenodd"/></svg>