<svg enable-background="new 0 0 50 50" viewBox="0 0 50 50" xmlns="http://www.w3.org/2000/svg"><path clip-rule="evenodd" d="m30.2083 9.375v5.2083c0 2.9514 2.257 5.2083 5.2084 5.2083h5.2083c1.0417 0 1.7361-.6944 1.7361-1.7361s-.6944-1.7361-1.7361-1.7361h-5.2083c-1.0417 0-1.7361-.6944-1.7361-1.7361v-5.2083c0-1.0417-.6945-1.7361-1.7361-1.7361-1.0417-.0001-1.7362.6944-1.7362 1.7361zm-20.8333 20.8333h5.2083c2.9514 0 5.2084 2.257 5.2084 5.2084v5.2083c0 1.0417-.6945 1.7361-1.7361 1.7361-1.0417 0-1.7362-.6944-1.7362-1.7361v-5.2083c0-1.0417-.6944-1.7362-1.7361-1.7362h-5.2083c-1.0417 0-1.7361-.6944-1.7361-1.7361 0-1.0416.6944-1.7361 1.7361-1.7361zm31.25 0h-5.2083c-2.9514 0-5.2084 2.257-5.2084 5.2084v5.2083c0 1.0417.6945 1.7361 1.7362 1.7361 1.0416 0 1.7361-.6944 1.7361-1.7361v-5.2083c0-1.0417.6944-1.7362 1.7361-1.7362h5.2083c1.0417 0 1.7361-.6944 1.7361-1.7361 0-1.0416-.6944-1.7361-1.7361-1.7361zm-24.3056-20.8333c0-1.0417.6945-1.7361 1.7362-1.7361 1.0416 0 1.7361.6944 1.7361 1.7361v5.2083c0 2.9514-2.257 5.2083-5.2084 5.2083h-5.2083c-1.0417 0-1.7361-.6944-1.7361-1.7361s.6944-1.7361 1.7361-1.7361h5.2083c1.0417 0 1.7361-.6944 1.7361-1.7361z" fill-opacity=".95" fill-rule="evenodd"/></svg>