<svg viewBox="0 0 50 50" xmlns="http://www.w3.org/2000/svg"><g fill="none" stroke="#000" stroke-miterlimit="10"><ellipse cx="23.17211" cy="24.22059" rx="18.01456" ry="13.42511" stroke-width="2.3" transform="matrix(.42028766 -.90739092 .90739092 .42028766 -8.54438 35.06714)"/><path d="m32.86389 21.72044a17.30007 17.30007 0 0 1 -1.60432 6.21975c-3.05191 6.589-9.35783 10.15558-14.08466 7.96619-2.46735-1.14284-4.01673-3.62811-4.50014-6.6801a13.19489 13.19489 0 0 1 -.14043-1.32163" stroke-linecap="round" stroke-width="1.67659"/><path d="m30.355 13.57779q.24291.255.46346.53453a9.37655 9.37655 0 0 1 1.66192 3.43675" stroke-linecap="round" stroke-width="1.67659"/><g stroke-width="2.3"><path d="m34.39919 9.43317c6.72783 3.11622 8.792 12.96088 4.61051 21.98866s-13.02529 13.82005-19.75312 10.70383"/><path d="m30.74342 7.87434 3.65577 1.55883"/><path d="m15.60081 40.56683 3.65577 1.55883"/></g></g></svg>