<svg enable-background="new 0 0 50 50" viewBox="0 0 50 50" xmlns="http://www.w3.org/2000/svg"><path clip-rule="evenodd" d="m11.1111 7.6388h27.7778c2.9514 0 5.2083 2.2569 5.2083 5.2084v17.3611c0 2.9514-2.2569 5.2083-5.2083 5.2083h-12.1528v3.4722h5.2083c1.0417 0 1.7361.6945 1.7361 1.7362 0 1.0416-.6944 1.7361-1.7361 1.7361h-13.8889c-1.0416 0-1.7361-.6945-1.7361-1.7361 0-1.0417.6945-1.7362 1.7361-1.7362h5.2084v-3.4722h-12.1528c-2.9514 0-5.2083-2.2569-5.2083-5.2083v-17.3611c0-2.9514 2.2569-5.2084 5.2083-5.2084zm27.7778 24.3056c1.0416 0 1.7361-.6945 1.7361-1.7362v-17.3611c0-1.0416-.6945-1.7361-1.7361-1.7361h-27.7778c-1.0417 0-1.7361.6945-1.7361 1.7361v17.3611c0 1.0417.6944 1.7362 1.7361 1.7362z" fill-opacity=".95" fill-rule="evenodd"/></svg>