<svg enable-background="new 0 0 50 50" viewBox="0 0 50 50" xmlns="http://www.w3.org/2000/svg"><path clip-rule="evenodd" d="m39.5753 25.0872c.5223-.5235 1.3929-.5235 1.9152-.1745.5224.349.8706 1.0469.8706 1.5704-.5223 4.711-2.6117 8.8986-6.2681 11.8648-3.1341 2.6173-7.1387 4.0132-11.1433 4.0132h-1.5671c-9.5762-.8725-16.5408-9.4222-15.6703-19.0187.6965-8.3753 7.3128-15.0056 15.6703-15.7036.6965 0 1.393.349 1.7412.8724.3482.6979.1741 1.3959-.1741 1.9193-1.5671 2.2683-2.2635 5.06-1.9153 7.8517.5224 2.6173 1.9153 5.0601 4.1788 6.8049 3.6564 2.7918 8.7057 2.7918 12.3621.0001zm-15.6703 13.7841c3.6564.349 7.3128-.6979 10.0986-3.1407 1.9153-1.5703 3.3082-3.6641 4.1788-6.1069-4.3529 1.5704-9.2281.8724-13.0586-1.9193-3.1341-2.0938-5.0493-5.409-5.5717-9.0731-.3482-2.2683 0-4.5366.8706-6.8049-4.8752 1.7448-8.5316 6.4559-9.0539 11.8649-.6965 7.6773 4.8752 14.4821 12.5362 15.18z" fill-opacity=".95" fill-rule="evenodd"/></svg>