<svg enable-background="new 0 0 50 50" viewBox="0 0 50 50" xmlns="http://www.w3.org/2000/svg"><path clip-rule="evenodd" d="m9.375 25c0-1.9097 1.5625-3.4722 3.4722-3.4722s3.4722 1.5625 3.4722 3.4722c0 1.9098-1.5625 3.4723-3.4722 3.4723s-3.4722-1.5625-3.4722-3.4723zm19.0972 0c0 1.9098-1.5625 3.4723-3.4722 3.4723s-3.4722-1.5625-3.4722-3.4723c0-1.9097 1.5625-3.4722 3.4722-3.4722s3.4722 1.5625 3.4722 3.4722zm8.6806-3.4722c-1.9097 0-3.4722 1.5625-3.4722 3.4722 0 1.9098 1.5625 3.4723 3.4722 3.4723s3.4722-1.5625 3.4722-3.4723c0-1.9097-1.5625-3.4722-3.4722-3.4722z" fill-opacity=".95" fill-rule="evenodd"/></svg>