<svg enable-background="new 0 0 50 50" viewBox="0 0 50 50" xmlns="http://www.w3.org/2000/svg"><path d="m43.6187 26.195-5.2202 5.2142c-.348.3477-.696.5215-1.218.5215-.5221 0-.8701-.1738-1.2181-.5215-.696-.6952-.696-1.7381 0-2.4333l2.2621-2.2595h-11.4844v11.4714l2.262-2.2595c.6961-.6953 1.7401-.6953 2.4361 0 .6961.6952.6961 1.738 0 2.4333l-5.2202 5.2142c-.174.1738-.348.3477-.522.3477-.174.1738-.522.1738-.696.1738s-.522 0-.696-.1738c-.174-.1739-.348-.1739-.5221-.3477l-5.2201-5.2142c-.6961-.6953-.6961-1.7381 0-2.4333.696-.6953 1.74-.6953 2.436 0l2.2621 2.2595v-11.4714h-11.4844l2.2621 2.2595c.696.6952.696 1.7381 0 2.4333-.348.3477-.696.5215-1.2181.5215-.522 0-.87-.1738-1.218-.5215l-5.2202-5.2142c-.174-.1738-.348-.3476-.348-.5215-.174-.3476-.174-.869 0-1.3904.174-.1738.174-.3476.348-.5214l5.2202-5.2143c.696-.6952 1.7401-.6952 2.4361 0s.696 1.7381 0 2.4333l-2.2621 2.2595h11.4844v-11.4713l-2.2621 2.2595c-.696.6952-1.74.6952-2.436 0-.6961-.6953-.6961-1.7381 0-2.4334l5.2201-5.2142c.1741-.1738.3481-.3476.5221-.3476.348-.1738.87-.1738 1.392 0 .174.1738.348.1738.522.3476l5.2202 5.2142c.6961.6953.6961 1.7381 0 2.4334-.348.3476-.696.5214-1.218.5214s-.87-.1738-1.2181-.5214l-2.262-2.2595v11.4713h11.4844l-2.2621-2.2595c-.696-.6952-.696-1.7381 0-2.4333s1.7401-.6952 2.4361 0l5.2202 5.2143c.174.1738.348.3476.348.5214.174.3476.174.869 0 1.3904 0 .1739-.174.3477-.348.5215z" fill-opacity=".95"/></svg>