<svg enable-background="new 0 0 50 50" viewBox="0 0 50 50" xmlns="http://www.w3.org/2000/svg"><path clip-rule="evenodd" d="m33.2092 6.4237 10.1967 10.243c.3457.1736.5185.6945.6913 1.2153v14.2361c0 .5208-.1728.8681-.5185 1.2153l-10.1967 10.243c-.3456.3473-.6913.5209-1.2097.5209h-14.3446c-.5184 0-1.0369-.1736-1.2097-.3473l-10.1968-10.243c-.3456-.3472-.5185-.6945-.5185-1.2153v-14.4097c0-.5208.1728-1.0417.5185-1.2153l10.1968-10.243c.1728-.3472.6913-.5208 1.2097-.5208h14.1717c.5185-.0001 1.037.1735 1.2098.5208zm-1.9011 34.2013 9.1598-9.2014v-12.8472l-8.987-9.2014h-12.9619l-9.1597 9.2014v12.8472l9.1597 9.2014z" fill-opacity=".95" fill-rule="evenodd"/></svg>