<svg enable-background="new 0 0 50 50" viewBox="0 0 50 50" xmlns="http://www.w3.org/2000/svg"><path clip-rule="evenodd" d="m41.1458 13.2405-13.8889-6.8257c-1.3889-.6826-3.125-.6826-4.6875 0l-13.8889 6.8257c-1.7361.8532-2.7778 2.5596-2.7778 4.4367v16.2111c0 1.8771 1.0417 3.7542 2.9514 4.6074l13.8888 6.8258c.6945.3412 1.5626.5119 2.257.5119.8681 0 1.5625-.1707 2.2569-.5119l13.8889-6.8258c1.7361-.8532 2.9514-2.5596 2.9514-4.6074v-16.2111c.0001-1.8771-1.0416-3.5835-2.9513-4.4367zm-16.8403-3.9248c.1737-.1706.5209-.1706.6945-.1706.3472 0 .5208 0 .6944.1707l12.8473 6.3138-4.8612 2.389-13.5416-6.6551zm-14.0625 26.2791 13.0209 6.3138v-16.723l-13.8889-6.8258v15.6992c0 .5119.3472 1.1945.868 1.5358zm1.2153-19.9653 4.8611-2.389 13.5417 6.6551-4.8611 2.389zm28.125 19.9653c.6945-.3413 1.0417-.8532 1.0417-1.5358v-15.6992l-13.8889 6.8258v16.723z" fill-opacity=".95" fill-rule="evenodd"/></svg>