<svg enable-background="new 0 0 50 50" viewBox="0 0 50 50" xmlns="http://www.w3.org/2000/svg"><path clip-rule="evenodd" d="m9.375 15.4514c0-3.2986 2.7778-6.0764 6.0764-6.0764s6.0764 2.7778 6.0764 6.0764-2.7778 6.0764-6.0764 6.0764-6.0764-2.7778-6.0764-6.0764zm28.9931-1.3889-24.3056 24.3056c-.3472.3472-.6944.5208-1.2153.5208-.5208 0-.868-.1736-1.2153-.5208-.6944-.6944-.6944-1.7361 0-2.4306l24.3056-24.3055c.6944-.6945 1.7361-.6945 2.4306 0 .6944.6944.6944 1.7361 0 2.4305zm-22.9167 3.993c-1.3889 0-2.6042-1.2153-2.6042-2.6042 0-1.3888 1.2153-2.6041 2.6042-2.6041s2.6042 1.2153 2.6042 2.6041c0 1.3889-1.2153 2.6042-2.6042 2.6042zm25.1736 16.4931c0 3.2986-2.7778 6.0764-6.0764 6.0764s-6.0764-2.7778-6.0764-6.0764 2.7778-6.0764 6.0764-6.0764 6.0764 2.7778 6.0764 6.0764zm-6.0764-2.6041c1.3889 0 2.6042 1.2153 2.6042 2.6042 0 1.3888-1.2153 2.6041-2.6042 2.6041s-2.6042-1.2153-2.6042-2.6041c0-1.3889 1.2153-2.6042 2.6042-2.6042z" fill-opacity=".95" fill-rule="evenodd"/></svg>