<svg enable-background="new 0 0 50 50" viewBox="0 0 50 50" xmlns="http://www.w3.org/2000/svg"><path clip-rule="evenodd" d="m45.3125 7.1181-20.1389 20.1388.0001.0001c1.0416.868 2.0833 1.7361 3.1249 2.4305l1.2153-1.2153c1.3889-1.3889 3.6458-1.9097 5.5556-1.2153 1.3889.5209 2.9514.8681 4.5139 1.0417 2.6041.3472 4.5138 2.6042 4.5138 5.2083v5.2084c0 1.3889-.5208 2.7777-1.5625 3.6458-1.0416.8681-2.2569 1.5625-3.6458 1.5625h-.5208c-5.5556-.6944-11.1111-2.6042-15.7986-5.5556-1.2801-.768-2.4658-1.7248-3.6267-2.6616l-.0001-.0001c-.4135-.3337-.8239-.6649-1.2343-.9841l-10.7639 10.7639c-.1736.1736-.5208.3472-1.0417.3472-.5208 0-.8681-.1736-1.2153-.5208-.6944-.6945-.6944-1.7361 0-2.4306l16.8403-16.8402 21.3542-21.3542c.6944-.6944 1.7361-.6944 2.4305 0 .6945.6944.6945 1.7361 0 2.4306zm-33.5069 20.3125c-3.125-4.6875-5.0348-10.0695-5.5556-15.7986-.1736-1.3889.1736-2.7778 1.0417-3.8195s2.0833-1.7361 3.4722-1.9097h.5208 5.2084c2.6041 0 4.8611 1.9097 5.2083 4.5139.1736 1.5625.5208 3.125 1.0417 4.5139.6944 1.9097.1736 3.993-1.2153 5.5555l-2.257 2.257c-.6944.6944-1.7361.6944-2.4305 0-.6945-.6945-.6945-1.7361 0-2.4306l2.2569-2.2569c.5209-.5208.6945-1.3889.5209-1.9097-.6945-1.7361-1.0417-3.4723-1.3889-5.2084-.1736-.868-.8681-1.5625-1.7361-1.5625h-5.2084c-.5208 0-1.0416.3472-1.3889.6945-.1736.3472-.3472.6944-.3472 1.2153.5209 5.0347 2.257 9.8958 5.0347 14.2361.5209.868.3473 1.9097-.5208 2.4305-.3472.1736-.6944.3472-.868.3472-.5209-.1736-1.2153-.5208-1.3889-.868zm12.6736 7.986c-1.3889-1.0416-2.7778-2.0833-4.1667-3.2986l2.4306-2.4305c1.5625 1.3889 3.2986 2.6042 4.8611 3.6458.6944.3472 1.5625.1736 2.0833-.3472l2.257-2.2569c.5208-.5209 1.2152-.5209 1.9097-.3473 1.7361.6945 3.4722 1.2153 5.2083 1.3889.8681.1736 1.5625.8681 1.5625 1.7361v5.2084c0 .5208-.1736.868-.5208 1.2152-.3472.3473-.8681.5209-1.3889.5209-5.0347-.5209-9.8958-2.257-14.2361-5.0348z" fill-opacity=".95" fill-rule="evenodd"/></svg>