<svg enable-background="new 0 0 50 50" viewBox="0 0 50 50" xmlns="http://www.w3.org/2000/svg"><path clip-rule="evenodd" d="m44.0972 25.0001c0 1.0416-.6946 1.7361-1.7366 1.7361h-17.3659c-1.042 0-1.7366-.6945-1.7366-1.7361v-17.3612c0-1.0417.6946-1.7361 1.7366-1.7361 10.5932 0 19.1025 8.507 19.1025 19.0973zm-1.5629 7.4653c-2.9522 7.2916-10.0723 11.6319-17.5396 11.6319-2.4313 0-5.0362-.5208-7.4674-1.5625-9.7249-4.1667-14.2401-15.2778-10.0723-25 1.9103-4.5139 5.3835-8.1597 9.8986-10.0694.8683-.3472 1.9103 0 2.2576.8681s0 1.9097-.8683 2.257c-3.6468 1.7361-6.5991 4.6875-8.162 8.3333-3.2995 7.9861.3473 17.1875 8.3357 20.4861 7.9883 3.2986 17.1923-.3472 20.4918-8.3333.3473-.8681 1.3893-1.2153 2.2576-.8681.8683.3471 1.2156 1.3888.8683 2.2569zm-15.8031-22.9167c7.1201.6944 12.8509 6.4236 13.7192 13.7152h-13.7192z" fill-opacity=".95" fill-rule="evenodd"/></svg>