<svg viewBox="0 0 50 50" xmlns="http://www.w3.org/2000/svg"><path d="m13.93576 35.24138a1.01783 1.01783 0 0 1 -.50759-.15533 2.07549 2.07549 0 0 1 -.74288-.77293 1.9877 1.9877 0 0 1 -.30326-.99668v-9.7791c0-1.01424.43732-1.22782.80391-1.22782a1.876 1.876 0 0 1 .90006.307l3.2087 1.8519a8.27326 8.27326 0 0 1 2.71544 2.45656 6.30745 6.30745 0 0 1 1.15524 3.64093c0 1.34524-.41 2.17457-1.219 2.46488a2.00229 2.00229 0 0 1 -.66568.10817 4.54707 4.54707 0 0 1 -2.1755-.72485l-2.45564-1.41736v3.40975a.78007.78007 0 0 1 -.37445.74705.68631.68631 0 0 1 -.33935.08783zm3.03256-5.12578a2.4273 2.4273 0 0 0 1.12705.39294.72482.72482 0 0 0 .31527-.06472c.28153-.12574.41652-.44471.41652-.97726a3.00121 3.00121 0 0 0 -.46829-1.59117 4.47884 4.47884 0 0 0 -1.58008-1.45434l-2.059-1.18806a.48526.48526 0 0 0 -.06749-.03328c-.00185.01479-.00278 3.57713-.00278 3.57713z"/><path d="m20.97605 30.566q0 1.893-1.09339 2.28665a3.36316 3.36316 0 0 1 -2.68266-.60208l-2.74012-1.582v3.738a.60726.60726 0 0 1 -.27668.58176.64484.64484 0 0 1 -.66028-.06593 1.87875 1.87875 0 0 1 -.674-.70442 1.799 1.799 0 0 1 -.27709-.90148v-9.7791q0-1.57824 1.41957-.75772l3.2086 1.85249a8.05284 8.05284 0 0 1 2.65442 2.39977 6.09755 6.09755 0 0 1 1.12163 3.53406zm-1.95919-1.09971a3.17634 3.17634 0 0 0 -.49677-1.6903 4.64337 4.64337 0 0 0 -1.64674-1.51842l-2.05863-1.18855q-.35511-.205-.35489.189v3.628l2.41352 1.39345q1.05033.6064 1.61845.33529.52485-.2337.52506-1.14844z"/><g fill="none" stroke="#000" stroke-linecap="round" stroke-width="2.5"><path d="m25 24.95317v19.1438" stroke-miterlimit="10"/><path d="m25 24.95317 16.45217-9.09852" stroke-miterlimit="10"/><path d="m25 24.95317-16.45217-9.09852" stroke-miterlimit="10"/><path d="m7.76491 18.1793v13.54775a5.50238 5.50238 0 0 0 2.7512 4.76521l11.73269 6.77388a5.5024 5.5024 0 0 0 5.5024 0l11.73269-6.77388a5.50238 5.50238 0 0 0 2.7512-4.76521v-13.54775a5.50237 5.50237 0 0 0 -2.7512-4.76521l-11.73269-6.77388a5.5024 5.5024 0 0 0 -5.5024 0l-11.73269 6.77388a5.50237 5.50237 0 0 0 -2.7512 4.76521z" stroke-linejoin="round"/></g></svg>