<svg fill="none" height="24" viewBox="0 0 24 24" width="24" xmlns="http://www.w3.org/2000/svg"><g fill="#000"><path d="m12.666 11.3457h-1.8564c-.1443-.0168-.2905-.0007-.4277.0471-.1371.0477-.2617.1258-.3644.2285-.10274.1028-.18088.2274-.22863.3645-.04774.1372-.06384.2834-.0471.4277v5.0921c-.00033.1037.01985.2064.05939.3022.03953.0959.09764.183.17097.2562.07317.0763.16117.1367.25857.1777s.2022.0616.3079.0606c.1043.0005.2077-.0205.3037-.0615.096-.0409.1826-.1011.2545-.1768.0733-.0732.1315-.1603.171-.2561.0396-.0959.0597-.1986.0594-.3023v-1.7h1.3388c.6179.0264 1.2249-.1691 1.7112-.5512.2416-.2115.4319-.4751.5567-.7709s.1807-.6161.1635-.9367c.0192-.3215-.0382-.643-.1674-.938s-.3266-.5551-.5759-.7591c-.4894-.3543-1.0845-.5321-1.6881-.504zm-1.3379 1.4375h1.1489c.2805-.022.5592.0593.7838.2287.0722.0716.1283.1579.1645.253.0362.095.0517.1967.0454.2982.0064.107-.0106.2141-.0498.3138-.0393.0997-.0998.1896-.1774.2635-.2145.177-.4891.2644-.7665.244h-1.1499z"/><path d="m16.4097 8.61832c.0933.04704.1974.06858.3018.06244.1043-.00615.2052-.03975.2923-.09742l2.0499-1.34718c.1323-.0877.2245-.22425.2564-.37977.0318-.15552.0008-.31733-.0864-.45001-.0871-.13268-.2233-.22542-.3787-.25791s-.3174-.00208-.4504.08456l-2.0385 1.33975c-.0634-.05916-.139-.10374-.2214-.13061l1.7119-2.73305c.0679-.10864.0992-.23614.0894-.36386s-.0602-.24895-.1439-.34596c-.0836-.097-.1961-.1647-.321-.19318s-.2556-.01625-.3731.0349c-.9225.40266-2.4075.71625-2.6817.23203-.226-.44022-.5773-.80364-1.0096-1.04441s-.9262-.34809-1.4194-.30842l-.0129.00096c-.4871-.03167-.9728.07961-1.3975.32019s-.7699.59997-.99316 1.03403c-.27352.48281-1.75945.16828-2.68219-.2325-.11748-.05119-.24826-.06342-.37319-.0349-.12494.02852-.23746.09629-.32109.19339-.08363.09709-.13398.21842-.14367.3462-.00968.12778.02179.2553.08983.3639l1.71354 2.73029c-.11825.039-.22126.11417-.29448.21488s-.11296.22188-.11359.34639c.00146.20056.06998.39485.19465.55195-2.05275 1.9423-3.58324 5.0191-3.58324 7.5283 0 4.5886 4.00852 5.2074 7.92959 5.2074 3.9211 0 7.9294-.6188 7.9294-5.2074 0-2.4825-1.4995-5.5195-3.5196-7.46498zm-5.7816-3.95136c.1091-.23477.2857-.43165.5074-.56543.2216-.13378.4781-.19837.7367-.18551.0409.0054.0822.00728.1235.00563l.0755-.00422c.0126-.00096.0351-.00328.0478-.00469.2599-.0143.5182.04958.7415.18342.2234.13384.4015.3315.5114.56749.5157.91219 1.6444.94547 2.6063.76782l-1.1245 1.79531c-.0259.04736-.045.09808-.0568.15072l-.007-.00446-.483.83616c-.7615.13483-1.5337.19997-2.307.19461-.7733.00535-1.5455-.05978-2.307-.19459l-.48299-.83619-.00592.00375c-.01202-.0541-.03174-.10619-.05856-.15469l-1.12242-1.78875c.96214.17719 2.08999.143 2.60509-.76638zm1.3718 15.42374c-4.90569 0-6.72959-1.0861-6.72959-4.0074 0-2.2755 1.52004-5.1865 3.45199-6.87672 1.06839.28605 2.1718.41978 3.2776.39723 1.1058.02256 2.2092-.11118 3.2776-.39726 1.9319 1.69015 3.4518 4.60125 3.4518 6.87675 0 2.9213-1.8239 4.0074-6.7294 4.0074z"/><path d="m18.4403 8.40659c-.1529-.04413-.3171-.02571-.4564.05121s-.2424.20603-.2865.35895c-.0442.15291-.0258.3171.0512.45643.0769.13934.206.24241.3589.28654l.8616.24843c.0757.02199.1551.02883.2335.02013.0784-.00871.1543-.03278.2234-.07085s.13-.08939.1792-.15102c.0493-.06163.0859-.13237.1077-.20816.0219-.07579.0286-.15514.0198-.23353s-.033-.15427-.0712-.2233-.0896-.12985-.1513-.179c-.0617-.04914-.1325-.08563-.2083-.10739z"/></g></svg>