<svg enable-background="new 0 0 50 50" viewBox="0 0 50 50" xmlns="http://www.w3.org/2000/svg"><path clip-rule="evenodd" d="m13.9141 38.3745c.6928-.6858.6928-1.7147 0-2.4005-6.0626-6.0014-6.0626-15.9465 0-21.9479.6928-.6859.6928-1.7147 0-2.4006-.6929-.6858-1.7322-.6858-2.4251 0-7.4483 7.3732-7.4483 19.3759 0 26.749.3465.343.8661.5144 1.2126.5144.3464 0 .866-.1714 1.2125-.5144zm5.0233-7.3731c.6929.6859.6929 1.7147 0 2.4006-.3465.3429-.8661.5144-1.2125.5144-.3465 0-.8661-.1715-1.2126-.5144-4.6768-4.6296-4.6768-12.3457 0-16.9753.6929-.6859 1.7322-.6859 2.4251 0s.6929 1.7147 0 2.4005c-1.7322 1.7147-2.5983 3.9438-2.5983 6.1729s.8661 4.4581 2.5983 6.0013zm.8661-6.0014c0-2.9149 2.2518-5.144 5.1965-5.144s5.1965 2.2291 5.1965 5.144c0 2.915-2.2518 5.144-5.1965 5.144s-5.1965-2.229-5.1965-5.144zm3.4643 0c0 1.0288.6929 1.7147 1.7322 1.7147s1.7322-.6859 1.7322-1.7147-.6929-1.7146-1.7322-1.7146-1.7322.6858-1.7322 1.7146zm10.3931 8.402c-.3465.3429-.8661.5144-1.2126.5144-.3464 0-.5196 0-.6928-.1715-.8661-.3429-1.2125-1.3717-.6929-2.2291l.5197-.5144c3.2911-3.2579 3.2911-8.7448-.1733-12.0027-.6928-.6859-.6928-1.7147 0-2.4006.6929-.6858 1.7322-.6858 2.4251 0 4.5036 4.6297 4.5036 12.1742-.1732 16.8039zm3.6375 5.4869c.3465 0 .8661-.1715 1.2126-.5144 7.4483-7.3731 7.4483-19.3759 0-26.5775-.6929-.6859-1.7322-.6859-2.4251 0s-.6929 1.7147 0 2.4005c6.0626 6.0014 6.0626 15.7751 0 21.7764-.6929.6859-.6929 1.7147 0 2.4006.3464.3429.8661.5144 1.2125.5144z" fill-opacity=".95" fill-rule="evenodd"/></svg>