<svg enable-background="new 0 0 50 50" viewBox="0 0 50 50" xmlns="http://www.w3.org/2000/svg"><path clip-rule="evenodd" d="m45.5718 22.3945c.0436-.0434.0872-.0868.0872-.1736.1743-.1737.1743-.3473.1743-.5209v-.1736-10.4174c0-1.0417-.6973-1.7362-1.7433-1.7362-1.0461 0-1.7434.6945-1.7434 1.7362v6.4241l-5.2301-4.6879c-1.7434-1.9098-4.0098-3.2988-6.4505-4.1669-4.3585-1.5626-9.0656-1.389-13.2497.6945-4.1841 1.9098-7.3222 5.3823-8.8912 9.8965-.3487.8681.1743 1.9098 1.046 2.0834.8717.3473 1.9177-.1736 2.2664-1.0417 1.2204-3.4724 3.6611-6.2504 7.1479-7.813 3.3124-1.5626 7.1478-1.7362 10.6346-.5209 1.9177.6945 3.661 1.7363 5.2301 3.2989l4.8814 4.5141h-6.1018c-1.046 0-1.7434.6945-1.7434 1.7363 0 1.0417.6974 1.7362 1.7434 1.7362h10.4603c.1743 0 .523 0 .6973-.1736.1744 0 .3487-.1737.523-.3473.1744 0 .1744-.1736.1744-.1736 0-.0868.0436-.1302.0871-.1736zm-7.5836 7.2921c.3486-.8681 1.3947-1.389 2.2663-1.0417.8717.1736 1.3947 1.2153 1.2204 2.257-.8717 2.4308-2.4407 4.6879-4.1841 6.4241-3.3124 3.2988-7.6709 5.035-12.378 5.035s-9.0655-1.7362-12.2036-5.2086l-5.0558-4.8615v6.4241c0 1.0417-.6974 1.7362-1.7434 1.7362s-1.7434-.6945-1.7434-1.7362v-10.4174-.1736-.3473c0-.0868.0436-.1302.0872-.1736s.0872-.0868.0872-.1736c.1743 0 .1743-.1736.1743-.1736 0-.1736.1743-.3473.3487-.3473 0-.1736.1743-.1736.1743-.1736h.3487.3487 10.4603c1.046 0 1.7433.6945 1.7433 1.7362 0 1.0418-.6973 1.7363-1.7433 1.7363h-6.1019l4.8815 4.5141c2.7894 2.778 6.2761 4.167 9.9372 4.167s7.3222-1.389 9.7629-3.9933c1.5691-1.389 2.6151-3.2989 3.3125-5.2087z" fill-opacity=".95" fill-rule="evenodd"/></svg>