<svg enable-background="new 0 0 50 50" viewBox="0 0 50 50" xmlns="http://www.w3.org/2000/svg"><path clip-rule="evenodd" d="m4.7718 22.8843c.0865.0435.1729.0869.2593.1739.1729.1739.5187.1739.6916.1739h10.3734c1.0374 0 1.7289-.6956 1.7289-1.739s-.6915-1.739-1.7289-1.739h-6.0512l5.0139-4.5214c1.3831-1.5651 3.2849-2.6085 5.1867-3.3041 3.4578-1.2173 7.2614-1.0434 10.5463.5217 3.285 1.739 5.8783 4.5214 7.0885 7.9994.3458.8695 1.3832 1.3912 2.2476 1.0434.8645-.3478 1.3832-1.3912 1.0374-2.2607-1.556-4.3475-4.6681-7.8255-8.8175-9.9123-4.1493-1.9129-8.8174-2.2607-13.1397-.6956-2.4204.8695-4.668 2.2607-6.3969 3.9997l-5.1867 4.8692v-6.4343c0-1.0434-.6916-1.739-1.7289-1.739s-1.7289.6956-1.7289 1.739v10.6079.1739.3478c0 .0869.0432.1304.0864.1739s.0865.0869.0865.1739c.1729 0 .1729.1739.1729.1739.0864.0869.1728.1304.2593.1739zm40.7157 4.8692v.3478c0 .0605 0 .0999.0146.1329.0273.062.1057.1014.3312.2149v10.434c0 1.0434-.6915 1.739-1.7289 1.739-1.0373 0-1.7289-.6956-1.7289-1.739v-6.4343l-5.1867 4.8692c-3.2849 3.3041-7.6072 5.0431-12.1024 5.0431-4.4951 0-8.8174-1.5651-12.2752-5.0431-1.9018-1.739-3.2849-3.9997-4.1494-6.4343-.3458-.8695.1729-1.9129 1.0373-2.2607s1.9018.1739 2.2475 1.0434c.6916 1.9129 1.9018 3.8258 3.285 5.217 5.3596 5.3909 14.177 5.3909 19.5366 0l4.841-4.6953h-6.0512c-1.0374 0-1.7289-.6956-1.7289-1.739s.6915-1.739 1.7289-1.739h10.3734.3458.3458l.1729.1739.3458.3478c.1729 0 .1729.1739.1729.1739 0 .0869.0432.1304.0864.1739.0433.0434.0865.0869.0865.1739z" fill-opacity=".95" fill-rule="evenodd"/></svg>