<svg enable-background="new 0 0 50 50" viewBox="0 0 50 50" xmlns="http://www.w3.org/2000/svg"><path clip-rule="evenodd" d="m22.0486 11.4738c.5208-.347 1.3889-.5205 1.9097-.1735.6945.347 1.0417.8676 1.0417 1.5616v12.146 12.1459c0 .694-.5208 1.2146-1.0417 1.5616-.1736.1735-.5208.1735-.6944.1735-.3472 0-.6945-.1735-1.0417-.347l-15.625-12.1459c-.5208-.3471-.6944-.8676-.6944-1.3881 0-.5206.1736-1.0411.5208-1.3881zm-11.6319 13.5341 11.1111 8.6756v-17.3513zm32.6389-13.7076c-.5209-.347-1.3889-.1735-1.9098.1735l-15.625 12.146c-.3472.347-.5208.8675-.5208 1.3881 0 .5205.1736 1.041.6944 1.3881l15.625 12.1459c.3473.1735.6945.347 1.0417.347.1736 0 .5208 0 .6945-.1735.5208-.347 1.0416-.8676 1.0416-1.5616v-24.2919c0-.694-.3472-1.2146-1.0416-1.5616zm-13.5417 13.7076 11.1111 8.6756v-17.3513z" fill-opacity=".95" fill-rule="evenodd"/></svg>