<svg enable-background="new 0 0 50 50" viewBox="0 0 50 50" xmlns="http://www.w3.org/2000/svg"><path clip-rule="evenodd" d="m41.8402 16.8402-8.6805-8.6805c-.3472-.3472-.6945-.5208-1.2153-.5208h-19.0972c-2.9514 0-5.2084 2.2569-5.2084 5.2084v24.3055c0 2.9514 2.2569 5.2084 5.2084 5.2084h24.3055c2.9514 0 5.2084-2.257 5.2084-5.2084v-19.0973c0-.5208-.1736-.868-.5209-1.2153zm-9.8958 22.0487h-13.8889v-10.4167h13.8889zm5.2083-.0001c1.0417 0 1.7361-.6944 1.7361-1.7361v-18.4028l-7.6388-7.6389h-13.1945v5.2084h12.1528c1.0417 0 1.7361.6944 1.7361 1.7361 0 1.0416-.6944 1.7361-1.7361 1.7361h-13.8889c-1.0417 0-1.7361-.6945-1.7361-1.7361v-6.9445h-1.7361c-1.0417 0-1.7361.6945-1.7361 1.7361v24.3056c0 1.0417.6944 1.7361 1.7361 1.7361h1.7361v-12.1528c0-1.0416.6944-1.7361 1.7361-1.7361h17.3611c1.0417 0 1.7361.6945 1.7361 1.7361v12.1528z" fill-opacity=".95" fill-rule="evenodd"/></svg>