<svg enable-background="new 0 0 50 50" viewBox="0 0 50 50" xmlns="http://www.w3.org/2000/svg"><path clip-rule="evenodd" d="m44.0972 9.2014c0-.1736 0-.3472-.1736-.5208v-.1736c0-.1736-.1736-.3472-.3472-.5208-.0868-.0868-.1736-.1302-.2604-.1736s-.1736-.0868-.2605-.1736h-.1736c-.1736 0-.3472 0-.5208-.1736v.1736c-.1736 0-.3472 0-.5208.1736l-34.7222 12.1527c-.6944.1736-1.2153.6945-1.2153 1.5625 0 .6945.3472 1.3889 1.0417 1.7361l14.9306 6.5973 6.5972 14.9305c.3472.6945.8681 1.0417 1.5625 1.0417.6945 0 1.3889-.5208 1.5625-1.2153l12.1527-34.7222c.3472-.1736.3472-.3472.3472-.6945zm-8.3333 4.3403-12.8472 12.8472-10.5903-4.6875zm-10.4167 15.2778 4.6875 10.5903 8.1597-23.4375z" fill-opacity=".95" fill-rule="evenodd"/></svg>