<svg enable-background="new 0 0 50 50" viewBox="0 0 50 50" xmlns="http://www.w3.org/2000/svg"><path clip-rule="evenodd" d="m39.4097 30.9028c.1736-.3472.5209-.6944 1.2153-.6944 2.9514 0 5.2083-2.257 5.2083-5.2084s-2.2569-5.2083-5.2083-5.2083h-.3472c-.3472 0-.6945-.1736-.8681-.5208 0-.1737 0-.1737-.1736-.3473-.1736-.3472-.1736-.868.3472-1.3889 2.0834-2.0833 2.0834-5.3819 0-7.2916-1.0416-1.0417-2.2569-1.5625-3.6458-1.5625s-2.7778.5208-3.8194 1.5625c-.3473.3472-.8681.3472-1.2153.1736-.3472 0-.6945-.5209-.6945-1.0417 0-2.9514-2.2569-5.2083-5.2083-5.2083s-5.2083 2.2569-5.2083 5.2083v.3472c0 .3473-.1736.6945-.5209.8681-.0737 0-.1162 0-.1539.0133-.051.018-.0934.0605-.1933.1603-.3472.1736-.868 0-1.3889-.3472-2.0833-2.0834-5.3819-2.0834-7.2916 0-2.0834 2.0833-2.0834 5.3819.1736 7.4653.3472.3472.3472.868.1736 1.3889-.1736.3472-.6945.6944-1.2153.6944-2.9514 0-5.2083 2.2569-5.2083 5.2083s2.257 5.2084 5.2083 5.2084h.3472c.5209 0 .8681.3472 1.0417.6944s.1736.8681-.3472 1.3889c-1.0417 1.0417-1.5625 2.2569-1.5625 3.6458s.5208 2.6042 1.5625 3.6459c2.0833 2.0833 5.3819 2.0833 7.4653-.1736.3472-.3473.868-.3473 1.3888-.1737.5209.1737.6945.5209.6945 1.2153 0 2.9514 2.2569 5.2084 5.2083 5.2084s5.2084-2.257 5.2084-5.2084v-.3472c0-.5208.3472-.8681.6944-1.0417s.8681-.1736 1.3889.3473c2.0833 2.0833 5.3819 2.0833 7.2917 0 2.0833-2.0834 2.0833-5.382-.1737-7.4653-.1736-.3472-.3472-.8681-.1736-1.2153zm-21.3541-5.9028c0-3.8195 3.125-6.9445 6.9444-6.9445 3.8195 0 6.9445 3.125 6.9445 6.9445 0 3.8194-3.125 6.9444-6.9445 6.9444-3.8194 0-6.9444-3.125-6.9444-6.9444zm3.4722.0001c0 1.9097 1.5625 3.4722 3.4722 3.4722s3.4722-1.5625 3.4722-3.4722c0-1.9098-1.5625-3.4723-3.4722-3.4723s-3.4722 1.5625-3.4722 3.4723zm15.7986 9.7221c-1.3889-1.5625-1.7361-3.4722-1.0417-5.2083.6945-1.7361 2.4306-2.7778 4.1667-2.7778 1.2153 0 1.9097-.6945 1.9097-1.7361 0-1.0417-.6944-1.7361-1.7361-1.7361h-.3472c-1.7361 0-3.4722-1.0417-4.1667-2.7778-.1736-.1736-.1736-.3472-.1736-.5208-.5208-1.5625-.1736-3.4723 1.0417-4.6875.868-.8681.868-1.9098.1736-2.6042-.3472-.3472-.6945-.5208-1.2153-.5208s-.868.1736-1.2153.5208c-1.5625 1.3889-3.4722 1.7361-5.2083 1.0417-1.7361-.6945-2.7778-2.257-2.7778-4.1667 0-1.2153-.6944-1.9097-1.7361-1.9097s-1.7361.6944-1.7361 1.7361v.3472c0 1.7361-1.0417 3.4722-2.7778 4.1667-.1736.1736-.3472.1736-.5208.1736-1.5625.5208-3.4722.1736-4.6875-1.0417-.8681-.868-1.9097-.868-2.6042-.1736-.6944.6944-.6944 1.7361 0 2.4306 1.3889 1.5625 1.7361 3.4722 1.0417 5.2083-.6945 1.7361-2.257 2.9514-4.1667 2.9514h-.1736c-1.0417 0-1.7361.6944-1.7361 1.7361s.6944 1.7361 1.7361 1.7361h.3472c1.7361 0 3.4723 1.0417 4.1667 2.7778.8681 1.7361.5208 3.6458-.8681 5.0347-.5208.5208-.6944.8681-.6944 1.3889s.1736.868.5208 1.2153c.6945.6944 1.7361.6944 2.4306 0 .868-.8681 2.0833-1.3889 3.2986-1.3889.6944 0 1.3889 0 1.9097.3472 1.7361.6944 2.9514 2.2569 2.9514 4.1667v.1736c0 1.0416.6945 1.7361 1.7361 1.7361 1.0417 0 1.7361-.6945 1.7361-1.7361v-.3472c0-1.7362 1.0417-3.4723 2.7778-4.1667 1.7361-.8681 3.6458-.5208 5.0347.868.5209.5209.8681.6945 1.3889.6945.5209 0 .8681-.1736 1.2153-.5208.3472-.3473.5208-.6945.5208-1.2153 0-.5209-.1736-.8681-.5208-1.2153z" fill-opacity=".95" fill-rule="evenodd"/></svg>