<svg enable-background="new 0 0 50 50" viewBox="0 0 50 50" xmlns="http://www.w3.org/2000/svg"><path clip-rule="evenodd" d="m23.2639 11.7689-3.9931 3.9976c-.6944.6952-1.7361.6952-2.4305 0-.6945-.6953-.6945-1.7381 0-2.4333l6.9444-6.9524c.0868-.0869.1736-.1304.2605-.1738.0868-.0435.1736-.0869.2604-.1738.5208-.1738 1.0416-.1738 1.3889 0 .1736 0 .3472.1738.5208.3476l6.9444 6.9524c.6945.6952.6945 1.738 0 2.4333-.3472.3476-.6944.5214-1.2152.5214-.5209 0-.8681-.1738-1.2153-.5214l-3.9931-3.9976v18.4237c0 1.0428-.6944 1.7381-1.7361 1.7381s-1.7361-.6953-1.7361-1.7381zm17.3611 27.1141v-13.9047c0-1.0429-.6944-1.7381-1.7361-1.7381s-1.7361.6952-1.7361 1.7381v13.9047c0 1.0428-.6945 1.738-1.7361 1.738h-20.8334c-1.0416 0-1.7361-.6952-1.7361-1.738v-13.9047c0-1.0429-.6944-1.7381-1.7361-1.7381s-1.7361.6952-1.7361 1.7381v13.9047c0 2.9547 2.2569 5.2142 5.2083 5.2142h20.8334c2.9514 0 5.2083-2.2595 5.2083-5.2142z" fill-opacity=".95" fill-rule="evenodd"/></svg>