<svg enable-background="new 0 0 50 50" viewBox="0 0 50 50" xmlns="http://www.w3.org/2000/svg"><path clip-rule="evenodd" d="m25.3472 5.9028 13.8889 3.4722c.8681.1736 1.3889.8681 1.3889 1.7362v13.8889c0 11.2847-14.2361 18.5763-14.9306 18.9236-.1736.1736-.3472.1736-.6944.1736s-.5208 0-.6944-.1736c-.6945-.3473-14.9306-7.6389-14.9306-18.9236v-13.8889c0-.8681.5208-1.5625 1.2153-1.7362l13.8889-3.4722zm-.3472 34.5486c2.7778-1.7361 12.1528-7.6389 12.1528-15.4514v-12.5l-12.1528-3.125-12.1528 3.125v12.5c0 7.9861 9.375 13.8889 12.1528 15.4514z" fill-opacity=".95" fill-rule="evenodd"/></svg>