<svg enable-background="new 0 0 50 50" viewBox="0 0 50 50" xmlns="http://www.w3.org/2000/svg"><path clip-rule="evenodd" d="m45.3125 45.3125c-.3472.3472-.6945.5209-1.2153.5209s-.868-.1737-1.2153-.5209l-8.1597-8.1597c-2.6042 2.6042-5.5555 4.8611-9.0278 6.5972-.1736.3472-.3472.3472-.6944.3472s-.5208 0-.6945-.1736c-.6944-.3472-14.9305-7.6389-14.9305-18.9236v-12.1528c0-.1736.0434-.3038.0868-.434s.0868-.2604.0868-.434l-4.8611-4.8611c-.6944-.6944-.6944-1.7361 0-2.4306s1.7361-.6944 2.4306 0l38.1944 38.1945c.6944.6944.6944 1.7361 0 2.4305zm-27.4306-35.0694c-.3472-.868.1736-1.9097 1.0417-2.2569l5.5556-2.0833c.3472-.1736.868-.1736 1.2152 0l13.8889 5.2084c.5209.3472 1.0417 1.0416 1.0417 1.7361v12.1528c0 1.3889-.1736 2.7777-.6945 3.993-.1736.6945-.868 1.2153-1.7361 1.2153h-.5208c-.8681-.3472-1.3889-1.2153-1.2153-2.0833.3472-1.0417.5209-1.9098.5209-2.9514v-11.1112l-12.1528-4.5139-4.8611 1.7361c-.6945.3472-1.7361-.1736-2.0834-1.0417zm-5.0347 5.0347 19.4444 19.4445c-2.0833 2.2569-4.5138 4.1667-7.2916 5.7292-2.7778-1.7362-12.1528-7.6389-12.1528-15.4514z" fill-opacity=".95" fill-rule="evenodd"/></svg>