<svg enable-background="new 0 0 50 50" viewBox="0 0 50 50" xmlns="http://www.w3.org/2000/svg"><path clip-rule="evenodd" d="m11.4242 7.6389h-5.5214c-.9588 0-1.7361-.7773-1.7361-1.7361s.7773-1.7361 1.7361-1.7361h6.9444c.8275 0 1.54.584 1.7024 1.3954l1.4581 7.2851h28.0895c1.0893 0 1.9095.9914 1.7054 2.0614l-2.7803 14.5789c-.4915 2.4746-2.6859 4.2411-5.1751 4.1931l-16.8417-.0003c-2.5224.0483-4.7168-1.7182-5.2078-4.1903l-2.9005-14.4914c-.0117-.0479-.0215-.0966-.0292-.146zm4.8953 32.989c0 2.085 1.3877 3.4751 3.4694 3.4751 2.0816 0 3.4693-1.3901 3.4693-3.4751s-1.3877-3.4751-3.4693-3.4751c-2.0817 0-3.4694 1.3901-3.4694 3.4751zm19.0972-.0028c0 2.0833 1.3877 3.4722 3.4694 3.4722 2.0816 0 3.4694-1.3889 3.4694-3.4722 0-2.0834-1.3878-3.4723-3.4694-3.4723-2.0817 0-3.4694 1.3889-3.4694 3.4723zm-16.2138-11.814-2.5002-12.4916h25.2961l-2.3847 12.5046c-.1613.8119-.8928 1.4007-1.7336 1.3846l-16.9083-.0003c-.874.0164-1.6055-.5724-1.7693-1.3973z" fill-opacity=".95" fill-rule="evenodd"/></svg>