<svg enable-background="new 0 0 50 50" viewBox="0 0 50 50" xmlns="http://www.w3.org/2000/svg"><path clip-rule="evenodd" d="m37.8472 9.5642c-.5208-.347-1.3889-.1735-1.9097.1735l-17.3611 13.8819c-.3472.3471-.5208.8677-.5208 1.3882 0 .5206.1736 1.0412.6944 1.3882l17.3611 13.882c.3472.1735.6945.347 1.0417.347.1736 0 .5208 0 .6944-.1735.5209-.3471 1.0417-.8676 1.0417-1.5617v-27.7639c0-.6941-.3472-1.2147-1.0417-1.5617zm-2.4305 25.6816-12.8473-10.2379 12.8473-10.238zm-20.8334 1.9087v-24.2933c0-1.0412-.6944-1.7353-1.7361-1.7353-1.0416 0-1.7361.6941-1.7361 1.7353v24.2933c0 1.0412.6945 1.7353 1.7361 1.7353 1.0417 0 1.7361-.6941 1.7361-1.7353z" fill-opacity=".95" fill-rule="evenodd"/></svg>