<svg enable-background="new 0 0 50 50" viewBox="0 0 50 50" xmlns="http://www.w3.org/2000/svg"><path clip-rule="evenodd" d="m35.2689 5.7089c3.998 2.0844 6.6054 6.2532 8.8652 13.5485 4.3457 13.8959.5215 20.6702-13.3848 25.0127-3.6503 1.0422-6.6054 1.5633-9.3867 1.5633-7.8222 0-12.3417-4.6899-15.4706-15.1118-4.3457-13.896-.6953-20.6702 13.3847-24.839 7.3008-2.2581 12.3418-2.2581 15.9922-.1737zm-26.0742 23.9704c3.6504 12.1589 8.3437 14.7644 20.5117 11.1167 12.1679-3.6477 14.7753-8.5112 11.2988-20.6701-1.9121-6.2532-4.1719-9.9009-7.127-11.4642-1.3906-.6948-3.1289-1.0422-5.041-1.0422-2.2597 0-5.041.5211-8.5175 1.5633-12.168 3.6477-14.7754 8.5113-11.125 20.4965zm25.7265-5.3846-3.3027 1.2159-1.7383-4.8636 3.3027-1.2159c.8692-.3474 1.3906-1.2159 1.043-2.258-.3477-.8685-1.2168-1.3896-2.2598-1.0422l-3.3027 1.2159-1.2168-3.3003c-.3476-.8685-1.2168-1.3896-2.2597-1.0422-.8692.3474-1.3907 1.2159-1.043 2.2581l1.2168 3.3002-4.8672 1.737-1.043-3.4739c-.3476-.8685-1.3906-1.3896-2.2597-1.0422-.8692.1737-1.3906 1.2159-1.043 2.0843l1.2168 3.3003-3.3027 1.2159c-.8692.3474-1.3906 1.2159-1.043 2.2581.1738.6948.8692 1.2159 1.5645 1.2159.1738 0 .3476 0 .5214-.1737l3.3028-1.2159 1.7382 4.8636-3.3027 1.2159c-.8691.3474-1.3906 1.2159-1.0429 2.2581.1738.6947.8691 1.2158 1.5644 1.2158.1738 0 .3477 0 .5215-.1737l3.3027-1.2158 1.2168 3.3002c.1738.6948.8691 1.2159 1.5645 1.2159.1738 0 .3476 0 .5214-.1737.8692-.3474 1.3907-1.2159 1.043-2.2581l-1.2168-3.3002 4.8672-1.737 1.2168 3.3003c.1738.6947.8691 1.2158 1.5644 1.2158.1739 0 .3477 0 .5215-.1737.8692-.3474 1.3906-1.2158 1.043-2.258l-1.2168-3.3003 3.3027-1.2159c.8692-.3474 1.3906-1.2159 1.043-2.2581-.3477-1.0422-.8692-1.0422-1.7383-.6948zm-13.2109-.8685 1.7383 4.8635 4.8672-1.737-1.7383-4.8635z" fill-opacity=".95" fill-rule="evenodd"/></svg>