<svg enable-background="new 0 0 50 50" viewBox="0 0 50 50" xmlns="http://www.w3.org/2000/svg"><path clip-rule="evenodd" d="m33.6806 5.9028h-17.3612c-2.9513 0-5.2083 2.2569-5.2083 5.2084v27.7777c0 2.9514 2.257 5.2084 5.2083 5.2084h17.3612c2.9513 0 5.2083-2.257 5.2083-5.2084v-27.7777c0-2.9514-2.257-5.2084-5.2083-5.2084zm1.7361 32.9861c0 1.0417-.6945 1.7361-1.7362 1.7361h-17.3611c-1.0416 0-1.7361-.6944-1.7361-1.7361v-27.7778c0-1.0416.6945-1.7361 1.7361-1.7361h17.3611c1.0417 0 1.7362.6945 1.7362 1.7361zm-8.6806-3.4721c0-.3473-.1736-.8681-.5208-1.2153-.6945-.6945-1.7361-.6945-2.4306 0-.0868.0868-.1302.1736-.1736.2604s-.0868.1736-.1736.2604c-.1736.1736-.1736.5209-.1736.6945 0 .5208.1736.868.5208 1.2152.1736.1737.3473.3473.5209.3473.1736.1736.5208.1736.6944.1736.5208 0 .8681-.1736 1.2153-.5209.3472-.3472.5208-.6944.5208-1.2152z" fill-opacity=".95" fill-rule="evenodd"/></svg>