<svg enable-background="new 0 0 50 50" viewBox="0 0 50 50" xmlns="http://www.w3.org/2000/svg"><path d="m39.8 33.3c-.8-.6-1.8-.4-2.4.3l-1.5 2v-21.2l1.5 2c.3.4.9.7 1.4.7.4 0 .7-.1 1-.4.8-.6.9-1.7.3-2.4l-4.6-6.1s0-.1-.1-.1c0 0-.1-.1-.1-.1s-.1-.1-.1-.1-.1 0-.1-.1c0 0-.1 0-.1-.1h-.1-.1-.1-.1-.1-.1-.1-.1s-.1 0-.1 0h-.1-.1-.1-.1-.1s-.1 0-.1.1c0 0-.1 0-.1.1s-.1.1-.1.1-.1.1-.1.1-.1.1-.1.1l-4.6 6.1c-.6.8-.4 1.8.3 2.4.3.2.7.4 1 .4.5 0 1-.2 1.4-.7l1.5-2v21.1l-1.5-2c-.6-.8-1.7-.9-2.4-.3-.8.6-.9 1.7-.3 2.4l4.6 6.1s.1.1.1.1.1.1.1.1 0 0 .1.1c.1 0 .1.1.2.1 0 0 .1 0 .1.1 0 0 .1 0 .1.1h.1.1.4s0 0 0 0h.4.1.1s.1 0 .1-.1c0 0 .1 0 .1-.1.1 0 .1-.1.2-.1s0 0 .1-.1c0 0 .1-.1.1-.1s.1-.1.1-.1l4.6-6.1c.4-.7.3-1.8-.5-2.3z"/><path d="m14.4 7.5c-2.7 0-5 2.2-5 5v5.8c0 1 .8 1.7 1.7 1.7s1.7-.8 1.7-1.7v-1.7h3v1.7c0 1 .8 1.7 1.7 1.7s1.7-.8 1.7-1.7v-5.8c.2-2.7-2-5-4.8-5zm-1.5 5.7v-.7c0-.8.7-1.5 1.5-1.5s1.5.7 1.5 1.5v.7z"/><path d="m17.7 39h-2.7l4-4.5s0-.1.1-.1c0 0 .1-.1.1-.2 0 0 .1-.1.1-.1 0-.1.1-.1.1-.2s0-.1 0-.2 0-.1 0-.2 0-.1 0-.2v-.1c0-.1 0-.1 0-.2s0-.1 0-.2 0-.1 0-.2 0-.1-.1-.2c0 0 0-.1-.1-.1 0-.1-.1-.1-.1-.2 0 0-.1-.1-.1-.1s-.1-.1-.1-.1-.1 0-.1-.1c-.1 0-.1-.1-.2-.1 0 0-.1-.1-.1-.1-.1 0-.1 0-.2-.1-.1 0-.1 0-.2-.1-.1 0-.1 0-.2 0s-.1 0-.2 0h-.1-6.5c-1 0-1.7.8-1.7 1.7s.8 1.7 1.7 1.7h2.6l-3.9 4.4c-.3.3-.4.8-.4 1.2v.1c0 1 .8 1.7 1.7 1.7h6.5c1 0 1.7-.8 1.7-1.7s-.7-1.5-1.6-1.5z"/><path d="m12.7 28.1c0-1 .8-1.7 1.7-1.7.9 0 1.7.8 1.7 1.7 0 1-.8 1.7-1.7 1.7-.9 0-1.7-.8-1.7-1.7z"/><path d="m12.7 23.1c0-1 .8-1.7 1.7-1.7.9 0 1.7.8 1.7 1.7 0 1-.8 1.7-1.7 1.7-.9 0-1.7-.8-1.7-1.7z"/></svg>