<svg enable-background="new 0 0 50 50" viewBox="0 0 50 50" xmlns="http://www.w3.org/2000/svg"><path clip-rule="evenodd" d="m42.6482 18.426c.692.1733 1.2111.5199 1.3841 1.2133.1731.52 0 1.2133-.519 1.5599l-7.959 7.7999 1.9032 11.0931c.173.6934-.173 1.3867-.6921 1.7334-.346.1733-.692.3466-1.0381.3466h-.8651l-9.8622-5.1999-9.8622 5.1999c-.6921.3467-1.3842.1733-1.9033-.1733-.519-.3467-.8651-1.04-.692-1.7333l1.9032-11.0932-7.959-7.7998c-.5191-.3467-.6921-1.04-.5191-1.7333.3461-.6934.8651-1.2133 1.5572-1.2133l10.9003-1.7334 5.0176-9.8798c.5191-1.2133 2.5953-1.2133 3.1144 0l5.0176 10.0532zm-10.7274 10.3997c0-.52.1731-1.04.5191-1.56l6.2288-6.0665-8.4781-1.2133c-.6921 0-1.2111-.3467-1.3841-.8667l-3.8065-7.6265-3.8065 7.7999c-.346.3466-.8651.8666-1.3841.8666l-8.4781 1.2133 6.2288 5.8932c.346.52.519 1.04.519 1.56l-1.5572 8.4932 7.613-3.9866c.519-.3467 1.0381-.3467 1.5572 0l7.6129 3.9866z" fill-opacity=".95" fill-rule="evenodd"/></svg>