<svg enable-background="new 0 0 50 50" viewBox="0 0 50 50" xmlns="http://www.w3.org/2000/svg"><path clip-rule="evenodd" d="m5.9028 25.0001c0-10.5903 8.5069-19.0973 19.0972-19.0973s19.0972 8.507 19.0972 19.0973c0 10.5902-8.5069 19.0972-19.0972 19.0972s-19.0972-8.507-19.0972-19.0972zm3.4722-.0001c0 8.6806 6.9444 15.625 15.625 15.625 8.6805 0 15.625-6.9444 15.625-15.625 0-8.6805-6.9445-15.625-15.625-15.625-8.6806 0-15.625 6.9445-15.625 15.625zm20.8333-6.9443h-10.4166c-1.0417 0-1.7362.6944-1.7362 1.7361v10.4166c0 1.0417.6945 1.7361 1.7362 1.7361h10.4166c1.0417 0 1.7361-.6944 1.7361-1.7361v-10.4166c0-1.0417-.6944-1.7361-1.7361-1.7361zm-8.6805 3.4721v6.9445h6.9444v-6.9445z" fill-opacity=".95" fill-rule="evenodd"/></svg>