<svg enable-background="new 0 0 50 50" viewBox="0 0 50 50" xmlns="http://www.w3.org/2000/svg"><path clip-rule="evenodd" d="m23.2639 9.375v-3.4722c0-1.0417.6944-1.7361 1.7361-1.7361s1.7361.6944 1.7361 1.7361v3.4722c0 1.0417-.6944 1.7361-1.7361 1.7361s-1.7361-.6944-1.7361-1.7361zm-8.6806 15.625c0-5.7291 4.6875-10.4166 10.4167-10.4166s10.4167 4.6875 10.4167 10.4166c0 5.7292-4.6875 10.4167-10.4167 10.4167s-10.4167-4.6875-10.4167-10.4167zm3.4723 0c0 3.8194 3.125 6.9444 6.9444 6.9444 3.8195 0 6.9445-3.125 6.9445-6.9444 0-3.8195-3.125-6.9445-6.9445-6.9445-3.8194 0-6.9444 3.125-6.9444 6.9445zm8.6805 19.0972v-3.4722c0-1.0417-.6944-1.7361-1.7361-1.7361s-1.7361.6944-1.7361 1.7361v3.4722c0 1.0417.6944 1.7361 1.7361 1.7361s1.7361-.6944 1.7361-1.7361zm-16.493-31.4236c-.6945-.6945-.6945-1.7361 0-2.4306.6944-.6944 1.7361-.6944 2.4305 0l2.4306 2.4306c.6944.6944.6944 1.7361 0 2.4305-.1736.3473-.6945.5209-1.2153.5209s-.8681-.1736-1.2153-.5209zm29.5139 27.0834c.6944-.6945.6944-1.7361 0-2.4306l-2.4306-2.4305c-.6944-.6945-1.7361-.6945-2.4306 0-.6944.6944-.6944 1.7361 0 2.4305l2.4306 2.4306c.3472.3472.8681.5208 1.2153.5208s.868-.1736 1.2153-.5208zm-30.382-13.0209h-3.4722c-1.0417 0-1.7361-.6945-1.7361-1.7361 0-1.0417.6945-1.7361 1.7361-1.7361h3.4722c1.0417 0 1.7361.6944 1.7361 1.7361 0 1.0416-.6944 1.7361-1.7361 1.7361zm34.7222 0c1.0417 0 1.7361-.6945 1.7361-1.7361 0-1.0417-.6944-1.7361-1.7361-1.7361h-3.4722c-1.0417 0-1.7361.6944-1.7361 1.7361 0 1.0416.6944 1.7361 1.7361 1.7361zm-28.993 8.1598c.6944.6944.6944 1.7361 0 2.4305l-2.4306 2.4306c-.3472.3472-.868.5208-1.2153.5208-.3472 0-.868-.1736-1.2152-.5208-.6945-.6945-.6945-1.7361 0-2.4306l2.4305-2.4305c.6945-.6945 1.9097-.6945 2.4306 0zm19.7916-22.2223c-.6944.6944-.6944 1.7361 0 2.4305.1736.3473.8681.5209 1.2153.5209s.8681-.1736 1.2153-.5209l2.4306-2.4305c.6944-.6945.6944-1.7361 0-2.4306-.6945-.6944-1.7362-.6944-2.4306 0z" fill-opacity=".95" fill-rule="evenodd"/></svg>