<svg enable-background="new 0 0 50 50" viewBox="0 0 50 50" xmlns="http://www.w3.org/2000/svg"><path clip-rule="evenodd" d="m23.2639 11.7689-3.9931 3.9976c-.6944.6952-1.7361.6952-2.4305 0-.6945-.6953-.6945-1.7381 0-2.4333l6.9444-6.9524c.0868-.0869.1736-.1304.2604-.1738s.1736-.0869.2605-.1738c.5208-.1738 1.0416-.1738 1.3888 0 .1737 0 .3473.1738.5209.3476l6.9444 6.9524c.6945.6952.6945 1.738 0 2.4333-.3472.3476-.6944.5214-1.2153.5214-.5208 0-.868-.1738-1.2152-.5214l-3.9931-3.9976v7.9952c0 1.0428-.6944 1.7381-1.7361 1.7381s-1.7361-.6953-1.7361-1.7381zm-10.5903 13.7308c.3472.3476.8681.5214 1.2153.5214s.8681-.1738 1.2153-.5214c.6944-.6952.6944-1.7381 0-2.4333l-2.4306-2.4334c-.6944-.6952-1.7361-.6952-2.4305 0-.6945.6953-.6945 1.7381 0 2.4334zm22.7431 9.9072c0 1.0428-.6945 1.738-1.7361 1.738-1.0417 0-1.7362-.6952-1.7362-1.738 0-3.8238-3.125-6.9524-6.9444-6.9524s-6.9444 3.1286-6.9444 6.9524c0 1.0428-.6945 1.738-1.7362 1.738-1.0416 0-1.7361-.6952-1.7361-1.738 0-5.7357 4.6875-10.4286 10.4167-10.4286s10.4167 4.6929 10.4167 10.4286zm-26.0417 1.738h-3.4722c-1.0417 0-1.7361-.6952-1.7361-1.7381 0-1.0428.6944-1.738 1.7361-1.738h3.4722c1.0417 0 1.7361.6952 1.7361 1.738 0 1.0429-.6944 1.7381-1.7361 1.7381zm29.5139-1.7381c0 1.0429.6944 1.7381 1.7361 1.7381h3.4722c1.0417 0 1.7361-.6952 1.7361-1.7381 0-1.0428-.6944-1.738-1.7361-1.738h-3.4722c-1.0417 0-1.7361.6952-1.7361 1.738zm-1.5625-9.9071c-.3472.3476-.6945.5214-1.2153.5214s-1.0417-.1738-1.2153-.5214c-.6944-.6952-.6944-1.7381 0-2.4333l2.4306-2.4334c.6944-.6952 1.7361-.6952 2.4305 0 .6945.6953.6945 1.7381 0 2.4334zm-31.4236 15.1214c-1.0417 0-1.7361.6953-1.7361 1.7381 0 1.0429.6944 1.7381 1.7361 1.7381h38.1944c1.0417 0 1.7361-.6952 1.7361-1.7381 0-1.0428-.6944-1.7381-1.7361-1.7381z" fill-opacity=".95" fill-rule="evenodd"/></svg>