<svg enable-background="new 0 0 50 50" viewBox="0 0 50 50" xmlns="http://www.w3.org/2000/svg"><path clip-rule="evenodd" d="m42.5495 22.9445-14.7897-14.7897c-.344-.3439-.6879-.5159-1.2039-.5159h-17.1973c-1.0318 0-1.7197.6879-1.7197 1.7197v17.1973c0 .5159.172.8599.5159 1.2038l14.7897 14.7897c1.0318 1.0319 2.2357 1.5478 3.6114 1.5478 1.3758 0 2.7516-.5159 3.6115-1.5478l12.3821-12.382c2.0636-2.0637 2.0636-5.1592 0-7.2229zm-2.4077 4.8153-12.382 12.3821c-.6879.6879-1.7198.6879-2.4077 0l-14.2738-14.2738v-14.7897h14.7897l14.2738 14.2738c.6879.6879.6879 1.7197 0 2.4076zm-20.4648-9.8025c0-.516-.172-.8599-.5159-1.2039-.172-.1719-.344-.3439-.5159-.3439-.6879-.3439-1.3758-.172-1.8917.3439-.344.344-.516.6879-.516 1.2039 0 .1719 0 .5159.172.6879 0 .1719.172.3439.344.5159.3439.3439.6879.5159 1.2038.5159s.8598-.172 1.2038-.5159c.3439-.344.5159-.6879.5159-1.2038z" fill-opacity=".95" fill-rule="evenodd"/></svg>