<svg viewBox="0 0 50 50" xmlns="http://www.w3.org/2000/svg"><g fill-opacity=".95" fill-rule="evenodd"><path d="m36.45177 45.65321a2.4474 2.4474 0 0 1 -2.50159-2.5026c0-.27171-.06216-.30681-.16544-.3409a.70685.70685 0 0 0 -.21556-.0401.25217.25217 0 0 0 -.18649.06617 2.4516 2.4516 0 0 1 -3.58244.07721 2.42506 2.42506 0 0 1 0-3.50524c.17546-.17546.14739-.30982.1143-.375a.31973.31973 0 0 0 -.27573-.1925h-.1524a2.47551 2.47551 0 0 1 -2.50259-2.5026 2.44739 2.44739 0 0 1 2.50259-2.50159.4471.4471 0 0 0 .35193-.19251.39267.39267 0 0 0 -.0381-.377 2.45152 2.45152 0 0 1 -.07721-3.58144 2.31788 2.31788 0 0 1 1.72455-.749 2.50866 2.50866 0 0 1 1.78169.749.72928.72928 0 0 0 .32887.12333.8248.8248 0 0 1 .16343-.09124l.03008-.009.09826-.006c-.01905-.015.02406-.08924.02406-.17747v-.1534a2.50209 2.50209 0 0 1 5.00418 0 .32909.32909 0 0 0 .1123.25567.65763.65763 0 0 0 .20755.04913.24053.24053 0 0 0 .17045-.06617 2.5629 2.5629 0 0 1 1.82982-.75 2.41461 2.41461 0 0 1 1.75261.749 2.31837 2.31837 0 0 1 .749 1.67241 2.53372 2.53372 0 0 1 -.749 1.83383c-.17546.17546-.14738.30882-.1143.373a.25829.25829 0 0 1 .09826.24665.6696.6696 0 0 0 .17747.02407h.1524a2.4755 2.4755 0 0 1 2.50259 2.50259 2.44739 2.44739 0 0 1 -2.50259 2.50159.35121.35121 0 0 0 -.35193.19251.52137.52137 0 0 0 .0762.35293 2.37773 2.37773 0 0 1 .77801 1.72446 2.4638 2.4638 0 0 1 -.73894 1.80375 2.31782 2.31782 0 0 1 -1.72455.749 2.50863 2.50863 0 0 1 -1.78169-.749.40017.40017 0 0 0 -.27172-.13936.24828.24828 0 0 0 -.10427.02406.31814.31814 0 0 0 -.1915.27573v.1534a2.47552 2.47552 0 0 1 -2.50256 2.50263zm-2.90866-4.77458a1.67435 1.67435 0 0 1 .95552.18649 2.15384 2.15384 0 0 1 1.39367 2.00929c0 .42211.21456.63668.55947.63668a.51983.51983 0 0 0 .56048-.56048v-.1534a2.192 2.192 0 0 1 1.35356-2.02734 2.07252 2.07252 0 0 1 .93447-.22359 2.1363 2.1363 0 0 1 1.508.65171c.20955.21056.31383.24565.46623.24565a.55241.55241 0 0 0 .391-.9505 2.36444 2.36444 0 0 1 -.50433-2.51764 2.19031 2.19031 0 0 1 2.02734-1.35457c.41108 0 .63668-.19852.63668-.55947a.51983.51983 0 0 0 -.56048-.56048h-.1524a2.1954 2.1954 0 0 1 -2.02832-1.35356c-.09124-.06918-.09124-.21758-.09124-.30581a2.2151 2.2151 0 0 1 .51936-2.21283.56813.56813 0 0 0 .07721-.85726.53586.53586 0 0 0 -.78106-.001 2.4806 2.4806 0 0 1 -1.65937.67277 2.30709 2.30709 0 0 1 -.85927-.16744 2.11093 2.11093 0 0 1 -1.35356-2.02734c0-.40507-.20454-.63668-.56048-.63668a.51927.51927 0 0 0 -.55947.55948v.1534a2.19134 2.19134 0 0 1 -1.35457 2.02734c-.06618.09225-.21657.09225-.30581.09225a1.8513 1.8513 0 0 1 -.64871.10327 2.21907 2.21907 0 0 1 -1.56412-.62264.70712.70712 0 0 0 -.49029-.23763.51277.51277 0 0 0 -.367.16042.53369.53369 0 0 0 0 .78106 2.36571 2.36571 0 0 1 .50438 2.51864 2.17581 2.17581 0 0 1 -2.02734 1.43077c-.42211 0-.63668.21456-.63668.55947a.51983.51983 0 0 0 .56048.56048h.1524a2.19542 2.19542 0 0 1 2.02835 1.35356 2.07163 2.07163 0 0 1 -.42813 2.44144c-.21056.20955-.24565.31382-.24565.46723a.48928.48928 0 0 0 .16945.391.53361.53361 0 0 0 .78 0 2.28667 2.28667 0 0 1 1.60023-.67274zm2.83246-1.34956a3.26761 3.26761 0 1 1 3.26761-3.26761 3.27133 3.27133 0 0 1 -3.26761 3.26761zm0-4.5931a1.32549 1.32549 0 1 0 1.32549 1.32549 1.32693 1.32693 0 0 0 -1.32549-1.32546z"/><path d="m42.72935 38.86393a.551.551 0 0 1 .53587-.30619 2.29654 2.29654 0 0 0 0-4.59308h-.15309a.421.421 0 0 1 -.38278-.22963c0-.07659 0-.07659-.07654-.15314a.51734.51734 0 0 1 .15309-.61241 2.29675 2.29675 0 0 0 -1.60756-3.90408 2.37464 2.37464 0 0 0 -1.6841.689.47156.47156 0 0 1 -.53587.07654c-.15309 0-.30623-.22968-.30623-.45932a2.29652 2.29652 0 0 0 -4.593 0v.1531a.42093.42093 0 0 1 -.22968.38277.20963.20963 0 0 0 -.06786.00587c-.02249.00793-.04118.02667-.08523.07068a.675.675 0 0 1 -.61242-.1531 2.21948 2.21948 0 0 0 -3.21511 0 2.24735 2.24735 0 0 0 .07655 3.29171.57792.57792 0 0 1 .07654.61242.64447.64447 0 0 1 -.53587.30618 2.29654 2.29654 0 0 0 0 4.59308h.1531a.5141.5141 0 0 1 .30623.9186 2.22 2.22 0 0 0 0 3.21516 2.24741 2.24741 0 0 0 3.2917-.07654.57775.57775 0 0 1 .61237-.07659c.22969.07659.30623.22968.30623.53586a2.29654 2.29654 0 1 0 4.59308 0v-.15309a.51407.51407 0 0 1 .9186-.30618 2.21961 2.21961 0 0 0 3.21516 0 2.24738 2.24738 0 0 0 -.07659-3.29171.67237.67237 0 0 1 -.07659-.53591zm-9.41575-2.60275a3.062 3.062 0 1 1 3.062 3.062 3.071 3.071 0 0 1 -3.062-3.062zm1.531 0a1.531 1.531 0 1 0 1.531-1.53106 1.53552 1.53552 0 0 0 -1.53099 1.53111zm6.96615 4.2868a2.16629 2.16629 0 0 1 -.45933-2.29652 1.98949 1.98949 0 0 1 1.83724-1.22482.74641.74641 0 0 0 .84206-.76551.72321.72321 0 0 0 -.76551-.7655h-.15309a1.98949 1.98949 0 0 1 -1.83724-1.22483.2812.2812 0 0 1 -.07655-.22964 2.06088 2.06088 0 0 1 .45932-2.06688.77222.77222 0 0 0 .07655-1.14828.74005.74005 0 0 0 -1.07174 0 2.16629 2.16629 0 0 1 -2.29652.45932 1.91485 1.91485 0 0 1 -1.22482-1.83724.74638.74638 0 0 0 -.76551-.84205.7232.7232 0 0 0 -.7655.7655v.1531a1.98949 1.98949 0 0 1 -1.22483 1.83724.28122.28122 0 0 1 -.22964.07654 2.06088 2.06088 0 0 1 -2.06688-.45932.77222.77222 0 0 0 -1.14828-.07654.74005.74005 0 0 0 0 1.07173 2.16629 2.16629 0 0 1 .45932 2.29652 1.98353 1.98353 0 0 1 -1.83724 1.30137h-.07656a.76551.76551 0 0 0 0 1.531h.1531a1.98946 1.98946 0 0 1 1.83724 1.22483 1.869 1.869 0 0 1 -.38278 2.22.79062.79062 0 0 0 -.30618.61242.695.695 0 0 0 .22964.53586.74.74 0 0 0 1.07173 0 2.09127 2.09127 0 0 1 1.45447-.61241 1.51426 1.51426 0 0 1 .84205.15309 1.98343 1.98343 0 0 1 1.30137 1.83724v.07655a.76551.76551 0 0 0 1.531 0v-.15309a1.9894 1.9894 0 0 1 1.22483-1.83724 1.869 1.869 0 0 1 2.22.38273.79064.79064 0 0 0 .61242.30623.75792.75792 0 0 0 .53587-1.30138z"/><path d="m8.958 11.81829a5.90674 5.90674 0 1 1 5.90666 5.88327 5.83772 5.83772 0 0 1 -5.90666-5.88327zm16.53875 14.11983v2.35329a1.18132 1.18132 0 0 1 -2.36263 0v-2.35329a3.47393 3.47393 0 0 0 -3.544-3.53h-9.45078a3.47392 3.47392 0 0 0 -3.544 3.53v2.35329a1.11386 1.11386 0 0 1 -1.18134 1.17664 1.11385 1.11385 0 0 1 -1.18131-1.17664v-2.35329a5.83777 5.83777 0 0 1 5.90665-5.88327h9.45075a5.83773 5.83773 0 0 1 5.90666 5.88327zm-10.63206-10.58991a3.53 3.53 0 1 1 3.544-3.52992 3.47382 3.47382 0 0 1 -3.544 3.52992zm13.231 4.942a1.15618 1.15618 0 1 0 -.59065 2.23563 3.43273 3.43273 0 0 1 2.599 3.41226 1.18133 1.18133 0 0 0 2.36264 0 5.46809 5.46809 0 0 0 -4.37096-5.64787zm-6.143-13.29617a1.08589 1.08589 0 0 1 1.41765-.82367 5.873 5.873 0 0 1 4.25282 7.29524 5.75711 5.75711 0 0 1 -4.25282 4.23593h-.23626a1.14946 1.14946 0 0 1 -1.18139-.94132 1.11646 1.11646 0 0 1 .827-1.412 3.61271 3.61271 0 0 0 2.5989-2.58867 3.57355 3.57355 0 0 0 -2.59887-4.35355 1.20958 1.20958 0 0 1 -.82699-1.41194z"/></g></svg>