<svg viewBox="0 0 50 50" xmlns="http://www.w3.org/2000/svg"><g fill-opacity=".95" fill-rule="evenodd"><path d="m44.10506 13.8889a1.89889 1.89889 0 0 1 0 1.3889c0 .1736-.1738.3472-.3476.5208l-6.9532 6.9445a1.68175 1.68175 0 0 1 -2.4335 0 1.6767 1.6767 0 0 1 0-2.4306l3.998-3.993h-30.72766a1.64131 1.64131 0 0 1 -1.7383-1.7362 1.64128 1.64128 0 0 1 1.7383-1.7361h30.72766l-3.998-3.993a1.71972 1.71972 0 1 1 2.4335-2.4306l6.9532 6.9445a.9068.9068 0 0 1 .1738.2604.90887.90887 0 0 0 .1738.2604z"/><path d="m6.207 34.4618a.9068.9068 0 0 1 .1738-.2604l6.9532-6.9445a1.71972 1.71972 0 0 1 2.4335 2.4306l-3.998 3.993h30.72769a1.73615 1.73615 0 1 1 0 3.4723h-30.72766l3.998 3.993a1.6767 1.6767 0 0 1 0 2.4306 1.87883 1.87883 0 0 1 -1.2168.5208 1.87876 1.87876 0 0 1 -1.2167-.5208l-6.95321-6.9445c-.17379-.1736-.34759-.3472-.34759-.5208a1.89879 1.89879 0 0 1 0-1.3889.90887.90887 0 0 0 .17377-.2604z"/></g></svg>