<svg enable-background="new 0 0 50 50" viewBox="0 0 50 50" xmlns="http://www.w3.org/2000/svg"><path d="m45.8334 14.5833v10.4166c0 1.0417-.6945 1.7362-1.7362 1.7362-1.0416 0-1.7361-.6945-1.7361-1.7362v-6.25l-13.5416 13.5417c-.6945.6945-1.7361.6945-2.4306 0l-7.4653-7.4653-11.8055 11.8056c-.3472.3472-.6944.5208-1.2153.5208-.5208 0-.8681-.1736-1.2153-.5208-.6944-.6945-.6944-1.7361 0-2.4306l13.0209-13.0208c.6944-.6944 1.7361-.6944 2.4305 0l7.4653 7.4653 12.3264-12.3264h-6.25c-1.0417 0-1.7361-.6945-1.7361-1.7361 0-1.0417.6944-1.7361 1.7361-1.7361h10.4166c.1737 0 .5209 0 .6945.1736.3472.1736.6944.5208.868.868.1737.1736.1737.5209.1737.6945z" fill-opacity=".95"/></svg>