<svg enable-background="new 0 0 50 50" viewBox="0 0 50 50" xmlns="http://www.w3.org/2000/svg"><path d="m40.625 11.1111v5.2083c0 1.0417-.6944 1.7362-1.7361 1.7362s-1.7361-.6945-1.7361-1.7362v-3.4722h-10.4167v24.3056h3.4722c1.0417 0 1.7361.6944 1.7361 1.7361s-.6944 1.7361-1.7361 1.7361h-10.4166c-1.0417 0-1.7361-.6944-1.7361-1.7361s.6944-1.7361 1.7361-1.7361h3.4722v-24.3056h-10.4167v3.4722c0 1.0417-.6944 1.7362-1.7361 1.7362s-1.7361-.6945-1.7361-1.7362v-5.2083c0-1.0417.6944-1.7361 1.7361-1.7361h27.7778c1.0417 0 1.7361.6944 1.7361 1.7361z" fill-opacity=".95"/></svg>