<svg enable-background="new 0 0 50 50" viewBox="0 0 50 50" xmlns="http://www.w3.org/2000/svg"><path clip-rule="evenodd" d="m12.8472 9.3749v12.1528c0 6.7708 5.382 12.1528 12.1528 12.1528s12.1528-5.382 12.1528-12.1528v-12.1528c0-1.0417-.6945-1.7361-1.7361-1.7361-1.0417 0-1.7361.6944-1.7361 1.7361v12.1528c0 4.8611-3.8195 8.6805-8.6806 8.6805s-8.6806-3.8194-8.6806-8.6805v-12.1528c0-1.0417-.6944-1.7361-1.7361-1.7361-1.0416 0-1.7361.6944-1.7361 1.7361zm-1.7361 29.5139h27.7778c1.0417 0 1.7361.6944 1.7361 1.7361s-.6944 1.7361-1.7361 1.7361h-27.7778c-1.0417 0-1.7361-.6944-1.7361-1.7361s.6944-1.7361 1.7361-1.7361z" fill-opacity=".95" fill-rule="evenodd"/></svg>