<svg enable-background="new 0 0 50 50" viewBox="0 0 50 50" xmlns="http://www.w3.org/2000/svg"><path clip-rule="evenodd" d="m18.0556 21.5278h19.0972c2.9514 0 5.2083 2.257 5.2083 5.2084v12.1527c0 2.9514-2.2569 5.2084-5.2083 5.2084h-24.3056c-2.9514 0-5.2083-2.257-5.2083-5.2084v-12.1527c0-2.9514 2.2569-5.2084 5.2083-5.2084h1.7361v-5.2083c0-2.7778 1.0417-5.3819 3.125-7.2917 1.9098-2.0833 4.5139-3.125 7.2917-3.125 4.8611 0 9.2014 3.4722 10.2431 8.3334.1736 1.0416-.5209 1.9097-1.3889 2.0833-.8681.1736-1.9098-.5208-2.0834-1.3889-.6944-3.2986-3.4722-5.5556-6.7708-5.5556-1.9097 0-3.6458.6945-4.8611 2.0834-1.3889 1.2153-2.0833 2.9514-2.0833 4.8611zm19.0972 19.0972c1.0416 0 1.7361-.6944 1.7361-1.7361v-12.1528c0-1.0416-.6945-1.7361-1.7361-1.7361h-24.3056c-1.0417 0-1.7361.6945-1.7361 1.7361v12.1528c0 1.0417.6944 1.7361 1.7361 1.7361z" fill-opacity=".95" fill-rule="evenodd"/></svg>