<svg enable-background="new 0 0 50 50" viewBox="0 0 50 50" xmlns="http://www.w3.org/2000/svg"><path clip-rule="evenodd" d="m16.3194 16.3193c0-4.8611 3.8195-8.6805 8.6806-8.6805s8.6805 3.8194 8.6805 8.6805c0 4.8612-3.8194 8.6806-8.6805 8.6806s-8.6806-3.8194-8.6806-8.6806zm24.3056 20.8334v3.4722c0 1.0417-.6944 1.7361-1.7361 1.7361s-1.7361-.6944-1.7361-1.7361v-3.4722c0-2.9514-2.257-5.2084-5.2084-5.2084h-13.8888c-2.9514 0-5.2084 2.257-5.2084 5.2084v3.4722c0 1.0417-.6944 1.7361-1.7361 1.7361s-1.7361-.6944-1.7361-1.7361v-3.4722c0-4.8611 3.8194-8.6806 8.6806-8.6806h13.8888c4.8612 0 8.6806 3.8195 8.6806 8.6806zm-15.625-15.6251c-2.9514 0-5.2083-2.2569-5.2083-5.2083s2.2569-5.2083 5.2083-5.2083 5.2083 2.2569 5.2083 5.2083-2.2569 5.2083-5.2083 5.2083z" fill-opacity=".95" fill-rule="evenodd"/></svg>