<svg enable-background="new 0 0 50 50" viewBox="0 0 50 50" xmlns="http://www.w3.org/2000/svg"><path clip-rule="evenodd" d="m44.9653 14.757c-.5208-.3472-1.2153-.1736-1.7361.1737l-9.5486 6.7708v-5.382c0-2.9513-2.257-5.2083-5.2084-5.2083h-19.0972c-2.9514 0-5.2083 2.257-5.2083 5.2083v17.3612c0 2.9513 2.257 5.2083 5.2083 5.2083h19.0972c2.9514 0 5.2084-2.257 5.2084-5.2083v-5.382l9.375 6.7708c.3472.1737.6944.3473 1.0416.3473.3473 0 .5209 0 .8681-.1736.5208-.3473.868-.8681.868-1.5625v-17.3612c0-.6944-.3472-1.2152-.868-1.5625zm-14.757 18.9236c0 1.0417-.6944 1.7361-1.7361 1.7361h-19.0972c-1.0417 0-1.7361-.6944-1.7361-1.7361v-17.3611c0-1.0417.6945-1.7361 1.7361-1.7361h19.0972c1.0417 0 1.7361.6944 1.7361 1.7361zm4.6875-8.6805 7.4653 5.382v-10.7639z" fill-opacity=".95" fill-rule="evenodd"/></svg>