<svg enable-background="new 0 0 50 50" viewBox="0 0 50 50" xmlns="http://www.w3.org/2000/svg"><path clip-rule="evenodd" d="m31.0976 11.4739c.4767-.347 1.2712-.5206 1.748-.1735.6356.347.9534.8675.7945 1.5616v24.2919c0 .694-.4767 1.2145-.9535 1.5616-.1589.1735-.4767.1735-.6356.1735-.3178 0-.6356-.1735-.9534-.347l-7.4685-6.5935h-5.7206c-.9534 0-1.589-.6941-1.589-1.7352v-10.4108c0-1.0411.6356-1.7351 1.589-1.7351h5.7206zm-5.8795 17.3513 5.4028 4.6848v-17.0043l-5.4028 4.6849c-.3178.1735-.6356.347-.9534.347h-4.7671v6.9405h4.7671c.3178 0 .6356.1736.9534.3471z" fill-opacity=".95" fill-rule="evenodd"/></svg>