<svg enable-background="new 0 0 50 50" viewBox="0 0 50 50" xmlns="http://www.w3.org/2000/svg"><path clip-rule="evenodd" d="m22.0303 11.4716c.5202-.3448 1.3873-.5173 1.9075-.1724.6937.3449 1.0405.8622.8671 1.5519v24.1411c0 .6897-.5202 1.207-1.0405 1.5519-.1734.1724-.5202.1724-.6936.1724-.3469 0-.6937-.1724-1.0405-.3448l-8.1505-6.5526h-6.2429c-1.0405 0-1.7341-.6897-1.7341-1.7244v-10.3461c0-1.0347.6937-1.7244 1.7341-1.7244h6.2429zm-6.4164 17.2437 5.8961 4.6558v-16.8988l-5.8961 4.6558c-.3468.1724-.6936.3449-1.0404.3449h-5.2025v6.8974h5.2025c.3468 0 .6936.1725 1.0404.3449zm16.6478-11.0359c3.9885 3.966 3.9885 10.5186 0 14.657-.3468.3449-.867.5173-1.2139.5173-.3468 0-.867-.1724-1.2139-.5173-.6936-.6897-.6936-1.7243 0-2.4141 2.7747-2.759 2.7747-7.0699 0-9.8288-.6936-.6898-.6936-1.7244 0-2.4141.6937-.6898 1.9076-.6898 2.4278 0zm5.029 21.2096c.3468 0 .8671-.1725 1.2139-.5173 7.4568-7.4148 7.4568-19.4853 0-26.7277-.6936-.6897-1.7341-.6897-2.4278 0-.6936.6898-.6936 1.7244 0 2.4142 6.0695 6.0352 6.0695 15.8641 0 21.8993-.6936.6898-.6936 1.7244 0 2.4142.3468.3448.8671.5173 1.2139.5173z" fill-opacity=".95" fill-rule="evenodd"/></svg>