<svg enable-background="new 0 0 50 50" viewBox="0 0 50 50" xmlns="http://www.w3.org/2000/svg"><path clip-rule="evenodd" d="m4.8024 17.0956c11.4729-10.2941 28.8615-10.2941 40.3344 0 .8963.7353.8963 1.8382.1793 2.7573-.7171.7353-1.7927.9192-2.5097.1839-10.0388-9.1912-25.2762-9.1912-35.4943 0-.3585.1838-.8963.3676-1.2548.3676-.5378 0-.8963-.1838-1.4341-.7353-.7171-.7353-.5378-1.8382.1792-2.5735zm34.2394 9.1912c.7171-.7353.5378-1.8382-.1792-2.5735-7.8876-6.8015-19.5398-6.8015-27.6067-.1838-.717.5514-.8963 1.8382-.1792 2.5735.3585.5515.8963.7353 1.4341.7353.3585 0 .717 0 1.0756-.3677 6.6327-5.6985 16.313-5.6985 22.9458 0 .717.7353 1.7926.5515 2.5096-.1838zm-21.1531 3.8603c-.8963.5514-1.0756 1.6544-.3586 2.5735.5378.9191 1.6134 1.1029 2.5097.3676 3.0475-2.2059 7.3499-2.2059 10.3974 0 .3585.1839.717.3677 1.0755.3677.5378 0 1.0756-.1838 1.4342-.7353.5377-.9191.3585-2.0221-.3586-2.5735-4.6608-3.125-10.3973-3.125-14.6996 0zm5.5572 7.9044c0-.1838.1792-.3676.3585-.5514.7171-.7353 1.7926-.7353 2.5097 0 .3585.3676.5378.7353.5378 1.2867 0 .5515-.1793.9191-.5378 1.2868-.3585.3676-.7171.5515-1.2549.5515-.21 0-.3585-.0631-.4815-.1154-.087-.0369-.1613-.0685-.2355-.0685-.1793 0-.3585-.1838-.5378-.3676-.3585-.3677-.5378-.7353-.5378-1.2868 0-.2153.0615-.3676.1125-.4938.036-.0892.0668-.1653.0668-.2415z" fill-opacity=".95" fill-rule="evenodd"/></svg>