<svg enable-background="new 0 0 50 50" viewBox="0 0 50 50" xmlns="http://www.w3.org/2000/svg"><path clip-rule="evenodd" d="m5.9028 18.0556c0-1.0417.6952-1.7362 1.7381-1.7362h15.6427c.3477 0 .8691-.1736 1.2167-.5208.6952-.6944.6952-1.7361 0-2.4305-.3476-.3473-.6952-.5209-1.2167-.5209-.3476 0-.869.1736-1.2166.5209-.6953.6944-1.7381.6944-2.4333 0-.6953-.6945-.6953-1.7362 0-2.4306.869-1.0417 2.2595-1.5625 3.6499-1.5625 1.3905 0 2.6072.5208 3.65 1.5625 2.0857 2.0833 2.0857 5.3819 0 7.2917-.869 1.0416-2.2595 1.5625-3.65 1.5625h-15.6427c-1.0429 0-1.7381-.6945-1.7381-1.7361zm22.5951 12.1527h-20.857c-1.0429 0-1.7381.6945-1.7381 1.7361 0 1.0417.6952 1.7362 1.7381 1.7362h20.857c.5214 0 .869.1736 1.2167.5208.3476.3472.5214.6944.5214 1.2153 0 .5208-.1738.868-.5214 1.2152-.3477.3473-.6953.5209-1.2167.5209-.3476 0-.869-.1736-1.2167-.5209-.6952-.6944-1.7381-.6944-2.4333 0-.6952.6945-.6952 1.7362 0 2.4306 1.0429 1.0417 2.2595 1.5625 3.65 1.5625s2.6071-.5208 3.65-1.5625c1.0428-1.0417 1.5643-2.2569 1.5643-3.6458s-.5215-2.7778-1.5643-3.6459c-.8691-1.0416-2.2595-1.5625-3.65-1.5625zm5.3881-13.8888c2.2595-2.4306 6.0833-2.4306 8.5166 0 2.2595 2.4305 2.2595 6.25 0 8.5069-1.2167 1.0417-2.781 1.7361-4.3452 1.7361h-30.4165c-1.0429 0-1.7381-.6944-1.7381-1.7361 0-1.0416.6952-1.7361 1.7381-1.7361h30.4165c.6952 0 1.3904-.1736 1.9119-.6944 1.0428-1.0417 1.0428-2.6042 0-3.6459-1.0429-1.0416-2.6072-1.0416-3.65 0-.6953.6945-1.7381.6945-2.4333 0-.6953-.6944-.6953-1.7361 0-2.4305z" fill-opacity=".95" fill-rule="evenodd"/></svg>