<svg enable-background="new 0 0 50 50" viewBox="0 0 50 50" xmlns="http://www.w3.org/2000/svg"><path clip-rule="evenodd" d="m40.611 19.7917c.6938 0 1.2141.3472 1.561 1.0417.347.5208.1735 1.2153-.1734 1.7361l-17.3455 20.8333c-.3469.5209-.8673.6945-1.3876.6945-.1735 0-.5204 0-.6938-.1736-.6939-.1736-1.2142-1.0417-1.0408-1.7361l1.5611-11.9792h-13.7029c-.6938 0-1.2142-.3472-1.5611-.8681-.3469-.6944-.1734-1.3889.1735-1.9097l17.3454-20.8333c.5204-.6944 1.3877-.8681 2.0815-.5208.6938.1736 1.2142 1.0417 1.0407 1.7361l-1.5611 11.9791zm-13.8764 8.8542-1.0408 7.9861 11.1011-13.368h-11.9683c-.3469 0-.8673-.1736-1.2142-.5208-.1735-.3473-.3469-.8681-.3469-1.3889l.8673-7.9861-11.1011 13.368h11.9683c.5204 0 1.0408.1736 1.3877.5208.1734.3473.3469.8681.3469 1.3889z" fill-opacity=".95" fill-rule="evenodd"/></svg>