<svg width="88" height="40" viewBox="0 0 88 40" fill="none" xmlns="http://www.w3.org/2000/svg">
<path d="M58.4037 8.27324L53.9146 3.49146C53.7965 3.37761 53.5602 3.37761 53.4027 3.49146L48.6773 8.27324C48.441 8.50095 48.5985 8.8425 48.9135 8.8425H51.5913C51.0006 13.1309 47.1415 16.4706 42.4949 16.4706C37.4151 16.4706 33.2803 12.4858 33.2803 7.59013V4.09867C33.2803 3.68121 33.6347 3.37761 34.0285 3.37761H48.2835C48.4016 3.37761 48.4804 3.33966 48.5591 3.26376L51.3944 0.645161C51.67 0.379507 51.4731 0 51.1581 0H31.0358C30.1694 0 29.5 0.645161 29.5 1.48008V7.47628C29.5 14.3454 35.328 20 42.4949 20C49.1498 20 54.6628 15.1044 55.411 8.88046H58.1675C58.4825 8.8425 58.6006 8.50095 58.4037 8.27324Z" fill="#BEBEBE"/>
<path d="M1.30371 27.8906H2.54395L4.37012 33.1104L6.19629 27.8906H7.43652L4.86816 35H3.87207L1.30371 27.8906ZM0.634766 27.8906H1.87012L2.09473 32.9785V35H0.634766V27.8906ZM6.87012 27.8906H8.11035V35H6.64551V32.9785L6.87012 27.8906ZM12.1582 33.8086V31.4551C12.1582 31.2858 12.1305 31.141 12.0752 31.0205C12.0199 30.8968 11.9336 30.8008 11.8164 30.7324C11.7025 30.6641 11.5544 30.6299 11.3721 30.6299C11.2158 30.6299 11.0807 30.6576 10.9668 30.7129C10.8529 30.765 10.765 30.8415 10.7031 30.9424C10.6413 31.04 10.6104 31.1556 10.6104 31.2891H9.2041C9.2041 31.0645 9.25618 30.8512 9.36035 30.6494C9.46452 30.4476 9.61589 30.2702 9.81445 30.1172C10.013 29.9609 10.249 29.8389 10.5225 29.751C10.7992 29.6631 11.1084 29.6191 11.4502 29.6191C11.8604 29.6191 12.2249 29.6875 12.5439 29.8242C12.863 29.9609 13.1136 30.166 13.2959 30.4395C13.4814 30.7129 13.5742 31.0547 13.5742 31.4648V33.7256C13.5742 34.0153 13.5921 34.2529 13.6279 34.4385C13.6637 34.6208 13.7158 34.7803 13.7842 34.917V35H12.3633C12.2949 34.8568 12.2428 34.6777 12.207 34.4629C12.1745 34.2448 12.1582 34.0267 12.1582 33.8086ZM12.3438 31.7822L12.3535 32.5781H11.5674C11.3818 32.5781 11.2207 32.5993 11.084 32.6416C10.9473 32.6839 10.835 32.7441 10.7471 32.8223C10.6592 32.8971 10.5941 32.985 10.5518 33.0859C10.5127 33.1868 10.4932 33.2975 10.4932 33.418C10.4932 33.5384 10.5208 33.6475 10.5762 33.7451C10.6315 33.8395 10.7113 33.9144 10.8154 33.9697C10.9196 34.0218 11.0417 34.0479 11.1816 34.0479C11.3932 34.0479 11.5771 34.0055 11.7334 33.9209C11.8896 33.8363 12.0101 33.7321 12.0947 33.6084C12.1826 33.4847 12.2282 33.3675 12.2314 33.2568L12.6025 33.8525C12.5505 33.986 12.4788 34.1243 12.3877 34.2676C12.2998 34.4108 12.1875 34.5459 12.0508 34.6729C11.9141 34.7965 11.7497 34.8991 11.5576 34.9805C11.3656 35.0586 11.1377 35.0977 10.874 35.0977C10.5387 35.0977 10.2344 35.0309 9.96094 34.8975C9.69076 34.7607 9.47591 34.5736 9.31641 34.3359C9.16016 34.0951 9.08203 33.8216 9.08203 33.5156C9.08203 33.2389 9.13411 32.9932 9.23828 32.7783C9.34245 32.5635 9.49544 32.3828 9.69727 32.2363C9.90234 32.0866 10.1579 31.9743 10.4639 31.8994C10.7699 31.8213 11.1247 31.7822 11.5283 31.7822H12.3438ZM17.7783 33.8477V27.5H19.1943V35H17.9199L17.7783 33.8477ZM14.4385 32.4219V32.3193C14.4385 31.9157 14.484 31.5495 14.5752 31.2207C14.6663 30.8887 14.7998 30.6038 14.9756 30.3662C15.1514 30.1286 15.3678 29.9447 15.625 29.8145C15.8822 29.6842 16.1751 29.6191 16.5039 29.6191C16.8132 29.6191 17.0833 29.6842 17.3145 29.8145C17.5488 29.9447 17.7474 30.1302 17.9102 30.3711C18.0762 30.6087 18.2096 30.8903 18.3105 31.2158C18.4115 31.5381 18.4847 31.8913 18.5303 32.2754V32.5C18.4847 32.8678 18.4115 33.2096 18.3105 33.5254C18.2096 33.8411 18.0762 34.1178 17.9102 34.3555C17.7474 34.5898 17.5488 34.7721 17.3145 34.9023C17.0801 35.0326 16.8066 35.0977 16.4941 35.0977C16.1654 35.0977 15.8724 35.0309 15.6152 34.8975C15.3613 34.764 15.1465 34.5768 14.9707 34.3359C14.7982 34.0951 14.6663 33.8118 14.5752 33.4863C14.484 33.1608 14.4385 32.806 14.4385 32.4219ZM15.8447 32.3193V32.4219C15.8447 32.64 15.861 32.8434 15.8936 33.0322C15.9294 33.221 15.9863 33.3887 16.0645 33.5352C16.1458 33.6784 16.25 33.7907 16.377 33.8721C16.5072 33.9502 16.665 33.9893 16.8506 33.9893C17.0915 33.9893 17.29 33.9355 17.4463 33.8281C17.6025 33.7174 17.7214 33.5661 17.8027 33.374C17.8874 33.182 17.9362 32.9606 17.9492 32.71V32.0703C17.9395 31.8652 17.9102 31.6813 17.8613 31.5186C17.8158 31.3525 17.7474 31.2109 17.6562 31.0938C17.5684 30.9766 17.4577 30.8854 17.3242 30.8203C17.194 30.7552 17.0394 30.7227 16.8604 30.7227C16.6781 30.7227 16.5218 30.765 16.3916 30.8496C16.2614 30.931 16.1556 31.0433 16.0742 31.1865C15.9961 31.3298 15.9375 31.499 15.8984 31.6943C15.8626 31.8864 15.8447 32.0947 15.8447 32.3193ZM22.7246 35.0977C22.3145 35.0977 21.9466 35.0326 21.6211 34.9023C21.2956 34.7689 21.0189 34.585 20.791 34.3506C20.5664 34.1162 20.3939 33.8444 20.2734 33.5352C20.153 33.2227 20.0928 32.8906 20.0928 32.5391V32.3438C20.0928 31.9434 20.1497 31.5771 20.2637 31.2451C20.3776 30.9131 20.5404 30.625 20.752 30.3809C20.9668 30.1367 21.2272 29.9495 21.5332 29.8193C21.8392 29.6859 22.1842 29.6191 22.5684 29.6191C22.9427 29.6191 23.2747 29.681 23.5645 29.8047C23.8542 29.9284 24.0967 30.1042 24.292 30.332C24.4906 30.5599 24.6403 30.8333 24.7412 31.1523C24.8421 31.4681 24.8926 31.8197 24.8926 32.207V32.793H20.6934V31.8555H23.5107V31.748C23.5107 31.5527 23.4749 31.3786 23.4033 31.2256C23.335 31.0693 23.2308 30.9456 23.0908 30.8545C22.9508 30.7633 22.7718 30.7178 22.5537 30.7178C22.3682 30.7178 22.2087 30.7585 22.0752 30.8398C21.9417 30.9212 21.8327 31.0352 21.748 31.1816C21.6667 31.3281 21.6048 31.5007 21.5625 31.6992C21.5234 31.8945 21.5039 32.1094 21.5039 32.3438V32.5391C21.5039 32.7507 21.5332 32.946 21.5918 33.125C21.6536 33.304 21.7399 33.4587 21.8506 33.5889C21.9645 33.7191 22.1012 33.82 22.2607 33.8916C22.4235 33.9632 22.6074 33.999 22.8125 33.999C23.0664 33.999 23.3024 33.9502 23.5205 33.8525C23.7419 33.7516 23.9323 33.6003 24.0918 33.3984L24.7754 34.1406C24.6647 34.3001 24.5133 34.4531 24.3213 34.5996C24.1325 34.7461 23.9046 34.8665 23.6377 34.9609C23.3708 35.0521 23.0664 35.0977 22.7246 35.0977ZM29.6924 33.6328L30.791 29.7168H31.6846L31.3965 31.2549L30.2979 35H29.5508L29.6924 33.6328ZM29.1357 29.7168L29.9219 33.6279L29.9951 35H29.1162L27.7783 29.7168H29.1357ZM32.6904 33.5645L33.457 29.7168H34.8193L33.4814 35H32.6074L32.6904 33.5645ZM31.8066 29.7168L32.9004 33.6035L33.0518 35H32.2998L31.2012 31.2598L30.9229 29.7168H31.8066ZM37.0117 29.7168V35H35.6006V29.7168H37.0117ZM35.5127 28.3398C35.5127 28.1348 35.5843 27.9655 35.7275 27.832C35.8708 27.6986 36.0628 27.6318 36.3037 27.6318C36.5413 27.6318 36.7318 27.6986 36.875 27.832C37.0215 27.9655 37.0947 28.1348 37.0947 28.3398C37.0947 28.5449 37.0215 28.7142 36.875 28.8477C36.7318 28.9811 36.5413 29.0479 36.3037 29.0479C36.0628 29.0479 35.8708 28.9811 35.7275 28.8477C35.5843 28.7142 35.5127 28.5449 35.5127 28.3398ZM40.7617 29.7168V30.7129H37.6855V29.7168H40.7617ZM38.4473 28.4131H39.8535V33.4082C39.8535 33.5612 39.873 33.6784 39.9121 33.7598C39.9544 33.8411 40.0163 33.8981 40.0977 33.9307C40.179 33.96 40.2816 33.9746 40.4053 33.9746C40.4932 33.9746 40.5713 33.9714 40.6396 33.9648C40.7113 33.9551 40.7715 33.9453 40.8203 33.9355L40.8252 34.9707C40.7048 35.0098 40.5745 35.0407 40.4346 35.0635C40.2946 35.0863 40.14 35.0977 39.9707 35.0977C39.6615 35.0977 39.3913 35.0472 39.1602 34.9463C38.9323 34.8421 38.7565 34.6761 38.6328 34.4482C38.5091 34.2204 38.4473 33.9209 38.4473 33.5498V28.4131ZM42.9346 27.5V35H41.5283V27.5H42.9346ZM42.7344 32.1729H42.3486C42.3519 31.805 42.4007 31.4665 42.4951 31.1572C42.5895 30.8447 42.7246 30.5745 42.9004 30.3467C43.0762 30.1156 43.2861 29.9365 43.5303 29.8096C43.7777 29.6826 44.0511 29.6191 44.3506 29.6191C44.611 29.6191 44.847 29.6566 45.0586 29.7314C45.2734 29.8031 45.4574 29.9202 45.6104 30.083C45.7666 30.2425 45.887 30.4525 45.9717 30.7129C46.0563 30.9733 46.0986 31.2891 46.0986 31.6602V35H44.6826V31.6504C44.6826 31.416 44.6484 31.2321 44.5801 31.0986C44.515 30.9619 44.4189 30.8659 44.292 30.8105C44.1683 30.752 44.0153 30.7227 43.833 30.7227C43.6312 30.7227 43.4587 30.7601 43.3154 30.835C43.1755 30.9098 43.0632 31.014 42.9785 31.1475C42.8939 31.2777 42.832 31.4307 42.793 31.6064C42.7539 31.7822 42.7344 31.971 42.7344 32.1729ZM52.5146 32.4658H50.7031V31.3232H52.5146C52.7946 31.3232 53.0225 31.2777 53.1982 31.1865C53.374 31.0921 53.5026 30.9619 53.584 30.7959C53.6654 30.6299 53.7061 30.4427 53.7061 30.2344C53.7061 30.0228 53.6654 29.8258 53.584 29.6436C53.5026 29.4613 53.374 29.3148 53.1982 29.2041C53.0225 29.0934 52.7946 29.0381 52.5146 29.0381H51.2109V35H49.7461V27.8906H52.5146C53.0713 27.8906 53.5482 27.9915 53.9453 28.1934C54.3457 28.3919 54.6517 28.667 54.8633 29.0186C55.0749 29.3701 55.1807 29.7721 55.1807 30.2246C55.1807 30.6836 55.0749 31.0807 54.8633 31.416C54.6517 31.7513 54.3457 32.0101 53.9453 32.1924C53.5482 32.3747 53.0713 32.4658 52.5146 32.4658ZM55.8105 32.4121V32.3096C55.8105 31.9222 55.8659 31.5658 55.9766 31.2402C56.0872 30.9115 56.2484 30.6266 56.46 30.3857C56.6715 30.1449 56.932 29.9577 57.2412 29.8242C57.5505 29.6875 57.9053 29.6191 58.3057 29.6191C58.7061 29.6191 59.0625 29.6875 59.375 29.8242C59.6875 29.9577 59.9495 30.1449 60.1611 30.3857C60.376 30.6266 60.5387 30.9115 60.6494 31.2402C60.7601 31.5658 60.8154 31.9222 60.8154 32.3096V32.4121C60.8154 32.7962 60.7601 33.1527 60.6494 33.4814C60.5387 33.807 60.376 34.0918 60.1611 34.3359C59.9495 34.5768 59.6891 34.764 59.3799 34.8975C59.0706 35.0309 58.7158 35.0977 58.3154 35.0977C57.915 35.0977 57.5586 35.0309 57.2461 34.8975C56.9368 34.764 56.6748 34.5768 56.46 34.3359C56.2484 34.0918 56.0872 33.807 55.9766 33.4814C55.8659 33.1527 55.8105 32.7962 55.8105 32.4121ZM57.2168 32.3096V32.4121C57.2168 32.6335 57.2363 32.8402 57.2754 33.0322C57.3145 33.2243 57.3763 33.3936 57.4609 33.54C57.5488 33.6833 57.6628 33.7956 57.8027 33.877C57.9427 33.9583 58.1136 33.999 58.3154 33.999C58.5107 33.999 58.6784 33.9583 58.8184 33.877C58.9583 33.7956 59.0706 33.6833 59.1553 33.54C59.2399 33.3936 59.3018 33.2243 59.3408 33.0322C59.3831 32.8402 59.4043 32.6335 59.4043 32.4121V32.3096C59.4043 32.0947 59.3831 31.8929 59.3408 31.7041C59.3018 31.512 59.2383 31.3428 59.1504 31.1963C59.0658 31.0465 58.9535 30.9294 58.8135 30.8447C58.6735 30.7601 58.5042 30.7178 58.3057 30.7178C58.1071 30.7178 57.9378 30.7601 57.7979 30.8447C57.6611 30.9294 57.5488 31.0465 57.4609 31.1963C57.3763 31.3428 57.3145 31.512 57.2754 31.7041C57.2363 31.8929 57.2168 32.0947 57.2168 32.3096ZM63.0859 27.4951V35H61.6797V27.4951H63.0859ZM66.416 29.7168L64.1211 32.334L62.8906 33.5791L62.3779 32.5635L63.3545 31.3232L64.7266 29.7168H66.416ZM64.9561 35L63.3936 32.5586L64.3652 31.709L66.5771 35H64.9561ZM69.3555 35.0977C68.9453 35.0977 68.5775 35.0326 68.252 34.9023C67.9264 34.7689 67.6497 34.585 67.4219 34.3506C67.1973 34.1162 67.0247 33.8444 66.9043 33.5352C66.7839 33.2227 66.7236 32.8906 66.7236 32.5391V32.3438C66.7236 31.9434 66.7806 31.5771 66.8945 31.2451C67.0085 30.9131 67.1712 30.625 67.3828 30.3809C67.5977 30.1367 67.8581 29.9495 68.1641 29.8193C68.4701 29.6859 68.8151 29.6191 69.1992 29.6191C69.5736 29.6191 69.9056 29.681 70.1953 29.8047C70.485 29.9284 70.7275 30.1042 70.9229 30.332C71.1214 30.5599 71.2712 30.8333 71.3721 31.1523C71.473 31.4681 71.5234 31.8197 71.5234 32.207V32.793H67.3242V31.8555H70.1416V31.748C70.1416 31.5527 70.1058 31.3786 70.0342 31.2256C69.9658 31.0693 69.8617 30.9456 69.7217 30.8545C69.5817 30.7633 69.4027 30.7178 69.1846 30.7178C68.999 30.7178 68.8395 30.7585 68.7061 30.8398C68.5726 30.9212 68.4635 31.0352 68.3789 31.1816C68.2975 31.3281 68.2357 31.5007 68.1934 31.6992C68.1543 31.8945 68.1348 32.1094 68.1348 32.3438V32.5391C68.1348 32.7507 68.1641 32.946 68.2227 33.125C68.2845 33.304 68.3708 33.4587 68.4814 33.5889C68.5954 33.7191 68.7321 33.82 68.8916 33.8916C69.0544 33.9632 69.2383 33.999 69.4434 33.999C69.6973 33.999 69.9333 33.9502 70.1514 33.8525C70.3727 33.7516 70.5632 33.6003 70.7227 33.3984L71.4062 34.1406C71.2956 34.3001 71.1442 34.4531 70.9521 34.5996C70.7633 34.7461 70.5355 34.8665 70.2686 34.9609C70.0016 35.0521 69.6973 35.0977 69.3555 35.0977ZM73.7305 30.7324V37.0312H72.3242V29.7168H73.6279L73.7305 30.7324ZM77.0752 32.2998V32.4023C77.0752 32.7865 77.0296 33.1429 76.9385 33.4717C76.8506 33.8005 76.7204 34.0869 76.5479 34.3311C76.3753 34.5719 76.1605 34.7607 75.9033 34.8975C75.6494 35.0309 75.3564 35.0977 75.0244 35.0977C74.7021 35.0977 74.4222 35.0326 74.1846 34.9023C73.9469 34.7721 73.7467 34.5898 73.584 34.3555C73.4245 34.1178 73.2959 33.8428 73.1982 33.5303C73.1006 33.2178 73.0257 32.8825 72.9736 32.5244V32.2559C73.0257 31.8717 73.1006 31.5202 73.1982 31.2012C73.2959 30.8789 73.4245 30.6006 73.584 30.3662C73.7467 30.1286 73.9453 29.9447 74.1797 29.8145C74.4173 29.6842 74.6956 29.6191 75.0146 29.6191C75.3499 29.6191 75.6445 29.6826 75.8984 29.8096C76.1556 29.9365 76.3704 30.1188 76.543 30.3564C76.7188 30.5941 76.8506 30.8773 76.9385 31.2061C77.0296 31.5348 77.0752 31.8994 77.0752 32.2998ZM75.6641 32.4023V32.2998C75.6641 32.0752 75.6445 31.8685 75.6055 31.6797C75.5697 31.4876 75.5111 31.32 75.4297 31.1768C75.3516 31.0335 75.2474 30.9229 75.1172 30.8447C74.9902 30.7633 74.8356 30.7227 74.6533 30.7227C74.4613 30.7227 74.2969 30.7536 74.1602 30.8154C74.0267 30.8773 73.9176 30.9668 73.833 31.084C73.7484 31.2012 73.6849 31.3411 73.6426 31.5039C73.6003 31.6667 73.5742 31.8506 73.5645 32.0557V32.7344C73.5807 32.9753 73.6263 33.1917 73.7012 33.3838C73.776 33.5726 73.8916 33.7223 74.0479 33.833C74.2041 33.9437 74.4092 33.999 74.6631 33.999C74.8486 33.999 75.0049 33.9583 75.1318 33.877C75.2588 33.7923 75.3613 33.6768 75.4395 33.5303C75.5208 33.3838 75.5778 33.2145 75.6104 33.0225C75.6462 32.8304 75.6641 32.6237 75.6641 32.4023ZM80.8008 33.8086V31.4551C80.8008 31.2858 80.7731 31.141 80.7178 31.0205C80.6624 30.8968 80.5762 30.8008 80.459 30.7324C80.3451 30.6641 80.1969 30.6299 80.0146 30.6299C79.8584 30.6299 79.7233 30.6576 79.6094 30.7129C79.4954 30.765 79.4076 30.8415 79.3457 30.9424C79.2839 31.04 79.2529 31.1556 79.2529 31.2891H77.8467C77.8467 31.0645 77.8988 30.8512 78.0029 30.6494C78.1071 30.4476 78.2585 30.2702 78.457 30.1172C78.6556 29.9609 78.8916 29.8389 79.165 29.751C79.4417 29.6631 79.751 29.6191 80.0928 29.6191C80.5029 29.6191 80.8675 29.6875 81.1865 29.8242C81.5055 29.9609 81.7562 30.166 81.9385 30.4395C82.124 30.7129 82.2168 31.0547 82.2168 31.4648V33.7256C82.2168 34.0153 82.2347 34.2529 82.2705 34.4385C82.3063 34.6208 82.3584 34.7803 82.4268 34.917V35H81.0059C80.9375 34.8568 80.8854 34.6777 80.8496 34.4629C80.8171 34.2448 80.8008 34.0267 80.8008 33.8086ZM80.9863 31.7822L80.9961 32.5781H80.21C80.0244 32.5781 79.8633 32.5993 79.7266 32.6416C79.5898 32.6839 79.4775 32.7441 79.3896 32.8223C79.3018 32.8971 79.2367 32.985 79.1943 33.0859C79.1553 33.1868 79.1357 33.2975 79.1357 33.418C79.1357 33.5384 79.1634 33.6475 79.2188 33.7451C79.2741 33.8395 79.3538 33.9144 79.458 33.9697C79.5622 34.0218 79.6842 34.0479 79.8242 34.0479C80.0358 34.0479 80.2197 34.0055 80.376 33.9209C80.5322 33.8363 80.6527 33.7321 80.7373 33.6084C80.8252 33.4847 80.8708 33.3675 80.874 33.2568L81.2451 33.8525C81.193 33.986 81.1214 34.1243 81.0303 34.2676C80.9424 34.4108 80.8301 34.5459 80.6934 34.6729C80.5566 34.7965 80.3923 34.8991 80.2002 34.9805C80.0081 35.0586 79.7803 35.0977 79.5166 35.0977C79.1813 35.0977 78.877 35.0309 78.6035 34.8975C78.3333 34.7607 78.1185 34.5736 77.959 34.3359C77.8027 34.0951 77.7246 33.8216 77.7246 33.5156C77.7246 33.2389 77.7767 32.9932 77.8809 32.7783C77.985 32.5635 78.138 32.3828 78.3398 32.2363C78.5449 32.0866 78.8005 31.9743 79.1064 31.8994C79.4124 31.8213 79.7673 31.7822 80.1709 31.7822H80.9863ZM84.79 34.4043L86.1914 29.7168H87.7002L85.5762 35.7959C85.5306 35.9294 85.4688 36.0726 85.3906 36.2256C85.3158 36.3786 85.2132 36.5234 85.083 36.6602C84.9561 36.8001 84.7949 36.9141 84.5996 37.002C84.4076 37.0898 84.1715 37.1338 83.8916 37.1338C83.7581 37.1338 83.6491 37.1257 83.5645 37.1094C83.4798 37.0931 83.3789 37.0703 83.2617 37.041V36.0107C83.2975 36.0107 83.335 36.0107 83.374 36.0107C83.4131 36.014 83.4505 36.0156 83.4863 36.0156C83.6719 36.0156 83.8232 35.9945 83.9404 35.9521C84.0576 35.9098 84.152 35.8447 84.2236 35.7568C84.2952 35.6722 84.3522 35.5615 84.3945 35.4248L84.79 34.4043ZM84.2041 29.7168L85.3516 33.5449L85.5518 35.0342L84.5947 35.1367L82.6953 29.7168H84.2041Z" fill="#BEBEBE"/>
</svg>
