<svg width="40" height="40" viewBox="0 0 40 40" fill="none" xmlns="http://www.w3.org/2000/svg">
<path d="M20 40C31.0457 40 40 31.0457 40 20C40 8.9543 31.0457 0 20 0C8.9543 0 0 8.9543 0 20C0 31.0457 8.9543 40 20 40Z" fill="#E0E0E0"/>
<path d="M20 20.3424C24.0747 20.3424 27.3778 17.0392 27.3778 12.9646C27.3778 8.89004 24.0747 5.58691 20 5.58691C15.9254 5.58691 12.6223 8.89004 12.6223 12.9646C12.6223 17.0392 15.9254 20.3424 20 20.3424Z" fill="#BDBDBD"/>
<path d="M20 39.9997C26.0986 39.9997 31.5613 37.2684 35.2295 32.9606C33.4349 26.3767 27.295 21.5234 20 21.5234C12.705 21.5234 6.56509 26.3729 4.77051 32.9606C8.43868 37.2684 13.8977 39.9997 20 39.9997Z" fill="#BDBDBD"/>
</svg>
