<svg width="140" height="140" viewBox="0 0 140 140" fill="none" xmlns="http://www.w3.org/2000/svg">
<g clip-path="url(#clip0_3261_113785)">
<path d="M63.3335 82.3785C67.662 82.2719 72.765 83.312 76.7477 84.1795C75.5852 86.8344 74.359 88.2996 73.5996 89.2069C73.2993 89.5657 73.0621 89.849 72.8906 90.1223C72.7925 90.2787 72.4938 90.7548 72.6254 91.3231C72.8198 92.1617 73.6696 92.9049 74.4001 93.3205C75.0439 93.687 75.6937 93.8751 76.2915 93.8751C76.5547 93.8751 76.8077 93.8387 77.0458 93.765C77.4094 93.6525 77.8866 93.3592 78.9075 91.9878C79.453 91.2549 80.1127 90.2687 80.8681 89.0566C81.7942 87.5706 82.6442 86.0967 83.0454 85.3917C85.415 85.3587 87.284 84.0774 88.6067 81.5758C89.3552 80.1601 89.7217 78.7455 89.6664 77.4848C89.6381 76.8379 89.5 76.2417 89.2558 75.7127C89.0369 75.2382 88.737 74.8265 88.363 74.4853C88.3224 74.419 88.2715 74.3574 88.2103 74.3028L87.8969 74.0242C84.6643 71.1498 78.6771 65.8255 75.0222 60.27C75.0128 60.1209 75.0017 59.9724 74.9885 59.8246C74.8084 57.8012 74.2903 56.0111 73.4489 54.5039C72.5565 52.9058 71.3412 51.699 69.8365 50.917C68.6171 50.2833 67.2628 49.9619 65.8113 49.9619C64.4519 49.9619 63.0313 50.244 61.589 50.8003C60.1865 51.3413 58.7905 52.131 57.4399 53.1475C54.665 55.236 52.2402 58.1519 50.4278 61.5798C49.2836 63.7439 48.4477 65.9877 47.9434 68.2491C47.4534 70.4466 47.2948 72.5711 47.4723 74.5636C47.6525 76.5871 48.1704 78.3772 49.0119 79.8843C49.9042 81.4824 51.1195 82.6893 52.6241 83.4712C53.8436 84.105 55.1979 84.4263 56.6494 84.4263C58.0088 84.4263 59.4294 84.1443 60.8717 83.5879C61.6973 83.2695 62.5205 82.8648 63.3335 82.3785V82.3785ZM79.5703 88.0539C77.3793 91.5868 76.6545 92.148 76.5314 92.2248C76.2059 92.3111 75.7052 92.1937 75.2145 91.9143C74.6706 91.6049 74.3442 91.2229 74.2471 91.0306C74.3396 90.8618 74.6242 90.5219 74.8581 90.2424C75.7028 89.2333 77.0843 87.5827 78.3729 84.5353C79.0403 84.681 79.6674 84.8158 80.2196 84.9262C80.5813 84.9986 80.9428 85.0742 81.3015 85.1524C80.8754 85.8913 80.2471 86.9625 79.5703 88.0539V88.0539ZM74.5174 66.1391C74.7508 65.0927 74.9088 64.063 74.9913 63.056C78.7465 68.0654 83.8822 72.6324 86.805 75.2313L86.952 75.3621C87.001 75.445 87.0656 75.5206 87.1456 75.5844C87.8312 76.1301 88.0063 76.9572 88.0324 77.555C88.0752 78.5304 87.7728 79.6603 87.1581 80.823C86.0357 82.9458 84.5954 83.879 82.6257 83.761C82.597 83.7592 82.5684 83.7587 82.5399 83.7598C82.5297 83.7602 82.5196 83.761 82.5094 83.7618C81.8643 83.6118 81.204 83.4689 80.5428 83.3367C79.8226 83.1927 78.9616 83.004 78.0502 82.804C74.5142 82.0285 69.8896 81.0142 65.5936 80.7933C68.1294 78.7444 70.3465 75.9983 72.0331 72.8084C73.1773 70.6444 74.0131 68.4005 74.5174 66.1391ZM53.3834 82.035C50.9466 80.7686 49.4258 78.0645 49.1015 74.4211C48.7653 70.6458 49.7507 66.3528 51.8763 62.3326C53.5781 59.1141 55.8439 56.3846 58.4289 54.439C60.8755 52.5975 63.4974 51.5834 65.8113 51.5834C66.9956 51.5834 68.0944 51.8424 69.0772 52.3532C71.5142 53.6197 73.0349 56.3237 73.3593 59.9672C73.3765 60.1592 73.3899 60.3525 73.4002 60.5469C73.4006 60.5634 73.4013 60.5798 73.4027 60.5962C73.5832 64.2149 72.5929 68.2571 70.5845 72.0555C68.8828 75.274 66.6169 78.0037 64.0319 79.9493C61.5852 81.7907 58.9633 82.8048 56.6494 82.8048C55.4651 82.8048 54.3663 82.5458 53.3834 82.035V82.035Z" fill="#E44F09"/>
<path d="M83.0009 76.8086C83.1373 76.8949 83.2897 76.9361 83.4403 76.9361C83.7102 76.9361 83.9742 76.8039 84.1303 76.5618C84.3734 76.1844 84.262 75.6831 83.8814 75.442C83.8264 75.4072 79.0485 72.3601 76.841 69.4053C76.5722 69.0456 76.0601 68.97 75.6971 69.2364C75.3342 69.5029 75.258 70.0107 75.5268 70.3705C77.9168 73.5694 82.7944 76.6778 83.0009 76.8086V76.8086Z" fill="#E44F09"/>
<path d="M65.6245 76.3308C65.8577 76.3308 66.0893 76.2322 66.251 76.0414C66.5415 75.6985 66.4967 75.1871 66.1509 74.8991L64.6448 73.6449C64.9967 73.4784 65.3503 73.2506 65.6981 72.9641C66.4465 72.3476 67.1161 71.5034 67.6347 70.5228C68.2616 69.3372 68.5974 68.0767 68.5803 66.9735C68.577 66.7554 68.5599 66.5465 68.5295 66.3474L70.5569 66.9363C70.6337 66.9585 70.7111 66.9692 70.7872 66.9692C71.141 66.9692 71.4671 66.7398 71.5716 66.3863C71.6986 65.9565 71.4502 65.5062 71.0168 65.3802L67.1285 64.2507C66.8273 64.1097 66.498 64.0381 66.1479 64.0381C65.3737 64.0381 64.54 64.3877 63.737 65.0492C62.9885 65.6658 62.3189 66.51 61.8004 67.4906C61.1735 68.6762 60.8377 69.9366 60.8547 71.0399C60.8637 71.6239 60.9705 72.1429 61.1721 72.5821C61.3909 73.0588 61.7234 73.4346 62.1373 73.6743L65.0989 76.1408C65.2522 76.2684 65.4388 76.3308 65.6245 76.3308V76.3308ZM62.9837 72.2861C62.6844 72.1305 62.4999 71.6554 62.4901 71.015C62.4773 70.1899 62.754 69.1797 63.2489 68.2434C64.1363 66.5652 65.4049 65.6596 66.1479 65.6596C66.2629 65.6596 66.3609 65.6812 66.4476 65.7254C66.4492 65.7262 66.4509 65.727 66.4525 65.7279C66.7511 65.8838 66.9351 66.3586 66.945 66.9983C66.9578 67.8234 66.6811 68.8338 66.1861 69.77C65.2987 71.4481 64.0302 72.3538 63.2871 72.3538C63.1706 72.3538 63.0713 72.3316 62.9837 72.2861V72.2861Z" fill="#E44F09"/>
<path d="M86.6767 44.6259C86.6767 44.1218 86.2631 43.7119 85.755 43.7119C85.2468 43.7119 84.833 44.1218 84.833 44.6259C84.833 45.13 85.2466 45.5398 85.755 45.5398C86.2633 45.5398 86.6767 45.1299 86.6767 44.6259Z" fill="#E44F09"/>
<path d="M81.3652 43.874H72.3947C71.9765 43.874 71.6364 44.2114 71.6364 44.626C71.6364 45.0407 71.9765 45.3779 72.3947 45.3779H81.3652C81.7835 45.3779 82.1237 45.0406 82.1237 44.626C82.1237 44.2114 81.7835 43.874 81.3652 43.874Z" fill="#E44F09"/>
<path d="M78.2923 103.469C77.6382 103.469 77.106 103.996 77.106 104.645C77.106 105.293 77.6382 105.821 78.2923 105.821H80.6576C81.3118 105.821 81.844 105.293 81.844 104.645C81.844 103.996 81.3118 103.469 80.6576 103.469H78.2923Z" fill="#E44F09"/>
<path d="M94.4388 38.082H64.5109C61.4446 38.082 58.95 40.5555 58.95 43.5958V46.3866C58.95 46.8435 59.325 47.2152 59.7859 47.2152C60.2468 47.2152 60.6216 46.8435 60.6216 46.3866V43.5958C60.6216 41.4693 62.3663 39.7393 64.5109 39.7393H94.4388C96.5836 39.7393 98.3285 41.4693 98.3285 43.5958V105.487C98.3285 107.613 96.5836 109.343 94.4388 109.343H64.5109C62.3663 109.343 60.6216 107.613 60.6216 105.487V95.1997C60.6216 94.7427 60.2467 94.371 59.7859 94.371C59.3252 94.371 58.95 94.7427 58.95 95.1997V105.487C58.95 108.527 61.4446 111 64.5109 111H94.4388C97.5052 111 100 108.527 100 105.487V43.5958C100 40.5555 97.5052 38.082 94.4388 38.082Z" fill="#E44F09"/>
<path d="M93.4395 98.646C93.4395 98.1891 93.0646 97.8174 92.6037 97.8174H66.3463C65.8854 97.8174 65.5104 98.1891 65.5104 98.646C65.5104 99.1029 65.8854 99.4746 66.3463 99.4746H92.6037C93.0646 99.4746 93.4395 99.1029 93.4395 98.646Z" fill="#E44F09"/>
<path d="M74.9205 50.1772C74.9205 50.6341 75.2955 51.0058 75.7564 51.0058H93.8061C94.267 51.0058 94.642 50.6341 94.642 50.1772C94.642 49.7203 94.267 49.3486 93.8061 49.3486H75.7564C75.2955 49.3486 74.9205 49.7203 74.9205 50.1772V50.1772Z" fill="#E44F09"/>
<path d="M61.8294 33.6193C62.3014 33.6193 62.684 33.24 62.684 32.7721V26.8473C62.684 26.3793 62.3014 26 61.8294 26C61.3575 26 60.9749 26.3793 60.9749 26.8473V32.7721C60.9749 33.24 61.3575 33.6193 61.8294 33.6193Z" fill="#E44F09"/>
<path d="M47.4019 43.1965H53.378C53.85 43.1965 54.2326 42.8171 54.2326 42.3492C54.2326 41.8813 53.85 41.502 53.378 41.502H47.4019C46.93 41.502 46.5474 41.8813 46.5474 42.3492C46.5474 42.8171 46.93 43.1965 47.4019 43.1965V43.1965Z" fill="#E44F09"/>
<path d="M54.5075 36.3477C54.6744 36.5132 54.8931 36.5959 55.1118 36.5959C55.3305 36.5959 55.5492 36.5132 55.716 36.3477C56.0498 36.0169 56.0498 35.4804 55.716 35.1496L51.4903 30.9601C51.1566 30.6292 50.6155 30.6292 50.2818 30.9601C49.9481 31.2909 49.9481 31.8274 50.2818 32.1583L54.5075 36.3477Z" fill="#E44F09"/>
<path d="M35.263 60.6619L35.492 60.4046L35.7516 60.6316C35.9141 60.7738 36.1157 60.8436 36.3167 60.8436C36.5533 60.8436 36.7889 60.7467 36.9578 60.5569C37.27 60.206 37.2363 59.6706 36.8824 59.361L36.6228 59.134L36.8519 58.8766C37.1641 58.5257 37.1304 57.9903 36.7765 57.6807C36.4226 57.3711 35.8825 57.4046 35.5703 57.7555L35.3412 58.0128L35.0816 57.7857C34.7277 57.4761 34.1877 57.5095 33.8754 57.8605C33.5632 58.2113 33.5969 58.7467 33.9508 59.0563L34.2104 59.2834L33.9814 59.5408C33.6691 59.8917 33.7029 60.4271 34.0568 60.7367C34.2192 60.8788 34.4209 60.9486 34.6218 60.9486C34.8585 60.9486 35.0941 60.8517 35.263 60.6619Z" fill="#E44F09"/>
<path d="M42.1674 72.1593H41.8212V71.816C41.8212 71.3481 41.4386 70.9688 40.9667 70.9688C40.4947 70.9688 40.1121 71.3481 40.1121 71.816V72.1593H39.7659C39.2939 72.1593 38.9113 72.5386 38.9113 73.0065C38.9113 73.4745 39.2939 73.8538 39.7659 73.8538H40.1121V74.197C40.1121 74.6649 40.4947 75.0442 40.9667 75.0442C41.4386 75.0442 41.8212 74.6649 41.8212 74.197V73.8538H42.1674C42.6394 73.8538 43.022 73.4745 43.022 73.0065C43.022 72.5386 42.6394 72.1593 42.1674 72.1593Z" fill="#E44F09"/>
<path d="M38.2658 84.4385L37.9864 84.2359L38.1908 83.9588C38.4694 83.5812 38.3865 83.051 38.0055 82.7748C37.6246 82.4985 37.0899 82.5808 36.8112 82.9585L36.6068 83.2355L36.3274 83.0329C35.9464 82.7566 35.4117 82.8389 35.1331 83.2166C34.8545 83.5943 34.9374 84.1244 35.3184 84.4006L35.5978 84.6032L35.3935 84.8802C35.1148 85.2579 35.1978 85.788 35.5787 86.0643C35.7308 86.1746 35.9074 86.2277 36.0825 86.2277C36.3458 86.2277 36.6056 86.1074 36.773 85.8806L36.9774 85.6036L37.2568 85.8062C37.4089 85.9165 37.5855 85.9696 37.7606 85.9696C38.0239 85.9696 38.2837 85.8494 38.4511 85.6225C38.7297 85.2448 38.6468 84.7147 38.2658 84.4385V84.4385Z" fill="#E44F09"/>
<path d="M34.5661 43.8488C35.0225 43.5615 35.3388 43.1152 35.4566 42.5922C35.5744 42.0691 35.4798 41.5318 35.19 41.0793C34.9003 40.6268 34.4502 40.3133 33.9226 40.1964C33.3949 40.0796 32.8531 40.1735 32.3967 40.4607C31.9982 40.7115 31.8803 41.235 32.1332 41.6301C32.3862 42.0251 32.9142 42.1421 33.3127 41.8913C33.4592 41.7991 33.6541 41.8423 33.7471 41.9875C33.8079 42.0825 33.7992 42.1757 33.7885 42.2228C33.7779 42.2699 33.7458 42.3579 33.6501 42.4182C33.2516 42.669 33.1337 43.1925 33.3866 43.5876C33.5494 43.8418 33.8261 43.9809 34.1089 43.9808C34.2655 43.9808 34.4241 43.9382 34.5661 43.8488V43.8488Z" fill="#E44F09"/>
<path d="M48.2565 53.9704C48.2565 52.864 47.3486 51.9639 46.2326 51.9639C45.1166 51.9639 44.2087 52.864 44.2087 53.9704C44.2087 54.4383 44.5913 54.8177 45.0633 54.8177C45.5353 54.8177 45.9179 54.4383 45.9179 53.9704C45.9179 53.7983 46.0591 53.6584 46.2326 53.6584C46.4062 53.6584 46.5474 53.7983 46.5474 53.9704C46.5474 54.4383 46.93 54.8177 47.4019 54.8177C47.8739 54.8177 48.2565 54.4383 48.2565 53.9704V53.9704Z" fill="#E44F09"/>
<path d="M49.5205 90.838C48.9892 90.7387 48.4508 90.8506 48.0043 91.1529C47.5579 91.4552 47.257 91.9118 47.1569 92.4384C47.0568 92.9651 47.1696 93.499 47.4746 93.9415C47.7795 94.3841 48.24 94.6825 48.7712 94.7817C48.8247 94.7916 48.8779 94.7964 48.9303 94.7964C49.3332 94.7964 49.6919 94.5127 49.7692 94.1058C49.8565 93.646 49.5513 93.203 49.0875 93.1164C48.9761 93.0957 48.9134 93.0257 48.8859 92.9858C48.8584 92.946 48.8155 92.8626 48.8365 92.7521C48.8575 92.6416 48.9281 92.5794 48.9683 92.5521C49.0085 92.5249 49.0925 92.4824 49.204 92.5032C49.6678 92.5898 50.1147 92.2873 50.2021 91.8275C50.2894 91.3676 49.9843 90.9246 49.5205 90.838V90.838Z" fill="#E44F09"/>
</g>
<defs>
<clipPath id="clip0_3261_113785">
<rect width="68" height="85" fill="white" transform="translate(32 26)"/>
</clipPath>
</defs>
</svg>
