<svg width="206" height="38" viewBox="0 0 206 38" fill="none" xmlns="http://www.w3.org/2000/svg">
<g clip-path="url(#clip0_9052_72477)">
<path d="M53.3159 15.749L45.0353 6.64639C44.8173 6.42966 44.3815 6.42966 44.091 6.64639L35.3745 15.749C34.9386 16.1825 35.2292 16.8327 35.8103 16.8327H40.7496C39.6601 24.9962 32.5416 31.3536 23.9704 31.3536C14.6001 31.3536 6.9732 23.7681 6.9732 14.4487V7.80228C6.9732 7.0076 7.62694 6.42966 8.35331 6.42966H34.6481C34.866 6.42966 35.0113 6.35741 35.1566 6.21293L40.3865 1.22814C40.8949 0.722434 40.5317 0 39.9506 0H2.83286C1.23484 0 0 1.22814 0 2.81749V14.2319C0 27.308 10.7504 38.0722 23.9704 38.0722C36.2461 38.0722 46.4154 28.7529 47.7955 16.9049H52.8801C53.4612 16.8327 53.6791 16.1825 53.3159 15.749Z" fill="#222222"/>
<path d="M118.617 6.42966H113.459C113.314 6.42966 113.169 6.5019 113.096 6.57415L106.631 13.076V0.65019C106.631 0.288973 106.341 0 105.978 0H102.999C102.636 0 102.346 0.288973 102.346 0.65019V24.4183C102.346 24.7795 102.636 25.0684 102.999 25.0684H105.978C106.341 25.0684 106.631 24.7795 106.631 24.4183V19.0722L118.834 6.86312C118.98 6.71863 118.834 6.42966 118.617 6.42966Z" fill="#222222"/>
<path d="M90.0705 6.42972C95.5183 6.42972 99.9492 10.6198 99.9492 15.7491C99.9492 20.9506 95.5183 25.0685 90.0705 25.0685C84.55 25.0685 80.1191 20.8784 80.1191 15.7491C80.1191 10.6198 84.55 6.42972 90.0705 6.42972ZM90.0705 21.3118C93.3392 21.3118 95.6636 18.7833 95.6636 15.7491C95.6636 12.7871 93.2665 10.1864 90.0705 10.1864C86.8018 10.1864 84.4047 12.7149 84.4047 15.7491C84.4047 18.7111 86.8018 21.3118 90.0705 21.3118Z" fill="#222222"/>
<path d="M138.156 19.4334C138.374 19.6502 138.374 19.9391 138.229 20.2281C136.558 23.2623 132.781 25.1407 129.875 25.1407C123.919 25.1407 119.488 20.9505 119.488 15.8213C119.488 10.6197 123.919 6.50188 129.44 6.50188C132.708 6.50188 135.541 7.94675 137.357 10.2585C137.43 10.3308 137.502 10.4753 137.502 10.6197C137.502 10.7642 137.43 10.8365 137.357 10.9087L127.696 20.6616C127.551 20.8061 127.624 21.0228 127.842 21.095C128.423 21.2395 129.076 21.3118 129.73 21.3118C132.272 21.4563 134.379 19.1445 135.614 17.9163C135.832 17.6274 136.268 17.6274 136.558 17.9163L138.156 19.4334ZM131.837 11.1977C131.982 11.0532 131.909 10.8365 131.764 10.7642C131.038 10.403 130.384 10.2585 129.512 10.2585C126.171 10.2585 123.847 12.8593 123.847 15.8213C123.847 16.7604 124.064 17.6274 124.5 18.3498C124.573 18.4943 124.791 18.4943 124.936 18.422L131.837 11.1977Z" fill="#222222"/>
<path d="M206 15.2434V14.7377V7.00765C206 6.64644 205.71 6.35746 205.347 6.35746H202.368C202.005 6.35746 201.715 6.64644 201.715 7.00765V14.7377V15.2434C201.497 18.4943 199.608 20.4449 196.63 20.4449C193.652 20.4449 191.763 18.4943 191.545 15.2434V7.00765C191.545 6.64644 191.255 6.35746 190.892 6.35746H187.914C187.55 6.35746 187.26 6.64644 187.26 7.00765V15.2434C187.26 20.7339 191.473 25.1407 196.63 25.1407C198.446 25.1407 200.189 24.5628 201.569 23.6236C201.134 26.2966 199.463 27.886 196.848 28.0305C196.775 28.0305 196.703 28.0305 196.63 28.1027C196.557 28.175 196.557 28.3194 196.557 28.3194V32.2928C196.557 32.2928 196.557 32.4373 196.63 32.5096C196.703 32.5818 196.703 32.5818 196.775 32.5818C201.86 32.4373 205.928 28.1027 205.928 22.6845V15.2434H206Z" fill="#222222"/>
<path d="M68.0613 6.42972C62.7588 6.42972 58.4732 10.2586 58.1826 15.1712V15.6769C58.1826 15.6769 58.1826 27.8137 58.1826 30.7035C58.1826 31.0647 58.4732 31.3537 58.8364 31.3537H61.7419C62.105 31.3537 62.3956 31.0647 62.3956 30.7035V25.7909C62.3956 25.4297 62.6861 25.1407 63.0493 25.1407H68.0613L68.7877 25.0685C73.945 24.7073 78.0127 20.7339 78.0127 15.7491C78.0127 10.6198 73.5818 6.42972 68.0613 6.42972ZM68.2066 21.3118H62.9767C62.6135 21.3118 62.323 21.0229 62.323 20.6617C62.323 19.2168 62.323 15.9658 62.323 15.7491C62.323 12.7871 64.72 10.2586 68.0613 10.2586C71.33 10.2586 73.6544 12.7871 73.6544 15.8213C73.7271 18.7111 71.4026 21.2396 68.2066 21.3118Z" fill="#222222"/>
<path d="M153.047 6.42972C147.744 6.42972 143.459 10.2586 143.168 15.1712V15.6769C143.168 15.6769 143.168 27.8137 143.168 30.7035C143.168 31.0647 143.459 31.3537 143.822 31.3537H146.727C147.09 31.3537 147.381 31.0647 147.381 30.7035V25.7909C147.381 25.4297 147.671 25.1407 148.035 25.1407H153.047L153.773 25.0685C158.93 24.7073 162.998 20.7339 162.998 15.7491C162.925 10.6198 158.494 6.42972 153.047 6.42972ZM153.192 21.3118H147.962C147.599 21.3118 147.308 21.0229 147.308 20.6617C147.308 19.2168 147.308 15.9658 147.308 15.7491C147.308 12.7871 149.705 10.2586 153.047 10.2586C156.315 10.2586 158.64 12.7871 158.64 15.8213C158.712 18.7111 156.388 21.2396 153.192 21.3118Z" fill="#222222"/>
<path d="M111.935 16.616L109.828 18.711C109.611 18.9278 109.611 19.3612 109.828 19.6502L114.986 24.924C115.058 24.9962 115.204 25.0685 115.349 25.0685H120.216C120.579 25.0685 120.724 24.635 120.506 24.4183L112.879 16.616C112.589 16.3993 112.153 16.3993 111.935 16.616Z" fill="#222222"/>
<path d="M184.645 15.7491V7.00765C184.645 6.64644 184.354 6.35746 183.991 6.35746H181.086C180.722 6.35746 180.432 6.64644 180.432 7.00765V8.16355C178.834 7.0799 176.873 6.42971 174.694 6.42971C169.173 6.42971 164.742 10.6198 164.742 15.7491C164.742 20.9506 169.173 25.0685 174.694 25.0685C176.8 25.0685 178.761 24.4183 180.432 23.3346V24.2738C180.432 24.635 180.722 24.924 181.086 24.924H183.991C184.354 24.924 184.645 24.635 184.645 24.2738V15.7491C184.645 15.8213 184.645 15.7491 184.645 15.7491ZM174.766 21.3118C171.497 21.3118 169.1 18.7833 169.1 15.7491C169.1 12.7871 171.497 10.1864 174.766 10.1864C178.035 10.1864 180.359 12.7149 180.359 15.7491C180.359 18.7111 178.035 21.3118 174.766 21.3118Z" fill="#222222"/>
</g>
<defs>
<clipPath id="clip0_9052_72477">
<rect width="206" height="38" fill="white"/>
</clipPath>
</defs>
</svg>
