<svg width="98" height="71" viewBox="0 0 98 71" fill="none" xmlns="http://www.w3.org/2000/svg">
<path d="M97.6747 29.37L82.5045 12.3947C82.1053 11.9905 81.3069 11.9905 80.7746 12.3947L64.806 29.37C64.0075 30.1784 64.5398 31.3909 65.6044 31.3909H74.6533C72.6572 46.6148 59.6162 58.4706 43.9137 58.4706C26.7474 58.4706 12.7749 44.3245 12.7749 26.945V14.5503C12.7749 13.0683 13.9725 11.9905 15.3033 11.9905H63.4753C63.8745 11.9905 64.1406 11.8558 64.4068 11.5863L73.9879 2.29032C74.9194 1.34725 74.2541 0 73.1895 0H5.1898C2.26222 0 0 2.29032 0 5.25427V26.5408C0 50.926 19.6946 71 43.9137 71C66.4028 71 85.0329 53.6205 87.5613 31.5256H96.8763C97.9409 31.3909 98.3401 30.1784 97.6747 29.37Z" fill="#EFEFEF"/>
</svg>
